<svg width="122" height="45" viewBox="0 0 122 45" fill="none" xmlns="http://www.w3.org/2000/svg">
    <path d="M1 6.79239C1 3.12438 3.97351 0.150879 7.64151 0.150879H115.26C118.928 0.150879 121.902 3.12438 121.902 6.79239V37.5094C121.902 41.1774 118.928 44.1509 115.26 44.1509H7.64151C3.9735 44.1509 1 41.1774 1 37.5094V6.79239Z" fill="#242836"/>
    <path d="M28.7125 22.8179C28.7364 20.9589 29.7308 19.1999 31.3085 18.2262C30.3132 16.7993 28.6462 15.8946 26.9119 15.8401C25.062 15.6452 23.2687 16.9513 22.3261 16.9513C21.3652 16.9513 19.9139 15.8594 18.351 15.8917C16.3139 15.9578 14.4148 17.1205 13.4237 18.9084C11.2932 22.6114 12.8824 28.0535 14.9232 31.0467C15.9442 32.5124 17.1376 34.1496 18.699 34.0915C20.227 34.0279 20.7976 33.1134 22.642 33.1134C24.4693 33.1134 25.0047 34.0915 26.5978 34.0546C28.2374 34.0279 29.2704 32.5824 30.2556 31.1029C30.9893 30.0585 31.5538 28.9043 31.9283 27.6829C30.0015 26.8648 28.7148 24.9182 28.7125 22.8179Z" fill="white"/>
    <path d="M25.7034 13.8716C26.5973 12.7943 27.0377 11.4095 26.9311 10.0114C25.5653 10.1554 24.3037 10.8107 23.3977 11.8467C22.5117 12.859 22.0506 14.2194 22.1378 15.564C23.504 15.5782 24.8472 14.9406 25.7034 13.8716Z" fill="white"/>
    <path d="M83.2107 20.8979V23.1506H81.8042V24.6279H83.2107V29.6475C83.2107 31.3615 83.9831 32.0471 85.9262 32.0471C86.2676 32.0471 86.5928 32.0063 86.8774 31.9573V30.4963C86.6335 30.5208 86.479 30.5371 86.2107 30.5371C85.3408 30.5371 84.9587 30.129 84.9587 29.1986V24.6279H86.8774V23.1506H84.9587V20.8979H83.2107Z" fill="white"/>
    <path d="M91.8274 32.1695C94.4128 32.1695 95.9982 30.431 95.9982 27.5499C95.9982 24.685 94.4047 22.9384 91.8274 22.9384C89.242 22.9384 87.6485 24.685 87.6485 27.5499C87.6485 30.431 89.2339 32.1695 91.8274 32.1695ZM91.8274 30.6106C90.307 30.6106 89.4534 29.4924 89.4534 27.5499C89.4534 25.6237 90.307 24.4973 91.8274 24.4973C93.3396 24.4973 94.2014 25.6237 94.2014 27.5499C94.2014 29.4842 93.3396 30.6106 91.8274 30.6106Z" fill="white"/>
    <path d="M97.3546 31.9981H99.1026V26.75C99.1026 25.5012 100.038 24.6605 101.363 24.6605C101.672 24.6605 102.192 24.7177 102.338 24.7667V23.0363C102.151 22.9874 101.818 22.9629 101.558 22.9629C100.403 22.9629 99.4197 23.5995 99.1676 24.4728H99.0376V23.1098H97.3546V31.9981Z" fill="white"/>
    <path d="M106.679 24.432C107.971 24.432 108.817 25.338 108.858 26.7337H104.386C104.483 25.3461 105.386 24.432 106.679 24.432ZM108.849 29.5985C108.524 30.2923 107.801 30.6759 106.744 30.6759C105.345 30.6759 104.443 29.6883 104.386 28.1294V28.0314H110.638V27.4193C110.638 24.6279 109.15 22.9384 106.687 22.9384C104.191 22.9384 102.605 24.7422 102.605 27.5825C102.605 30.4229 104.158 32.1695 106.695 32.1695C108.719 32.1695 110.134 31.1901 110.532 29.5985H108.849Z" fill="white"/>
    <path d="M71.7476 28.7158C71.8825 30.8984 73.6942 32.2942 76.3907 32.2942C79.2727 32.2942 81.076 30.8307 81.076 28.4958C81.076 26.6601 80.0479 25.645 77.5536 25.0612L76.2138 24.7313C74.6296 24.3591 73.9891 23.86 73.9891 22.9887C73.9891 21.8889 74.9835 21.1698 76.475 21.1698C77.8907 21.1698 78.8682 21.872 79.0452 22.9971H80.8822C80.7726 20.9414 78.9693 19.4948 76.5003 19.4948C73.8459 19.4948 72.0763 20.9414 72.0763 23.1155C72.0763 24.909 73.0791 25.9749 75.2784 26.4909L76.8458 26.8716C78.4553 27.2523 79.1631 27.8106 79.1631 28.7412C79.1631 29.824 78.0508 30.6107 76.534 30.6107C74.9076 30.6107 73.7785 29.8748 73.6184 28.7158H71.7476Z" fill="white"/>
    <path d="M53.6403 22.9629C52.437 22.9629 51.3963 23.5669 50.8597 24.5789H50.7297V23.1098H49.0467V34.9527H50.7947V30.6514H50.9329C51.3963 31.59 52.3963 32.145 53.6565 32.145C55.8923 32.145 57.3151 30.3739 57.3151 27.5499C57.3151 24.7258 55.8923 22.9629 53.6403 22.9629ZM53.1443 30.5698C51.6809 30.5698 50.7622 29.4108 50.7622 27.558C50.7622 25.6971 51.6809 24.5381 53.1525 24.5381C54.6321 24.5381 55.5183 25.6726 55.5183 27.5499C55.5183 29.4353 54.6321 30.5698 53.1443 30.5698Z" fill="white"/>
    <path d="M63.4316 22.9629C62.2283 22.9629 61.1877 23.5669 60.6511 24.5789H60.521V23.1098H58.838V34.9527H60.586V30.6514H60.7243C61.1877 31.59 62.1877 32.145 63.4479 32.145C65.6837 32.145 67.1064 30.3739 67.1064 27.5499C67.1064 24.7258 65.6837 22.9629 63.4316 22.9629ZM62.9357 30.5698C61.4722 30.5698 60.5535 29.4108 60.5535 27.558C60.5535 25.6971 61.4722 24.5381 62.9438 24.5381C64.4235 24.5381 65.3097 25.6726 65.3097 27.5499C65.3097 29.4353 64.4235 30.5698 62.9357 30.5698Z" fill="white"/>
    <path d="M45.9105 31.9981H47.9161L43.5258 19.7909H41.4949L37.1046 31.9981H39.0428L40.1635 28.7581H44.7982L45.9105 31.9981ZM42.4134 22.0073H42.5567L44.3179 27.1677H40.6438L42.4134 22.0073Z" fill="white"/>
    <path d="M37.0561 11.1807V16.0059H38.7915C40.2238 16.0059 41.0532 15.1198 41.0532 13.5783C41.0532 12.0602 40.2171 11.1807 38.7915 11.1807H37.0561ZM37.8022 11.8629H38.7082C39.7042 11.8629 40.2937 12.4982 40.2937 13.5883C40.2937 14.6951 39.7142 15.3238 38.7082 15.3238H37.8022V11.8629Z" fill="white"/>
    <path d="M43.5933 16.0762C44.6525 16.0762 45.302 15.3639 45.302 14.1835C45.302 13.0098 44.6492 12.2942 43.5933 12.2942C42.5341 12.2942 41.8812 13.0098 41.8812 14.1835C41.8812 15.3639 42.5307 16.0762 43.5933 16.0762ZM43.5933 15.4375C42.9704 15.4375 42.6207 14.9794 42.6207 14.1835C42.6207 13.3944 42.9704 12.9329 43.5933 12.9329C44.2128 12.9329 44.5659 13.3944 44.5659 14.1835C44.5659 14.976 44.2128 15.4375 43.5933 15.4375Z" fill="white"/>
    <path d="M50.8332 12.3645H50.1171L49.4709 15.1432H49.4143L48.6682 12.3645H47.982L47.2359 15.1432H47.1826L46.5331 12.3645H45.807L46.8062 16.0059H47.5423L48.2884 13.3242H48.3451L49.0945 16.0059H49.8373L50.8332 12.3645Z" fill="white"/>
    <path d="M51.6579 16.0059H52.3741V13.8759C52.3741 13.3074 52.7105 12.953 53.2401 12.953C53.7697 12.953 54.0229 13.2439 54.0229 13.8291V16.0059H54.739V13.6485C54.739 12.7825 54.2927 12.2942 53.4833 12.2942C52.937 12.2942 52.5773 12.5384 52.4007 12.943H52.3474V12.3645H51.6579V16.0059Z" fill="white"/>
    <path d="M55.8668 16.0059H56.583V10.9433H55.8668V16.0059Z" fill="white"/>
    <path d="M59.2763 16.0762C60.3355 16.0762 60.985 15.3639 60.985 14.1835C60.985 13.0098 60.3322 12.2942 59.2763 12.2942C58.2171 12.2942 57.5642 13.0098 57.5642 14.1835C57.5642 15.3639 58.2137 16.0762 59.2763 16.0762ZM59.2763 15.4375C58.6534 15.4375 58.3037 14.9794 58.3037 14.1835C58.3037 13.3944 58.6534 12.9329 59.2763 12.9329C59.8958 12.9329 60.2489 13.3944 60.2489 14.1835C60.2489 14.976 59.8958 15.4375 59.2763 15.4375Z" fill="white"/>
    <path d="M63.1188 15.4609C62.729 15.4609 62.4459 15.2703 62.4459 14.9426C62.4459 14.6216 62.6724 14.451 63.172 14.4176L64.0581 14.3608V14.665C64.0581 15.1165 63.6584 15.4609 63.1188 15.4609ZM62.9356 16.0661C63.4119 16.0661 63.8082 15.8588 64.0247 15.4943H64.0814V16.0059H64.7709V13.5181C64.7709 12.749 64.2579 12.2942 63.3486 12.2942C62.5259 12.2942 61.9396 12.6955 61.8664 13.3208H62.5592C62.6391 13.0633 62.9156 12.9162 63.3153 12.9162C63.8049 12.9162 64.0581 13.1336 64.0581 13.5181V13.8324L63.0755 13.8893C62.2128 13.9428 61.7265 14.3206 61.7265 14.976C61.7265 15.6414 62.2361 16.0661 62.9356 16.0661Z" fill="white"/>
    <path d="M67.201 16.0661C67.7007 16.0661 68.1237 15.8287 68.3402 15.4308H68.3968V16.0059H69.083V10.9433H68.3669V12.943H68.3136C68.117 12.5417 67.6973 12.3043 67.201 12.3043C66.2851 12.3043 65.6955 13.0332 65.6955 14.1835C65.6955 15.3372 66.2784 16.0661 67.201 16.0661ZM67.4042 12.9496C68.0038 12.9496 68.3802 13.4278 68.3802 14.1869C68.3802 14.9493 68.0071 15.4208 67.4042 15.4208C66.798 15.4208 66.435 14.956 66.435 14.1835C66.435 13.4178 66.8013 12.9496 67.4042 12.9496Z" fill="white"/>
    <path d="M73.7269 16.0762C74.7861 16.0762 75.4356 15.3639 75.4356 14.1835C75.4356 13.0098 74.7827 12.2942 73.7269 12.2942C72.6676 12.2942 72.0148 13.0098 72.0148 14.1835C72.0148 15.3639 72.6643 16.0762 73.7269 16.0762ZM73.7269 15.4375C73.104 15.4375 72.7543 14.9794 72.7543 14.1835C72.7543 13.3944 73.104 12.9329 73.7269 12.9329C74.3464 12.9329 74.6995 13.3944 74.6995 14.1835C74.6995 14.976 74.3464 15.4375 73.7269 15.4375Z" fill="white"/>
    <path d="M76.3836 16.0059H77.0997V13.8759C77.0997 13.3074 77.4361 12.953 77.9657 12.953C78.4953 12.953 78.7485 13.2439 78.7485 13.8291V16.0059H79.4646V13.6485C79.4646 12.7825 79.0183 12.2942 78.2089 12.2942C77.6626 12.2942 77.3029 12.5384 77.1263 12.943H77.073V12.3645H76.3836V16.0059Z" fill="white"/>
    <path d="M82.7628 11.4583V12.3812H82.1866V12.9864H82.7628V15.0429C82.7628 15.7451 83.0792 16.026 83.8753 16.026C84.0152 16.026 84.1484 16.0093 84.265 15.9892V15.3907C84.1651 15.4007 84.1018 15.4074 83.9919 15.4074C83.6355 15.4074 83.4789 15.2402 83.4789 14.859V12.9864H84.265V12.3812H83.4789V11.4583H82.7628Z" fill="white"/>
    <path d="M85.2263 16.0059H85.9424V13.8792C85.9424 13.3275 86.2689 12.9563 86.8551 12.9563C87.3614 12.9563 87.6312 13.2506 87.6312 13.8324V16.0059H88.3473V13.6552C88.3473 12.7891 87.871 12.2976 87.0982 12.2976C86.552 12.2976 86.1689 12.5417 85.9924 12.9496H85.9358V10.9433H85.2263V16.0059Z" fill="white"/>
    <path d="M90.9307 12.9062C91.4603 12.9062 91.8068 13.2773 91.8234 13.8491H89.9914C90.0314 13.2807 90.4011 12.9062 90.9307 12.9062ZM91.8201 15.0228C91.6868 15.3071 91.3904 15.4642 90.9574 15.4642C90.3845 15.4642 90.0147 15.0596 89.9914 14.4209V14.3808H92.5529V14.13C92.5529 12.9864 91.9433 12.2942 90.9341 12.2942C89.9115 12.2942 89.262 13.0332 89.262 14.1969C89.262 15.3606 89.8982 16.0762 90.9374 16.0762C91.7668 16.0762 92.3463 15.6749 92.5096 15.0228H91.8201Z" fill="white"/>
    <path d="M1 6.79239C1 3.12438 3.97351 0.150879 7.64151 0.150879H115.26C118.928 0.150879 121.902 3.12438 121.902 6.79239V37.5094C121.902 41.1774 118.928 44.1509 115.26 44.1509H7.64151C3.9735 44.1509 1 41.1774 1 37.5094V6.79239Z" stroke="white" stroke-width="0.204511" stroke-miterlimit="10"/>
    <path d="M28.7125 22.8179C28.7364 20.9589 29.7308 19.1999 31.3085 18.2262C30.3132 16.7993 28.6462 15.8946 26.9119 15.8401C25.062 15.6452 23.2687 16.9513 22.3261 16.9513C21.3652 16.9513 19.9139 15.8594 18.351 15.8917C16.3139 15.9578 14.4148 17.1205 13.4237 18.9084C11.2932 22.6114 12.8824 28.0535 14.9232 31.0467C15.9442 32.5124 17.1376 34.1496 18.699 34.0915C20.227 34.0279 20.7976 33.1134 22.642 33.1134C24.4693 33.1134 25.0047 34.0915 26.5978 34.0546C28.2374 34.0279 29.2704 32.5824 30.2556 31.1029C30.9893 30.0585 31.5538 28.9043 31.9283 27.6829C30.0015 26.8648 28.7148 24.9182 28.7125 22.8179Z" stroke="white" stroke-width="0.204511" stroke-miterlimit="10"/>
    <path d="M25.7034 13.8716C26.5973 12.7943 27.0377 11.4095 26.9311 10.0114C25.5653 10.1554 24.3037 10.8107 23.3977 11.8467C22.5117 12.859 22.0506 14.2194 22.1378 15.564C23.504 15.5782 24.8472 14.9406 25.7034 13.8716Z" stroke="white" stroke-width="0.204511" stroke-miterlimit="10"/>
    <path d="M83.2107 20.8979V23.1506H81.8042V24.6279H83.2107V29.6475C83.2107 31.3615 83.9831 32.0471 85.9262 32.0471C86.2676 32.0471 86.5928 32.0063 86.8774 31.9573V30.4963C86.6335 30.5208 86.479 30.5371 86.2107 30.5371C85.3408 30.5371 84.9587 30.129 84.9587 29.1986V24.6279H86.8774V23.1506H84.9587V20.8979H83.2107Z" stroke="white" stroke-width="0.204511" stroke-miterlimit="10"/>
    <path d="M91.8274 32.1695C94.4128 32.1695 95.9982 30.431 95.9982 27.5499C95.9982 24.685 94.4047 22.9384 91.8274 22.9384C89.242 22.9384 87.6485 24.685 87.6485 27.5499C87.6485 30.431 89.2339 32.1695 91.8274 32.1695ZM91.8274 30.6106C90.307 30.6106 89.4534 29.4924 89.4534 27.5499C89.4534 25.6237 90.307 24.4973 91.8274 24.4973C93.3396 24.4973 94.2014 25.6237 94.2014 27.5499C94.2014 29.4842 93.3396 30.6106 91.8274 30.6106Z" stroke="white" stroke-width="0.204511" stroke-miterlimit="10"/>
    <path d="M97.3546 31.9981H99.1026V26.75C99.1026 25.5012 100.038 24.6605 101.363 24.6605C101.672 24.6605 102.192 24.7177 102.338 24.7667V23.0363C102.151 22.9874 101.818 22.9629 101.558 22.9629C100.403 22.9629 99.4197 23.5995 99.1676 24.4728H99.0376V23.1098H97.3546V31.9981Z" stroke="white" stroke-width="0.204511" stroke-miterlimit="10"/>
    <path d="M106.679 24.432C107.971 24.432 108.817 25.338 108.858 26.7337H104.386C104.483 25.3461 105.386 24.432 106.679 24.432ZM108.849 29.5985C108.524 30.2923 107.801 30.6759 106.744 30.6759C105.345 30.6759 104.443 29.6883 104.386 28.1294V28.0314H110.638V27.4193C110.638 24.6279 109.15 22.9384 106.687 22.9384C104.191 22.9384 102.605 24.7422 102.605 27.5825C102.605 30.4229 104.158 32.1695 106.695 32.1695C108.719 32.1695 110.134 31.1901 110.532 29.5985H108.849Z" stroke="white" stroke-width="0.204511" stroke-miterlimit="10"/>
    <path d="M71.7476 28.7158C71.8825 30.8984 73.6942 32.2942 76.3907 32.2942C79.2727 32.2942 81.076 30.8307 81.076 28.4958C81.076 26.6601 80.0479 25.645 77.5536 25.0612L76.2138 24.7313C74.6296 24.3591 73.9891 23.86 73.9891 22.9887C73.9891 21.8889 74.9835 21.1698 76.475 21.1698C77.8907 21.1698 78.8682 21.872 79.0452 22.9971H80.8822C80.7726 20.9414 78.9693 19.4948 76.5003 19.4948C73.8459 19.4948 72.0763 20.9414 72.0763 23.1155C72.0763 24.909 73.0791 25.9749 75.2784 26.4909L76.8458 26.8716C78.4553 27.2523 79.1631 27.8106 79.1631 28.7412C79.1631 29.824 78.0508 30.6107 76.534 30.6107C74.9076 30.6107 73.7785 29.8748 73.6184 28.7158H71.7476Z" stroke="white" stroke-width="0.204511" stroke-miterlimit="10"/>
    <path d="M53.6403 22.9629C52.437 22.9629 51.3963 23.5669 50.8597 24.5789H50.7297V23.1098H49.0467V34.9527H50.7947V30.6514H50.9329C51.3963 31.59 52.3963 32.145 53.6565 32.145C55.8923 32.145 57.3151 30.3739 57.3151 27.5499C57.3151 24.7258 55.8923 22.9629 53.6403 22.9629ZM53.1443 30.5698C51.6809 30.5698 50.7622 29.4108 50.7622 27.558C50.7622 25.6971 51.6809 24.5381 53.1525 24.5381C54.6321 24.5381 55.5183 25.6726 55.5183 27.5499C55.5183 29.4353 54.6321 30.5698 53.1443 30.5698Z" stroke="white" stroke-width="0.204511" stroke-miterlimit="10"/>
    <path d="M63.4316 22.9629C62.2283 22.9629 61.1877 23.5669 60.6511 24.5789H60.521V23.1098H58.838V34.9527H60.586V30.6514H60.7243C61.1877 31.59 62.1877 32.145 63.4479 32.145C65.6837 32.145 67.1064 30.3739 67.1064 27.5499C67.1064 24.7258 65.6837 22.9629 63.4316 22.9629ZM62.9357 30.5698C61.4722 30.5698 60.5535 29.4108 60.5535 27.558C60.5535 25.6971 61.4722 24.5381 62.9438 24.5381C64.4235 24.5381 65.3097 25.6726 65.3097 27.5499C65.3097 29.4353 64.4235 30.5698 62.9357 30.5698Z" stroke="white" stroke-width="0.204511" stroke-miterlimit="10"/>
    <path d="M45.9105 31.9981H47.9161L43.5258 19.7909H41.4949L37.1046 31.9981H39.0428L40.1635 28.7581H44.7982L45.9105 31.9981ZM42.4134 22.0073H42.5567L44.3179 27.1677H40.6438L42.4134 22.0073Z" stroke="white" stroke-width="0.204511" stroke-miterlimit="10"/>
    <path d="M37.0561 11.1807V16.0059H38.7915C40.2238 16.0059 41.0532 15.1198 41.0532 13.5783C41.0532 12.0602 40.2171 11.1807 38.7915 11.1807H37.0561ZM37.8022 11.8629H38.7082C39.7042 11.8629 40.2937 12.4982 40.2937 13.5883C40.2937 14.6951 39.7142 15.3238 38.7082 15.3238H37.8022V11.8629Z" stroke="white" stroke-width="0.204511" stroke-miterlimit="10"/>
    <path d="M43.5933 16.0762C44.6525 16.0762 45.302 15.3639 45.302 14.1835C45.302 13.0098 44.6492 12.2942 43.5933 12.2942C42.5341 12.2942 41.8812 13.0098 41.8812 14.1835C41.8812 15.3639 42.5307 16.0762 43.5933 16.0762ZM43.5933 15.4375C42.9704 15.4375 42.6207 14.9794 42.6207 14.1835C42.6207 13.3944 42.9704 12.9329 43.5933 12.9329C44.2128 12.9329 44.5659 13.3944 44.5659 14.1835C44.5659 14.976 44.2128 15.4375 43.5933 15.4375Z" stroke="white" stroke-width="0.204511" stroke-miterlimit="10"/>
    <path d="M50.8332 12.3645H50.1171L49.4709 15.1432H49.4143L48.6682 12.3645H47.982L47.2359 15.1432H47.1826L46.5331 12.3645H45.807L46.8062 16.0059H47.5423L48.2884 13.3242H48.3451L49.0945 16.0059H49.8373L50.8332 12.3645Z" stroke="white" stroke-width="0.204511" stroke-miterlimit="10"/>
    <path d="M51.6579 16.0059H52.3741V13.8759C52.3741 13.3074 52.7105 12.953 53.2401 12.953C53.7697 12.953 54.0229 13.2439 54.0229 13.8291V16.0059H54.739V13.6485C54.739 12.7825 54.2927 12.2942 53.4833 12.2942C52.937 12.2942 52.5773 12.5384 52.4007 12.943H52.3474V12.3645H51.6579V16.0059Z" stroke="white" stroke-width="0.204511" stroke-miterlimit="10"/>
    <path d="M55.8668 16.0059H56.583V10.9433H55.8668V16.0059Z" stroke="white" stroke-width="0.204511" stroke-miterlimit="10"/>
    <path d="M59.2763 16.0762C60.3355 16.0762 60.985 15.3639 60.985 14.1835C60.985 13.0098 60.3322 12.2942 59.2763 12.2942C58.2171 12.2942 57.5642 13.0098 57.5642 14.1835C57.5642 15.3639 58.2137 16.0762 59.2763 16.0762ZM59.2763 15.4375C58.6534 15.4375 58.3037 14.9794 58.3037 14.1835C58.3037 13.3944 58.6534 12.9329 59.2763 12.9329C59.8958 12.9329 60.2489 13.3944 60.2489 14.1835C60.2489 14.976 59.8958 15.4375 59.2763 15.4375Z" stroke="white" stroke-width="0.204511" stroke-miterlimit="10"/>
    <path d="M63.1188 15.4609C62.729 15.4609 62.4459 15.2703 62.4459 14.9426C62.4459 14.6216 62.6724 14.451 63.172 14.4176L64.0581 14.3608V14.665C64.0581 15.1165 63.6584 15.4609 63.1188 15.4609ZM62.9356 16.0661C63.4119 16.0661 63.8082 15.8588 64.0247 15.4943H64.0814V16.0059H64.7709V13.5181C64.7709 12.749 64.2579 12.2942 63.3486 12.2942C62.5259 12.2942 61.9396 12.6955 61.8664 13.3208H62.5592C62.6391 13.0633 62.9156 12.9162 63.3153 12.9162C63.8049 12.9162 64.0581 13.1336 64.0581 13.5181V13.8324L63.0755 13.8893C62.2128 13.9428 61.7265 14.3206 61.7265 14.976C61.7265 15.6414 62.2361 16.0661 62.9356 16.0661Z" stroke="white" stroke-width="0.204511" stroke-miterlimit="10"/>
    <path d="M67.201 16.0661C67.7007 16.0661 68.1237 15.8287 68.3402 15.4308H68.3968V16.0059H69.083V10.9433H68.3669V12.943H68.3136C68.117 12.5417 67.6973 12.3043 67.201 12.3043C66.2851 12.3043 65.6955 13.0332 65.6955 14.1835C65.6955 15.3372 66.2784 16.0661 67.201 16.0661ZM67.4042 12.9496C68.0038 12.9496 68.3802 13.4278 68.3802 14.1869C68.3802 14.9493 68.0071 15.4208 67.4042 15.4208C66.798 15.4208 66.435 14.956 66.435 14.1835C66.435 13.4178 66.8013 12.9496 67.4042 12.9496Z" stroke="white" stroke-width="0.204511" stroke-miterlimit="10"/>
    <path d="M73.7269 16.0762C74.7861 16.0762 75.4356 15.3639 75.4356 14.1835C75.4356 13.0098 74.7827 12.2942 73.7269 12.2942C72.6676 12.2942 72.0148 13.0098 72.0148 14.1835C72.0148 15.3639 72.6643 16.0762 73.7269 16.0762ZM73.7269 15.4375C73.104 15.4375 72.7543 14.9794 72.7543 14.1835C72.7543 13.3944 73.104 12.9329 73.7269 12.9329C74.3464 12.9329 74.6995 13.3944 74.6995 14.1835C74.6995 14.976 74.3464 15.4375 73.7269 15.4375Z" stroke="white" stroke-width="0.204511" stroke-miterlimit="10"/>
    <path d="M76.3836 16.0059H77.0997V13.8759C77.0997 13.3074 77.4361 12.953 77.9657 12.953C78.4953 12.953 78.7485 13.2439 78.7485 13.8291V16.0059H79.4646V13.6485C79.4646 12.7825 79.0183 12.2942 78.2089 12.2942C77.6626 12.2942 77.3029 12.5384 77.1263 12.943H77.073V12.3645H76.3836V16.0059Z" stroke="white" stroke-width="0.204511" stroke-miterlimit="10"/>
    <path d="M82.7628 11.4583V12.3812H82.1866V12.9864H82.7628V15.0429C82.7628 15.7451 83.0792 16.026 83.8753 16.026C84.0152 16.026 84.1484 16.0093 84.265 15.9892V15.3907C84.1651 15.4007 84.1018 15.4074 83.9919 15.4074C83.6355 15.4074 83.4789 15.2402 83.4789 14.859V12.9864H84.265V12.3812H83.4789V11.4583H82.7628Z" stroke="white" stroke-width="0.204511" stroke-miterlimit="10"/>
    <path d="M85.2263 16.0059H85.9424V13.8792C85.9424 13.3275 86.2689 12.9563 86.8551 12.9563C87.3614 12.9563 87.6312 13.2506 87.6312 13.8324V16.0059H88.3473V13.6552C88.3473 12.7891 87.871 12.2976 87.0982 12.2976C86.552 12.2976 86.1689 12.5417 85.9924 12.9496H85.9358V10.9433H85.2263V16.0059Z" stroke="white" stroke-width="0.204511" stroke-miterlimit="10"/>
    <path d="M90.9307 12.9062C91.4603 12.9062 91.8068 13.2773 91.8234 13.8491H89.9914C90.0314 13.2807 90.4011 12.9062 90.9307 12.9062ZM91.8201 15.0228C91.6868 15.3071 91.3904 15.4642 90.9574 15.4642C90.3845 15.4642 90.0147 15.0596 89.9914 14.4209V14.3808H92.5529V14.13C92.5529 12.9864 91.9433 12.2942 90.9341 12.2942C89.9115 12.2942 89.262 13.0332 89.262 14.1969C89.262 15.3606 89.8982 16.0762 90.9374 16.0762C91.7668 16.0762 92.3463 15.6749 92.5096 15.0228H91.8201Z" stroke="white" stroke-width="0.204511" stroke-miterlimit="10"/>
</svg>
