<svg width="433" height="466" viewBox="0 0 433 466" fill="none" xmlns="http://www.w3.org/2000/svg">
<g opacity="0.2">
<path d="M130.289 456.234C157.342 459.2 189.228 458.192 214.367 447.03C244.203 433.648 253.865 408.005 248.548 376.765C243.419 347.479 220.106 327.53 195.053 314.357C161.188 296.829 123.466 288.383 86.0143 282.827C60.1219 279.235 33.9598 276.946 7.80278 277.398C5.42163 277.464 3.04557 277.571 0.679688 277.795C5.41654 277.286 10.1839 277.174 14.9259 277.098C57.7458 277.098 100.729 282.11 142.195 292.972C182.125 303.789 234.063 324.726 247.703 367.765C251.327 379.932 252.124 392.766 250.034 405.288C247.963 417.184 241.949 428.367 232.887 436.365C207.733 458.818 162.252 460.319 130.289 456.234Z" fill="url(#paint0_linear_751_13781)"/>
<path d="M129.478 453.39C175.269 459.205 249.715 454.631 245.08 391.78C244.307 380.276 241.325 368.854 235.515 358.856C208.04 312.047 133.899 294.239 83.6965 286.221C60.8009 282.746 37.7119 280.441 14.5568 280.08C9.93189 280.039 5.29171 280.029 0.671875 280.436C2.9767 280.187 5.29171 280.075 7.6118 279.993C42.3725 279.449 77.1535 283.397 111.222 290.215C147.448 297.893 187.485 310.165 216.278 334.291C226.489 342.977 235.261 353.656 240.481 366.111C245.577 378.657 247.418 392.288 245.833 405.736C238.71 457.363 169.667 459.042 129.483 453.39H129.478Z" fill="url(#paint1_linear_751_13781)"/>
<path d="M128.674 450.541C161.613 455.267 223.177 456.387 237.652 419.169C242.74 405.94 241.01 391.139 237.097 377.834C224.718 338.952 182.911 318.133 146.975 305.703C108.495 292.82 68.1123 286.211 27.6989 283.448C18.7085 282.97 9.66732 282.431 0.671875 283.077C9.66732 282.303 18.7136 282.741 27.7193 283.138C84.7854 286.476 161.598 299.653 207.486 335.396C221.696 346.589 233.719 361.461 238.619 379.152C242.18 392.228 243.564 406.627 238.547 419.525C223.64 457.236 162.061 455.776 128.648 450.561L128.674 450.541Z" fill="url(#paint2_linear_751_13781)"/>
<path d="M127.865 447.691C162.85 453.201 234.89 456.188 236.416 406.621C236.65 397.87 234.834 389.139 232.076 380.866C214.853 331.87 151.01 309.727 104.888 298.513C75.0068 291.533 44.4844 287.03 13.8144 285.661C9.43266 285.435 5.04176 285.454 0.662109 285.717C5.03772 285.31 9.43368 285.417 13.8195 285.503C48.9594 286.812 83.8494 291.975 117.862 300.899C161.873 312.851 219.697 335.787 234.014 383.715C236.157 391.149 237.576 398.872 237.332 406.652C235.536 456.971 163.399 453.751 127.865 447.691Z" fill="url(#paint3_linear_751_13781)"/>
<path d="M127.056 444.842C165.836 451.588 245.274 455.308 230.453 394.517C214.894 326.166 111.685 301.195 51.6528 292.428C36.8724 290.332 22.0004 288.668 7.07248 288.246C4.93837 288.173 2.80189 288.212 0.671875 288.363C1.73525 288.251 2.80371 288.21 3.86709 288.19C7.07248 288.124 10.2728 288.22 13.4731 288.353C43.3239 289.879 73.0017 294.484 102.044 301.551C147.626 313.039 208.122 335.095 227.39 382.016C233.968 398.771 237.347 419.88 222.933 433.577C201.762 453.664 153.966 449.823 127.056 444.847V444.842Z" fill="url(#paint4_linear_751_13781)"/>
<path d="M126.247 441.998C162.677 448.923 243.956 455.394 225.533 395.484C204.077 322.096 79.7131 296.829 13.1275 291.35C8.9859 291.095 4.83416 290.744 0.6875 291.004C4.82907 290.704 8.99098 291.004 13.1325 291.228C42.1447 293.327 70.9033 298.082 99.0472 305.433C119.139 310.704 138.921 317.4 157.675 326.4C187.231 340.55 216.644 362.372 226.22 395.281C244.663 455.898 163.175 449.493 126.247 442.003V441.998Z" fill="url(#paint5_linear_751_13781)"/>
<path d="M125.438 439.149C159.578 446.15 242.643 455.486 220.582 396.507C218.825 391.771 216.674 387.191 214.151 382.815C213.327 381.32 211.917 379.137 210.971 377.666C210.584 377.158 209.134 375.036 208.798 374.578C208.569 374.207 207.704 373.143 207.425 372.767C206.845 372.039 206.153 371.078 205.557 370.391C205.145 369.882 203.492 367.938 203.12 367.501C202.83 367.175 201.899 366.173 201.594 365.822C197.148 361.005 192.336 356.539 187.2 352.466C170.975 339.624 152.343 330.079 133.207 322.407C98.4617 308.715 61.7523 300.391 24.7886 295.558C17.7825 294.703 10.7561 293.909 3.69919 293.619C2.69079 293.566 1.68027 293.566 0.671875 293.619C2.18345 293.533 3.69873 293.533 5.2103 293.619C7.75426 293.721 10.2524 293.899 12.7659 294.128C44.9654 297.093 76.7775 303.341 107.706 312.775C147.28 325.129 195.87 346.834 216.181 385.166C251.842 454.29 168.726 448.414 125.438 439.144V439.149Z" fill="url(#paint6_linear_751_13781)"/>
<path d="M124.63 436.3C147.795 441.454 221.3 453.833 220.41 415.948C220.018 402.343 210.27 385.456 201.696 375.148C179.213 347.968 142.595 330.522 109.798 319.216C78.1717 308.536 45.5253 301.155 12.38 297.191C9.46462 296.85 6.5238 296.555 3.59316 296.356C2.615 296.278 1.63327 296.252 0.652344 296.28C1.63284 296.246 2.61443 296.263 3.59316 296.331C4.35635 296.382 5.78097 296.479 6.52889 296.54C20.2154 297.74 33.8103 299.887 47.3137 302.416C97.4093 312.043 162.85 331.88 198.216 370.34C204.258 376.859 209.4 384.157 213.505 392.04C217.306 399.463 220.629 407.482 220.883 415.953C221.631 454.372 148.126 441.759 124.609 436.305L124.63 436.3Z" fill="url(#paint7_linear_751_13781)"/>
<path d="M123.825 433.455C144.472 438.391 218.287 452.789 216.69 417.642C216.135 407.095 209.19 395.026 203.186 386.524C176.271 348.818 122.38 326.996 79.1479 314.561C68.1478 311.427 57.0155 308.664 45.8322 306.267C31.3724 303.215 16.8311 300.498 2.10156 298.992C21.222 300.625 55.6112 307.402 79.2344 314.255C122.578 326.553 176.602 348.441 203.532 386.275C209.582 394.879 216.547 406.978 217.081 417.622C218.547 453.268 144.741 438.584 123.82 433.455H123.825Z" fill="url(#paint8_linear_751_13781)"/>
<path d="M123.026 430.606C142.065 435.46 221.223 452.891 212.451 415.129C209.857 404.444 201.426 392.482 194.288 384.158C176.521 363.837 152.882 349.474 128.679 338.138C88.1536 319.664 44.6112 308.206 0.671875 301.561C44.6264 308.013 88.2859 319.369 128.811 337.848C153.106 349.199 176.714 363.537 194.522 383.945C201.685 392.314 210.126 404.296 212.726 415.057C221.421 453.283 142.36 435.618 123.026 430.606Z" fill="url(#paint9_linear_751_13781)"/>
<path d="M130.289 457.776C195.567 493.585 364.598 571.191 418.555 491.412C466.972 422.715 330.31 275.46 357.073 165.851C374.728 91.7864 459.986 62.6835 525.992 47.5215C455.361 63.6451 364.537 96.106 354.799 179.299C340.934 286.72 465.268 425.422 418.672 491.488C364.593 571.328 195.745 493.732 130.289 457.776Z" fill="url(#paint10_linear_751_13781)"/>
<path d="M525.391 45.9946C475.403 57.1881 415.732 76.2678 380.635 115.496C287.755 220.236 445.567 385.125 419.893 472.418C418.035 478.338 415.291 483.943 411.753 489.04C404.805 499.348 395.247 507.628 384.054 513.035C317.143 545.7 191.97 491.055 130.289 457.724C191.853 490.898 317.189 545.532 384.003 512.877C395.163 507.478 404.691 499.216 411.615 488.934C415.134 483.85 417.861 478.263 419.705 472.362C445.287 385.303 287.546 220.149 380.528 115.404C415.706 76.1202 475.286 57.1881 525.386 45.9946H525.391Z" fill="url(#paint11_linear_751_13781)"/>
<path d="M524.781 44.4681C485.899 53.0209 446.956 64.6468 412.806 85.6803C411.28 86.6317 409.448 87.8477 407.901 88.8297L407.214 89.3029L404.467 91.1854L403.78 91.6535L403.108 92.1623C402.091 92.8898 400.732 93.8973 399.74 94.6146C398.86 95.3117 396.662 96.9704 395.787 97.6674C394.912 98.3644 393.482 99.5601 392.566 100.313C391.946 100.822 389.514 102.979 388.796 103.595L386.354 105.864C385.967 106.235 385.499 106.642 385.143 107.009C384.242 107.899 383.067 109.069 382.187 109.95L381.617 110.555L379.327 112.977C280.719 221.019 452.639 396.552 409.275 479.373C363.687 566.27 194.076 491.727 130.289 457.673C193.847 491.467 363.652 566.016 409.061 479.261C452.268 396.761 280.454 220.932 379.2 112.85L381.495 110.423L382.07 109.817C382.258 109.614 382.462 109.426 382.655 109.227L383.835 108.067L385.021 106.892L385.321 106.597L385.621 106.312L386.232 105.747L388.679 103.473L391.193 101.28L391.823 100.73L392.139 100.456L392.459 100.191L393.747 99.1327L395.039 98.0744L395.68 97.5656C395.899 97.3876 396.123 97.2248 396.336 97.0569L398.977 95.0217L399.638 94.5129L400.31 94.0041L401.663 93.0221L403.012 92.0402L403.683 91.5314L404.375 91.0633L407.123 89.1757L407.815 88.7076L408.512 88.2548L409.916 87.3491L411.315 86.4435C411.783 86.1433 412.246 85.838 412.725 85.5531C446.9 64.54 485.879 52.9904 524.781 44.4478V44.4681Z" fill="url(#paint12_linear_751_13781)"/>
<path d="M524.175 42.9111C477.733 52.8122 424.564 69.1088 388.135 100.72C323.935 156.336 344.862 235.774 370.006 305.595C378.951 330.526 388.913 355.075 397.237 380.225C406.095 408.132 416.383 442.435 405.378 470.902C367.096 562.026 205.122 494.902 142.052 463.657C138.099 461.677 134.171 459.703 130.289 457.607C193.776 490.75 365.804 564.509 405.062 470.764C416.037 442.415 405.739 408.102 396.922 380.317C388.587 355.172 378.641 330.618 369.701 305.687C344.496 235.687 323.645 156.224 388.018 100.532C399.018 90.9869 411.422 82.9531 424.315 76.2268C455.59 59.976 489.812 50.2123 524.175 42.9111Z" fill="url(#paint13_linear_751_13781)"/>
<path d="M523.57 41.3804C470.579 52.4466 405.942 72.1826 370.169 115.221C281.7 221.991 437.742 391.226 396.693 472.948C354.855 557.794 191.975 489.306 130.289 457.577C191.716 488.99 354.707 557.357 396.357 472.78C437.238 391.373 281.217 221.839 369.95 115.043C405.917 71.9435 470.401 52.3906 523.57 41.3804Z" fill="url(#paint14_linear_751_13781)"/>
<path d="M522.939 39.8491C459.172 52.8488 376.407 78.558 349.248 144.116C336.212 175.432 338.085 210.605 344.862 243.208C353.715 285.738 370.347 326.034 383.53 367.297C390.007 387.944 396.062 409.018 397.267 430.759C397.812 441.317 396.988 452.088 393.574 462.146C391.196 469.091 387.76 475.626 383.388 481.521C334.579 546.647 188.958 487.118 130.289 457.532C188.703 486.808 334.457 546.179 383.047 481.287C387.402 475.422 390.826 468.919 393.197 462.009C396.581 452.001 397.4 441.286 396.85 430.779C395.619 409.1 389.559 388.041 383.113 367.44C369.884 326.177 353.318 285.855 344.445 243.295C337.652 210.61 335.795 175.335 348.907 143.968C376.28 78.2426 458.908 52.7673 522.939 39.8491Z" fill="url(#paint15_linear_751_13781)"/>
<path d="M522.354 38.3125C465.562 49.6026 394.723 70.6462 359.403 119.841C334.36 154.571 333.012 196.45 340.425 237.22C348.133 279.607 363.951 319.847 376.732 360.856C385.153 388.972 394.621 419.917 389.752 449.467C389.483 450.994 389.111 452.708 388.735 454.204L388.541 454.993C388.47 455.252 388.409 455.502 388.328 455.771L387.875 457.328L387.646 458.101C384.405 468.089 379.159 477.512 371.812 485.067C320.16 538.262 187.121 485.576 130.299 457.496C186.775 485.144 316.293 536.109 369.187 487.006C378.976 477.858 385.611 465.55 388.618 452.52C406.7 369.368 289.525 222.129 357.235 122.263C392.118 71.0176 464.428 49.6586 522.349 38.3125H522.354Z" fill="url(#paint16_linear_751_13781)"/>
<path d="M521.743 36.7808C458.567 49.1139 378.366 72.7524 346.999 134.494C309.796 208.808 358.05 304.543 376.951 378.974C384.583 409.252 391.35 444.293 373.522 472.291C330.199 540.566 187.406 485.052 130.289 457.43C187.487 484.813 332.788 541.141 374.311 469.966C381.464 457.755 384.487 443.545 384.263 429.472C383.525 395.24 371.711 362.525 361.723 330.14C342.786 269.746 316.095 194.73 346.582 134.255C378.193 72.3911 458.282 48.946 521.749 36.7808H521.743Z" fill="url(#paint17_linear_751_13781)"/>
<path d="M521.138 35.2485C466.239 45.5668 399.537 64.5702 361.443 107.873C319.422 155.563 326.846 217.813 341.723 274.905C350.199 307.656 361.525 339.593 370.037 372.338C376.555 398.434 383.174 429.176 374.107 455.272C367.768 473.741 355.282 487.117 337.215 494.56C281.1 517.787 183.198 482.324 130.289 457.378C186.032 483.454 324.709 535.574 366.633 469.665L366.842 469.329L367.661 467.981C367.768 467.808 367.961 467.472 368.058 467.305L368.439 466.613C368.684 466.165 368.984 465.666 369.197 465.229C371.156 461.5 372.787 457.609 374.072 453.598C386.313 416.313 366.048 360.835 355.216 323.795C334.177 254.339 306.926 168.786 361.092 107.558C399.42 64.1937 465.995 45.3938 521.138 35.2485Z" fill="url(#paint18_linear_751_13781)"/>
<path d="M520.531 33.7173C464.655 43.8931 396.386 63.0491 357.926 107.431C328.671 141.083 323.14 182.458 328.279 225.471C332.039 256.731 340.673 287.111 349.44 317.267C360.124 356.032 381.254 414.055 367.873 452.687C366.12 457.937 363.745 462.959 360.801 467.646L360.363 468.307L359.488 469.62L358.598 470.902C358.445 471.116 358.298 471.334 358.135 471.538L357.626 472.164C357.3 472.576 356.99 473.003 356.649 473.405C354.983 475.441 353.187 477.367 351.271 479.17C304.076 523.129 193.897 484.904 141.72 462.481C137.884 460.818 134.058 459.123 130.277 457.332C137.863 460.863 145.577 464.109 153.331 467.228C203.136 487.071 298.245 517.843 345.461 483.23C353.864 476.97 360.501 468.638 364.724 459.047C374.447 437.51 372.213 413.042 368.005 390.421C357.361 336.937 335.921 285.992 328.426 231.795C326.208 215.951 325.241 199.843 326.473 183.867C328.839 153.741 339.167 127.157 359.615 104.734C398.67 61.9959 465.23 43.5624 520.526 33.7173H520.531Z" fill="url(#paint19_linear_751_13781)"/>
<path d="M519.926 32.1812C470.074 41.029 413.395 56.2724 373.353 88.5604C333.616 120.655 320.174 163.246 323.527 213.214C327.429 271.502 350.31 326.639 361.788 383.492C368.163 415.312 370.529 453.822 344.25 477.517C295.808 520.504 182.729 480.819 130.277 457.282C134.053 459.007 137.869 460.635 141.7 462.232C193.24 483.434 304.513 520.743 348.188 472.642C375.24 441.835 364.301 395.392 355.545 359.299C340.113 297.598 312.628 227.374 325.923 163.455C332.37 132.876 348.819 107.599 373.047 88.1534C413.186 55.8909 469.942 40.8052 519.926 32.1812Z" fill="url(#paint20_linear_751_13781)"/>
<path d="M519.316 30.6499C457.03 41.4159 379.19 62.6936 342.018 118.065C324.21 144.579 318.42 175.676 319.565 207.216C320.745 240.287 328.499 272.672 336.818 304.573C343.061 328.553 349.996 352.4 354.916 376.72C358.116 392.935 360.553 409.476 359.566 426.073C351.802 536.857 193.7 485.169 130.289 457.252C183.346 480.229 313.922 524.57 349.863 459.256C366.882 428.113 356.478 385.542 348.627 352.751C330.463 278.834 294.593 184.758 342.796 115.781C380.589 61.7981 457.519 40.9886 519.316 30.655V30.6499Z" fill="url(#paint21_linear_751_13781)"/>
<path d="M518.711 29.1182C459.182 39.06 386.217 58.4449 346.327 106.963C254.266 218.984 406.136 403.777 332.849 472.093C324.846 479.394 314.874 484.243 304.499 487.123C255.991 500.27 187.564 479.796 141.62 461.886C137.819 460.36 134.034 458.834 130.289 457.18C137.804 460.416 145.441 463.342 153.129 466.14C196.936 481.836 261.847 499.756 307.247 485.606C312.589 483.919 317.725 481.635 322.556 478.799C328.705 475.169 334.129 470.432 338.553 464.827C358.966 438.426 353.211 400.719 347.177 370.161C336.309 318.046 318.15 267.09 315.179 213.565C314.605 203.297 314.776 193.001 315.688 182.758C318.303 153.91 327.985 127.544 346.79 105.32C387.173 57.6614 459.31 38.6682 518.726 29.1232L518.711 29.1182Z" fill="url(#paint22_linear_751_13781)"/>
<path d="M518.1 27.5869C461.335 36.7452 393.619 54.2374 351.914 96.1212C286.112 161.969 316.96 260.12 335.811 339.415C343.01 371.047 353.318 412.117 343.361 443.611C319.051 518.729 194.829 482.07 141.589 461.678C137.799 460.218 134.024 458.717 130.289 457.124C137.784 460.264 145.415 463.087 153.047 465.774C196.096 480.712 264.076 498.474 307.573 480.829C324.256 474.016 336.202 461.968 342.058 444.791C350.652 419.403 345.371 389.226 340.242 363.481C331.878 323.607 319.931 284.481 314.172 244.068C305.868 187.083 311.271 132.312 355.821 91.3843C397.898 52.6246 462.841 36.1295 518.126 27.5869H518.1Z" fill="url(#paint23_linear_751_13781)"/>
<path d="M517.495 26.0552C453.972 35.9919 375.649 56.1706 335.449 110.367C311.724 142.223 305.878 180.784 308.371 219.625C311.78 274.371 330.02 326.624 338.67 380.536C341.407 399.259 343.183 418.695 338.604 437.286C317.769 518.785 184.638 479.007 130.289 457.099C134.024 458.625 137.804 460.039 141.594 461.423C197.602 481.714 326.408 516.668 339.347 428.937C343.417 396.664 334.879 364.488 328.062 333.142C319.193 294.733 309.292 256.207 307.201 216.669C305.141 178.072 311.729 139.928 335.693 108.668C376.407 55.326 454.14 35.5085 517.495 26.0552Z" fill="url(#paint24_linear_751_13781)"/>
<path d="M516.89 24.5187C456.15 33.6464 383.077 51.9629 340.385 99.1279C277.768 168.878 310.722 268.683 327.441 350.003C332.173 373.626 336.803 397.728 334.895 421.936C334.732 423.905 334.467 426.006 334.167 427.955C332.921 435.943 330.539 443.829 326.586 450.907C294.023 509.275 179.754 476.346 130.289 457.012C134.024 458.483 137.794 459.851 141.574 461.179C184.781 476.128 253.59 493.63 297.081 475.507C316.268 467.442 328.199 452.611 332.417 432.219C334.778 420.918 334.686 409.277 333.841 397.799C331.883 373.743 326.459 350.146 321.274 326.624C312.543 287.422 303.182 247.878 302.688 207.501C302.215 168.176 311.455 130.897 337.744 100.797C380.279 51.8866 455.092 33.3462 516.89 24.5034V24.5187Z" fill="url(#paint25_linear_751_13781)"/>
<path d="M516.283 22.9873C456.358 31.6368 385.086 49.0883 341.259 93.4703C299.126 136.153 294.999 192.583 302.509 249.232C307.658 288.918 318.221 327.616 325.095 367.012C327.74 382.785 329.842 398.791 329.307 414.839C329.145 420.37 328.481 425.876 327.323 431.288C326.045 437.202 323.953 442.911 321.106 448.251C289.708 505.683 179.046 475.334 130.309 456.972C134.033 458.391 137.798 459.704 141.578 460.976C186.052 475.731 269.341 496.372 308.32 462.807C317.478 454.84 323.248 444.277 326.036 432.519C327.398 426.705 328.16 420.767 328.31 414.798C328.819 398.832 326.692 382.907 324.026 367.185C318.531 335.676 310.574 304.634 305.063 273.109C293.712 209.317 291.743 142.07 340.608 92.8292C384.674 48.4269 456.103 31.2196 516.283 22.9873Z" fill="url(#paint26_linear_751_13781)"/>
<path d="M515.674 21.4561C456.399 29.7137 387.183 46.1681 342.231 88.0264C271.596 153.859 296.756 253.582 313.785 336.892C318.425 360.296 323.162 383.874 323.523 407.823C323.655 417.79 322.612 427.92 319.29 437.373C296.583 501.873 190.408 476.901 141.518 460.859C137.753 459.612 134.003 458.315 130.289 456.931C137.738 459.648 145.309 462.019 152.915 464.248C194.728 476.291 269.037 491.722 304.169 459.221C311.429 452.423 316.456 443.753 319.244 434.224C324.017 417.942 322.612 400.72 320.771 384.098C317.835 360.418 312.589 337.126 307.832 313.757C291.637 235.754 276.765 146.873 342.15 86.8358C387.244 45.4049 456.46 29.205 515.674 21.4561Z" fill="url(#paint27_linear_751_13781)"/>
<path d="M515.068 19.9248C448.843 28.8083 369.044 47.7913 324.779 101.779C293.234 140.325 287.638 188.635 291.749 236.808C294.405 268.353 300.841 299.389 307.012 330.425C311.739 354.695 316.776 379.071 317.697 403.859C318.008 410.823 317.585 417.799 316.435 424.674C313.622 440.894 305.45 454.845 291.469 463.82C254.973 487.184 192.433 475.08 152.848 464.065C145.267 461.902 137.722 459.577 130.299 456.906C172.89 471.274 244.451 487.627 285.893 466.003C308.971 453.873 317.107 431.878 316.639 406.836C315.672 373.174 307.328 340.326 301.136 307.367C294.333 272.443 288.274 236.975 289.459 201.258C290.517 167.246 299.167 133.854 319.803 106.374C363.29 48.234 446.62 28.5081 515.063 19.9248H515.068Z" fill="url(#paint28_linear_751_13781)"/>
<path d="M514.463 18.3931C454.573 26.1165 386.883 41.365 339.866 81.4833C305.685 110.413 288.92 151.055 286.412 195.29C282.021 262.659 304.896 327.576 311.47 393.988C311.765 397.753 312.035 402.048 312.091 405.828C312.401 426.225 306.764 445.824 290.116 458.742C260.464 481.49 210.322 475.924 175.75 469.04C160.354 465.933 145.17 461.854 130.289 456.829C134.008 458.117 137.784 459.236 141.528 460.335C180.308 471.32 234.413 481.836 272.995 467.239C290.803 460.304 303.253 447.768 308.29 429.08C311.409 417.713 311.312 405.741 310.289 394.08C305.71 347.007 292.431 301.281 287.211 254.274C279.803 192.298 285.603 130.383 333.668 85.6096C380.61 41.8535 452.466 25.796 514.442 18.3931H514.463Z" fill="url(#paint29_linear_751_13781)"/>
<path d="M513.851 16.856C446.981 25.0272 366.602 43.3945 320.292 96.0596C282.829 138.503 277.487 193.646 282.789 247.914C286.467 286.974 295.508 325.25 301.955 363.883C303.853 375.503 305.516 387.19 306.279 398.954C306.723 405.354 306.533 411.783 305.71 418.145C305.134 422.566 304.136 426.921 302.728 431.15C281.45 493.472 177.855 472.047 130.283 456.783C177.143 471.309 280.122 492.246 301.446 431.455C302.942 427.083 303.992 422.571 304.58 417.988C305.365 411.7 305.536 405.351 305.089 399.03C303.72 379.487 300.128 360.189 296.541 340.951C289.983 306.292 282.789 271.588 280.443 236.283C276.881 184.081 284.778 132.769 321.365 93.0628C368.266 42.0717 447.5 24.3098 513.846 16.856H513.851Z" fill="url(#paint30_linear_751_13781)"/>
<path d="M513.272 15.3252C447.857 22.9927 371.507 39.7828 323.264 87.7161C269.001 141.485 271.352 217.921 282.789 288.18C287.669 319.038 294.619 349.556 298.949 380.511C300.002 388.519 301.04 396.553 301.045 404.653C301.065 410.312 300.521 415.958 299.422 421.509C284.962 491.127 179.555 471.808 130.289 456.733C134.008 457.878 137.763 458.905 141.528 459.882C196.356 474.006 300.19 487.479 299.808 404.663C299.783 396.634 298.73 388.641 297.666 380.699C288.081 315.324 268.284 249.858 276.684 183.232C281.263 146.68 295.942 112.784 322.383 86.8308C371.055 38.8721 447.47 22.3771 513.272 15.3252Z" fill="url(#paint31_linear_751_13781)"/>
<path d="M512.641 13.7935C439.736 21.8731 351.598 41.5938 304.851 103.153C265.882 154.393 267.297 221.192 276.358 281.978C281.599 318.585 290.462 354.598 294.99 391.317C295.771 398.132 295.858 405.009 295.25 411.842C290.487 462.721 241.348 471.533 198.91 468.949C175.654 467.402 152.641 463.29 130.289 456.687C152.68 463.046 175.695 466.958 198.93 468.353C236.286 470.388 283.634 463.805 292.726 420.308C293.424 417.003 293.896 413.654 294.14 410.285C295.087 398.165 293.123 386.097 291.235 374.161C281.685 316.728 266.508 259.291 270.069 200.602C273.122 149.402 291.719 105.457 332.483 73.2712C381.749 34.3283 451.423 19.9091 512.651 13.7985L512.641 13.7935Z" fill="url(#paint32_linear_751_13781)"/>
<path d="M512.031 12.2573C420.83 21.6598 310.137 49.5213 276.969 146.629C257.706 203.212 267.017 264.267 277.503 321.705C281.375 342.677 285.766 363.599 288.976 384.703L289.383 387.598L289.719 390.503C292.604 417.256 286.025 442.319 261.125 456.031C227.865 474.154 177.205 467.702 141.518 459.536C137.753 458.646 134.003 457.705 130.289 456.636C152.676 462.548 175.755 466.202 198.915 466.899C224.756 467.377 255.391 464.314 274.216 444.624C288.63 429.477 290.726 407.66 288.04 387.771C279.899 335.101 265.785 283.133 264.376 229.578C263.532 200.475 266.411 170.833 276.49 143.368C285.559 118.565 300.647 96.4032 320.399 78.8735C371.095 33.8912 446.351 18.4442 512.031 12.2573Z" fill="url(#paint33_linear_751_13781)"/>
<path d="M511.425 10.7256C418.281 19.8024 306.133 47.6944 271.957 146.654C268.493 156.673 265.852 166.958 264.061 177.406C252.358 246.8 271.937 315.955 283.822 383.975C285.242 393.592 285.679 403.442 284.224 413.083C283.502 417.918 282.227 422.654 280.423 427.197C274.786 441.286 263.755 451.258 250.018 457.216C217.766 470.984 175.109 466.308 141.533 459.297C137.784 458.473 134.013 457.608 130.289 456.59C137.758 458.513 145.329 460.019 152.925 461.312C184.735 466.461 225.535 469.371 254.765 453.771C268.579 446.252 277.925 434.565 281.731 419.224C282.584 415.731 283.172 412.178 283.491 408.596C284.295 399.494 283.558 390.31 282.001 381.319C269.703 314.2 250.873 245.726 262.483 177.136C269.24 137.735 286.987 103.316 317.189 76.9245C368.663 31.8863 445.094 16.5156 511.425 10.7256Z" fill="url(#paint34_linear_751_13781)"/>
<path d="M510.815 9.19385C427.006 17.1564 327.283 38.8717 280.754 116.717C246.573 174.719 252.506 245.711 264.01 309.452C267.754 330.196 272.39 351.173 276.653 371.866C278.023 378.018 279.008 384.249 279.604 390.523C280.78 404.032 279.487 418.202 273.107 430.346C249.402 475.191 171.751 466.542 130.289 456.534C152.742 461.678 175.867 464.441 198.91 463.794C233.854 462.65 271.474 451.716 277.712 412.111C278.711 405.474 278.926 398.742 278.353 392.055C277.966 387.273 277.309 382.516 276.384 377.809C258.505 291.563 231.666 189.337 283.252 109.716C331.384 36.7907 429.27 15.8285 510.815 9.19385Z" fill="url(#paint35_linear_751_13781)"/>
<path d="M510.219 7.66211C445.76 13.2588 373.156 27.2608 320.44 66.9669C295.616 85.6192 276.414 109.802 264.661 138.646C237.812 205.806 251.514 280.303 266.569 348.685C270.609 367.51 276.587 386.407 274.608 405.873C269.113 465.331 198.62 467.045 152.956 460.624C145.324 459.556 137.768 458.243 130.289 456.483C166.245 464.023 222.157 468.694 252.806 445.106C275.926 427.263 276.404 397.789 270.232 371.565C244.732 265.538 220.137 138.121 321.875 64.0617C374.794 25.7751 446.249 12.4142 510.219 7.66211Z" fill="url(#paint36_linear_751_13781)"/>
<path d="M509.604 6.13086C413.177 13.7119 297.27 41.2375 258.22 141.347C250.155 161.877 245.917 183.771 244.447 205.745C240.844 260.624 252.872 314.988 266.203 367.877C266.661 369.754 267.098 371.642 267.48 373.535C269.423 383.013 270.502 392.742 269.841 402.419C269.44 409.222 267.967 415.919 265.475 422.262C258.754 439.194 244.07 449.879 227.224 455.46C199.749 464.293 169.807 462.797 141.6 458.544C137.814 457.928 134.034 457.251 130.289 456.427C134.044 457.206 137.829 457.836 141.62 458.406C170.789 462.477 204.557 463.784 232.266 452.525C253.234 443.799 265.964 428.011 268.243 405.166C268.781 399.459 268.768 393.714 268.202 388.01C267.642 382.294 266.702 376.622 265.389 371.031C255.421 331.854 246.019 292.326 243.002 251.898C238.596 195.386 247.098 138.086 284.499 93.5006C337.739 30.0797 430.848 11.4732 509.604 6.13086Z" fill="url(#paint37_linear_751_13781)"/>
<path d="M508.997 4.59961C439.293 9.77911 359.784 24.7427 304.499 70.361C280.695 89.84 262.472 115.273 251.681 144.075C225.534 215.423 241.337 293.568 260.793 364.621C263.846 376.323 265.764 388.412 265.037 400.516C262.788 438.675 233.634 454.957 199.001 459.327C183.762 461.281 168.31 461.062 153.047 459.643C145.415 458.9 137.808 457.887 130.283 456.392C161.599 461.795 202.674 463.342 231.767 449.126C250.592 439.841 261.49 424.256 263.429 403.289C264.447 392.335 263.098 381.294 260.656 370.604C260.046 367.974 259.257 364.89 258.509 362.26C250.964 335.396 244.441 308.186 240.365 280.548C228.282 199.345 239.348 118.432 307.969 65.4918C363.427 22.7889 440.631 8.7717 508.992 4.60469L508.997 4.59961Z" fill="url(#paint38_linear_751_13781)"/>
<path d="M508.388 3.0625C359.22 12.7295 224.792 67.1703 232.46 240.16C234.256 280.461 243.048 320.152 254.663 358.678C256.327 364.231 257.676 369.874 258.703 375.58C261.379 390.747 261.527 407.038 255.07 421.305C235.736 463.886 169.527 462.965 130.289 456.33C132.177 456.661 134.074 456.93 135.972 457.185C177.978 462.471 246.665 461.113 257.568 409.272C258.984 402.015 259.364 394.594 258.698 387.231C257.93 377.701 255.864 368.309 253.101 359.166C222.813 262.333 210.302 141.927 296.461 69.9076C353.623 21.8522 435.808 7.0616 508.388 3.0625Z" fill="url(#paint39_linear_751_13781)"/>
<path d="M507.782 1.53174C429.83 6.39579 339.952 23.1503 282.153 79.8857C252.816 108.744 235.655 145.26 229.325 185.786C222.055 232.345 228.41 280.024 240.336 325.276C242.798 334.536 245.551 343.766 248.476 352.883C252.643 365.735 255.701 379.106 255.757 392.681C255.961 439.764 217.155 456.036 176.146 458.463C160.827 459.353 145.456 458.623 130.289 456.285C132.182 456.58 134.085 456.794 135.988 457.028C174.493 461.098 235.746 458.625 250.903 415.154C255.889 400.628 254.801 384.784 251.539 369.989C249.931 362.525 247.469 355.173 245.128 347.912C238.148 325.882 232.516 303.398 228.847 280.569C216.779 206.773 226.364 130.119 282.957 76.5735C341.117 21.4459 430.41 5.23574 507.782 1.53174Z" fill="url(#paint40_linear_751_13781)"/>
<path d="M507.167 0C435.936 3.96858 356.345 17.7772 297.85 61.1924C221.225 117.851 209.081 209.185 228.308 297.338C231.774 313.289 236.142 329.031 241.389 344.488C246.395 358.576 250.578 373.153 251.137 388.198C251.378 393.545 251.062 398.903 250.196 404.184C242.564 449.63 192.006 458.93 153.22 458.009C145.549 457.857 137.892 457.262 130.289 456.229C145.521 458.056 160.908 458.202 176.172 456.661C216.84 452.403 251.768 434.402 249.641 388.274C249.051 375.371 245.871 362.687 241.643 350.517C232.928 326.003 226.196 300.742 222.172 275.012C208.958 190.883 227.087 109.594 299.116 58.0277C357.79 16.0727 436.505 2.91029 507.167 0Z" fill="url(#paint41_linear_751_13781)"/>
</g>
<defs>
<linearGradient id="paint0_linear_751_13781" x1="125.929" y1="458.014" x2="125.929" y2="277.098" gradientUnits="userSpaceOnUse">
<stop stop-color="#E1C08C"/>
<stop offset="1" stop-color="#FFEED2" stop-opacity="0.2"/>
</linearGradient>
<linearGradient id="paint1_linear_751_13781" x1="123.54" y1="455.608" x2="123.54" y2="279.942" gradientUnits="userSpaceOnUse">
<stop stop-color="#E1C08C"/>
<stop offset="1" stop-color="#FFEED2" stop-opacity="0.2"/>
</linearGradient>
<linearGradient id="paint2_linear_751_13781" x1="121.245" y1="453.273" x2="121.245" y2="282.649" gradientUnits="userSpaceOnUse">
<stop stop-color="#E1C08C"/>
<stop offset="1" stop-color="#FFEED2" stop-opacity="0.2"/>
</linearGradient>
<linearGradient id="paint3_linear_751_13781" x1="119.017" y1="451.008" x2="119.017" y2="285.422" gradientUnits="userSpaceOnUse">
<stop stop-color="#E1C08C"/>
<stop offset="1" stop-color="#FFEED2" stop-opacity="0.2"/>
</linearGradient>
<linearGradient id="paint4_linear_751_13781" x1="116.855" y1="448.826" x2="116.855" y2="288.164" gradientUnits="userSpaceOnUse">
<stop stop-color="#E1C08C"/>
<stop offset="1" stop-color="#FFEED2" stop-opacity="0.2"/>
</linearGradient>
<linearGradient id="paint5_linear_751_13781" x1="114.784" y1="446.694" x2="114.784" y2="290.877" gradientUnits="userSpaceOnUse">
<stop stop-color="#E1C08C"/>
<stop offset="1" stop-color="#FFEED2" stop-opacity="0.2"/>
</linearGradient>
<linearGradient id="paint6_linear_751_13781" x1="112.759" y1="444.654" x2="112.759" y2="293.568" gradientUnits="userSpaceOnUse">
<stop stop-color="#E1C08C"/>
<stop offset="1" stop-color="#FFEED2" stop-opacity="0.2"/>
</linearGradient>
<linearGradient id="paint7_linear_751_13781" x1="110.791" y1="442.695" x2="110.791" y2="296.255" gradientUnits="userSpaceOnUse">
<stop stop-color="#E1C08C"/>
<stop offset="1" stop-color="#FFEED2" stop-opacity="0.2"/>
</linearGradient>
<linearGradient id="paint8_linear_751_13781" x1="109.604" y1="440.828" x2="109.604" y2="298.992" gradientUnits="userSpaceOnUse">
<stop stop-color="#E1C08C"/>
<stop offset="1" stop-color="#FFEED2" stop-opacity="0.2"/>
</linearGradient>
<linearGradient id="paint9_linear_751_13781" x1="107.035" y1="439.052" x2="107.035" y2="301.561" gradientUnits="userSpaceOnUse">
<stop stop-color="#E1C08C"/>
<stop offset="1" stop-color="#FFEED2" stop-opacity="0.2"/>
</linearGradient>
<linearGradient id="paint10_linear_751_13781" x1="328.143" y1="526.3" x2="328.143" y2="47.5062" gradientUnits="userSpaceOnUse">
<stop stop-color="#E1C08C"/>
<stop offset="1" stop-color="#FFEED2" stop-opacity="0.2"/>
</linearGradient>
<linearGradient id="paint11_linear_751_13781" x1="327.838" y1="523.074" x2="327.838" y2="45.9743" gradientUnits="userSpaceOnUse">
<stop stop-color="#E1C08C"/>
<stop offset="1" stop-color="#FFEED2" stop-opacity="0.2"/>
</linearGradient>
<linearGradient id="paint12_linear_751_13781" x1="327.538" y1="519.955" x2="327.538" y2="44.4376" gradientUnits="userSpaceOnUse">
<stop stop-color="#E1C08C"/>
<stop offset="1" stop-color="#FFEED2" stop-opacity="0.2"/>
</linearGradient>
<linearGradient id="paint13_linear_751_13781" x1="327.232" y1="516.892" x2="327.232" y2="42.9111" gradientUnits="userSpaceOnUse">
<stop stop-color="#E1C08C"/>
<stop offset="1" stop-color="#FFEED2" stop-opacity="0.2"/>
</linearGradient>
<linearGradient id="paint14_linear_751_13781" x1="326.932" y1="513.84" x2="326.932" y2="41.3753" gradientUnits="userSpaceOnUse">
<stop stop-color="#E1C08C"/>
<stop offset="1" stop-color="#FFEED2" stop-opacity="0.2"/>
</linearGradient>
<linearGradient id="paint15_linear_751_13781" x1="326.627" y1="510.833" x2="326.627" y2="39.844" gradientUnits="userSpaceOnUse">
<stop stop-color="#E1C08C"/>
<stop offset="1" stop-color="#FFEED2" stop-opacity="0.2"/>
</linearGradient>
<linearGradient id="paint16_linear_751_13781" x1="326.321" y1="507.882" x2="326.321" y2="38.3125" gradientUnits="userSpaceOnUse">
<stop stop-color="#E1C08C"/>
<stop offset="1" stop-color="#FFEED2" stop-opacity="0.2"/>
</linearGradient>
<linearGradient id="paint17_linear_751_13781" x1="326.021" y1="504.992" x2="326.021" y2="36.7757" gradientUnits="userSpaceOnUse">
<stop stop-color="#E1C08C"/>
<stop offset="1" stop-color="#FFEED2" stop-opacity="0.2"/>
</linearGradient>
<linearGradient id="paint18_linear_751_13781" x1="325.716" y1="502.121" x2="325.716" y2="35.2485" gradientUnits="userSpaceOnUse">
<stop stop-color="#E1C08C"/>
<stop offset="1" stop-color="#FFEED2" stop-opacity="0.2"/>
</linearGradient>
<linearGradient id="paint19_linear_751_13781" x1="325.409" y1="499.364" x2="325.409" y2="33.7122" gradientUnits="userSpaceOnUse">
<stop stop-color="#E1C08C"/>
<stop offset="1" stop-color="#FFEED2" stop-opacity="0.2"/>
</linearGradient>
<linearGradient id="paint20_linear_751_13781" x1="325.104" y1="496.622" x2="325.104" y2="32.1812" gradientUnits="userSpaceOnUse">
<stop stop-color="#E1C08C"/>
<stop offset="1" stop-color="#FFEED2" stop-opacity="0.2"/>
</linearGradient>
<linearGradient id="paint21_linear_751_13781" x1="324.8" y1="493.93" x2="324.8" y2="30.6499" gradientUnits="userSpaceOnUse">
<stop stop-color="#E1C08C"/>
<stop offset="1" stop-color="#FFEED2" stop-opacity="0.2"/>
</linearGradient>
<linearGradient id="paint22_linear_751_13781" x1="324.5" y1="491.3" x2="324.5" y2="29.1182" gradientUnits="userSpaceOnUse">
<stop stop-color="#E1C08C"/>
<stop offset="1" stop-color="#FFEED2" stop-opacity="0.2"/>
</linearGradient>
<linearGradient id="paint23_linear_751_13781" x1="324.195" y1="488.786" x2="324.195" y2="27.5818" gradientUnits="userSpaceOnUse">
<stop stop-color="#E1C08C"/>
<stop offset="1" stop-color="#FFEED2" stop-opacity="0.2"/>
</linearGradient>
<linearGradient id="paint24_linear_751_13781" x1="323.889" y1="486.314" x2="323.889" y2="26.0501" gradientUnits="userSpaceOnUse">
<stop stop-color="#E1C08C"/>
<stop offset="1" stop-color="#FFEED2" stop-opacity="0.2"/>
</linearGradient>
<linearGradient id="paint25_linear_751_13781" x1="323.589" y1="483.912" x2="323.589" y2="24.5187" gradientUnits="userSpaceOnUse">
<stop stop-color="#E1C08C"/>
<stop offset="1" stop-color="#FFEED2" stop-opacity="0.2"/>
</linearGradient>
<linearGradient id="paint26_linear_751_13781" x1="323.288" y1="481.587" x2="323.288" y2="22.9822" gradientUnits="userSpaceOnUse">
<stop stop-color="#E1C08C"/>
<stop offset="1" stop-color="#FFEED2" stop-opacity="0.2"/>
</linearGradient>
<linearGradient id="paint27_linear_751_13781" x1="322.984" y1="479.318" x2="322.984" y2="21.451" gradientUnits="userSpaceOnUse">
<stop stop-color="#E1C08C"/>
<stop offset="1" stop-color="#FFEED2" stop-opacity="0.2"/>
</linearGradient>
<linearGradient id="paint28_linear_751_13781" x1="322.678" y1="477.176" x2="322.678" y2="19.9197" gradientUnits="userSpaceOnUse">
<stop stop-color="#E1C08C"/>
<stop offset="1" stop-color="#FFEED2" stop-opacity="0.2"/>
</linearGradient>
<linearGradient id="paint29_linear_751_13781" x1="322.373" y1="475.075" x2="322.373" y2="18.388" gradientUnits="userSpaceOnUse">
<stop stop-color="#E1C08C"/>
<stop offset="1" stop-color="#FFEED2" stop-opacity="0.2"/>
</linearGradient>
<linearGradient id="paint30_linear_751_13781" x1="322.067" y1="473.08" x2="322.067" y2="16.8509" gradientUnits="userSpaceOnUse">
<stop stop-color="#E1C08C"/>
<stop offset="1" stop-color="#FFEED2" stop-opacity="0.2"/>
</linearGradient>
<linearGradient id="paint31_linear_751_13781" x1="321.768" y1="471.167" x2="321.768" y2="15.3201" gradientUnits="userSpaceOnUse">
<stop stop-color="#E1C08C"/>
<stop offset="1" stop-color="#FFEED2" stop-opacity="0.2"/>
</linearGradient>
<linearGradient id="paint32_linear_751_13781" x1="321.468" y1="469.351" x2="321.468" y2="13.7884" gradientUnits="userSpaceOnUse">
<stop stop-color="#E1C08C"/>
<stop offset="1" stop-color="#FFEED2" stop-opacity="0.2"/>
</linearGradient>
<linearGradient id="paint33_linear_751_13781" x1="321.157" y1="467.672" x2="321.157" y2="12.2573" gradientUnits="userSpaceOnUse">
<stop stop-color="#E1C08C"/>
<stop offset="1" stop-color="#FFEED2" stop-opacity="0.2"/>
</linearGradient>
<linearGradient id="paint34_linear_751_13781" x1="320.857" y1="466.079" x2="320.857" y2="10.7256" gradientUnits="userSpaceOnUse">
<stop stop-color="#E1C08C"/>
<stop offset="1" stop-color="#FFEED2" stop-opacity="0.2"/>
</linearGradient>
<linearGradient id="paint35_linear_751_13781" x1="320.552" y1="464.563" x2="320.552" y2="9.19385" gradientUnits="userSpaceOnUse">
<stop stop-color="#E1C08C"/>
<stop offset="1" stop-color="#FFEED2" stop-opacity="0.2"/>
</linearGradient>
<linearGradient id="paint36_linear_751_13781" x1="320.247" y1="463.158" x2="320.247" y2="7.65703" gradientUnits="userSpaceOnUse">
<stop stop-color="#E1C08C"/>
<stop offset="1" stop-color="#FFEED2" stop-opacity="0.2"/>
</linearGradient>
<linearGradient id="paint37_linear_751_13781" x1="319.946" y1="461.937" x2="319.946" y2="6.12578" gradientUnits="userSpaceOnUse">
<stop stop-color="#E1C08C"/>
<stop offset="1" stop-color="#FFEED2" stop-opacity="0.2"/>
</linearGradient>
<linearGradient id="paint38_linear_751_13781" x1="319.64" y1="460.747" x2="319.64" y2="4.59453" gradientUnits="userSpaceOnUse">
<stop stop-color="#E1C08C"/>
<stop offset="1" stop-color="#FFEED2" stop-opacity="0.2"/>
</linearGradient>
<linearGradient id="paint39_linear_751_13781" x1="319.341" y1="459.744" x2="319.341" y2="3.0625" gradientUnits="userSpaceOnUse">
<stop stop-color="#E1C08C"/>
<stop offset="1" stop-color="#FFEED2" stop-opacity="0.2"/>
</linearGradient>
<linearGradient id="paint40_linear_751_13781" x1="319.036" y1="458.829" x2="319.036" y2="1.52664" gradientUnits="userSpaceOnUse">
<stop stop-color="#E1C08C"/>
<stop offset="1" stop-color="#FFEED2" stop-opacity="0.2"/>
</linearGradient>
<linearGradient id="paint41_linear_751_13781" x1="318.73" y1="458.071" x2="318.73" y2="-0.00507844" gradientUnits="userSpaceOnUse">
<stop stop-color="#E1C08C"/>
<stop offset="1" stop-color="#FFEED2" stop-opacity="0.2"/>
</linearGradient>
</defs>
</svg>
