<svg width="541" height="865" viewBox="0 0 541 865" fill="none" xmlns="http://www.w3.org/2000/svg">
<g opacity="0.2">
<path d="M403.76 894.979C443.112 863.396 483.6 820.263 501.937 772.682C523.526 716.027 502.603 669.756 454.691 635.789C409.595 604.14 352.886 608.566 302.778 624.17C235.437 645.621 174.881 683.995 118.488 725.831C79.8303 755.074 42.5269 786.38 8.81833 821.261C5.79071 824.474 2.8109 827.724 0 831.125C5.54851 824.263 11.6452 817.857 17.7864 811.522C73.9216 755.361 136.855 705.574 205.457 665.438C271.992 627.258 367.527 586.589 441.793 625.075C462.145 636 480.684 652.31 494.011 671.19C506.89 689.496 513.653 712.031 512.25 734.394C508.684 796.827 451.019 858.424 403.76 894.982V894.979Z" fill="url(#paint0_linear_747_8923)"/>
<path d="M398.968 892.308C466.649 839.866 558.256 736.274 469.827 660.004C453.736 645.946 434.859 634.884 414.138 629.409C316.779 604.066 196.27 678.016 119.901 733.31C85.3417 758.755 52.0315 786.029 21.1976 815.91C15.0723 821.927 8.97881 828.001 3.45898 834.582C6.15516 831.242 9.04254 828.055 11.9777 824.916C56.8406 778.619 107.625 738.183 161.242 702.46C218.754 665.039 287.367 628.583 356.728 622.445C381.5 620.441 406.992 622.93 430.158 632.401C452.534 641.583 474.292 658.174 489.098 677.312C547.375 754.322 459.074 847.034 398.974 892.311H398.971L398.968 892.308Z" fill="url(#paint1_linear_747_8923)"/>
<path d="M394.175 889.638C443.557 852.644 525.759 773.381 495.964 705.639C485.281 681.673 463.636 664.508 441.078 652.206C373.9 617.49 291.804 645.029 228.396 675.863C161.062 709.437 99.4322 753.739 42.838 803.096C30.4184 814.263 17.8586 825.408 6.9082 838.047C17.6897 825.248 30.1284 813.954 42.4556 802.666C121.655 732.221 239.643 648.761 346.658 635.414C379.933 631.424 415.203 635.168 444.804 651.913C466.583 664.412 487.314 681.449 497.612 704.915C527.48 773.865 444.82 852.704 394.169 889.638H394.172H394.175Z" fill="url(#paint2_linear_747_8923)"/>
<path d="M389.382 886.967C442.477 848.309 540.849 757.761 477.903 690.812C466.746 679.046 452.918 669.985 438.465 662.764C351.687 621.142 238.989 675.818 163.793 721.624C115.466 751.655 69.5481 785.781 27.5534 824.193C21.6289 829.758 15.6533 835.306 10.3789 841.508C15.5768 835.246 21.4887 829.617 27.3527 823.98C75.036 779.655 127.736 740.64 183.941 707.748C257.302 665.699 363.198 619.909 444.743 663.956C457.303 670.887 469.283 679.138 479.143 689.659C542.723 757.949 443.921 848.315 389.385 886.97L389.382 886.967Z" fill="url(#paint3_linear_747_8923)"/>
<path d="M384.596 884.296C444.284 842.275 553.314 742.992 454.221 682.765C344.271 613.617 176.216 716.225 86.015 783.45C63.8911 800.09 42.207 817.411 22.0749 836.431C19.2354 839.181 16.3862 841.941 13.8398 844.968C15.0859 843.426 16.4372 841.979 17.8044 840.548C21.922 836.271 26.2435 832.195 30.6128 828.17C71.7533 791.023 116.702 758.146 164.045 729.323C238.868 684.613 347.088 634.189 433.828 670.406C464.413 683.734 496.503 706.954 495.543 743.808C494.109 797.894 426.402 855.524 384.596 884.292V884.296Z" fill="url(#paint4_linear_747_8923)"/>
<path d="M379.807 881.624C436.647 842.928 551.703 744.827 449.047 690.495C324.756 622.467 128.566 752.412 34.0662 832.577C28.3105 837.673 22.4019 842.657 17.3027 848.429C22.3477 842.609 28.2085 837.561 33.9164 832.405C74.5789 797.033 118.769 765.727 165.203 738.351C198.456 718.917 233.169 701.749 269.554 688.953C326.846 668.735 394.034 658.731 449.681 689.323C553.29 744.566 438.049 843.017 379.814 881.627H379.807V881.624Z" fill="url(#paint5_linear_747_8923)"/>
<path d="M405.78 897C538.291 858.32 861.621 738.366 827.839 563.086C801.282 409.621 429.153 395.815 320.666 217.109C246.719 96.8998 320.404 -52.9895 387.076 -159.428C315.602 -45.6722 239.041 115.955 335.249 237.697C457.855 396.659 802.614 415.373 828.091 563.035C861.796 738.557 538.737 858.294 405.78 896.997V897Z" fill="url(#paint6_linear_747_8923)"/>
<path d="M384.27 -160.641C333.403 -80.4184 280.168 22.8393 285.557 120.258C301.007 379.282 723.985 388.406 804.704 536.451C810.147 546.56 813.666 557.634 815.836 568.875C820.304 591.384 818.475 615.006 810.963 636.63C765.998 767.2 530.262 859.727 405.715 896.938C529.915 859.663 765.833 766.929 810.651 636.524C818.134 614.949 819.954 591.391 815.489 568.938C813.315 557.73 809.813 546.697 804.382 536.619C723.86 389.006 300.625 379.448 285.302 120.274C279.951 22.6736 333.234 -80.2909 384.267 -160.641H384.27Z" fill="url(#paint7_linear_747_8923)"/>
<path d="M381.463 -161.854C341.715 -99.6354 305.884 -33.3306 288.674 39.0071C287.884 42.2929 287.11 46.2543 286.374 49.5688L286.09 51.0858L284.955 57.1569L284.672 58.6739L284.426 60.1973C284.053 62.4696 283.585 65.58 283.222 67.8237C282.986 69.8952 282.275 74.9434 282.049 77.0181C281.845 79.182 281.501 82.5188 281.29 84.705C281.15 86.1902 280.761 92.2167 280.643 93.9504L280.417 100.127C280.401 101.115 280.315 102.268 280.331 103.215C280.315 105.557 280.302 108.633 280.306 110.94L280.35 112.486L280.525 118.665C292.818 389.548 748.212 394.092 799.892 559.489C853.981 733.112 533.905 857.85 405.646 896.871C533.264 857.809 853.593 732.841 799.462 559.62C748.018 394.873 292.349 389.774 280.2 118.678L280.028 112.492L279.984 110.947C279.968 110.43 279.984 109.914 279.984 109.401L279.996 106.306L280.009 103.212V102.44L280.041 101.669L280.098 100.124L280.328 93.9409L280.749 87.7677L280.854 86.222L280.905 85.4508L280.981 84.6827L281.284 81.6041L281.587 78.5287L281.736 76.9894C281.787 76.4763 281.864 75.9664 281.928 75.4565L282.718 69.3215L282.916 67.7886L283.158 66.2621L283.639 63.209L284.12 60.1558L284.366 58.6293L284.653 57.1091L285.79 51.0316L286.077 49.5146L286.402 48.0039L287.056 44.9827L287.709 41.9615C287.926 40.9544 288.136 39.9441 288.391 38.9466C305.667 -33.4007 341.629 -99.6641 381.46 -161.851H381.463V-161.854Z" fill="url(#paint8_linear_747_8923)"/>
<path d="M378.653 -163.064C330.737 -89.1938 282.371 1.88008 276.02 91.0641C264.716 248.115 396.2 324.786 520.696 383.277C565.077 404.206 610.323 423.324 654.188 445.359C702.369 470.306 760.811 501.768 783.655 553.521C852.86 723.116 552.521 847.535 428.882 889.3C421.148 891.901 413.387 894.444 405.576 896.812C532.255 856.987 854.463 728.059 783.104 553.757C760.355 502.221 701.884 470.765 653.892 445.942C610.017 423.933 564.803 404.798 520.418 383.854C395.642 325.182 264.18 248.401 275.612 91.0354C277.53 64.0992 283.273 37.3032 291.355 11.5876C311.083 -50.7749 343.16 -108.437 378.65 -163.061L378.653 -163.064Z" fill="url(#paint9_linear_747_8923)"/>
<path d="M375.854 -164.278C320.876 -80.3018 261.98 30.3178 271.468 133.623C295.364 389.527 721.723 406.66 774.97 567.567C831.281 733.598 527.968 857.431 405.518 896.739C527.212 857.367 830.519 733.209 774.311 567.79C721.277 407.546 294.526 389.951 270.945 133.671C261.572 30.0533 320.566 -80.1297 375.857 -164.275H375.854V-164.278Z" fill="url(#paint10_linear_747_8923)"/>
<path d="M373.052 -165.487C306.451 -64.814 231.599 77.4202 281.902 198.907C305.823 257.047 354.38 300.667 406.008 334.481C473.343 378.595 547.953 409.594 619.296 446.372C654.843 464.939 690.41 484.631 720.485 511.488C735.034 524.609 748.065 539.81 756.775 557.46C762.687 569.679 766.875 582.828 768.787 596.268C790.101 745.577 521.169 858.526 405.457 896.674C520.414 858.446 789.324 745.124 768.009 596.376C766.1 583.022 761.941 569.956 756.058 557.814C747.383 540.257 734.419 525.154 719.934 512.103C689.906 485.313 654.391 465.678 618.898 447.153C547.513 410.401 472.925 379.318 405.565 335.163C353.831 301.241 305.151 257.49 281.264 199.169C231.028 77.1493 306.001 -64.575 373.058 -165.49H373.055L373.052 -165.487Z" fill="url(#paint11_linear_747_8923)"/>
<path d="M370.243 -166.705C310.57 -77.4446 245.234 43.0323 263.4 153.792C276.071 232.134 329.172 288.77 392.319 332.469C457.954 377.903 531.423 409.884 601.884 446.824C649.796 472.664 702.767 500.792 735.108 545.904C736.746 548.255 738.521 550.999 739.975 553.466L740.746 554.754C741.004 555.184 741.265 555.611 741.495 556.051L742.932 558.683L743.649 559.999C752.487 577.33 757.952 596.56 758.191 616.058C760.164 753.483 516.703 858.879 405.382 896.607C515.661 858.784 752.273 755.733 757.267 622.015C758.166 597.223 750.743 572.4 737.658 551.382C652.368 418.715 305.799 379.432 263.731 159.796C242.324 46.914 309.132 -75.867 370.236 -166.705H370.239H370.243Z" fill="url(#paint12_linear_747_8923)"/>
<path d="M367.443 -167.913C300.766 -68.9098 226.57 67.2246 266.35 189.25C314.948 335.411 503.648 397.576 625.957 470.315C675.626 499.989 730.426 537.021 743.728 597.086C776.388 743.349 516.418 857.841 405.327 896.537C516.208 857.426 780.531 740.716 741.72 593.004C735.117 567.645 720.422 545.069 701.711 526.897C655.886 483.006 597.536 455.636 542 426.297C438.041 371.997 304.749 308.698 265.518 189.518C225.872 66.9792 300.17 -68.76 367.443 -167.916V-167.913Z" fill="url(#paint13_linear_747_8923)"/>
<path d="M364.636 -169.127C306.171 -83.6239 243.618 28.7325 250.396 135.429C257.787 253.012 349.1 324.84 443.399 380.146C497.424 411.946 554.127 438.943 608.19 470.691C650.931 496.343 699.889 527.942 722.236 574.013C738.123 606.523 739.248 640.458 725.346 673.863C682.15 777.889 507.317 859.781 405.257 896.476C512.511 857.551 762.643 744.012 731.255 602.676L731.086 601.969L730.395 599.129C730.308 598.753 730.133 598.077 730.025 597.717L729.626 596.309C729.359 595.4 729.101 594.355 728.807 593.504C726.529 586.107 723.482 578.768 719.954 571.871C687.154 506.968 587.893 460.85 525.176 426.536C406.526 363.125 258.724 286.727 249.526 135.483C242.958 28.4011 305.626 -83.5219 364.636 -169.124V-169.127Z" fill="url(#paint14_linear_747_8923)"/>
<path d="M361.831 -170.336C301.929 -83.7111 237.495 30.8667 245.207 139.463C250.944 221.919 297.901 283.383 360.99 332.997C406.888 369.036 458.02 397.521 509.053 425.512C573.885 462.261 677.589 510.613 710.663 578.779C715.192 587.926 718.755 597.691 720.983 607.653L721.276 609.087L721.853 611.959L722.324 614.846C722.398 615.327 722.49 615.809 722.551 616.293L722.732 617.746C722.847 618.715 722.993 619.681 723.076 620.653C723.545 625.392 723.746 630.504 723.574 635.265C719.29 754.744 524.739 849.123 426.941 888.17C419.729 891.016 412.491 893.804 405.19 896.421C419.76 891.102 434.124 885.244 448.389 879.154C539.679 839.836 704.713 755.458 721.273 648.198C724.16 628.802 721.805 609.575 714.841 591.256C699.378 550.285 664.385 521.156 629.227 497.03C545.177 440.921 450.317 402.288 369.47 341.099C345.803 323.248 323.425 303.406 304.115 280.859C267.739 238.284 246.447 189.909 243.888 133.704C239.114 26.5197 302.225 -84.9317 361.831 -170.336Z" fill="url(#paint15_linear_747_8923)"/>
<path d="M359.029 -171.553C305.258 -94.5971 250.908 -0.307541 240.728 94.4855C230.677 188.648 268.857 262.085 338.721 323.15C420.212 394.404 522.456 436.651 612.003 496.094C662.058 529.43 715.621 576.788 712.204 642.293C705.012 762.142 504.743 858.414 405.128 896.348C412.337 893.662 419.476 890.784 426.592 887.858C521.949 848.056 716.746 751.055 710.978 630.74C706.063 554.903 630.883 508.418 572.096 472.619C471.015 412 342.966 356.027 276.649 254.841C245.034 206.329 233.488 151.625 239.772 94.3835C250.143 -0.533829 304.793 -94.7214 359.032 -171.553H359.029Z" fill="url(#paint16_linear_747_8923)"/>
<path d="M356.223 -172.76C288.64 -77.001 214.467 52.9634 238.286 174.256C249.67 232.345 282.824 280.688 325.657 320.509C370.548 362.309 423.137 394.558 475.843 425.453C515.453 448.692 555.791 470.851 594.104 496.261C619.546 513.311 644.42 531.786 664.845 554.802C799.82 710.135 524.813 849.698 405.063 896.285C504.739 856.824 734.05 743.709 695.606 610.998C677.115 547.877 607.681 505.755 554.427 473.063C433.787 400.059 263.482 323.827 236.31 170.244C215.133 49.9517 288.707 -78.2089 356.226 -172.76H356.223Z" fill="url(#paint17_linear_747_8923)"/>
<path d="M353.42 -173.975C288.358 -82.8625 218.111 38.1816 229.371 154.04C255.478 421.573 696.71 464.55 690.132 650.158C689.208 670.217 682.483 689.655 672.655 707.02C626.278 787.848 509.731 850.749 426.016 887.53C419.052 890.526 412.06 893.461 404.991 896.218C419.081 890.605 432.935 884.423 446.674 878.014C524.678 841.137 633.274 779.501 674.267 701.434C678.997 692.214 682.872 682.49 685.422 672.435C688.641 659.649 689.711 646.277 688.089 633.159C680.262 571.794 623.317 529.949 575.363 497.806C492.824 443.764 402.25 400.814 328.22 334.579C314.077 321.834 300.66 308.232 288.492 293.579C254.12 252.346 232.271 205.099 227.809 151.328C218.309 35.9252 288.03 -83.5254 353.417 -173.965V-173.975H353.42Z" fill="url(#paint18_linear_747_8923)"/>
<path d="M350.616 -175.186C288.158 -88.7678 222.309 22.9608 222.51 132.529C222.503 305.084 391.556 393.245 520.179 472.425C571.062 504.428 638.393 544.724 666.604 599.049C733.154 729.352 522.234 844.2 425.717 887.301C418.833 890.354 411.921 893.35 404.932 896.157C418.862 890.427 432.553 884.139 446.123 877.603C522.148 840.736 634.553 774.868 668.465 694.716C681.411 663.914 681.286 632.465 666.464 602.284C644.442 557.769 597.976 525.16 557.511 498.147C494.307 456.869 427.397 421.239 366.87 375.869C281.316 312.095 216.636 233.24 221.417 121.199C225.808 15.2324 289.347 -91.5277 350.616 -175.179V-175.186Z" fill="url(#paint19_linear_747_8923)"/>
<path d="M347.812 -176.398C277.539 -80.0884 201.252 49.0283 219.584 172.781C230.209 245.629 273.074 303.823 327.239 351.446C403.436 418.707 495.821 463.257 577.802 522.557C605.927 543.499 633.727 566.639 652.074 596.998C731.538 731.106 504.859 853.555 404.861 896.092C411.755 893.182 418.572 890.091 425.35 886.935C525.38 840.084 740.073 716.984 642.083 585.069C605.114 537.459 551.784 506.476 501.77 474.345C439.819 435.649 376.351 398.148 321.799 349.087C268.52 301.219 227.185 242.595 217.649 170.213C201.17 46.9504 277.121 -80.9361 347.802 -176.398H347.805H347.812Z" fill="url(#paint20_linear_747_8923)"/>
<path d="M345.006 -177.608C277.322 -86.0052 205.478 33.8374 211.329 151.589C220.616 325.085 394.602 412.64 523.075 497.27C560.235 522.02 597.883 547.535 627.101 581.75C629.465 584.542 631.865 587.643 634.035 590.594C642.867 602.695 650.079 616.15 654.161 630.603C687.959 749.77 494.982 856.469 404.807 896.026C411.627 893.062 418.361 889.904 425.06 886.685C501.302 849.618 614.461 782.328 647.739 701.557C662.326 665.828 658.518 630.727 637.347 598.497C625.641 580.599 610.261 565.465 594.122 551.531C560.034 522.584 522.001 498.774 484.385 474.751C421.567 434.834 357.477 395.3 303.917 343.037C251.778 292.131 215.048 231.171 210.077 157.259C201.762 37.3941 275.566 -84.9918 345.013 -177.605L345.006 -177.611V-177.608Z" fill="url(#paint21_linear_747_8923)"/>
<path d="M342.201 -178.822C274.965 -88.9111 204.374 27.4004 205.053 143.03C205.738 254.191 274.264 333.547 358.343 397.923C417.101 443.185 481.643 480.029 542.278 522.639C566.439 539.861 590.14 558.055 610.486 579.787C617.471 587.258 623.909 595.317 629.432 603.941C635.417 613.372 640.341 623.602 643.506 634.323C677.594 750.743 492.721 856.084 404.735 895.957C411.479 892.929 418.136 889.717 424.756 886.424C502.422 847.457 638.662 765.278 645.791 670.186C647.359 647.743 641.087 626.333 629.333 607.275C623.578 597.832 616.659 589.141 609.103 581.072C588.84 559.496 565.183 541.407 541.099 524.302C492.6 490.224 441.497 459.98 392.959 425.902C294.492 357.136 203.81 271.627 203.367 143.03C202.972 27.0753 274.098 -89.1533 342.197 -178.828H342.201V-178.822Z" fill="url(#paint22_linear_747_8923)"/>
<path d="M339.398 -180.033C272.481 -91.4993 203.292 20.8284 199.2 134.616C192.832 313.478 356.499 411.174 487.983 498C524.729 522.575 561.841 547.267 593.692 578.171C606.93 591.066 618.837 605.7 626.865 622.445C681.601 736.732 509.664 843.234 424.537 886.319C417.969 889.627 411.362 892.852 404.67 895.899C417.994 889.681 431.032 882.877 443.92 875.818C514.531 836.765 632.206 759.57 635.658 670.899C636.273 652.475 631.502 634.523 622.674 618.378C607.632 590.814 583.197 570.064 558.973 550.728C524.098 523.553 486.699 499.912 449.842 475.522C326.395 394.554 190.429 297.578 197.482 133.166C202.374 19.748 271.901 -92.2355 339.398 -180.033Z" fill="url(#paint23_linear_747_8923)"/>
<path d="M336.595 -181.247C261.402 -82.7728 181.633 46.7455 194.304 175.553C203.422 267.449 259.423 338.047 327.917 395.785C372.729 433.64 421.856 465.879 470.579 498.415C508.577 524.019 547.117 549.359 580.822 580.607C590.259 589.403 599.049 598.929 606.442 609.528C624.006 634.473 631.572 663.465 625.003 693.562C607.755 772.029 509.893 838.164 443.556 875.637C430.777 882.75 417.838 889.596 404.605 895.826C479.301 858.848 594.593 786.421 620.586 703.745C634.953 657.588 616.803 618.098 583.375 585.904C538.006 543.061 484.024 510.968 432.714 475.899C378.042 439.058 323.618 400.53 278.37 352.178C235.189 306.225 202.784 251.126 193.835 188.059C174.675 54.8595 258.094 -80.2487 336.592 -181.244V-181.25L336.595 -181.247Z" fill="url(#paint24_linear_747_8923)"/>
<path d="M333.789 -182.455C265.378 -93.8065 196.606 14.9296 187.511 129.128C180.614 211.865 211.884 287.103 266.554 348.35C349.067 442.378 464.11 497.433 559.761 575.851C565.08 580.393 571.062 585.667 576.081 590.549C603.221 616.867 621.508 649.945 616.616 688.705C607.53 757.381 534.485 815.839 480.141 852.151C455.843 868.176 430.666 882.922 404.533 895.768C411.06 892.54 417.479 889.114 423.862 885.618C489.109 849.162 573.834 792.001 605.29 722.279C619.555 689.836 619.453 657.09 601.58 626.014C590.783 607.032 574.966 591.474 558.349 577.531C490.686 521.835 413.336 479.356 344.896 424.611C253.968 353.105 180.442 264.376 184.827 142.666C189.056 23.7989 262.219 -91.4768 333.786 -182.449L333.789 -182.455Z" fill="url(#paint25_linear_747_8923)"/>
<path d="M330.983 -183.668C254.005 -85.28 172.677 44.1841 180.957 173.916C187.445 278.643 252.702 357.906 330.779 422.04C386.777 468.391 448.751 506.695 507.853 548.859C525.569 561.601 543.06 574.731 559.482 589.139C568.37 596.989 576.704 605.574 583.885 615.033C588.843 621.541 593.343 628.626 596.957 635.968C650.753 745.558 486.841 853.332 404.465 895.703C484.936 853.294 647.404 745.702 595.711 638.091C591.992 630.436 587.365 623.083 582.176 616.337C575.041 607.018 566.802 598.579 557.997 590.828C530.598 567.018 500.6 546.443 470.687 525.945C416.68 489.116 361.785 453.075 312.47 409.923C239.383 346.2 182.521 268.604 178.464 168.6C173.126 40.2577 253.74 -86.9022 330.97 -183.662L330.983 -183.668Z" fill="url(#paint26_linear_747_8923)"/>
<path d="M328.183 -184.88C252.493 -89.1018 174.377 33.0227 173.906 159.061C173.233 300.683 276.472 397.755 383.528 474.838C430.358 508.865 479.462 539.744 525.696 574.628C537.574 583.737 549.458 592.909 560.08 603.512C567.458 610.937 574.268 618.984 580.037 627.733C652.289 737.884 488.762 850.791 404.406 895.635C410.786 892.257 417.055 888.681 423.276 885.023C513.671 831.635 667.481 713.137 558.464 605.127C547.909 594.645 536.057 585.547 524.252 576.534C426.026 503.447 314.285 443.625 238.031 345.278C196.141 291.38 170.977 227.724 171.64 159.048C172.58 32.4108 251.18 -89.3918 328.18 -184.883L328.183 -184.88Z" fill="url(#paint27_linear_747_8923)"/>
<path d="M325.382 -186.094C240.376 -79.9105 150.653 61.4952 170.008 203.449C186.051 321.679 275.404 407.322 366.946 475.138C421.79 516.23 480.593 551.797 534.644 593.973C544.523 601.934 553.794 610.718 561.88 620.521C622.292 693.426 569.417 769.416 510.379 821.682C478.005 850.218 442.177 874.821 404.351 895.568C441.919 874.455 477.495 849.568 509.642 820.853C561.255 774.502 614.751 703.825 569.678 634.913C566.338 629.706 562.421 624.638 558.396 619.922C543.752 602.801 525.348 589.585 507.246 576.391C419.483 513.668 324.301 458.323 252.075 376.753C189.011 305.649 155.803 223.708 167.076 128.074C180.646 12.4542 253.108 -97.8021 325.385 -186.091H325.382V-186.094Z" fill="url(#paint28_linear_747_8923)"/>
<path d="M322.571 -187.305C215.304 -55.4058 106.667 126.242 190.398 296.986C239.27 396.346 331.494 464.216 420.513 525.68C453.071 548.075 486.241 569.733 518.104 593.173L522.429 596.437L526.677 599.799C565.516 631.07 589.728 672.542 575.045 723.157C555.181 790.517 480.303 848.484 422.807 884.58C416.707 888.347 410.553 892.028 404.281 895.502C441.397 873.888 476.438 848.417 507.711 818.96C542.223 785.707 578.366 741.536 577.273 691.032C576.327 652.288 550.49 620.951 520.905 598.419C441.209 540.091 354.619 490.489 282.597 422.167C243.356 385.147 208.28 342.541 185.525 293.321C164.851 248.749 155.714 200.224 158.592 151.247C166.116 25.8395 244.551 -93.0821 322.571 -187.305Z" fill="url(#paint29_linear_747_8923)"/>
<path d="M319.766 -188.515C209.529 -54.4937 99.0209 129.104 183.877 303.587C192.412 321.259 202.524 338.185 213.812 354.235C289.416 460.478 405.68 525.445 510.363 598.958C524.825 609.698 538.306 622.026 549.03 636.574C554.359 643.844 559.018 651.754 562.54 660.056C573.605 685.902 572.215 713.428 562.036 739.287C537.787 799.613 475.727 849.416 422.517 884.255C416.497 888.112 410.419 891.885 404.214 895.438C416.522 888.166 428.422 880.208 440.077 871.941C488.532 836.98 545.846 787.298 563.735 728.521C571.992 700.562 568.936 672.988 553.807 647.92C550.381 642.24 546.426 636.778 542.191 631.682C531.311 618.705 518.311 607.64 504.492 597.903C400.422 526.079 286.01 461.042 211.358 355.952C168.624 295.464 146.793 227.091 151.822 152.911C160.3 26.3978 240.347 -93.926 319.766 -188.521V-188.515Z" fill="url(#paint30_linear_747_8923)"/>
<path d="M316.962 -189.728C217.497 -69.4037 115.205 89.8234 156.164 252.77C187.342 373.581 288.139 458.829 386.75 527.263C418.84 549.54 452.424 570.969 485.103 592.468C494.874 598.829 504.508 605.5 513.419 613.05C532.656 629.204 549.534 649.461 557.084 673.745C584.782 763.63 471.628 854.115 404.148 895.37C440.355 872.692 474.27 845.966 503.638 814.902C547.963 767.589 582.959 703.932 539.24 643.864C531.974 633.803 523.216 624.819 513.808 616.74C507.048 610.959 499.919 605.624 492.548 600.646C356.104 511.086 186.962 412.335 150.284 240.369C117.847 81.7094 218.73 -74.1172 316.962 -189.728Z" fill="url(#paint31_linear_747_8923)"/>
<path d="M314.16 -190.941C236.959 -99.0963 160.115 14.4585 143.014 135.608C134.928 192.581 141.43 249.449 163.815 302.649C216.614 425.87 332.186 505.506 441.524 575.364C471.472 594.709 504.087 611.648 527.002 639.76C597.702 724.862 507.517 819.549 439.226 871.013C427.849 879.582 416.194 887.802 404.08 895.304C461.111 858.029 540.502 790.803 549.817 719.74C556.752 666.056 518.763 626.808 476.31 600.535C303.946 495.046 104.748 360.349 141.108 129.909C160.335 10.3505 236.523 -100.849 314.157 -190.941H314.16Z" fill="url(#paint32_linear_747_8923)"/>
<path d="M311.352 -192.153C194.853 -55.7863 78.9333 132.257 158.91 314.644C175.231 352.11 198.365 386.36 225.231 417.083C292.409 493.71 379.413 549.167 466.194 600.993C469.257 602.851 472.3 604.75 475.283 606.729C490.249 616.596 504.406 627.932 516.223 641.477C524.506 650.955 531.593 661.609 536.517 673.216C549.89 704.222 544.628 737.471 529.86 766.874C505.375 814.497 464.18 851.762 421.624 883.186C415.853 887.342 410.014 891.415 404.016 895.236C409.963 891.341 415.754 887.198 421.468 882.969C465.075 850.083 511.044 807.499 532.62 756.412C548.679 717.486 544.685 680.109 517.743 647.185C511.009 638.972 503.386 631.515 495.205 624.758C487.014 617.979 478.292 611.829 469.269 606.204C404.886 567.951 340.742 528.474 283.817 479.458C203.98 411.174 140.04 324.935 130.674 217.483C117.371 64.5981 215.115 -81.913 311.352 -192.153Z" fill="url(#paint33_linear_747_8923)"/>
<path d="M308.554 -193.363C223.924 -95.1538 139.301 28.6725 126.588 160.944C121.02 218.02 130.189 274.477 153.913 326.791C213.127 454.572 336.229 536.225 454.839 603.818C474.136 615.131 492.531 628.472 507.433 645.286C554.492 698.244 537.56 757.764 497.911 808.931C480.487 831.475 459.951 851.435 438.066 869.591C427.083 878.623 415.783 887.279 403.959 895.18C452.098 861.191 507.985 809.361 527.505 752.588C540.03 715.738 533.895 681.028 508.96 651.017C495.928 635.34 479.703 622.63 462.494 611.827C458.249 609.178 453.178 606.176 448.752 603.706C403.653 578.398 359.447 551.306 317.892 520.434C195.646 429.88 104.123 309.364 124.755 150C141.516 21.3234 224.383 -98.2611 308.554 -193.363Z" fill="url(#paint34_linear_747_8923)"/>
<path d="M305.749 -194.576C122.805 13.6696 17.8738 261.262 254.614 477.899C309.774 528.349 373.31 568.823 439.015 604.074C448.455 609.202 457.656 614.76 466.468 620.923C489.844 637.288 511.385 658.447 521.612 685.593C552.06 766.733 464.033 852.354 403.892 895.114C406.795 893.062 409.641 890.933 412.461 888.778C474.48 840.598 562.717 748.8 509.097 666.535C501.559 655.1 492.116 645.033 481.695 636.167C468.201 624.684 453.185 615.091 437.594 606.722C271.011 519.587 96.8405 378.227 115.44 170.876C127.435 32.9731 215.816 -94.174 305.749 -194.576Z" fill="url(#paint35_linear_747_8923)"/>
<path d="M302.942 -195.789C207.072 -87.1805 111.204 52.5997 109.761 202.725C109.098 279.005 134.45 349.357 179.249 410.757C230.722 481.291 301.527 535.438 376.459 579.089C391.823 587.994 407.516 596.478 423.336 604.56C445.638 615.934 467.166 629.443 485.029 647.163C546.987 708.589 517.424 780.789 466.828 837.747C447.91 858.978 426.778 878.256 403.822 895.045C406.687 892.948 409.488 890.762 412.267 888.544C468.081 843.384 545.171 759.832 508.087 683.004C495.587 657.425 473.4 638.09 449.737 622.983C437.849 615.316 425.018 608.875 412.404 602.472C374.384 582.761 337.536 560.678 302.782 535.613C190.27 454.686 102.431 341.702 106.478 197.333C110.503 48.8423 206.348 -89.4879 302.942 -195.789Z" fill="url(#paint36_linear_747_8923)"/>
<path d="M300.137 -197C211.954 -98.4208 125.667 24.0511 105.857 157.645C79.6122 332.368 183.358 467.957 324.107 558.282C349.526 574.666 375.933 589.501 403.038 602.906C428.065 614.806 452.64 628.421 473.097 647.399C480.351 654.098 487.072 661.505 492.786 669.564C542.305 739.133 488.216 817.589 436.157 867.239C425.85 877.039 415.12 886.428 403.755 894.982C426.102 877.447 446.508 857.366 464.48 835.379C512.224 776.484 534.44 707.097 471.21 649.445C453.529 633.313 432.741 620.858 411.251 610.459C367.704 589.756 325.773 565.491 286.787 537.054C159.226 444.141 76.4985 313.877 103.365 151.848C125.326 19.9303 211.291 -100.527 300.137 -197Z" fill="url(#paint37_linear_747_8923)"/>
<path d="M405.78 897C538.291 858.32 861.621 738.366 827.839 563.086C801.282 409.621 429.153 395.815 320.666 217.109C246.719 96.8998 320.404 -52.9895 387.076 -159.428C315.602 -45.6722 239.041 115.955 335.249 237.697C457.855 396.659 802.614 415.373 828.091 563.035C861.796 738.557 538.737 858.294 405.78 896.997V897Z" fill="url(#paint38_linear_747_8923)"/>
<path d="M384.271 -160.641C333.404 -80.4184 280.169 22.8393 285.562 120.258C301.012 379.282 723.989 388.406 804.708 536.451C810.152 546.56 813.67 557.634 815.841 568.875C820.309 591.384 818.479 615.006 810.968 636.63C766.003 767.2 530.266 859.727 405.72 896.938C529.919 859.663 765.84 766.929 810.659 636.524C818.141 614.949 819.961 591.391 815.496 568.938C813.323 557.73 809.82 546.697 804.39 536.619C723.868 389.006 300.633 379.448 285.31 120.274C279.959 22.6736 333.242 -80.2941 384.275 -160.641H384.278H384.271Z" fill="url(#paint39_linear_747_8923)"/>
<path d="M381.466 -161.854C341.718 -99.6354 305.887 -33.3306 288.674 39.0103C287.884 42.2961 287.113 46.2575 286.374 49.5719L286.09 51.0889L284.955 57.1601L284.672 58.6771L284.426 60.2005C284.053 62.4728 283.585 65.5832 283.222 67.8269C282.986 69.8984 282.275 74.9466 282.049 77.0213C281.845 79.1852 281.501 82.5252 281.29 84.7082C281.15 86.1965 280.761 92.2231 280.643 93.9536L280.417 100.13C280.401 101.118 280.315 102.272 280.331 103.218C280.315 105.561 280.302 108.636 280.306 110.943L280.35 112.489L280.525 118.669C292.818 389.551 748.209 394.099 799.892 559.493C853.978 733.118 533.905 857.85 405.646 896.871C533.264 857.809 853.593 732.841 799.462 559.623C748.018 394.876 292.349 389.777 280.2 118.678L280.028 112.492L279.984 110.947C279.968 110.43 279.984 109.914 279.984 109.401L279.996 106.306L280.009 103.212V102.437C280.009 102.437 280.041 101.666 280.038 101.666L280.095 100.12L280.325 93.9377L280.745 87.7645L280.85 86.2188L280.901 85.4476L280.978 84.6795L281.281 81.6009L281.584 78.5255L281.733 76.9862C281.784 76.4731 281.861 75.9632 281.925 75.4533L282.715 69.3184L282.912 67.7854L283.155 66.2589L283.636 63.2058L284.117 60.1526L284.363 58.6261L284.649 57.1059L285.787 51.0284L286.074 49.5114L286.399 48.0007L287.052 44.9795L287.706 41.9583C287.922 40.9512 288.133 39.9409 288.388 38.9434C305.664 -33.4039 341.626 -99.6672 381.457 -161.854L381.469 -161.848L381.466 -161.854Z" fill="url(#paint40_linear_747_8923)"/>
<path d="M378.661 -163.064C330.745 -89.1938 282.379 1.88008 276.028 91.0641C264.723 248.115 396.208 324.786 520.704 383.277C565.085 404.206 610.33 423.324 654.196 445.359C702.379 470.306 760.819 501.768 783.663 553.521C852.868 723.116 552.528 847.535 428.89 889.3C421.156 891.901 413.395 894.444 405.584 896.812C532.262 856.987 854.471 728.059 783.112 553.757C760.363 502.221 701.892 470.765 653.899 445.942C610.024 423.933 564.811 404.798 520.426 383.854C395.65 325.182 264.188 248.401 275.62 91.0354C277.538 64.0992 283.281 37.3032 291.363 11.5876C311.091 -50.7749 343.167 -108.437 378.657 -163.061L378.661 -163.064Z" fill="url(#paint41_linear_747_8923)"/>
<path d="M375.856 -164.278C320.877 -80.3018 261.982 30.3178 271.47 133.623C295.366 389.527 721.724 406.66 774.972 567.567C831.282 733.598 527.969 857.431 405.52 896.739C527.214 857.367 830.521 733.209 774.312 567.79C721.278 407.546 294.528 389.951 270.947 133.671C261.574 30.0533 320.568 -80.1297 375.859 -164.275H375.856V-164.278Z" fill="url(#paint42_linear_747_8923)"/>
<path d="M373.049 -165.486C306.448 -64.8133 231.595 77.4177 281.898 198.908C305.82 257.048 354.376 300.668 406.008 334.485C473.343 378.599 547.953 409.598 619.296 446.376C654.843 464.943 690.41 484.635 720.485 511.492C735.037 524.613 748.065 539.814 756.775 557.464C762.687 569.683 766.875 582.832 768.787 596.271C790.101 745.581 521.169 858.53 405.457 896.678C520.414 858.45 789.324 745.128 768.009 596.383C766.1 583.03 761.941 569.963 756.058 557.821C747.383 540.264 734.419 525.161 719.934 512.11C689.906 485.32 654.391 465.686 618.898 447.16C547.513 410.408 472.925 379.325 405.565 335.17C353.831 301.248 305.151 257.494 281.264 199.176C231.028 77.1564 306.002 -64.5679 373.058 -165.483H373.052L373.049 -165.486Z" fill="url(#paint43_linear_747_8923)"/>
<path d="M370.246 -166.705C310.573 -77.4446 245.238 43.0323 263.403 153.792C276.075 232.134 329.173 288.77 392.322 332.469C457.958 377.903 531.427 409.884 601.887 446.824C649.8 472.664 702.767 500.792 735.112 545.904C736.75 548.255 738.525 550.999 739.975 553.466L740.746 554.754C741.005 555.184 741.266 555.611 741.495 556.051L742.93 558.683L743.647 559.999C752.484 577.33 757.947 596.56 758.186 616.058C760.158 753.483 516.697 858.879 405.376 896.607C515.658 858.784 752.267 755.733 757.261 622.015C758.16 597.223 750.738 572.4 737.652 551.382C652.362 418.715 305.793 379.432 263.725 159.796C242.318 46.914 309.127 -75.867 370.23 -166.705H370.233H370.246Z" fill="url(#paint44_linear_747_8923)"/>
<path d="M367.442 -167.911C300.764 -68.9078 226.565 67.2266 266.348 189.252C314.946 335.413 503.646 397.578 625.956 470.317C675.625 499.991 730.425 537.023 743.727 597.088C776.387 743.351 516.414 857.843 405.325 896.539C516.206 857.428 780.527 740.718 741.719 593.006C735.116 567.647 720.421 545.071 701.71 526.899C655.885 483.008 597.534 455.638 541.998 426.299C438.04 371.999 304.748 308.7 265.52 189.52C225.874 66.9812 300.172 -68.758 367.445 -167.914L367.442 -167.911Z" fill="url(#paint45_linear_747_8923)"/>
<path d="M364.639 -169.127C306.175 -83.6236 243.621 28.736 250.399 135.426C257.79 253.009 349.103 324.84 443.402 380.143C497.427 411.943 554.13 438.94 608.194 470.688C650.934 496.34 699.892 527.939 722.239 574.01C738.129 606.52 739.251 640.455 725.35 673.86C682.154 777.886 507.32 859.778 405.26 896.473C512.515 857.548 762.647 744.009 731.258 602.676L731.089 601.966L730.395 599.126C730.309 598.75 730.133 598.074 730.025 597.714L729.627 596.306C729.356 595.397 729.101 594.352 728.808 593.498C726.529 586.101 723.482 578.761 719.954 571.865C687.154 506.962 587.893 460.847 525.176 426.53C406.526 363.119 258.724 286.724 249.526 135.477C242.958 28.395 305.626 -83.528 364.636 -169.13L364.639 -169.127Z" fill="url(#paint46_linear_747_8923)"/>
<path d="M361.835 -170.336C301.933 -83.7047 237.499 30.8635 245.211 139.463C250.948 221.919 297.904 283.383 360.994 332.997C406.892 369.036 458.024 397.521 509.057 425.512C573.892 462.261 677.593 510.613 710.667 578.779C715.196 587.926 718.759 597.691 720.987 607.653L721.28 609.087L721.857 611.959L722.328 614.846C722.402 615.327 722.494 615.809 722.555 616.293L722.736 617.746C722.851 618.715 722.998 619.681 723.081 620.653C723.549 625.392 723.75 630.504 723.578 635.265C719.294 754.744 524.743 849.123 426.945 888.17C419.732 891.016 412.495 893.804 405.194 896.421C419.764 891.102 434.128 885.244 448.393 879.154C539.683 839.836 704.717 755.458 721.277 648.198C724.167 628.799 721.809 609.575 714.845 591.256C699.382 550.285 664.389 521.156 629.231 497.03C545.181 440.921 450.321 402.288 369.474 341.099C345.808 323.248 323.429 303.406 304.119 280.859C267.743 238.284 246.451 189.909 243.892 133.704C239.118 26.5197 302.229 -84.9316 361.835 -170.336Z" fill="url(#paint47_linear_747_8923)"/>
<path d="M359.03 -171.553C305.26 -94.5971 250.909 -0.307541 240.73 94.4855C230.679 188.648 268.858 262.085 338.723 323.15C420.214 394.401 522.458 436.651 612.005 496.094C662.06 529.43 715.623 576.788 712.207 642.293C705.014 762.142 504.745 858.414 405.13 896.348C412.339 893.662 419.478 890.784 426.594 887.858C521.951 848.056 716.751 751.055 710.98 630.74C706.065 554.903 630.885 508.418 572.098 472.619C471.017 412 342.968 356.027 276.651 254.841C245.036 206.329 233.49 151.625 239.774 94.3835C250.145 -0.533829 304.795 -94.7246 359.034 -171.553H359.03Z" fill="url(#paint48_linear_747_8923)"/>
<path d="M356.227 -172.76C288.644 -77.001 214.471 52.9634 238.29 174.256C249.674 232.345 282.828 280.688 325.661 320.509C370.552 362.309 423.141 394.558 475.847 425.453C515.457 448.692 555.795 470.851 594.108 496.261C619.55 513.311 644.424 531.786 664.85 554.802C799.824 710.135 524.817 849.698 405.067 896.285C504.743 856.824 734.054 743.709 695.61 610.998C677.116 547.874 607.685 505.755 554.431 473.063C433.788 400.059 263.486 323.827 236.314 170.244C215.137 49.9517 288.711 -78.2089 356.23 -172.76H356.227Z" fill="url(#paint49_linear_747_8923)"/>
<path d="M353.42 -173.975C288.358 -82.8624 218.111 38.1816 229.371 154.04C255.478 421.573 696.71 464.55 690.132 650.158C689.208 670.217 682.483 689.655 672.655 707.02C626.275 787.848 509.731 850.749 426.016 887.53C419.052 890.526 412.06 893.461 404.991 896.218C419.078 890.605 432.935 884.423 446.674 878.014C524.678 841.137 633.274 779.501 674.267 701.434C678.997 692.214 682.872 682.49 685.422 672.435C688.641 659.649 689.711 646.277 688.089 633.159C680.262 571.794 623.317 529.949 575.363 497.806C492.824 443.764 402.25 400.814 328.22 334.579C314.077 321.834 300.66 308.232 288.492 293.579C254.12 252.346 232.271 205.099 227.809 151.328C218.309 35.9284 288.03 -83.5253 353.417 -173.965V-173.975H353.42Z" fill="url(#paint50_linear_747_8923)"/>
<path d="M350.616 -175.186C288.158 -88.7678 222.309 22.9608 222.51 132.529C222.504 305.084 391.556 393.245 520.179 472.425C571.062 504.428 638.393 544.724 666.604 599.049C733.154 729.352 522.234 844.2 425.714 887.301C418.83 890.354 411.918 893.343 404.929 896.157C418.859 890.427 432.55 884.139 446.12 877.603C522.145 840.736 634.549 774.868 668.465 694.709C681.41 663.907 681.286 632.458 666.463 602.278C644.441 557.762 597.975 525.153 557.511 498.141C494.307 456.863 427.397 421.233 366.87 375.863C281.313 312.085 216.636 233.234 221.417 121.193C225.808 15.226 289.344 -91.5309 350.616 -175.186Z" fill="url(#paint51_linear_747_8923)"/>
<path d="M347.814 -176.398C277.541 -80.0883 201.255 49.0283 219.587 172.781C230.212 245.629 273.076 303.823 327.242 351.446C403.439 418.707 495.823 463.257 577.804 522.557C605.929 543.499 633.729 566.639 652.076 596.998C731.54 731.106 504.861 853.555 404.864 896.092C411.757 893.182 418.574 890.091 425.353 886.935C525.382 840.084 740.075 716.984 642.085 585.069C605.116 537.459 551.786 506.476 501.773 474.345C439.822 435.649 376.353 398.148 321.805 349.087C268.525 301.219 227.191 242.595 217.655 170.213C201.175 46.9504 277.127 -80.9361 347.808 -176.398H347.814Z" fill="url(#paint52_linear_747_8923)"/>
<path d="M345.006 -177.608C277.322 -86.0052 205.478 33.8374 211.329 151.589C220.616 325.085 394.602 412.64 523.075 497.27C560.235 522.02 597.883 547.535 627.101 581.75C629.465 584.542 631.865 587.643 634.035 590.594C642.867 602.695 650.079 616.15 654.161 630.603C687.956 749.77 494.982 856.469 404.807 896.026C411.627 893.062 418.361 889.904 425.06 886.685C501.302 849.618 614.461 782.328 647.739 701.557C662.326 665.828 658.518 630.727 637.347 598.497C625.641 580.599 610.261 565.465 594.122 551.531C560.034 522.584 522.001 498.774 484.385 474.751C421.567 434.834 357.477 395.3 303.917 343.037C251.778 292.131 215.048 231.171 210.077 157.259C201.762 37.3941 275.566 -84.9918 345.013 -177.605L345.006 -177.611V-177.608Z" fill="url(#paint53_linear_747_8923)"/>
<path d="M342.209 -178.82C274.973 -88.9091 204.382 27.4023 205.061 143.032C205.746 254.193 274.272 333.549 358.35 397.925C417.109 443.186 481.651 480.031 542.286 522.641C566.447 539.863 590.148 558.057 610.494 579.789C617.479 587.26 623.917 595.319 629.44 603.943C635.425 613.374 640.349 623.604 643.514 634.325C677.602 750.745 492.729 856.086 404.743 895.958C411.487 892.931 418.144 889.719 424.764 886.426C502.43 847.459 638.67 765.28 645.799 670.188C647.367 647.745 641.095 626.335 629.341 607.277C623.586 597.834 616.667 589.143 609.11 581.074C588.848 559.498 565.191 541.409 541.107 524.304C492.608 490.226 441.505 459.982 392.967 425.904C294.5 357.138 203.818 271.629 203.375 143.032C202.98 27.0773 274.106 -89.1514 342.205 -178.826L342.209 -178.82Z" fill="url(#paint54_linear_747_8923)"/>
<path d="M339.398 -180.033C272.481 -91.4993 203.292 20.8284 199.2 134.616C192.832 313.478 356.499 411.174 487.983 498C524.729 522.575 561.841 547.267 593.692 578.171C606.931 591.066 618.837 605.7 626.865 622.445C681.601 736.732 509.664 843.234 424.537 886.319C417.969 889.627 411.362 892.852 404.67 895.899C417.995 889.681 431.032 882.877 443.92 875.818C514.534 836.765 632.206 759.57 635.658 670.899C636.273 652.475 631.502 634.523 622.674 618.378C607.632 590.814 583.197 570.064 558.973 550.728C524.098 523.553 486.699 499.912 449.842 475.522C326.395 394.554 190.429 297.578 197.482 133.166C202.374 19.748 271.901 -92.2355 339.398 -180.033Z" fill="url(#paint55_linear_747_8923)"/>
<path d="M336.594 -181.248C261.401 -82.774 181.631 46.7442 194.303 175.552C203.421 267.448 259.419 338.042 327.916 395.784C372.728 433.639 421.855 465.878 470.578 498.414C508.576 524.018 547.115 549.357 580.821 580.605C590.257 589.401 599.047 598.927 606.438 609.527C624.004 634.471 631.567 663.463 625.002 693.561C607.754 772.027 509.892 838.163 443.555 875.635C430.776 882.749 417.84 889.585 404.607 895.825C479.303 858.847 594.595 786.413 620.588 703.743C634.954 657.583 616.805 618.097 583.377 585.902C538.007 543.06 484.023 510.967 432.716 475.898C378.044 439.056 323.62 400.529 278.372 352.177C235.191 306.224 202.786 251.124 193.837 188.057C174.677 54.8582 258.096 -80.2499 336.594 -181.245V-181.248Z" fill="url(#paint56_linear_747_8923)"/>
<path d="M333.792 -182.455C265.384 -93.8065 196.609 14.9296 187.516 129.128C180.62 211.865 211.89 287.103 266.56 348.35C349.073 442.378 464.116 497.433 559.767 575.851C565.086 580.389 571.068 585.667 576.087 590.549C603.23 616.871 621.514 649.945 616.622 688.705C607.536 757.381 534.491 815.839 480.147 852.151C455.849 868.176 430.672 882.922 404.539 895.768C411.063 892.54 417.485 889.114 423.868 885.618C489.115 849.162 573.843 791.994 605.296 722.279C619.564 689.839 619.458 657.09 601.586 626.014C590.789 607.032 574.972 591.474 558.355 577.531C490.692 521.835 413.342 479.356 344.901 424.611C253.974 353.105 180.448 264.376 184.833 142.666C189.062 23.7989 262.225 -91.4768 333.792 -182.449V-182.455Z" fill="url(#paint57_linear_747_8923)"/>
<path d="M330.991 -183.668C254.013 -85.28 172.685 44.1841 180.964 173.916C187.453 278.643 252.709 357.906 330.787 422.04C386.782 468.391 448.759 506.695 507.861 548.859C525.577 561.601 543.067 574.731 559.489 589.139C568.378 596.989 576.712 605.574 583.892 615.033C588.851 621.541 593.351 628.626 596.965 635.968C650.761 745.558 486.849 853.332 404.472 895.703C484.943 853.294 647.411 745.702 595.719 638.091C591.999 630.436 587.372 623.083 582.184 616.337C575.048 607.018 566.81 598.579 558.004 590.828C530.606 567.018 500.607 546.443 470.694 525.945C416.685 489.119 361.793 453.075 312.477 409.923C239.391 346.2 182.529 268.604 178.472 168.6C173.134 40.2577 253.745 -86.9021 330.978 -183.662L330.991 -183.668Z" fill="url(#paint58_linear_747_8923)"/>
<path d="M328.183 -184.88C252.493 -89.1018 174.381 33.0195 173.906 159.061C173.233 300.683 276.472 397.755 383.528 474.838C430.358 508.865 479.462 539.744 525.696 574.628C537.573 583.737 549.457 592.909 560.079 603.512C567.457 610.937 574.268 618.984 580.036 627.733C652.288 737.884 488.762 850.792 404.406 895.632C410.786 892.254 417.055 888.678 423.276 885.019C513.671 831.631 667.48 713.134 558.464 605.124C547.908 594.642 536.056 585.547 524.252 576.534C426.026 503.447 314.285 443.625 238.031 345.278C196.141 291.38 170.977 227.724 171.64 159.048C172.58 32.4076 251.18 -89.3918 328.18 -184.883L328.183 -184.88Z" fill="url(#paint59_linear_747_8923)"/>
<path d="M325.382 -186.094C240.376 -79.9104 150.653 61.4952 170.008 203.449C186.051 321.679 275.404 407.322 366.946 475.138C421.79 516.23 480.593 551.797 534.644 593.973C544.527 601.934 553.794 610.718 561.88 620.521C622.292 693.426 569.417 769.416 510.379 821.682C478.005 850.218 442.177 874.821 404.351 895.568C441.919 874.455 477.499 849.568 509.642 820.853C561.255 774.502 614.751 703.825 569.678 634.913C566.338 629.706 562.421 624.638 558.396 619.922C543.752 602.801 525.348 589.585 507.246 576.391C419.483 513.668 324.301 458.323 252.075 376.753C189.011 305.649 155.803 223.708 167.076 128.074C180.646 12.4542 253.108 -97.802 325.385 -186.091H325.382V-186.094Z" fill="url(#paint60_linear_747_8923)"/>
<path d="M322.569 -187.305C215.302 -55.4058 106.665 126.242 190.396 296.986C239.268 396.346 331.493 464.216 420.511 525.68C453.072 548.078 486.239 569.733 518.102 593.173L522.427 596.437L526.675 599.799C565.514 631.07 589.729 672.538 575.043 723.157C555.179 790.517 480.302 848.484 422.806 884.58C416.706 888.347 410.552 892.028 404.28 895.502C441.395 873.888 476.436 848.417 507.71 818.96C542.221 785.707 578.364 741.536 577.271 691.032C576.325 652.288 550.488 620.951 520.904 598.419C441.207 540.091 354.617 490.489 282.595 422.167C243.354 385.147 208.278 342.541 185.523 293.321C164.849 248.745 155.712 200.224 158.587 151.247C166.115 25.8395 244.549 -93.0821 322.569 -187.305Z" fill="url(#paint61_linear_747_8923)"/>
<path d="M319.77 -188.515C209.532 -54.4905 99.0245 129.101 183.881 303.587C192.415 321.259 202.528 338.185 213.816 354.235C289.42 460.478 405.684 525.445 510.366 598.958C524.828 609.698 538.309 622.026 549.036 636.577C554.365 643.847 559.024 651.757 562.546 660.059C573.611 685.905 572.221 713.428 562.042 739.287C537.793 799.613 475.733 849.422 422.52 884.255C416.5 888.112 410.423 891.885 404.218 895.438C416.526 888.166 428.426 880.208 440.081 871.941C488.532 836.99 545.849 787.298 563.734 728.531C571.992 700.568 568.936 672.992 553.807 647.923C550.381 642.247 546.426 636.784 542.191 631.688C531.314 618.711 518.311 607.646 504.492 597.91C400.422 526.085 286.01 461.049 211.359 355.959C168.625 295.47 146.794 227.097 151.82 152.914C160.3 26.3978 240.347 -93.9228 319.77 -188.521V-188.515Z" fill="url(#paint62_linear_747_8923)"/>
<path d="M316.968 -189.728C217.502 -69.4037 115.207 89.8234 156.166 252.77C187.344 373.581 288.142 458.829 386.753 527.263C418.842 549.54 452.426 570.969 485.106 592.468C494.877 598.829 504.511 605.5 513.421 613.05C532.658 629.204 549.536 649.461 557.086 673.742C584.787 763.637 471.631 854.112 404.15 895.37C440.357 872.692 474.273 845.966 503.644 814.902C547.968 767.589 582.964 703.932 539.245 643.864C531.979 633.803 523.221 624.819 513.813 616.74C507.054 610.959 499.925 605.624 492.553 600.646C356.11 511.086 186.968 412.335 150.289 240.369C117.853 81.7094 218.736 -74.1172 316.968 -189.728Z" fill="url(#paint63_linear_747_8923)"/>
<path d="M314.162 -190.941C236.958 -99.0931 160.12 14.4553 143.016 135.608C134.931 192.581 141.432 249.449 163.817 302.649C216.616 425.87 332.188 505.506 441.526 575.364C471.474 594.709 504.089 611.648 527.004 639.76C597.703 724.862 507.519 819.549 439.228 871.013C427.851 879.582 416.196 887.802 404.086 895.304C461.116 858.038 540.507 790.803 549.822 719.747C556.757 666.056 518.769 626.808 476.315 600.538C303.954 495.046 104.753 360.352 141.116 129.913C160.343 10.3537 236.528 -100.849 314.162 -190.941Z" fill="url(#paint64_linear_747_8923)"/>
<path d="M311.358 -192.153C194.859 -55.7863 78.9359 132.257 158.916 314.644C175.236 352.11 198.371 386.36 225.237 417.083C292.415 493.71 379.419 549.167 466.197 600.993C469.263 602.851 472.303 604.75 475.286 606.729C490.252 616.596 504.408 627.932 516.226 641.477C524.509 650.955 531.596 661.609 536.52 673.216C549.892 704.222 544.631 737.471 529.862 766.874C505.377 814.497 464.183 851.762 421.627 883.186C415.855 887.342 410.017 891.415 404.019 895.236C409.966 891.341 415.757 887.198 421.471 882.969C465.078 850.083 511.047 807.499 532.622 756.412C548.681 717.486 544.688 680.109 517.746 647.185C511.012 638.972 503.385 631.515 495.208 624.758C487.017 617.979 478.294 611.829 469.272 606.204C404.889 567.951 340.745 528.474 283.816 479.458C203.98 411.174 140.04 324.935 130.673 217.483C117.374 64.5981 215.118 -81.913 311.358 -192.153Z" fill="url(#paint65_linear_747_8923)"/>
<path d="M308.554 -193.363C223.924 -95.1538 139.301 28.6725 126.588 160.944C121.02 218.02 130.189 274.477 153.913 326.791C213.127 454.572 336.229 536.225 454.839 603.818C474.136 615.131 492.531 628.472 507.433 645.286C554.492 698.244 537.56 757.764 497.911 808.931C480.487 831.475 459.951 851.435 438.066 869.591C427.083 878.623 415.783 887.279 403.959 895.18C452.098 861.191 507.985 809.361 527.505 752.588C540.03 715.738 533.895 681.028 508.96 651.017C495.928 635.34 479.703 622.63 462.494 611.827C458.249 609.178 453.178 606.176 448.752 603.706C403.653 578.398 359.447 551.306 317.892 520.434C195.646 429.88 104.123 309.364 124.755 150C141.519 21.3234 224.383 -98.2611 308.557 -193.363H308.554Z" fill="url(#paint66_linear_747_8923)"/>
<path d="M305.746 -194.576C122.805 13.6696 17.8707 261.262 254.614 477.899C309.774 528.349 373.31 568.823 439.015 604.074C448.455 609.202 457.656 614.76 466.468 620.923C489.844 637.288 511.385 658.447 521.612 685.593C552.06 766.733 464.033 852.354 403.892 895.114C406.795 893.062 409.641 890.933 412.461 888.778C474.48 840.598 562.717 748.8 509.097 666.535C501.559 655.1 492.113 645.03 481.695 636.167C468.201 624.684 453.185 615.091 437.594 606.722C271.011 519.587 96.8405 378.227 115.44 170.876C127.432 32.9731 215.816 -94.174 305.746 -194.576Z" fill="url(#paint67_linear_747_8923)"/>
<path d="M302.943 -195.789C207.079 -87.1837 111.205 52.5997 109.765 202.725C109.102 279.005 134.454 349.357 179.253 410.757C230.726 481.291 301.531 535.438 376.463 579.089C391.827 587.994 407.52 596.478 423.34 604.56C445.642 615.934 467.173 629.443 485.033 647.163C546.99 708.589 517.428 780.789 466.832 837.747C447.914 858.978 426.782 878.256 403.826 895.045C406.691 892.948 409.492 890.762 412.271 888.544C468.081 843.384 545.174 759.832 508.091 683.004C495.591 657.425 473.404 638.09 449.74 622.983C437.853 615.316 425.022 608.875 412.408 602.472C374.388 582.761 337.54 560.678 302.786 535.613C190.274 454.686 102.435 341.702 106.482 197.333C110.504 48.8423 206.352 -89.4879 302.943 -195.789Z" fill="url(#paint68_linear_747_8923)"/>
<path d="M402.865 603.26H402.871C427.886 615.157 452.419 628.752 472.832 647.686C480.066 654.369 486.768 661.757 492.466 669.791C517.127 704.44 516.002 741.29 502.2 775.719C490.386 805.186 469.288 832.858 447.151 855.766C453.26 849.255 459.147 842.54 464.794 835.631C488.69 806.148 506.231 774.008 509.861 741.992C513.494 709.94 503.188 678.058 471.484 649.152C453.764 632.985 432.94 620.511 411.431 610.102C367.904 589.409 325.996 565.153 287.029 536.732L286.793 537.054L287.025 536.732C159.537 443.873 76.9276 313.743 103.759 151.912C122.367 40.1296 186.98 -63.4436 260.369 -151.168C187.162 -61.5346 122.31 43.9954 105.464 157.588C79.1872 332.53 183.079 468.25 323.892 558.617C349.327 575.007 375.747 589.849 402.862 603.26H402.865Z" fill="url(#paint69_linear_747_8923)" stroke="url(#paint70_linear_747_8923)"/>
<path d="M405.252 893.668C538.183 855.313 826.486 751.832 840.878 592.991C842.076 578.595 840.865 564.018 837.506 549.957C836.203 544.323 834.444 538.803 832.149 533.49C826.406 520.191 817.623 508.383 807.469 498.105C791.139 481.629 771.625 468.683 751.547 457.242C680.453 417.995 602.7 393.124 528.501 360.655C485.993 342.311 444.018 322.271 404.99 297.218C444.046 322.226 486.041 342.218 528.565 360.511C602.786 392.948 680.555 417.791 751.675 457.016C771.782 468.463 791.311 481.409 807.673 497.905C817.849 508.195 826.661 520.038 832.426 533.369C834.73 538.691 836.499 544.24 837.809 549.887C841.178 563.977 842.405 578.586 841.203 593.013C826.817 751.858 538.668 855.412 405.252 893.662V893.668Z" fill="url(#paint71_linear_747_8923)"/>
</g>
<defs>
<linearGradient id="paint0_linear_747_8923" x1="400.382" y1="903.032" x2="163.326" y2="665.979" gradientUnits="userSpaceOnUse">
<stop stop-color="#E1C08C"/>
<stop offset="1" stop-color="#FFEED2" stop-opacity="0.2"/>
</linearGradient>
<linearGradient id="paint1_linear_747_8923" x1="394.088" y1="903.01" x2="163.919" y2="672.841" gradientUnits="userSpaceOnUse">
<stop stop-color="#E1C08C"/>
<stop offset="1" stop-color="#FFEED2" stop-opacity="0.2"/>
</linearGradient>
<linearGradient id="paint2_linear_747_8923" x1="388.025" y1="902.963" x2="164.459" y2="679.394" gradientUnits="userSpaceOnUse">
<stop stop-color="#E1C08C"/>
<stop offset="1" stop-color="#FFEED2" stop-opacity="0.2"/>
</linearGradient>
<linearGradient id="paint3_linear_747_8923" x1="382.132" y1="902.918" x2="165.163" y2="685.949" gradientUnits="userSpaceOnUse">
<stop stop-color="#E1C08C"/>
<stop offset="1" stop-color="#FFEED2" stop-opacity="0.2"/>
</linearGradient>
<linearGradient id="paint4_linear_747_8923" x1="376.443" y1="902.885" x2="165.928" y2="692.377" gradientUnits="userSpaceOnUse">
<stop stop-color="#E1C08C"/>
<stop offset="1" stop-color="#FFEED2" stop-opacity="0.2"/>
</linearGradient>
<linearGradient id="paint5_linear_747_8923" x1="370.938" y1="902.808" x2="166.771" y2="698.641" gradientUnits="userSpaceOnUse">
<stop stop-color="#E1C08C"/>
<stop offset="1" stop-color="#FFEED2" stop-opacity="0.2"/>
</linearGradient>
<linearGradient id="paint6_linear_747_8923" x1="754.992" y1="727.355" x2="127.641" y2="100.001" gradientUnits="userSpaceOnUse">
<stop stop-color="#E1C08C"/>
<stop offset="1" stop-color="#FFEED2" stop-opacity="0.2"/>
</linearGradient>
<linearGradient id="paint7_linear_747_8923" x1="750.373" y1="723.529" x2="125.233" y2="98.3895" gradientUnits="userSpaceOnUse">
<stop stop-color="#E1C08C"/>
<stop offset="1" stop-color="#FFEED2" stop-opacity="0.2"/>
</linearGradient>
<linearGradient id="paint8_linear_747_8923" x1="745.886" y1="719.838" x2="122.825" y2="96.7772" gradientUnits="userSpaceOnUse">
<stop stop-color="#E1C08C"/>
<stop offset="1" stop-color="#FFEED2" stop-opacity="0.2"/>
</linearGradient>
<linearGradient id="paint9_linear_747_8923" x1="741.469" y1="716.225" x2="120.416" y2="95.1721" gradientUnits="userSpaceOnUse">
<stop stop-color="#E1C08C"/>
<stop offset="1" stop-color="#FFEED2" stop-opacity="0.2"/>
</linearGradient>
<linearGradient id="paint10_linear_747_8923" x1="737.078" y1="712.621" x2="118.016" y2="93.56" gradientUnits="userSpaceOnUse">
<stop stop-color="#E1C08C"/>
<stop offset="1" stop-color="#FFEED2" stop-opacity="0.2"/>
</linearGradient>
<linearGradient id="paint11_linear_747_8923" x1="732.742" y1="709.08" x2="115.613" y2="91.9495" gradientUnits="userSpaceOnUse">
<stop stop-color="#E1C08C"/>
<stop offset="1" stop-color="#FFEED2" stop-opacity="0.2"/>
</linearGradient>
<linearGradient id="paint12_linear_747_8923" x1="728.473" y1="705.612" x2="113.201" y2="90.3396" gradientUnits="userSpaceOnUse">
<stop stop-color="#E1C08C"/>
<stop offset="1" stop-color="#FFEED2" stop-opacity="0.2"/>
</linearGradient>
<linearGradient id="paint13_linear_747_8923" x1="724.291" y1="702.218" x2="110.8" y2="88.7238" gradientUnits="userSpaceOnUse">
<stop stop-color="#E1C08C"/>
<stop offset="1" stop-color="#FFEED2" stop-opacity="0.2"/>
</linearGradient>
<linearGradient id="paint14_linear_747_8923" x1="720.129" y1="698.856" x2="108.391" y2="87.1178" gradientUnits="userSpaceOnUse">
<stop stop-color="#E1C08C"/>
<stop offset="1" stop-color="#FFEED2" stop-opacity="0.2"/>
</linearGradient>
<linearGradient id="paint15_linear_747_8923" x1="716.116" y1="695.639" x2="105.985" y2="85.5104" gradientUnits="userSpaceOnUse">
<stop stop-color="#E1C08C"/>
<stop offset="1" stop-color="#FFEED2" stop-opacity="0.2"/>
</linearGradient>
<linearGradient id="paint16_linear_747_8923" x1="712.128" y1="692.446" x2="103.581" y2="83.8986" gradientUnits="userSpaceOnUse">
<stop stop-color="#E1C08C"/>
<stop offset="1" stop-color="#FFEED2" stop-opacity="0.2"/>
</linearGradient>
<linearGradient id="paint17_linear_747_8923" x1="708.201" y1="689.317" x2="101.173" y2="82.2899" gradientUnits="userSpaceOnUse">
<stop stop-color="#E1C08C"/>
<stop offset="1" stop-color="#FFEED2" stop-opacity="0.2"/>
</linearGradient>
<linearGradient id="paint18_linear_747_8923" x1="704.359" y1="686.273" x2="98.7654" y2="80.6798" gradientUnits="userSpaceOnUse">
<stop stop-color="#E1C08C"/>
<stop offset="1" stop-color="#FFEED2" stop-opacity="0.2"/>
</linearGradient>
<linearGradient id="paint19_linear_747_8923" x1="700.666" y1="683.376" x2="96.3601" y2="79.0705" gradientUnits="userSpaceOnUse">
<stop stop-color="#E1C08C"/>
<stop offset="1" stop-color="#FFEED2" stop-opacity="0.2"/>
</linearGradient>
<linearGradient id="paint20_linear_747_8923" x1="697.026" y1="680.538" x2="93.9504" y2="77.4624" gradientUnits="userSpaceOnUse">
<stop stop-color="#E1C08C"/>
<stop offset="1" stop-color="#FFEED2" stop-opacity="0.2"/>
</linearGradient>
<linearGradient id="paint21_linear_747_8923" x1="693.479" y1="677.783" x2="91.5472" y2="75.8511" gradientUnits="userSpaceOnUse">
<stop stop-color="#E1C08C"/>
<stop offset="1" stop-color="#FFEED2" stop-opacity="0.2"/>
</linearGradient>
<linearGradient id="paint22_linear_747_8923" x1="690.039" y1="675.138" x2="89.1365" y2="74.236" gradientUnits="userSpaceOnUse">
<stop stop-color="#E1C08C"/>
<stop offset="1" stop-color="#FFEED2" stop-opacity="0.2"/>
</linearGradient>
<linearGradient id="paint23_linear_747_8923" x1="686.672" y1="672.566" x2="86.735" y2="72.6294" gradientUnits="userSpaceOnUse">
<stop stop-color="#E1C08C"/>
<stop offset="1" stop-color="#FFEED2" stop-opacity="0.2"/>
</linearGradient>
<linearGradient id="paint24_linear_747_8923" x1="683.462" y1="670.151" x2="84.3279" y2="71.0208" gradientUnits="userSpaceOnUse">
<stop stop-color="#E1C08C"/>
<stop offset="1" stop-color="#FFEED2" stop-opacity="0.2"/>
</linearGradient>
<linearGradient id="paint25_linear_747_8923" x1="680.304" y1="667.798" x2="81.9199" y2="69.4139" gradientUnits="userSpaceOnUse">
<stop stop-color="#E1C08C"/>
<stop offset="1" stop-color="#FFEED2" stop-opacity="0.2"/>
</linearGradient>
<linearGradient id="paint26_linear_747_8923" x1="677.291" y1="665.585" x2="79.5059" y2="67.7994" gradientUnits="userSpaceOnUse">
<stop stop-color="#E1C08C"/>
<stop offset="1" stop-color="#FFEED2" stop-opacity="0.2"/>
</linearGradient>
<linearGradient id="paint27_linear_747_8923" x1="674.403" y1="663.481" x2="77.1084" y2="66.1894" gradientUnits="userSpaceOnUse">
<stop stop-color="#E1C08C"/>
<stop offset="1" stop-color="#FFEED2" stop-opacity="0.2"/>
</linearGradient>
<linearGradient id="paint28_linear_747_8923" x1="671.62" y1="661.492" x2="74.7077" y2="64.5802" gradientUnits="userSpaceOnUse">
<stop stop-color="#E1C08C"/>
<stop offset="1" stop-color="#FFEED2" stop-opacity="0.2"/>
</linearGradient>
<linearGradient id="paint29_linear_747_8923" x1="669.019" y1="659.695" x2="72.2954" y2="62.9708" gradientUnits="userSpaceOnUse">
<stop stop-color="#E1C08C"/>
<stop offset="1" stop-color="#FFEED2" stop-opacity="0.2"/>
</linearGradient>
<linearGradient id="paint30_linear_747_8923" x1="666.533" y1="658.003" x2="69.8891" y2="61.3556" gradientUnits="userSpaceOnUse">
<stop stop-color="#E1C08C"/>
<stop offset="1" stop-color="#FFEED2" stop-opacity="0.2"/>
</linearGradient>
<linearGradient id="paint31_linear_747_8923" x1="664.147" y1="656.412" x2="67.4864" y2="59.7511" gradientUnits="userSpaceOnUse">
<stop stop-color="#E1C08C"/>
<stop offset="1" stop-color="#FFEED2" stop-opacity="0.2"/>
</linearGradient>
<linearGradient id="paint32_linear_747_8923" x1="661.913" y1="654.975" x2="65.0766" y2="58.139" gradientUnits="userSpaceOnUse">
<stop stop-color="#E1C08C"/>
<stop offset="1" stop-color="#FFEED2" stop-opacity="0.2"/>
</linearGradient>
<linearGradient id="paint33_linear_747_8923" x1="659.907" y1="653.766" x2="62.6698" y2="56.5288" gradientUnits="userSpaceOnUse">
<stop stop-color="#E1C08C"/>
<stop offset="1" stop-color="#FFEED2" stop-opacity="0.2"/>
</linearGradient>
<linearGradient id="paint34_linear_747_8923" x1="657.957" y1="652.61" x2="60.267" y2="54.9204" gradientUnits="userSpaceOnUse">
<stop stop-color="#E1C08C"/>
<stop offset="1" stop-color="#FFEED2" stop-opacity="0.2"/>
</linearGradient>
<linearGradient id="paint35_linear_747_8923" x1="656.245" y1="651.694" x2="57.8608" y2="53.3091" gradientUnits="userSpaceOnUse">
<stop stop-color="#E1C08C"/>
<stop offset="1" stop-color="#FFEED2" stop-opacity="0.2"/>
</linearGradient>
<linearGradient id="paint36_linear_747_8923" x1="654.643" y1="650.889" x2="55.4517" y2="51.6979" gradientUnits="userSpaceOnUse">
<stop stop-color="#E1C08C"/>
<stop offset="1" stop-color="#FFEED2" stop-opacity="0.2"/>
</linearGradient>
<linearGradient id="paint37_linear_747_8923" x1="653.253" y1="650.299" x2="53.0457" y2="50.0917" gradientUnits="userSpaceOnUse">
<stop stop-color="#E1C08C"/>
<stop offset="1" stop-color="#FFEED2" stop-opacity="0.2"/>
</linearGradient>
<linearGradient id="paint38_linear_747_8923" x1="754.995" y1="727.355" x2="127.644" y2="100.001" gradientUnits="userSpaceOnUse">
<stop stop-color="#E1C08C"/>
<stop offset="1" stop-color="#FFEED2" stop-opacity="0.2"/>
</linearGradient>
<linearGradient id="paint39_linear_747_8923" x1="750.374" y1="723.528" x2="125.235" y2="98.3895" gradientUnits="userSpaceOnUse">
<stop stop-color="#E1C08C"/>
<stop offset="1" stop-color="#FFEED2" stop-opacity="0.2"/>
</linearGradient>
<linearGradient id="paint40_linear_747_8923" x1="745.889" y1="719.838" x2="122.822" y2="96.7741" gradientUnits="userSpaceOnUse">
<stop stop-color="#E1C08C"/>
<stop offset="1" stop-color="#FFEED2" stop-opacity="0.2"/>
</linearGradient>
<linearGradient id="paint41_linear_747_8923" x1="741.474" y1="716.225" x2="120.421" y2="95.172" gradientUnits="userSpaceOnUse">
<stop stop-color="#E1C08C"/>
<stop offset="1" stop-color="#FFEED2" stop-opacity="0.2"/>
</linearGradient>
<linearGradient id="paint42_linear_747_8923" x1="737.082" y1="712.621" x2="118.021" y2="93.56" gradientUnits="userSpaceOnUse">
<stop stop-color="#E1C08C"/>
<stop offset="1" stop-color="#FFEED2" stop-opacity="0.2"/>
</linearGradient>
<linearGradient id="paint43_linear_747_8923" x1="732.742" y1="709.084" x2="115.612" y2="91.9502" gradientUnits="userSpaceOnUse">
<stop stop-color="#E1C08C"/>
<stop offset="1" stop-color="#FFEED2" stop-opacity="0.2"/>
</linearGradient>
<linearGradient id="paint44_linear_747_8923" x1="728.477" y1="705.612" x2="113.202" y2="90.3397" gradientUnits="userSpaceOnUse">
<stop stop-color="#E1C08C"/>
<stop offset="1" stop-color="#FFEED2" stop-opacity="0.2"/>
</linearGradient>
<linearGradient id="paint45_linear_747_8923" x1="724.29" y1="702.22" x2="110.799" y2="88.726" gradientUnits="userSpaceOnUse">
<stop stop-color="#E1C08C"/>
<stop offset="1" stop-color="#FFEED2" stop-opacity="0.2"/>
</linearGradient>
<linearGradient id="paint46_linear_747_8923" x1="720.133" y1="698.856" x2="108.392" y2="87.1179" gradientUnits="userSpaceOnUse">
<stop stop-color="#E1C08C"/>
<stop offset="1" stop-color="#FFEED2" stop-opacity="0.2"/>
</linearGradient>
<linearGradient id="paint47_linear_747_8923" x1="716.117" y1="695.639" x2="105.985" y2="85.5104" gradientUnits="userSpaceOnUse">
<stop stop-color="#E1C08C"/>
<stop offset="1" stop-color="#FFEED2" stop-opacity="0.2"/>
</linearGradient>
<linearGradient id="paint48_linear_747_8923" x1="712.127" y1="692.446" x2="103.579" y2="83.8985" gradientUnits="userSpaceOnUse">
<stop stop-color="#E1C08C"/>
<stop offset="1" stop-color="#FFEED2" stop-opacity="0.2"/>
</linearGradient>
<linearGradient id="paint49_linear_747_8923" x1="708.205" y1="689.317" x2="101.174" y2="82.2898" gradientUnits="userSpaceOnUse">
<stop stop-color="#E1C08C"/>
<stop offset="1" stop-color="#FFEED2" stop-opacity="0.2"/>
</linearGradient>
<linearGradient id="paint50_linear_747_8923" x1="704.359" y1="686.273" x2="98.7654" y2="80.6798" gradientUnits="userSpaceOnUse">
<stop stop-color="#E1C08C"/>
<stop offset="1" stop-color="#FFEED2" stop-opacity="0.2"/>
</linearGradient>
<linearGradient id="paint51_linear_747_8923" x1="700.666" y1="683.376" x2="96.3602" y2="79.0705" gradientUnits="userSpaceOnUse">
<stop stop-color="#E1C08C"/>
<stop offset="1" stop-color="#FFEED2" stop-opacity="0.2"/>
</linearGradient>
<linearGradient id="paint52_linear_747_8923" x1="697.032" y1="680.538" x2="93.9563" y2="77.4623" gradientUnits="userSpaceOnUse">
<stop stop-color="#E1C08C"/>
<stop offset="1" stop-color="#FFEED2" stop-opacity="0.2"/>
</linearGradient>
<linearGradient id="paint53_linear_747_8923" x1="693.479" y1="677.783" x2="91.5472" y2="75.8511" gradientUnits="userSpaceOnUse">
<stop stop-color="#E1C08C"/>
<stop offset="1" stop-color="#FFEED2" stop-opacity="0.2"/>
</linearGradient>
<linearGradient id="paint54_linear_747_8923" x1="690.043" y1="675.14" x2="89.1445" y2="74.2411" gradientUnits="userSpaceOnUse">
<stop stop-color="#E1C08C"/>
<stop offset="1" stop-color="#FFEED2" stop-opacity="0.2"/>
</linearGradient>
<linearGradient id="paint55_linear_747_8923" x1="686.671" y1="672.566" x2="86.735" y2="72.6294" gradientUnits="userSpaceOnUse">
<stop stop-color="#E1C08C"/>
<stop offset="1" stop-color="#FFEED2" stop-opacity="0.2"/>
</linearGradient>
<linearGradient id="paint56_linear_747_8923" x1="683.46" y1="670.15" x2="84.3269" y2="71.0193" gradientUnits="userSpaceOnUse">
<stop stop-color="#E1C08C"/>
<stop offset="1" stop-color="#FFEED2" stop-opacity="0.2"/>
</linearGradient>
<linearGradient id="paint57_linear_747_8923" x1="680.31" y1="667.798" x2="81.9227" y2="69.4139" gradientUnits="userSpaceOnUse">
<stop stop-color="#E1C08C"/>
<stop offset="1" stop-color="#FFEED2" stop-opacity="0.2"/>
</linearGradient>
<linearGradient id="paint58_linear_747_8923" x1="677.299" y1="665.585" x2="79.5139" y2="67.7994" gradientUnits="userSpaceOnUse">
<stop stop-color="#E1C08C"/>
<stop offset="1" stop-color="#FFEED2" stop-opacity="0.2"/>
</linearGradient>
<linearGradient id="paint59_linear_747_8923" x1="674.399" y1="663.481" x2="77.108" y2="66.1895" gradientUnits="userSpaceOnUse">
<stop stop-color="#E1C08C"/>
<stop offset="1" stop-color="#FFEED2" stop-opacity="0.2"/>
</linearGradient>
<linearGradient id="paint60_linear_747_8923" x1="671.623" y1="661.492" x2="74.7078" y2="64.5802" gradientUnits="userSpaceOnUse">
<stop stop-color="#E1C08C"/>
<stop offset="1" stop-color="#FFEED2" stop-opacity="0.2"/>
</linearGradient>
<linearGradient id="paint61_linear_747_8923" x1="669.017" y1="659.695" x2="72.2937" y2="62.9707" gradientUnits="userSpaceOnUse">
<stop stop-color="#E1C08C"/>
<stop offset="1" stop-color="#FFEED2" stop-opacity="0.2"/>
</linearGradient>
<linearGradient id="paint62_linear_747_8923" x1="666.54" y1="658.003" x2="69.8924" y2="61.3558" gradientUnits="userSpaceOnUse">
<stop stop-color="#E1C08C"/>
<stop offset="1" stop-color="#FFEED2" stop-opacity="0.2"/>
</linearGradient>
<linearGradient id="paint63_linear_747_8923" x1="664.152" y1="656.415" x2="67.489" y2="59.7512" gradientUnits="userSpaceOnUse">
<stop stop-color="#E1C08C"/>
<stop offset="1" stop-color="#FFEED2" stop-opacity="0.2"/>
</linearGradient>
<linearGradient id="paint64_linear_747_8923" x1="661.917" y1="654.975" x2="65.0819" y2="58.139" gradientUnits="userSpaceOnUse">
<stop stop-color="#E1C08C"/>
<stop offset="1" stop-color="#FFEED2" stop-opacity="0.2"/>
</linearGradient>
<linearGradient id="paint65_linear_747_8923" x1="659.91" y1="653.766" x2="62.6728" y2="56.5286" gradientUnits="userSpaceOnUse">
<stop stop-color="#E1C08C"/>
<stop offset="1" stop-color="#FFEED2" stop-opacity="0.2"/>
</linearGradient>
<linearGradient id="paint66_linear_747_8923" x1="657.96" y1="652.61" x2="60.2702" y2="54.9204" gradientUnits="userSpaceOnUse">
<stop stop-color="#E1C08C"/>
<stop offset="1" stop-color="#FFEED2" stop-opacity="0.2"/>
</linearGradient>
<linearGradient id="paint67_linear_747_8923" x1="656.242" y1="651.694" x2="57.8607" y2="53.3091" gradientUnits="userSpaceOnUse">
<stop stop-color="#E1C08C"/>
<stop offset="1" stop-color="#FFEED2" stop-opacity="0.2"/>
</linearGradient>
<linearGradient id="paint68_linear_747_8923" x1="654.646" y1="650.889" x2="55.4556" y2="51.6979" gradientUnits="userSpaceOnUse">
<stop stop-color="#E1C08C"/>
<stop offset="1" stop-color="#FFEED2" stop-opacity="0.2"/>
</linearGradient>
<linearGradient id="paint69_linear_747_8923" x1="652.191" y1="650.726" x2="51.9804" y2="50.5191" gradientUnits="userSpaceOnUse">
<stop stop-color="#E1C08C"/>
<stop offset="1" stop-color="#FFEED2" stop-opacity="0.2"/>
</linearGradient>
<linearGradient id="paint70_linear_747_8923" x1="652.305" y1="650.835" x2="52.4361" y2="50.9653" gradientUnits="userSpaceOnUse">
<stop stop-color="#E1C08C"/>
<stop offset="1" stop-color="#FFEED2" stop-opacity="0.2"/>
</linearGradient>
<linearGradient id="paint71_linear_747_8923" x1="699.1" y1="788.422" x2="306.443" y2="395.766" gradientUnits="userSpaceOnUse">
<stop stop-color="#E1C08C"/>
<stop offset="1" stop-color="#FFEED2" stop-opacity="0.2"/>
</linearGradient>
</defs>
</svg>
