<svg width="120" height="45" viewBox="0 0 120 45" fill="none" xmlns="http://www.w3.org/2000/svg">
<path d="M0.901855 6.89395C0.901855 3.22595 3.87536 0.252441 7.54337 0.252441H112.313C115.981 0.252441 118.955 3.22595 118.955 6.89395V37.6109C118.955 41.2789 115.981 44.2524 112.313 44.2524H7.54337C3.87536 44.2524 0.901855 41.2789 0.901855 37.6109V6.89395Z" fill="#242836"/>
<path d="M12.6844 11.3944C12.4293 11.6654 12.2785 12.086 12.2785 12.6308V32.0928C12.2785 32.6384 12.4293 33.0582 12.6844 33.3292L12.7492 33.3926L23.6092 22.4903V22.2333L12.7492 11.3301L12.6844 11.3944Z" fill="url(#paint0_linear_4644_84004)"/>
<path d="M27.2284 26.1254L23.609 22.4901V22.2331L27.2292 18.5987L27.3108 18.6454L31.5999 21.0918C32.8244 21.7905 32.8244 22.9336 31.5999 23.6332L27.3108 26.0796L27.2284 26.1254Z" fill="url(#paint1_linear_4644_84004)"/>
<path d="M27.311 26.0787L23.6083 22.3616L12.6844 33.329C13.0876 33.7584 13.7547 33.8112 14.5059 33.3836L27.311 26.0787Z" fill="url(#paint2_linear_4644_84004)"/>
<path d="M27.311 18.6446L14.5059 11.3406C13.7547 10.9121 13.0876 10.9658 12.6844 11.3952L23.6092 22.3626L27.311 18.6446Z" fill="url(#paint3_linear_4644_84004)"/>
<path d="M60.0622 23.4265C58.115 23.4265 56.5279 24.9069 56.5279 26.9458C56.5279 28.9723 58.115 30.4651 60.0622 30.4651C62.0102 30.4651 63.5973 28.9723 63.5973 26.9458C63.5965 24.9069 62.0094 23.4265 60.0622 23.4265ZM60.0622 29.0799C58.995 29.0799 58.0752 28.2003 58.0752 26.9466C58.0752 25.6798 58.9958 24.8134 60.0622 24.8134C61.1293 24.8134 62.0491 25.6798 62.0491 26.9466C62.0491 28.1994 61.1293 29.0799 60.0622 29.0799ZM52.3511 23.4265C50.4039 23.4265 48.8168 24.9069 48.8168 26.9458C48.8168 28.9723 50.4039 30.4651 52.3511 30.4651C54.2992 30.4651 55.8862 28.9723 55.8862 26.9458C55.8862 24.9069 54.2992 23.4265 52.3511 23.4265ZM52.3511 29.0799C51.284 29.0799 50.3642 28.2003 50.3642 26.9466C50.3642 25.6798 51.2848 24.8134 52.3511 24.8134C53.4183 24.8134 54.3381 25.6798 54.3381 26.9466C54.3389 28.1994 53.4183 29.0799 52.3511 29.0799ZM43.1796 24.5072V26H46.7545C46.6477 26.8399 46.3679 27.453 45.9407 27.8792C45.4208 28.3989 44.6069 28.9723 43.1796 28.9723C40.9791 28.9723 39.2587 27.199 39.2587 24.9996C39.2587 22.8001 40.9791 21.0268 43.1796 21.0268C44.3668 21.0268 45.2337 21.4935 45.8736 22.0935L46.9275 21.0401C46.0334 20.1869 44.847 19.5341 43.1796 19.5341C40.1653 19.5341 37.6311 21.9867 37.6311 24.9996C37.6311 28.0124 40.1653 30.4651 43.1796 30.4651C44.8065 30.4651 46.0342 29.9314 46.9938 28.9318C47.9806 27.9454 48.2878 26.5585 48.2878 25.439C48.2878 25.0931 48.2613 24.7728 48.2075 24.5064L43.1796 24.5072ZM80.6901 25.6665C80.397 24.8804 79.5029 23.4265 77.6757 23.4265C75.8618 23.4265 74.3542 24.8531 74.3542 26.9458C74.3542 28.9185 75.8486 30.4651 77.8488 30.4651C79.4623 30.4651 80.3962 29.4787 80.7837 28.9053L79.5832 28.1051C79.1833 28.6918 78.6361 29.0782 77.8488 29.0782C77.0623 29.0782 76.5018 28.7183 76.1416 28.0116L80.8499 26.0654L80.6901 25.6665ZM75.8883 26.8399C75.8486 25.4795 76.9422 24.7869 77.7295 24.7869C78.343 24.7869 78.8629 25.0939 79.0368 25.5333L75.8883 26.8399ZM72.0609 30.2524H73.6074V19.9081H72.0609V30.2524ZM69.5259 24.2135H69.4729C69.126 23.7997 68.4587 23.4265 67.6192 23.4265C65.8583 23.4265 64.2447 24.9731 64.2447 26.9599C64.2447 28.9326 65.8583 30.4659 67.6192 30.4659C68.4596 30.4659 69.126 30.0927 69.4729 29.6666H69.5259V30.173C69.5259 31.5193 68.8056 32.2392 67.6457 32.2392C66.6986 32.2392 66.1116 31.5598 65.8715 30.9864L64.5246 31.5466C64.9112 32.4792 65.9378 33.6261 67.6457 33.6261C69.4597 33.6261 70.9938 32.5594 70.9938 29.9595V23.6408H69.5267L69.5259 24.2135ZM67.7525 29.0799C66.6854 29.0799 65.7921 28.1862 65.7921 26.9599C65.7921 25.7195 66.6854 24.8134 67.7525 24.8134C68.8056 24.8134 69.6327 25.7195 69.6327 26.9599C69.6327 28.1862 68.8056 29.0799 67.7525 29.0799ZM87.9376 19.9081H84.236V30.2524H85.78V26.3335H87.9367C89.6488 26.3335 91.3328 25.0947 91.3328 23.1212C91.3328 21.1476 89.6497 19.9081 87.9376 19.9081ZM87.9773 24.8937H85.78V21.3479H87.9773C89.1322 21.3479 89.7879 22.3036 89.7879 23.1212C89.7879 23.9222 89.1322 24.8937 87.9773 24.8937ZM97.5246 23.4083C96.4061 23.4083 95.2479 23.9007 94.7685 24.9921L96.1395 25.5639C96.4326 24.9921 96.979 24.8051 97.5511 24.8051C98.35 24.8051 99.1622 25.2842 99.1755 26.1357V26.2424C98.8956 26.0827 98.2962 25.8436 97.5644 25.8436C96.0866 25.8436 94.5814 26.6554 94.5814 28.1721C94.5814 29.5565 95.7935 30.4477 97.1512 30.4477C98.1894 30.4477 98.7623 29.9818 99.1217 29.4357H99.1746V30.2342H100.667V26.2681C100.667 24.4327 99.2947 23.4083 97.5246 23.4083ZM97.3375 29.0774C96.8325 29.0774 96.1263 28.8242 96.1263 28.1986C96.1263 27.4001 97.0055 27.0939 97.7647 27.0939C98.4428 27.0939 98.7632 27.2404 99.1755 27.4398C99.0554 28.3989 98.23 29.0774 97.3375 29.0774ZM106.099 23.6342L104.328 28.1192H104.275L102.437 23.6342H100.773L103.529 29.9024L101.958 33.3894H103.569L107.817 23.6342H106.099ZM92.1855 30.2524H93.7295V19.9081H92.1855V30.2524Z" fill="white"/>
<path d="M42.9868 13.7894C42.9868 14.4703 42.7817 15.0122 42.3706 15.4169C41.9041 15.8979 41.2953 16.1383 40.5476 16.1383C39.8312 16.1383 39.2216 15.8946 38.7212 15.4071C38.2199 14.9188 37.9693 14.3143 37.9693 13.5928C37.9693 12.8705 38.2199 12.266 38.7212 11.7785C39.2216 11.2902 39.8312 11.0465 40.5476 11.0465C40.9032 11.0465 41.2432 11.1147 41.5658 11.2504C41.8892 11.3869 42.1481 11.5681 42.3417 11.7948L41.9057 12.2238C41.5774 11.8378 41.1249 11.6453 40.5467 11.6453C40.024 11.6453 39.5723 11.8257 39.191 12.1864C38.8097 12.5471 38.6194 13.016 38.6194 13.592C38.6194 14.1681 38.8097 14.6369 39.191 14.9976C39.5723 15.3584 40.024 15.5387 40.5467 15.5387C41.1009 15.5387 41.5633 15.3575 41.933 14.9944C42.1729 14.7579 42.3119 14.4289 42.3491 14.0072H40.5467V13.4214H42.9513C42.9761 13.5489 42.9868 13.6716 42.9868 13.7894Z" fill="white"/>
<path d="M46.8001 11.7534H44.5403V13.2987H46.5784V13.8846H44.5403V15.4299H46.8001V16.0295H43.9026V11.1546H46.8001V11.7534Z" fill="white"/>
<path d="M49.4891 16.0295H48.8514V11.7534H47.4651V11.1546H50.8754V11.7534H49.4891V16.0295Z" fill="white"/>
<path d="M53.3428 16.0295V11.1546H53.9805V16.0295H53.3428Z" fill="white"/>
<path d="M56.8087 16.0295H56.171V11.7534H54.7847V11.1546H58.1951V11.7534H56.8087V16.0295Z" fill="white"/>
<path d="M64.6508 15.3998C64.1628 15.8922 63.5565 16.1384 62.8311 16.1384C62.1057 16.1384 61.4994 15.8922 61.0122 15.3998C60.5241 14.9075 60.281 14.3046 60.281 13.592C60.281 12.8795 60.5241 12.2766 61.0122 11.7843C61.4994 11.2919 62.1057 11.0449 62.8311 11.0449C63.5524 11.0449 64.1579 11.2927 64.6475 11.7875C65.1372 12.2823 65.382 12.8836 65.382 13.592C65.382 14.3046 65.138 14.9075 64.6508 15.3998ZM61.4828 14.9912C61.8501 15.3568 62.2992 15.5388 62.8311 15.5388C63.363 15.5388 63.8129 15.356 64.1794 14.9912C64.5466 14.6255 64.7311 14.1592 64.7311 13.592C64.7311 13.0249 64.5466 12.5586 64.1794 12.1929C63.8129 11.8273 63.363 11.6453 62.8311 11.6453C62.2992 11.6453 61.8501 11.8281 61.4828 12.1929C61.1164 12.5586 60.9319 13.0249 60.9319 13.592C60.9319 14.1592 61.1164 14.6255 61.4828 14.9912Z" fill="white"/>
<path d="M66.277 16.0295V11.1546H67.0529L69.4649 14.9465H69.4922L69.4649 14.0072V11.1546H70.1027V16.0295H69.4368L66.9131 12.0532H66.8858L66.9131 12.9924V16.0295H66.277Z" fill="white"/>
<path d="M0.901855 6.89395C0.901855 3.22595 3.87536 0.252441 7.54337 0.252441H112.313C115.981 0.252441 118.955 3.22595 118.955 6.89395V37.6109C118.955 41.2789 115.981 44.2524 112.313 44.2524H7.54337C3.87536 44.2524 0.901855 41.2789 0.901855 37.6109V6.89395Z" stroke="white" stroke-width="0.204511" stroke-miterlimit="10"/>
<path d="M12.6844 11.3944C12.4293 11.6654 12.2785 12.086 12.2785 12.6308V32.0928C12.2785 32.6384 12.4293 33.0582 12.6844 33.3292L12.7492 33.3926L23.6092 22.4903V22.2333L12.7492 11.3301L12.6844 11.3944Z" stroke="white" stroke-width="0.204511" stroke-miterlimit="10"/>
<path d="M27.2284 26.1254L23.609 22.4901V22.2331L27.2292 18.5987L27.3108 18.6454L31.5999 21.0918C32.8244 21.7905 32.8244 22.9336 31.5999 23.6332L27.3108 26.0796L27.2284 26.1254Z" stroke="white" stroke-width="0.204511" stroke-miterlimit="10"/>
<path d="M27.311 26.0787L23.6083 22.3616L12.6844 33.329C13.0876 33.7584 13.7547 33.8112 14.5059 33.3836L27.311 26.0787Z" stroke="white" stroke-width="0.204511" stroke-miterlimit="10"/>
<path d="M27.311 18.6446L14.5059 11.3406C13.7547 10.9121 13.0876 10.9658 12.6844 11.3952L23.6092 22.3626L27.311 18.6446Z" stroke="white" stroke-width="0.204511" stroke-miterlimit="10"/>
<path d="M60.0622 23.4265C58.115 23.4265 56.5279 24.9069 56.5279 26.9458C56.5279 28.9723 58.115 30.4651 60.0622 30.4651C62.0102 30.4651 63.5973 28.9723 63.5973 26.9458C63.5965 24.9069 62.0094 23.4265 60.0622 23.4265ZM60.0622 29.0799C58.995 29.0799 58.0752 28.2003 58.0752 26.9466C58.0752 25.6798 58.9958 24.8134 60.0622 24.8134C61.1293 24.8134 62.0491 25.6798 62.0491 26.9466C62.0491 28.1994 61.1293 29.0799 60.0622 29.0799ZM52.3511 23.4265C50.4039 23.4265 48.8168 24.9069 48.8168 26.9458C48.8168 28.9723 50.4039 30.4651 52.3511 30.4651C54.2992 30.4651 55.8862 28.9723 55.8862 26.9458C55.8862 24.9069 54.2992 23.4265 52.3511 23.4265ZM52.3511 29.0799C51.284 29.0799 50.3642 28.2003 50.3642 26.9466C50.3642 25.6798 51.2848 24.8134 52.3511 24.8134C53.4183 24.8134 54.3381 25.6798 54.3381 26.9466C54.3389 28.1994 53.4183 29.0799 52.3511 29.0799ZM43.1796 24.5072V26H46.7545C46.6477 26.8399 46.3679 27.453 45.9407 27.8792C45.4208 28.3989 44.6069 28.9723 43.1796 28.9723C40.9791 28.9723 39.2587 27.199 39.2587 24.9996C39.2587 22.8001 40.9791 21.0268 43.1796 21.0268C44.3668 21.0268 45.2337 21.4935 45.8736 22.0935L46.9275 21.0401C46.0334 20.1869 44.847 19.5341 43.1796 19.5341C40.1653 19.5341 37.6311 21.9867 37.6311 24.9996C37.6311 28.0124 40.1653 30.4651 43.1796 30.4651C44.8065 30.4651 46.0342 29.9314 46.9938 28.9318C47.9806 27.9454 48.2878 26.5585 48.2878 25.439C48.2878 25.0931 48.2613 24.7728 48.2075 24.5064L43.1796 24.5072ZM80.6901 25.6665C80.397 24.8804 79.5029 23.4265 77.6757 23.4265C75.8618 23.4265 74.3542 24.8531 74.3542 26.9458C74.3542 28.9185 75.8486 30.4651 77.8488 30.4651C79.4623 30.4651 80.3962 29.4787 80.7837 28.9053L79.5832 28.1051C79.1833 28.6918 78.6361 29.0782 77.8488 29.0782C77.0623 29.0782 76.5018 28.7183 76.1416 28.0116L80.8499 26.0654L80.6901 25.6665ZM75.8883 26.8399C75.8486 25.4795 76.9422 24.7869 77.7295 24.7869C78.343 24.7869 78.8629 25.0939 79.0368 25.5333L75.8883 26.8399ZM72.0609 30.2524H73.6074V19.9081H72.0609V30.2524ZM69.5259 24.2135H69.4729C69.126 23.7997 68.4587 23.4265 67.6192 23.4265C65.8583 23.4265 64.2447 24.9731 64.2447 26.9599C64.2447 28.9326 65.8583 30.4659 67.6192 30.4659C68.4596 30.4659 69.126 30.0927 69.4729 29.6666H69.5259V30.173C69.5259 31.5193 68.8056 32.2392 67.6457 32.2392C66.6986 32.2392 66.1116 31.5598 65.8715 30.9864L64.5246 31.5466C64.9112 32.4792 65.9378 33.6261 67.6457 33.6261C69.4597 33.6261 70.9938 32.5594 70.9938 29.9595V23.6408H69.5267L69.5259 24.2135ZM67.7525 29.0799C66.6854 29.0799 65.7921 28.1862 65.7921 26.9599C65.7921 25.7195 66.6854 24.8134 67.7525 24.8134C68.8056 24.8134 69.6327 25.7195 69.6327 26.9599C69.6327 28.1862 68.8056 29.0799 67.7525 29.0799ZM87.9376 19.9081H84.236V30.2524H85.78V26.3335H87.9367C89.6488 26.3335 91.3328 25.0947 91.3328 23.1212C91.3328 21.1476 89.6497 19.9081 87.9376 19.9081ZM87.9773 24.8937H85.78V21.3479H87.9773C89.1322 21.3479 89.7879 22.3036 89.7879 23.1212C89.7879 23.9222 89.1322 24.8937 87.9773 24.8937ZM97.5246 23.4083C96.4061 23.4083 95.2479 23.9007 94.7685 24.9921L96.1395 25.5639C96.4326 24.9921 96.979 24.8051 97.5511 24.8051C98.35 24.8051 99.1622 25.2842 99.1755 26.1357V26.2424C98.8956 26.0827 98.2962 25.8436 97.5644 25.8436C96.0866 25.8436 94.5814 26.6554 94.5814 28.1721C94.5814 29.5565 95.7935 30.4477 97.1512 30.4477C98.1894 30.4477 98.7623 29.9818 99.1217 29.4357H99.1746V30.2342H100.667V26.2681C100.667 24.4327 99.2947 23.4083 97.5246 23.4083ZM97.3375 29.0774C96.8325 29.0774 96.1263 28.8242 96.1263 28.1986C96.1263 27.4001 97.0055 27.0939 97.7647 27.0939C98.4428 27.0939 98.7632 27.2404 99.1755 27.4398C99.0554 28.3989 98.23 29.0774 97.3375 29.0774ZM106.099 23.6342L104.328 28.1192H104.275L102.437 23.6342H100.773L103.529 29.9024L101.958 33.3894H103.569L107.817 23.6342H106.099ZM92.1855 30.2524H93.7295V19.9081H92.1855V30.2524Z" stroke="white" stroke-width="0.204511" stroke-miterlimit="10"/>
<path d="M42.9868 13.7894C42.9868 14.4703 42.7817 15.0122 42.3706 15.4169C41.9041 15.8979 41.2953 16.1383 40.5476 16.1383C39.8312 16.1383 39.2216 15.8946 38.7212 15.4071C38.2199 14.9188 37.9693 14.3143 37.9693 13.5928C37.9693 12.8705 38.2199 12.266 38.7212 11.7785C39.2216 11.2902 39.8312 11.0465 40.5476 11.0465C40.9032 11.0465 41.2432 11.1147 41.5658 11.2504C41.8892 11.3869 42.1481 11.5681 42.3417 11.7948L41.9057 12.2238C41.5774 11.8378 41.1249 11.6453 40.5467 11.6453C40.024 11.6453 39.5723 11.8257 39.191 12.1864C38.8097 12.5471 38.6194 13.016 38.6194 13.592C38.6194 14.1681 38.8097 14.6369 39.191 14.9976C39.5723 15.3584 40.024 15.5387 40.5467 15.5387C41.1009 15.5387 41.5633 15.3575 41.933 14.9944C42.1729 14.7579 42.3119 14.4289 42.3491 14.0072H40.5467V13.4214H42.9513C42.9761 13.5489 42.9868 13.6716 42.9868 13.7894Z" stroke="white" stroke-width="0.204511" stroke-miterlimit="10"/>
<path d="M46.8001 11.7534H44.5403V13.2987H46.5784V13.8846H44.5403V15.4299H46.8001V16.0295H43.9026V11.1546H46.8001V11.7534Z" stroke="white" stroke-width="0.204511" stroke-miterlimit="10"/>
<path d="M49.4891 16.0295H48.8514V11.7534H47.4651V11.1546H50.8754V11.7534H49.4891V16.0295Z" stroke="white" stroke-width="0.204511" stroke-miterlimit="10"/>
<path d="M53.3428 16.0295V11.1546H53.9805V16.0295H53.3428Z" stroke="white" stroke-width="0.204511" stroke-miterlimit="10"/>
<path d="M56.8087 16.0295H56.171V11.7534H54.7847V11.1546H58.1951V11.7534H56.8087V16.0295Z" stroke="white" stroke-width="0.204511" stroke-miterlimit="10"/>
<path d="M64.6508 15.3998C64.1628 15.8922 63.5565 16.1384 62.8311 16.1384C62.1057 16.1384 61.4994 15.8922 61.0122 15.3998C60.5241 14.9075 60.281 14.3046 60.281 13.592C60.281 12.8795 60.5241 12.2766 61.0122 11.7843C61.4994 11.2919 62.1057 11.0449 62.8311 11.0449C63.5524 11.0449 64.1579 11.2927 64.6475 11.7875C65.1372 12.2823 65.382 12.8836 65.382 13.592C65.382 14.3046 65.138 14.9075 64.6508 15.3998ZM61.4828 14.9912C61.8501 15.3568 62.2992 15.5388 62.8311 15.5388C63.363 15.5388 63.8129 15.356 64.1794 14.9912C64.5466 14.6255 64.7311 14.1592 64.7311 13.592C64.7311 13.0249 64.5466 12.5586 64.1794 12.1929C63.8129 11.8273 63.363 11.6453 62.8311 11.6453C62.2992 11.6453 61.8501 11.8281 61.4828 12.1929C61.1164 12.5586 60.9319 13.0249 60.9319 13.592C60.9319 14.1592 61.1164 14.6255 61.4828 14.9912Z" stroke="white" stroke-width="0.204511" stroke-miterlimit="10"/>
<path d="M66.277 16.0295V11.1546H67.0529L69.4649 14.9465H69.4922L69.4649 14.0072V11.1546H70.1027V16.0295H69.4368L66.9131 12.0532H66.8858L66.9131 12.9924V16.0295H66.277Z" stroke="white" stroke-width="0.204511" stroke-miterlimit="10"/>
<defs>
<linearGradient id="paint0_linear_4644_84004" x1="108.925" y1="2.43568" x2="98.0086" y2="59.2433" gradientUnits="userSpaceOnUse">
<stop stop-color="#00A0FF"/>
<stop offset="0.0066" stop-color="#00A1FF"/>
<stop offset="0.2601" stop-color="#00BEFF"/>
<stop offset="0.5122" stop-color="#00D2FF"/>
<stop offset="0.7604" stop-color="#00DFFF"/>
<stop offset="1" stop-color="#00E3FF"/>
</linearGradient>
<linearGradient id="paint1_linear_4644_84004" x1="127.907" y1="22.2499" x2="-153.13" y2="22.2499" gradientUnits="userSpaceOnUse">
<stop stop-color="#FFE000"/>
<stop offset="0.4087" stop-color="#FFBD00"/>
<stop offset="0.7754" stop-color="#FFA500"/>
<stop offset="1" stop-color="#FF9C00"/>
</linearGradient>
<linearGradient id="paint2_linear_4644_84004" x1="102.725" y1="8.10052" x2="41.6922" y2="134.313" gradientUnits="userSpaceOnUse">
<stop stop-color="#FF3A44"/>
<stop offset="1" stop-color="#C31162"/>
</linearGradient>
<linearGradient id="paint3_linear_4644_84004" x1="-21.3036" y1="-23.573" x2="5.94803" y2="32.7831" gradientUnits="userSpaceOnUse">
<stop stop-color="#32A071"/>
<stop offset="0.0685" stop-color="#2DA771"/>
<stop offset="0.4762" stop-color="#15CF74"/>
<stop offset="0.8009" stop-color="#06E775"/>
<stop offset="1" stop-color="#00F076"/>
</linearGradient>
</defs>
</svg>
