<svg width="101" height="100" viewBox="0 0 101 100" fill="none" xmlns="http://www.w3.org/2000/svg">
<rect x="0.666016" width="100" height="100" rx="50" fill="#FCFAE8"/>
<path d="M75.7242 23.103L76.6851 21.3361C76.7754 21.1699 77.0149 21.1704 77.1076 21.3381L78.0848 23.1142C78.107 23.1542 78.1408 23.1879 78.181 23.2101L79.9566 24.1873C80.1238 24.2794 80.1256 24.5189 79.9589 24.6101L78.192 25.5705C78.1518 25.5924 78.1186 25.6257 78.0971 25.6656L77.1361 27.4325C77.0458 27.5987 76.8063 27.5982 76.7136 27.4305L75.7364 25.6545C75.7143 25.6144 75.6805 25.5808 75.6403 25.5585L73.8647 24.5814C73.6974 24.4892 73.6957 24.2497 73.8623 24.1585L75.6292 23.1981C75.6694 23.1762 75.7026 23.1429 75.7242 23.103Z" fill="url(#paint0_linear_413_4681)"/>
<path d="M80.7032 17.5226L80.7037 17.5218L81.2579 16.502L81.8232 17.5298L81.8238 17.5306C81.8576 17.5912 81.9077 17.6415 81.9683 17.6752L81.9689 17.6756L82.9968 18.2411L81.977 18.7954L81.9764 18.7959C81.9152 18.8295 81.8645 18.8801 81.8307 18.9413L81.8302 18.9421L81.276 19.962L80.7107 18.9341L80.7102 18.9334C80.6764 18.8727 80.6262 18.8224 80.5656 18.7888L80.565 18.7883L79.5371 18.2228L80.5569 17.6685L80.5575 17.6681C80.6187 17.6344 80.6694 17.5838 80.7032 17.5226Z" stroke="#BBA179" stroke-width="0.738864"/>
<path d="M20.4501 30.9876L21.6494 28.7811C21.7625 28.5735 22.0616 28.5742 22.1775 28.7836L23.3977 31.0014C23.4255 31.0516 23.4674 31.0935 23.5175 31.1214L25.7354 32.3416C25.9441 32.4566 25.9462 32.7557 25.7379 32.8696L23.5315 34.069C23.4816 34.0963 23.44 34.1378 23.4127 34.1877L22.2133 36.3942C22.1002 36.6017 21.8011 36.601 21.6853 36.3917L20.4651 34.1738C20.4373 34.1237 20.3953 34.0817 20.3452 34.0539L18.1273 32.8337C17.9187 32.7186 17.9165 32.4195 18.1248 32.3057L20.3313 31.1063C20.3812 31.0789 20.4227 31.0374 20.4501 30.9876Z" fill="url(#paint1_linear_413_4681)"/>
<path d="M15.9546 24.7672L16.5639 23.6462C16.6214 23.5407 16.7734 23.5411 16.8322 23.6474L17.4522 24.7743C17.4663 24.7997 17.4876 24.8211 17.5131 24.8352L18.6399 25.4552C18.7459 25.5136 18.747 25.6656 18.6412 25.7235L17.5201 26.3329C17.4948 26.3467 17.4737 26.3678 17.4598 26.3932L16.8505 27.5142C16.7929 27.6197 16.641 27.6193 16.5822 27.5129L15.9622 26.3861C15.948 26.3606 15.9267 26.3393 15.9013 26.3252L14.7744 25.7052C14.6684 25.6467 14.6673 25.4948 14.7731 25.437L15.8942 24.8276C15.9195 24.8137 15.9406 24.7926 15.9546 24.7672Z" fill="url(#paint2_linear_413_4681)"/>
<path d="M21.7563 18.9284L22.3656 17.8073C22.4231 17.7019 22.5751 17.7022 22.6339 17.8086L23.2539 18.9354C23.2681 18.9609 23.2893 18.9822 23.3148 18.9963L24.4417 19.6163C24.5477 19.6748 24.5488 19.8267 24.4429 19.8846L23.3218 20.494C23.2965 20.5079 23.2754 20.529 23.2615 20.5543L22.6522 21.6754C22.5947 21.7808 22.4427 21.7805 22.3839 21.6741L21.7639 20.5472C21.7498 20.5218 21.7285 20.5005 21.703 20.4863L20.5762 19.8664C20.4702 19.8079 20.4691 19.6559 20.5749 19.5981L21.696 18.9887C21.7212 18.9748 21.7424 18.9537 21.7563 18.9284Z" fill="url(#paint3_linear_413_4681)"/>
<path d="M64.1525 72.3877H38.0664V92.2994H64.1525V72.3877Z" fill="url(#paint4_linear_413_4681)"/>
<path d="M51.0845 76.4195C58.1631 76.4195 63.9015 74.5177 63.9015 72.1717C63.9015 69.8256 58.1631 67.9238 51.0845 67.9238C44.0059 67.9238 38.2676 69.8256 38.2676 72.1717C38.2676 74.5177 44.0059 76.4195 51.0845 76.4195Z" fill="white" stroke="url(#paint5_radial_413_4681)" stroke-width="0.976738"/>
<path d="M50.8369 73.5863C54.1193 73.5863 56.7803 72.846 56.7803 71.9328C56.7803 71.0196 54.1193 70.2793 50.8369 70.2793C47.5545 70.2793 44.8936 71.0196 44.8936 71.9328C44.8936 72.846 47.5545 73.5863 50.8369 73.5863Z" fill="white" stroke="url(#paint6_radial_413_4681)" stroke-width="0.976738"/>
<path fill-rule="evenodd" clip-rule="evenodd" d="M46.9089 68.542C49.2439 69.1585 53.0054 69.0735 55.3101 68.352C57.6149 67.63 57.5898 66.5456 55.2554 65.9284C52.9203 65.3119 49.1588 65.397 46.8541 66.1184C44.5494 66.8404 44.5739 67.9255 46.9089 68.542ZM44.9182 69.1655C48.3669 70.0763 53.9227 69.9505 57.327 68.8847C60.7307 67.8188 60.6946 66.2163 57.246 65.3049C53.7968 64.3941 48.2416 64.52 44.8372 65.5858C41.433 66.6516 41.4693 68.2547 44.9182 69.1655Z" fill="url(#paint7_linear_413_4681)"/>
<path d="M64.273 18.0225H39.6817C38.672 18.0225 37.8535 18.841 37.8535 19.8506V60.7738C37.8535 61.7835 38.672 62.6019 39.6817 62.6019H64.273C65.2826 62.6019 66.1011 61.7835 66.1011 60.7738V19.8506C66.1011 18.841 65.2826 18.0225 64.273 18.0225Z" fill="url(#paint8_linear_413_4681)" stroke="#C9B18D" stroke-width="0.392149"/>
<g filter="url(#filter0_dii_413_4681)">
<path d="M45.5647 53.0816C45.5647 53.0816 50.1199 53.3866 49.9882 51.9839C49.8594 50.5812 47.5716 47.0191 39.2002 44.3423C39.2002 44.3423 46.2348 43.3732 51.3489 48.4428C51.3489 48.4428 47.1678 39.859 52.4107 35.0945C57.6535 30.3331 64.1527 30.6651 64.1527 30.6651C64.1527 30.6651 57.5463 31.8465 56.3616 35.9439C55.1804 40.0444 57.5072 45.4728 59.2805 49.2024C61.0514 52.932 60.6476 56.6616 55.6979 56.4014C50.751 56.1442 46.9166 53.7515 45.5647 53.0816Z" fill="white"/>
</g>
<mask id="mask0_413_4681" style="mask-type:luminance" maskUnits="userSpaceOnUse" x="41" y="20" width="5" height="5">
<path d="M42.7349 24.2409C42.7349 24.2409 43.4107 24.2863 43.3915 24.0779C43.3723 23.8699 43.0329 23.3415 41.791 22.9442C41.791 22.9442 42.8344 22.8005 43.5931 23.5522C43.5931 23.5522 42.9729 22.2788 43.7505 21.5721C44.5284 20.8665 45.4923 20.9158 45.4923 20.9158C45.4923 20.9158 44.5121 21.091 44.3361 21.6987C44.1613 22.3068 44.5063 23.1123 44.7691 23.6655C45.0319 24.2188 44.9719 24.7721 44.2376 24.7334C43.504 24.6951 42.9354 24.3403 42.7349 24.2409Z" fill="white"/>
</mask>
<g mask="url(#mask0_413_4681)">
<path fill-rule="evenodd" clip-rule="evenodd" d="M45.4056 20.9332C45.4109 20.9332 45.4149 20.9293 45.4149 20.9241C45.4149 20.919 45.4109 20.915 45.4056 20.915C45.4004 20.915 45.3963 20.919 45.3963 20.9241C45.3963 20.9293 45.4004 20.9332 45.4056 20.9332ZM45.3561 20.9399C45.3561 20.9509 45.3468 20.9604 45.3351 20.9604C45.324 20.9604 45.3147 20.9513 45.3147 20.9399C45.3147 20.9284 45.324 20.9194 45.3351 20.9194C45.3468 20.9194 45.3561 20.9284 45.3561 20.9399ZM45.2378 20.9576C45.2378 20.975 45.2238 20.9888 45.2069 20.9888C45.1894 20.9888 45.1754 20.975 45.1754 20.9576C45.1754 20.9403 45.1894 20.9265 45.2069 20.9265C45.2238 20.9265 45.2378 20.9403 45.2378 20.9576ZM44.88 21.0563C44.9004 21.0563 44.9161 21.0402 44.9161 21.02C44.9161 20.9999 44.9004 20.9837 44.88 20.9837C44.8596 20.9837 44.8439 20.9999 44.8439 21.02C44.8439 21.0402 44.8596 21.0563 44.88 21.0563ZM44.7232 21.0851C44.7232 21.1068 44.7057 21.1246 44.6836 21.1246C44.662 21.1246 44.6446 21.1068 44.6446 21.0851C44.6446 21.0634 44.662 21.0456 44.6836 21.0456C44.7057 21.0456 44.7232 21.0634 44.7232 21.0851ZM44.521 21.1514C44.521 21.1759 44.5018 21.1956 44.4773 21.1956C44.4715 21.1956 44.4662 21.1944 44.461 21.1928C44.4721 21.2118 44.4686 21.2355 44.4517 21.2496C44.4394 21.26 44.4225 21.2627 44.4074 21.2572C44.3893 21.2505 44.3782 21.2339 44.3788 21.2142C44.3788 21.2094 44.3748 21.2059 44.3707 21.2063C44.3683 21.2063 44.366 21.2063 44.3649 21.2066C44.3561 21.2075 44.3497 21.2137 44.3491 21.222C44.3485 21.2295 44.3538 21.2366 44.3614 21.2375C44.373 21.2382 44.3829 21.2429 44.3917 21.2529C44.3986 21.2619 44.4027 21.2721 44.4016 21.284C44.4004 21.3085 44.38 21.3262 44.3549 21.3251C44.3328 21.3239 44.3182 21.3085 44.3147 21.284C44.3141 21.2765 44.3077 21.2714 44.3002 21.2721C44.292 21.273 44.285 21.2797 44.2839 21.2879C44.2833 21.2954 44.2885 21.3021 44.2961 21.3026C44.3072 21.3033 44.3182 21.3077 44.327 21.3175C44.334 21.3262 44.338 21.3361 44.3375 21.3475C44.3363 21.3708 44.3182 21.3894 44.2949 21.3901C44.2804 21.3905 44.2681 21.385 44.2588 21.3736C44.2524 21.3653 44.2495 21.3558 44.2495 21.3456C44.2495 21.3404 44.2448 21.3365 44.2396 21.3369C44.2291 21.338 44.2215 21.346 44.2203 21.3562C44.2192 21.3618 44.2238 21.3665 44.2291 21.3669C44.2471 21.3676 44.2611 21.376 44.2693 21.3945C44.2774 21.4123 44.2739 21.4292 44.2605 21.4426C44.2431 21.4608 44.2227 21.4604 44.1994 21.4478C44.2116 21.4687 44.2133 21.4884 44.1988 21.5062C44.1836 21.5248 44.1638 21.5275 44.1417 21.5188C44.1586 21.5669 44.1213 21.5985 44.0822 21.589C44.0857 21.6048 44.0857 21.6202 44.0764 21.636C44.0781 21.6356 44.0799 21.6352 44.0811 21.6348C44.0834 21.634 44.0851 21.6337 44.0869 21.6333C44.1055 21.6281 44.1253 21.6364 44.1347 21.6538C44.1411 21.6664 44.1411 21.6822 44.1335 21.694C44.123 21.711 44.1032 21.7181 44.0846 21.7118C44.0677 21.7063 44.056 21.6901 44.0566 21.6727C44.0566 21.6684 44.0577 21.664 44.0589 21.6597C44.0589 21.6577 44.0595 21.6558 44.0601 21.6542L44.0245 21.6613L44.0222 21.6944C44.0461 21.6916 44.0653 21.6992 44.0746 21.7236C44.0811 21.7406 44.077 21.7567 44.0642 21.7698C44.0484 21.7852 44.0298 21.786 44.0088 21.7769C44.0181 21.7966 44.0193 21.8148 44.007 21.8317C43.9942 21.8491 43.9773 21.8542 43.9552 21.8511C43.9575 21.8653 43.9581 21.8787 43.9523 21.8921C43.9767 21.8874 43.9966 21.8933 44.007 21.9162C44.0146 21.9328 44.0123 21.9489 44.0001 21.9627C43.9849 21.9793 43.9663 21.9813 43.9453 21.9722V21.975C43.9453 21.9765 43.9464 21.9785 43.9464 21.9785C43.9622 22.0133 43.9342 22.0524 43.8957 22.0476C43.8957 22.0476 43.8952 22.0476 43.894 22.0476H43.8928V22.0835C43.9097 22.082 43.9261 22.0859 43.9383 22.1009C43.9464 22.1115 43.9488 22.1234 43.947 22.1368C43.9435 22.1633 43.9185 22.1786 43.8864 22.1735C43.8917 22.1881 43.8922 22.2027 43.8853 22.2177C43.9086 22.2126 43.9278 22.2173 43.9395 22.237C43.9488 22.252 43.9476 22.2709 43.9383 22.2852C43.9249 22.3033 43.9068 22.3069 43.8841 22.3014C43.8899 22.3175 43.8911 22.3325 43.8835 22.3491C43.9022 22.3444 43.9185 22.3455 43.9319 22.3586C43.9412 22.3673 43.9459 22.3783 43.9453 22.3905C43.9453 22.4059 43.9383 22.4186 43.9255 22.4272C43.9126 22.4355 43.8987 22.4355 43.8841 22.4315C43.8905 22.447 43.8905 22.4616 43.8847 22.4773C43.8864 22.4773 43.8876 22.4773 43.8888 22.4773C43.8911 22.4773 43.8928 22.4773 43.8952 22.4765C43.9138 22.4742 43.9284 22.4805 43.9389 22.4963C43.9482 22.5109 43.9488 22.5299 43.9395 22.5444C43.9295 22.5602 43.915 22.5669 43.8963 22.5653C43.8946 22.5653 43.8928 22.5653 43.8911 22.5646C43.8899 22.5646 43.8893 22.5646 43.8876 22.5642C43.8917 22.578 43.8928 22.591 43.8876 22.6052C43.9074 22.6021 43.9237 22.6052 43.9365 22.6202C43.9441 22.6289 43.9476 22.6399 43.9476 22.6518C43.9476 22.6794 43.9272 22.6967 43.8934 22.6987V22.7287L43.9295 22.737C43.9237 22.7248 43.922 22.7118 43.9284 22.6987C43.9325 22.6905 43.9389 22.6838 43.947 22.6798C43.9698 22.6684 43.9989 22.679 44.0065 22.707C44.0094 22.7185 44.0071 22.7299 44.0006 22.7398C43.989 22.7571 43.9709 22.7619 43.9429 22.7536C43.9523 22.7702 43.954 22.7863 43.9464 22.8045C43.9663 22.7994 43.9837 22.8018 43.9977 22.8163C44.0059 22.825 44.01 22.8361 44.01 22.8479C44.01 22.8755 43.9896 22.8921 43.9552 22.8933L43.9569 22.9241L43.9919 22.9319C43.9855 22.9043 43.9907 22.8866 44.01 22.8763C44.0216 22.87 44.0356 22.8692 44.0473 22.8751C44.07 22.8866 44.077 22.9134 44.0653 22.9335C44.0543 22.9521 44.0368 22.9572 44.0088 22.9497C44.0164 22.9655 44.0187 22.9809 44.0123 22.9983C44.0344 22.9931 44.0543 22.9967 44.0677 23.0152C44.0805 23.0334 44.0793 23.0523 44.0677 23.0724C44.0898 23.0606 44.109 23.0606 44.1265 23.0772C44.1399 23.0898 44.1434 23.1096 44.1358 23.1257C44.1253 23.1474 44.1073 23.1545 44.0846 23.1514L44.0875 23.1837L44.1213 23.1896C44.1172 23.1739 44.1178 23.1581 44.13 23.1446C44.1382 23.136 44.1481 23.1316 44.1603 23.1316C44.1848 23.1316 44.204 23.1517 44.2023 23.1758C44.2011 23.19 44.1947 23.2011 44.1825 23.209C44.1725 23.2153 44.1661 23.2157 44.1422 23.2129C44.1498 23.2259 44.1492 23.2394 44.1475 23.2544C44.1656 23.2516 44.1813 23.2544 44.1947 23.2658L44.2023 23.2749C44.2116 23.2907 44.2133 23.2994 44.2093 23.3218C44.2291 23.3179 44.2466 23.3199 44.2611 23.3348C44.2757 23.3499 44.278 23.368 44.2716 23.3889C44.2926 23.3838 44.3107 23.3854 44.3258 23.4004C44.3404 23.4158 44.3427 23.4339 44.3357 23.4548C44.3561 23.4489 44.3748 23.4501 44.3905 23.4651C44.4051 23.4797 44.408 23.4975 44.4016 23.5188C44.4214 23.5125 44.4394 23.5144 44.4546 23.5283C44.4697 23.5425 44.4732 23.5602 44.4686 23.5811C44.4855 23.5771 44.5018 23.578 44.5169 23.5878C44.5111 23.574 44.5088 23.5606 44.5158 23.5472C44.5199 23.5393 44.5257 23.533 44.5338 23.529C44.5554 23.518 44.584 23.529 44.5915 23.5555C44.5944 23.5665 44.5921 23.578 44.5857 23.5875C44.5741 23.6044 44.5566 23.6087 44.5286 23.6C44.5368 23.6134 44.5397 23.6273 44.5368 23.643C44.5513 23.6403 44.5641 23.6411 44.5781 23.6478C44.5729 23.6301 44.5746 23.6151 44.5857 23.6024C44.5933 23.5933 44.6038 23.5886 44.6166 23.5882C44.6411 23.5878 44.6603 23.6076 44.6591 23.6324C44.658 23.6601 44.637 23.6742 44.602 23.6707L44.6073 23.7023C44.6143 23.7027 44.6213 23.7034 44.6288 23.7042L44.6376 23.7051C44.6358 23.6877 44.6399 23.6719 44.6545 23.6601C44.665 23.6521 44.6766 23.649 44.6894 23.651C44.7197 23.6561 44.7314 23.6806 44.7226 23.718C44.7693 23.6979 44.8025 23.7358 44.7949 23.7733L44.8147 23.7713C44.8165 23.7764 44.8182 23.7816 44.8205 23.7867C44.8246 23.7978 44.8287 23.8084 44.8328 23.8191C44.852 23.8728 44.8683 23.9276 44.8817 23.9832C44.8911 24.0243 44.8986 24.0653 44.9033 24.1067C44.9074 24.1423 44.9097 24.1778 44.9097 24.2137C44.9091 24.2828 44.9004 24.3506 44.8765 24.4158C44.8555 24.4737 44.8252 24.5258 44.7827 24.5704C44.7355 24.6198 44.6795 24.6553 44.6166 24.681C44.5589 24.7042 44.4989 24.718 44.4371 24.7255C44.3847 24.7322 44.3316 24.7342 44.2792 24.7331C44.2471 24.7322 44.2162 24.7303 44.1848 24.7279C44.151 24.7255 44.1166 24.7227 44.0834 24.7188C44.0443 24.7145 44.0059 24.7089 43.9674 24.703C43.9045 24.6935 43.8427 24.6813 43.7809 24.6671C43.7163 24.6521 43.6522 24.6352 43.5881 24.6162C43.4855 24.5859 43.3853 24.5499 43.2865 24.5093C43.2316 24.4868 43.1772 24.4627 43.1235 24.4378C43.069 24.4126 43.0149 24.3862 42.9617 24.3593C42.9278 24.342 42.8942 24.3242 42.8607 24.3064C42.8433 24.297 42.8256 24.2879 42.8082 24.2784C42.7932 24.2705 42.7782 24.263 42.7632 24.2552C42.7557 24.2512 42.7482 24.2472 42.7407 24.2437C42.7395 24.2429 42.738 24.2421 42.7363 24.2413L42.7336 24.2398C42.738 24.2398 42.7423 24.2398 42.7467 24.2398C42.7557 24.2398 42.764 24.2398 42.7726 24.2398C42.7798 24.2398 42.7873 24.2401 42.7944 24.2405C42.8042 24.2409 42.8137 24.2413 42.8236 24.2417C42.8275 24.2417 42.8319 24.2417 42.8358 24.2417C42.8678 24.2417 42.9001 24.2421 42.9321 24.2417C42.9684 24.2409 43.0051 24.239 43.0414 24.2362C43.0765 24.2334 43.112 24.2299 43.1472 24.2251C43.1933 24.2188 43.2391 24.2089 43.2829 24.1928C43.3086 24.1833 43.3327 24.1715 43.3536 24.1533C43.3772 24.1332 43.3905 24.108 43.3876 24.0764C43.3859 24.0523 43.38 24.0286 43.3721 24.0057C43.3567 23.9595 43.3346 23.9162 43.309 23.8751C43.2758 23.8218 43.2375 23.7725 43.1953 23.7259C43.1657 23.6928 43.1345 23.6608 43.1018 23.6305C43.0249 23.559 42.942 23.4947 42.8552 23.4355C42.7726 23.3791 42.687 23.3274 42.599 23.28C42.5454 23.2512 42.4905 23.2236 42.4357 23.1967C42.3496 23.1549 42.2616 23.117 42.1724 23.0811C42.0876 23.0472 42.002 23.0148 41.9152 22.9856C41.8899 22.9769 41.8646 22.9687 41.839 22.96C41.8256 22.9557 41.8122 22.9509 41.7987 22.9466C41.7956 22.9454 41.7928 22.9442 41.79 22.9414C41.7936 22.941 41.7972 22.9406 41.8007 22.9403C41.8086 22.939 41.8165 22.9383 41.8244 22.9379C41.8303 22.9379 41.8363 22.9371 41.8421 22.9367C41.8713 22.9347 41.9005 22.9332 41.9294 22.9323C41.9728 22.9312 42.0162 22.9304 42.0596 22.9316C42.1488 22.9339 42.2379 22.941 42.3263 22.9525C42.4396 22.9675 42.5509 22.99 42.661 23.0199C42.7703 23.0499 42.8768 23.0878 42.9803 23.134C43.0746 23.1758 43.1653 23.2248 43.2525 23.2804C43.3315 23.3309 43.4074 23.3862 43.4785 23.4473C43.4989 23.4651 43.5187 23.4833 43.5385 23.5018C43.5473 23.5101 43.5566 23.5188 43.5653 23.527C43.5688 23.5302 43.5723 23.5334 43.5764 23.5369C43.5787 23.5389 43.5811 23.5408 43.5834 23.5432C43.5828 23.5417 43.5822 23.5401 43.5817 23.5389C43.5811 23.5365 43.5805 23.535 43.5799 23.533C43.5385 23.443 43.5053 23.3503 43.4744 23.2563C43.447 23.1707 43.4237 23.0835 43.4051 22.9955C43.3952 22.9462 43.3859 22.896 43.3784 22.8463C43.3717 22.8037 43.3674 22.7603 43.363 22.7173C43.3599 22.6857 43.3583 22.6541 43.3563 22.6222C43.3551 22.5965 43.3543 22.5709 43.354 22.5452C43.3532 22.4888 43.3556 22.4324 43.3607 22.3763C43.3681 22.2962 43.3818 22.2173 43.4022 22.1395C43.4197 22.0716 43.4435 22.0054 43.4727 21.9415C43.5176 21.8444 43.5741 21.7556 43.6434 21.6743C43.6708 21.6427 43.6994 21.6127 43.7303 21.5839C43.7844 21.5326 43.8416 21.4841 43.9016 21.4395C43.9441 21.4079 43.9867 21.3771 44.0309 21.3475C44.1009 21.2998 44.1743 21.256 44.25 21.2173C44.2856 21.1992 44.3217 21.1822 44.3573 21.1649C44.373 21.1573 44.3882 21.1502 44.4033 21.1427C44.4051 21.142 44.4062 21.1415 44.408 21.1407C44.408 21.1407 44.4097 21.1404 44.4109 21.14C44.4132 21.1459 44.4138 21.1549 44.4144 21.1617C44.415 21.1668 44.415 21.1707 44.4161 21.1707C44.4231 21.17 44.4301 21.1707 44.4365 21.1735C44.4324 21.1668 44.4295 21.1589 44.4295 21.1502C44.4295 21.1258 44.4493 21.106 44.4738 21.106C44.4983 21.106 44.5181 21.1258 44.5181 21.1502L44.521 21.1514ZM44.007 22.0642C44.007 22.0863 43.989 22.1045 43.9668 22.1045C43.9447 22.1045 43.9266 22.0863 43.9266 22.0642C43.9266 22.0421 43.9447 22.0239 43.9668 22.0239C43.989 22.0239 44.007 22.0421 44.007 22.0642ZM44.2267 23.2788C44.2483 23.2788 44.2664 23.2611 44.2664 23.239C44.2664 23.2169 44.2483 23.1991 44.2267 23.1991C44.2046 23.1991 44.1865 23.2169 44.1865 23.239C44.1865 23.2611 44.2046 23.2788 44.2267 23.2788ZM44.0315 21.9079C44.0531 21.9079 44.0706 21.8905 44.0706 21.8689C44.0706 21.8471 44.0531 21.8298 44.0315 21.8298C44.01 21.8298 43.9925 21.8471 43.9925 21.8689C43.9925 21.8905 44.01 21.9079 44.0315 21.9079ZM44.5268 23.5002C44.5268 23.5219 44.5094 23.5393 44.4878 23.5393C44.4662 23.5393 44.4488 23.5219 44.4488 23.5002C44.4488 23.4785 44.4662 23.4612 44.4878 23.4612C44.5094 23.4612 44.5268 23.4785 44.5268 23.5002ZM44.292 23.3432C44.3136 23.3432 44.3305 23.3258 44.3305 23.3045C44.3305 23.2832 44.3136 23.2658 44.292 23.2658C44.2704 23.2658 44.2535 23.2832 44.2535 23.3045C44.2535 23.3258 44.2704 23.3432 44.292 23.3432ZM44.0053 22.5867C44.0053 22.608 43.9884 22.6254 43.9668 22.6254C43.9453 22.6254 43.9284 22.608 43.9284 22.5867C43.9284 22.5653 43.9453 22.548 43.9668 22.548C43.9884 22.548 44.0053 22.5653 44.0053 22.5867ZM44.1626 21.6467C44.1836 21.6467 44.2011 21.6293 44.2011 21.608C44.2011 21.5867 44.1836 21.5693 44.1626 21.5693C44.1411 21.5693 44.1236 21.5867 44.1236 21.608C44.1236 21.6293 44.1411 21.6467 44.1626 21.6467ZM44.3951 23.37C44.3951 23.3913 44.3783 23.4083 44.3573 23.4083C44.3363 23.4083 44.3188 23.3909 44.3188 23.37C44.3188 23.3491 44.3363 23.3317 44.3573 23.3317C44.3783 23.3317 44.3951 23.3487 44.3951 23.37ZM44.422 23.4734C44.4435 23.4734 44.4604 23.4564 44.4604 23.4351C44.4604 23.4138 44.4435 23.3968 44.422 23.3968C44.401 23.3968 44.3841 23.4142 44.3841 23.4351C44.3841 23.456 44.401 23.4734 44.422 23.4734ZM44.0047 22.1952C44.0047 22.2161 43.9878 22.2331 43.9668 22.2331C43.9459 22.2331 43.929 22.2161 43.929 22.1952C43.929 22.1743 43.9459 22.1573 43.9668 22.1573C43.9878 22.1573 44.0047 22.1743 44.0047 22.1952ZM44.0956 23.016C44.1166 23.016 44.1335 22.9991 44.1335 22.9785C44.1335 22.958 44.1166 22.941 44.0956 22.941C44.0752 22.941 44.0583 22.958 44.0583 22.9785C44.0583 22.9991 44.0752 23.016 44.0956 23.016ZM44.0041 22.4564C44.0041 22.4769 43.9872 22.4935 43.9668 22.4935C43.9464 22.4935 43.9295 22.4769 43.9295 22.4564C43.9295 22.4359 43.9464 22.4194 43.9668 22.4194C43.9872 22.4194 44.0041 22.4359 44.0041 22.4564ZM44.6189 21.1885C44.6399 21.1885 44.6562 21.1719 44.6562 21.1514C44.6562 21.1309 44.6399 21.1143 44.6189 21.1143C44.5985 21.1143 44.5822 21.1309 44.5822 21.1514C44.5822 21.1719 44.5985 21.1885 44.6189 21.1885ZM44.0036 22.3258C44.0036 22.3463 43.9867 22.3629 43.9663 22.3629C43.9459 22.3629 43.9295 22.3463 43.9295 22.3258C43.9295 22.3053 43.9459 22.2887 43.9663 22.2887C43.9867 22.2887 44.0036 22.3053 44.0036 22.3258ZM44.0321 22.8191C44.0519 22.8191 44.0688 22.8025 44.0688 22.7824C44.0688 22.7622 44.0519 22.7457 44.0321 22.7457C44.0117 22.7457 43.9954 22.7622 43.9954 22.7824C43.9954 22.8025 44.0117 22.8191 44.0321 22.8191ZM44.2646 21.5425C44.2646 21.5626 44.2483 21.5792 44.2279 21.5792C44.2069 21.5792 44.1912 21.563 44.1912 21.5425C44.1912 21.522 44.2069 21.5058 44.2279 21.5058C44.2483 21.5058 44.2646 21.522 44.2646 21.5425ZM44.5898 21.2161C44.5898 21.2358 44.5735 21.2516 44.5542 21.2516C44.535 21.2516 44.5187 21.2355 44.5187 21.2161C44.5187 21.1968 44.535 21.1806 44.5542 21.1806C44.5735 21.1806 44.5898 21.1968 44.5898 21.2161ZM44.0974 21.8384C44.1166 21.8384 44.1323 21.8226 44.1323 21.8034C44.1323 21.784 44.1166 21.7682 44.0974 21.7682C44.0781 21.7682 44.0624 21.784 44.0624 21.8034C44.0624 21.8226 44.0781 21.8384 44.0974 21.8384ZM44.3281 21.477C44.3281 21.4963 44.3124 21.5121 44.2932 21.5121C44.2739 21.5121 44.2582 21.4963 44.2582 21.477C44.2582 21.4576 44.2739 21.4418 44.2932 21.4418C44.3124 21.4418 44.3281 21.4576 44.3281 21.477ZM44.0321 22.0342C44.0519 22.0342 44.0677 22.0184 44.0677 21.999C44.0677 21.9798 44.0519 21.964 44.0321 21.964C44.0129 21.964 43.9971 21.9798 43.9971 21.999C43.9971 22.0184 44.0129 22.0342 44.0321 22.0342ZM44.197 23.0432C44.197 23.0626 44.1813 23.078 44.1621 23.078C44.1434 23.078 44.1277 23.0622 44.1277 23.0432C44.1277 23.0243 44.1434 23.0085 44.1621 23.0085C44.1813 23.0085 44.197 23.0243 44.197 23.0432ZM44.489 21.3164C44.5082 21.3164 44.5234 21.301 44.5234 21.2816C44.5234 21.2623 44.5082 21.2469 44.489 21.2469C44.4697 21.2469 44.454 21.2623 44.454 21.2816C44.454 21.301 44.4697 21.3164 44.489 21.3164ZM44.3928 21.4123C44.3928 21.4312 44.3777 21.4466 44.3584 21.4466C44.3398 21.4466 44.3241 21.4312 44.3241 21.4123C44.3241 21.3933 44.3398 21.3779 44.3584 21.3779C44.3777 21.3779 44.3928 21.3933 44.3928 21.4123ZM44.4237 21.3815C44.4429 21.3815 44.4581 21.3661 44.4581 21.3471C44.4581 21.3282 44.4429 21.3128 44.4237 21.3128C44.4051 21.3128 44.3893 21.3282 44.3893 21.3471C44.3893 21.3661 44.4051 21.3815 44.4237 21.3815ZM44.0659 22.6522C44.0659 22.6707 44.0508 22.6857 44.0321 22.6857C44.014 22.6857 43.9989 22.6707 43.9989 22.6522C43.9989 22.6336 44.014 22.6186 44.0321 22.6186C44.0508 22.6186 44.0659 22.6336 44.0659 22.6522ZM44.8147 21.1182C44.8328 21.1182 44.8479 21.1033 44.8479 21.0847C44.8479 21.0662 44.8328 21.0512 44.8147 21.0512C44.7961 21.0512 44.7809 21.0662 44.7809 21.0847C44.7809 21.1033 44.7961 21.1182 44.8147 21.1182ZM44.6824 23.5973C44.7011 23.5973 44.7157 23.5827 44.7157 23.5641C44.7157 23.5456 44.7011 23.531 44.6824 23.531C44.6644 23.531 44.6492 23.5456 44.6492 23.5641C44.6492 23.5827 44.6644 23.5973 44.6824 23.5973ZM45.0431 21.02C45.0431 21.0382 45.0286 21.0527 45.0099 21.0527C44.9919 21.0527 44.9773 21.0382 44.9773 21.02C44.9773 21.0019 44.9919 20.9872 45.0099 20.9872C45.0286 20.9872 45.0431 21.0019 45.0431 21.02ZM44.5548 21.1305C44.5717 21.1305 44.5857 21.1167 44.5857 21.0993C44.5857 21.0819 44.5723 21.0681 44.5548 21.0681C44.5373 21.0681 44.5234 21.0819 44.5234 21.0993C44.5234 21.1167 44.5373 21.1305 44.5548 21.1305ZM44.1288 22.8467C44.1288 22.8649 44.1143 22.8795 44.0956 22.8795C44.0776 22.8795 44.063 22.8649 44.063 22.8467C44.063 22.8286 44.0776 22.814 44.0956 22.814C44.1143 22.814 44.1288 22.8286 44.1288 22.8467ZM44.0315 22.1616C44.0496 22.1616 44.0642 22.1471 44.0642 22.1289C44.0642 22.1108 44.0496 22.0961 44.0315 22.0961C44.0135 22.0961 43.9989 22.1108 43.9989 22.1289C43.9989 22.1471 44.0135 22.1616 44.0315 22.1616ZM44.2594 23.108C44.2594 23.1261 44.2448 23.1407 44.2267 23.1407C44.2081 23.1407 44.1935 23.1261 44.1935 23.108C44.1935 23.0898 44.2081 23.0752 44.2267 23.0752C44.2448 23.0752 44.2594 23.0898 44.2594 23.108ZM44.1621 21.7698C44.1801 21.7698 44.1947 21.7552 44.1947 21.7375C44.1947 21.7197 44.1801 21.7051 44.1621 21.7051C44.1446 21.7051 44.13 21.7197 44.13 21.7375C44.13 21.7552 44.1446 21.7698 44.1621 21.7698ZM44.0636 22.5208C44.0636 22.5381 44.049 22.5523 44.0321 22.5523C44.0146 22.5523 44.0006 22.5381 44.0006 22.5208C44.0006 22.5034 44.0146 22.4892 44.0321 22.4892C44.049 22.4892 44.0636 22.5034 44.0636 22.5208ZM44.6178 23.5306C44.6347 23.5306 44.6492 23.5168 44.6492 23.4994C44.6492 23.482 44.6352 23.4682 44.6178 23.4682C44.6009 23.4682 44.5869 23.482 44.5869 23.4994C44.5869 23.5168 44.6009 23.5306 44.6178 23.5306ZM44.0624 22.2599C44.0624 22.2769 44.049 22.2907 44.0321 22.2907C44.0152 22.2907 44.0012 22.2769 44.0012 22.2599C44.0012 22.2429 44.0152 22.2291 44.0321 22.2291C44.049 22.2291 44.0624 22.2429 44.0624 22.2599ZM44.7495 21.1814C44.7664 21.1814 44.7803 21.1676 44.7803 21.1506C44.7803 21.1337 44.7664 21.1199 44.7495 21.1199C44.7326 21.1199 44.7186 21.1337 44.7186 21.1506C44.7186 21.1676 44.7326 21.1814 44.7495 21.1814ZM44.3223 23.1735C44.3223 23.1904 44.3083 23.2043 44.2914 23.2043C44.2745 23.2043 44.2605 23.1904 44.2605 23.1735C44.2605 23.1565 44.2745 23.1427 44.2914 23.1427C44.3083 23.1427 44.3223 23.1565 44.3223 23.1735ZM44.0968 21.9643C44.1137 21.9643 44.1277 21.9505 44.1277 21.9335C44.1277 21.9166 44.1137 21.9028 44.0968 21.9028C44.0799 21.9028 44.0659 21.9166 44.0659 21.9335C44.0659 21.9505 44.0799 21.9643 44.0968 21.9643ZM44.0618 22.3905C44.0618 22.4075 44.0478 22.4213 44.0309 22.4213C44.014 22.4213 44.0006 22.4075 44.0006 22.3905C44.0006 22.3736 44.014 22.3598 44.0309 22.3598C44.0478 22.3598 44.0618 22.3736 44.0618 22.3905ZM44.5525 23.4647C44.5688 23.4647 44.5822 23.4513 44.5822 23.4347C44.5822 23.4181 44.5688 23.4047 44.5525 23.4047C44.5356 23.4047 44.5222 23.4181 44.5222 23.4347C44.5222 23.4513 44.5356 23.4647 44.5525 23.4647ZM44.3864 23.239C44.3864 23.2555 44.373 23.2686 44.3567 23.2686C44.3404 23.2686 44.327 23.2552 44.327 23.239C44.327 23.2228 44.3404 23.2094 44.3567 23.2094C44.373 23.2094 44.3864 23.2228 44.3864 23.239ZM44.2273 21.7027C44.2436 21.7027 44.257 21.6893 44.257 21.6731C44.257 21.6569 44.2436 21.6435 44.2273 21.6435C44.211 21.6435 44.1976 21.6569 44.1976 21.6731C44.1976 21.6893 44.211 21.7027 44.2273 21.7027ZM44.7763 21.035C44.7763 21.0496 44.7646 21.061 44.75 21.061C44.736 21.061 44.7238 21.0492 44.7238 21.035C44.7238 21.0208 44.736 21.009 44.75 21.009C44.7646 21.009 44.7763 21.0208 44.7763 21.035ZM44.422 23.3333C44.4383 23.3333 44.4511 23.3203 44.4511 23.3041C44.4511 23.2879 44.4383 23.2749 44.422 23.2749C44.4056 23.2749 44.3928 23.2879 44.3928 23.3041C44.3928 23.3203 44.4056 23.3333 44.422 23.3333ZM44.5164 23.3692C44.5164 23.3854 44.503 23.3984 44.4866 23.3984C44.4709 23.3984 44.4575 23.3854 44.4575 23.3692C44.4575 23.353 44.4709 23.34 44.4866 23.34C44.503 23.34 44.5164 23.353 44.5164 23.3692ZM44.1603 22.9414C44.1766 22.9414 44.19 22.9284 44.19 22.9122C44.19 22.896 44.1766 22.883 44.1603 22.883C44.1446 22.883 44.1312 22.896 44.1312 22.9122C44.1312 22.9284 44.1446 22.9414 44.1603 22.9414ZM45.1008 20.9656C45.1008 20.9794 45.0898 20.9904 45.0758 20.9904C45.0618 20.9904 45.0507 20.9794 45.0507 20.9656C45.0507 20.9518 45.0618 20.9407 45.0758 20.9407C45.0898 20.9407 45.1008 20.9518 45.1008 20.9656ZM44.0968 22.7453C44.1131 22.7453 44.1259 22.7323 44.1259 22.7165C44.1259 22.7007 44.1131 22.6877 44.0968 22.6877C44.0811 22.6877 44.0682 22.7007 44.0682 22.7165C44.0682 22.7323 44.0811 22.7453 44.0968 22.7453ZM44.7133 21.2157C44.7133 21.2315 44.6999 21.2445 44.6842 21.2445C44.6685 21.2445 44.6556 21.2315 44.6556 21.2157C44.6556 21.1999 44.6685 21.1869 44.6842 21.1869C44.6999 21.1869 44.7133 21.1999 44.7133 21.2157ZM44.2926 21.6352C44.3083 21.6352 44.3206 21.6226 44.3206 21.6076C44.3206 21.5926 44.3077 21.58 44.2926 21.58C44.278 21.58 44.2652 21.5926 44.2652 21.6076C44.2652 21.6226 44.278 21.6352 44.2926 21.6352ZM44.1248 22.0642C44.1248 22.0796 44.1125 22.0918 44.0968 22.0918C44.0816 22.0918 44.0694 22.0796 44.0694 22.0642C44.0694 22.0488 44.0816 22.0366 44.0968 22.0366C44.1125 22.0366 44.1248 22.0488 44.1248 22.0642ZM44.7395 23.6588C44.7547 23.6588 44.7669 23.6466 44.7669 23.6316C44.7669 23.6167 44.7547 23.6044 44.7395 23.6044C44.7244 23.6044 44.7122 23.6167 44.7122 23.6316C44.7122 23.6466 44.7244 23.6588 44.7395 23.6588ZM44.19 21.8684C44.19 21.8834 44.1778 21.8957 44.1626 21.8957C44.1475 21.8957 44.1353 21.8834 44.1353 21.8684C44.1353 21.8535 44.1475 21.8412 44.1626 21.8412C44.1778 21.8412 44.19 21.8535 44.19 21.8684ZM44.3584 21.5685C44.373 21.5685 44.3847 21.5567 44.3847 21.5421C44.3847 21.5275 44.373 21.5157 44.3584 21.5157C44.3439 21.5157 44.3316 21.5275 44.3316 21.5421C44.3316 21.5567 44.3439 21.5685 44.3584 21.5685ZM44.2535 22.9777C44.2535 22.9923 44.2413 23.0042 44.2267 23.0042C44.2122 23.0042 44.2005 22.9923 44.2005 22.9777C44.2005 22.9631 44.2122 22.9513 44.2267 22.9513C44.2413 22.9513 44.2535 22.9631 44.2535 22.9777ZM44.0974 22.6123C44.1119 22.6123 44.1236 22.6005 44.1236 22.5863C44.1236 22.572 44.1114 22.5602 44.0974 22.5602C44.0834 22.5602 44.0711 22.572 44.0711 22.5863C44.0711 22.6005 44.0834 22.6123 44.0974 22.6123ZM44.123 22.1948C44.123 22.209 44.1114 22.2204 44.0974 22.2204C44.0834 22.2204 44.0717 22.209 44.0717 22.1948C44.0717 22.1806 44.0834 22.1691 44.0974 22.1691C44.1114 22.1691 44.123 22.1806 44.123 22.1948ZM44.1632 22.8069C44.1766 22.8069 44.1877 22.7958 44.1877 22.782C44.1877 22.7682 44.1766 22.7571 44.1632 22.7571C44.1492 22.7571 44.1382 22.7682 44.1382 22.782C44.1382 22.7958 44.1492 22.8069 44.1632 22.8069ZM44.1224 22.4557C44.1224 22.4695 44.1114 22.4805 44.098 22.4805C44.084 22.4805 44.0729 22.4695 44.0729 22.4557C44.0729 22.4419 44.084 22.4308 44.098 22.4308C44.1114 22.4308 44.1224 22.4419 44.1224 22.4557ZM44.4237 21.503C44.4383 21.503 44.4499 21.4912 44.4499 21.477C44.4499 21.4628 44.4383 21.4509 44.4237 21.4509C44.4097 21.4509 44.3975 21.4628 44.3975 21.477C44.3975 21.4912 44.4097 21.503 44.4237 21.503ZM44.1224 22.325C44.1224 22.3384 44.1114 22.3495 44.098 22.3495C44.0846 22.3495 44.0735 22.3384 44.0735 22.325C44.0735 22.3116 44.0846 22.3005 44.098 22.3005C44.1114 22.3005 44.1224 22.3116 44.1224 22.325ZM44.2926 23.0669C44.306 23.0669 44.3171 23.0562 44.3171 23.0428C44.3171 23.0294 44.306 23.0188 44.2926 23.0188C44.2792 23.0188 44.2687 23.0294 44.2687 23.0428C44.2687 23.0562 44.2792 23.0669 44.2926 23.0669ZM44.9686 21.0796C44.9686 21.093 44.9575 21.1041 44.9441 21.1041C44.9307 21.1041 44.9196 21.093 44.9196 21.0796C44.9196 21.0662 44.9307 21.0551 44.9441 21.0551C44.9575 21.0551 44.9686 21.0662 44.9686 21.0796ZM44.2267 21.8266C44.2401 21.8266 44.2512 21.8159 44.2512 21.8025C44.2512 21.7891 44.2401 21.7785 44.2267 21.7785C44.2133 21.7785 44.2029 21.7891 44.2029 21.8025C44.2029 21.8159 44.2133 21.8266 44.2267 21.8266ZM44.6434 21.2785C44.6434 21.2927 44.6323 21.3045 44.6178 21.3045C44.6032 21.3045 44.5915 21.2931 44.5915 21.2785C44.5915 21.2639 44.6032 21.2524 44.6178 21.2524C44.6323 21.2524 44.6434 21.2639 44.6434 21.2785ZM44.1615 22.0219C44.1749 22.0219 44.1848 22.0113 44.1848 21.9987C44.1848 21.986 44.1743 21.9754 44.1615 21.9754C44.1492 21.9754 44.1387 21.986 44.1387 21.9987C44.1387 22.0113 44.1492 22.0219 44.1615 22.0219ZM44.3561 23.1301C44.3683 23.1301 44.3788 23.1202 44.3788 23.1076C44.3788 23.0949 44.3689 23.0851 44.3561 23.0851C44.3439 23.0851 44.334 23.0949 44.334 23.1076C44.334 23.1202 44.3439 23.1301 44.3561 23.1301ZM44.3141 21.7375C44.3141 21.7497 44.3042 21.7595 44.292 21.7595C44.2798 21.7595 44.2699 21.7497 44.2699 21.7375C44.2699 21.7252 44.2798 21.7153 44.292 21.7153C44.3042 21.7153 44.3141 21.7252 44.3141 21.7375ZM44.1615 22.6727C44.1737 22.6727 44.1836 22.6628 44.1836 22.651C44.1836 22.6392 44.1737 22.6293 44.1615 22.6293C44.1498 22.6293 44.1399 22.6392 44.1399 22.651C44.1399 22.6628 44.1498 22.6727 44.1615 22.6727ZM44.2483 22.8467C44.2483 22.8586 44.2384 22.8684 44.2267 22.8684C44.2145 22.8684 44.2046 22.8586 44.2046 22.8467C44.2046 22.8349 44.2145 22.825 44.2267 22.825C44.2384 22.825 44.2483 22.8349 44.2483 22.8467ZM44.422 23.1944C44.4342 23.1944 44.4441 23.1849 44.4441 23.1727C44.4441 23.1604 44.4342 23.151 44.422 23.151C44.4097 23.151 44.4004 23.1604 44.4004 23.1727C44.4004 23.1849 44.4097 23.1944 44.422 23.1944ZM44.5099 21.4095C44.5099 21.4229 44.4989 21.4336 44.4855 21.4336C44.4721 21.4336 44.4616 21.4229 44.4616 21.4095C44.4616 21.3961 44.4721 21.3854 44.4855 21.3854C44.4989 21.3854 44.5099 21.3961 44.5099 21.4095ZM44.5525 23.3246C44.5641 23.3246 44.5735 23.3151 44.5735 23.3033C44.5735 23.2915 44.5641 23.282 44.5525 23.282C44.5408 23.282 44.5309 23.2915 44.5309 23.3033C44.5309 23.3151 44.5408 23.3246 44.5525 23.3246ZM44.5746 21.3428C44.5746 21.3562 44.5641 21.3669 44.5507 21.3669C44.5373 21.3669 44.5268 21.3562 44.5268 21.3428C44.5268 21.3294 44.5373 21.3188 44.5507 21.3188C44.5641 21.3188 44.5746 21.3294 44.5746 21.3428ZM44.4866 23.2587C44.4983 23.2587 44.5076 23.2492 44.5076 23.2378C44.5076 23.2263 44.4983 23.2169 44.4866 23.2169C44.4756 23.2169 44.4662 23.2263 44.4662 23.2378C44.4662 23.2492 44.4756 23.2587 44.4866 23.2587ZM44.1825 22.1285C44.1825 22.1399 44.1731 22.1494 44.1615 22.1494C44.1504 22.1494 44.1411 22.1399 44.1411 22.1285C44.1411 22.117 44.1504 22.1076 44.1615 22.1076C44.1731 22.1076 44.1825 22.117 44.1825 22.1285ZM44.616 23.3893C44.6277 23.3893 44.637 23.3798 44.637 23.3684C44.637 23.357 44.6277 23.3475 44.616 23.3475C44.6044 23.3475 44.595 23.357 44.595 23.3684C44.595 23.3798 44.6044 23.3893 44.616 23.3893ZM44.1813 22.5199C44.1813 22.531 44.1725 22.5397 44.1615 22.5397C44.151 22.5397 44.1422 22.531 44.1422 22.5199C44.1422 22.5089 44.151 22.5002 44.1615 22.5002C44.1725 22.5002 44.1813 22.5093 44.1813 22.5199ZM44.2267 21.9525C44.2378 21.9525 44.2466 21.9434 44.2466 21.9328C44.2466 21.9221 44.2372 21.913 44.2267 21.913C44.2162 21.913 44.2069 21.9221 44.2069 21.9328C44.2069 21.9434 44.2157 21.9525 44.2267 21.9525ZM44.1813 22.2591C44.1813 22.2698 44.1725 22.2785 44.1615 22.2785C44.151 22.2785 44.1422 22.2698 44.1422 22.2591C44.1422 22.2485 44.151 22.2398 44.1615 22.2398C44.1725 22.2398 44.1813 22.2485 44.1813 22.2591ZM44.9482 20.9928C44.9563 20.9928 44.9639 20.9861 44.9639 20.9774C44.9639 20.9687 44.9569 20.962 44.9482 20.962C44.9394 20.962 44.933 20.9687 44.933 20.9774C44.933 20.9861 44.9394 20.9928 44.9482 20.9928ZM45.1568 21.0062C45.1568 21.016 45.1486 21.024 45.1387 21.024C45.1288 21.024 45.1212 21.016 45.1212 21.0062C45.1212 20.9963 45.1288 20.9884 45.1387 20.9884C45.1486 20.9884 45.1568 20.9963 45.1568 21.0062ZM44.1621 22.4095C44.1725 22.4095 44.1813 22.4008 44.1813 22.3901C44.1813 22.3795 44.1725 22.3708 44.1621 22.3708C44.1516 22.3708 44.1428 22.3795 44.1428 22.3901C44.1428 22.4008 44.1516 22.4095 44.1621 22.4095ZM44.3107 22.9122C44.3107 22.9225 44.3025 22.9312 44.2914 22.9312C44.2809 22.9312 44.2728 22.9229 44.2728 22.9122C44.2728 22.9016 44.2809 22.8933 44.2914 22.8933C44.3025 22.8933 44.3107 22.9016 44.3107 22.9122ZM44.2279 22.7343C44.2372 22.7343 44.2454 22.7264 44.2454 22.7165C44.2454 22.7067 44.2372 22.6987 44.2279 22.6987C44.218 22.6987 44.2098 22.7067 44.2098 22.7165C44.2098 22.7264 44.218 22.7343 44.2279 22.7343ZM44.2442 22.0638C44.2442 22.0733 44.2366 22.0807 44.2273 22.0807C44.218 22.0807 44.2104 22.0733 44.2104 22.0638C44.2104 22.0543 44.218 22.0468 44.2273 22.0468C44.2366 22.0468 44.2442 22.0543 44.2442 22.0638ZM44.3567 22.9939C44.366 22.9939 44.3736 22.9864 44.3736 22.9769C44.3736 22.9675 44.366 22.96 44.3567 22.96C44.3474 22.96 44.3398 22.9675 44.3398 22.9769C44.3398 22.9864 44.3474 22.9939 44.3567 22.9939ZM44.2431 22.5855C44.2431 22.5942 44.2361 22.6012 44.2273 22.6012C44.2186 22.6012 44.2116 22.5942 44.2116 22.5855C44.2116 22.5768 44.2186 22.5697 44.2273 22.5697C44.2361 22.5697 44.2431 22.5768 44.2431 22.5855ZM44.2879 21.8811C44.2955 21.8811 44.3013 21.8752 44.3013 21.8676C44.3013 21.8602 44.2955 21.8542 44.2879 21.8542C44.2804 21.8542 44.2745 21.8602 44.2745 21.8676C44.2745 21.8752 44.2804 21.8811 44.2879 21.8811ZM44.4377 23.0421C44.4377 23.0508 44.4307 23.0575 44.422 23.0575C44.4138 23.0575 44.4068 23.0508 44.4068 23.0421C44.4068 23.0334 44.4138 23.0267 44.422 23.0267C44.4307 23.0267 44.4377 23.0334 44.4377 23.0421ZM44.2914 22.7962C44.2996 22.7962 44.3066 22.7895 44.3066 22.7812C44.3066 22.7729 44.2996 22.7662 44.2914 22.7662C44.2833 22.7662 44.2769 22.7729 44.2769 22.7812C44.2769 22.7895 44.2833 22.7962 44.2914 22.7962ZM44.2425 22.1936C44.2425 22.2019 44.2355 22.2086 44.2273 22.2086C44.2192 22.2086 44.2122 22.2019 44.2122 22.1936C44.2122 22.1853 44.2192 22.1786 44.2273 22.1786C44.2355 22.1786 44.2425 22.1853 44.2425 22.1936ZM44.2273 22.4691C44.2349 22.4691 44.2419 22.4627 44.2419 22.4544C44.2419 22.4462 44.2355 22.4399 44.2273 22.4399C44.2192 22.4399 44.2128 22.4462 44.2128 22.4544C44.2128 22.4627 44.2192 22.4691 44.2273 22.4691ZM44.5018 23.1072C44.5018 23.1151 44.4954 23.1218 44.4866 23.1218C44.4785 23.1218 44.4721 23.1154 44.4721 23.1072C44.4721 23.0989 44.4785 23.0926 44.4866 23.0926C44.4954 23.0926 44.5018 23.0989 44.5018 23.1072ZM44.2273 22.3381C44.2349 22.3381 44.2413 22.3317 44.2413 22.3239C44.2413 22.3159 44.2349 22.3096 44.2273 22.3096C44.2192 22.3096 44.2133 22.3159 44.2133 22.3239C44.2133 22.3317 44.2192 22.3381 44.2273 22.3381ZM44.3689 22.8459C44.3689 22.8526 44.3637 22.8586 44.3561 22.8586C44.3491 22.8586 44.3439 22.853 44.3439 22.8459C44.3439 22.8388 44.3491 22.8333 44.3561 22.8333C44.3637 22.8333 44.3689 22.8388 44.3689 22.8459ZM45.2815 20.9316C45.2815 20.9367 45.2774 20.9407 45.2722 20.9407C45.2669 20.9407 45.2634 20.9367 45.2634 20.9316C45.2634 20.9265 45.2669 20.9226 45.2722 20.9226C45.2774 20.9226 45.2815 20.9265 45.2815 20.9316ZM45.1387 20.9545C45.1434 20.9545 45.1475 20.9505 45.1475 20.9454C45.1475 20.9403 45.1434 20.9364 45.1387 20.9364C45.1335 20.9364 45.1294 20.9403 45.1294 20.9454C45.1294 20.9505 45.1335 20.9545 45.1387 20.9545ZM45.0909 21.024C45.0909 21.0302 45.0857 21.0354 45.0793 21.0354C45.0729 21.0354 45.0676 21.0302 45.0676 21.024C45.0676 21.0177 45.0729 21.0125 45.0793 21.0125C45.0857 21.0125 45.0909 21.0177 45.0909 21.024ZM44.7856 23.7189C44.7926 23.7189 44.7972 23.7133 44.7972 23.707C44.7972 23.7007 44.792 23.6951 44.7856 23.6951C44.7792 23.6951 44.7739 23.7007 44.7739 23.707C44.7739 23.7133 44.7792 23.7189 44.7856 23.7189ZM44.3048 22.651C44.3048 22.6577 44.299 22.6632 44.2926 22.6632C44.2856 22.6632 44.2804 22.6577 44.2804 22.651C44.2804 22.6443 44.2856 22.6388 44.2926 22.6388C44.299 22.6388 44.3048 22.6443 44.3048 22.651ZM44.422 22.9225C44.4278 22.9225 44.4324 22.9178 44.4324 22.9118C44.4324 22.9059 44.4278 22.9012 44.422 22.9012C44.4161 22.9012 44.4109 22.9059 44.4109 22.9118C44.4109 22.9178 44.4161 22.9225 44.422 22.9225ZM44.2763 22.531C44.2763 22.537 44.2716 22.5417 44.2658 22.5417C44.2594 22.5417 44.2547 22.537 44.2547 22.531C44.2547 22.5251 44.2594 22.5204 44.2658 22.5204C44.2716 22.5204 44.2763 22.5251 44.2763 22.531ZM44.2914 22.3898C44.2967 22.3898 44.3013 22.3854 44.3013 22.3795C44.3013 22.3736 44.2972 22.3693 44.2914 22.3693C44.285 22.3693 44.2809 22.3736 44.2809 22.3795C44.2809 22.3854 44.285 22.3898 44.2914 22.3898ZM44.3136 22.4604C44.3136 22.4655 44.3095 22.4695 44.3042 22.4695C44.299 22.4695 44.2949 22.4655 44.2949 22.4604C44.2949 22.4553 44.299 22.4513 44.3042 22.4513C44.3095 22.4513 44.3136 22.4553 44.3136 22.4604ZM44.3351 22.5433C44.341 22.5433 44.3456 22.5389 44.3456 22.533C44.3456 22.5271 44.3415 22.5227 44.3351 22.5227C44.3293 22.5227 44.3252 22.5271 44.3252 22.533C44.3252 22.5389 44.3293 22.5433 44.3351 22.5433ZM44.2984 22.2599C44.2984 22.2647 44.2943 22.2686 44.2903 22.2686C44.2856 22.2686 44.2815 22.2647 44.2815 22.2599C44.2815 22.2552 44.2856 22.2516 44.2903 22.2516C44.2943 22.2516 44.2984 22.2556 44.2984 22.2599ZM44.3573 22.7256C44.3625 22.7256 44.3672 22.7212 44.3672 22.7161C44.3672 22.711 44.3625 22.7067 44.3573 22.7067C44.3526 22.7067 44.3479 22.711 44.3479 22.7161C44.3479 22.7212 44.3526 22.7256 44.3573 22.7256ZM44.5554 23.1739C44.5554 23.179 44.5513 23.1829 44.5461 23.1829C44.5408 23.1829 44.5368 23.179 44.5368 23.1739C44.5368 23.1687 44.5408 23.1648 44.5461 23.1648C44.5513 23.1648 44.5554 23.1687 44.5554 23.1739ZM44.2792 21.9999C44.2844 21.9999 44.2885 21.9959 44.2885 21.9908C44.2885 21.9856 44.2844 21.9817 44.2792 21.9817C44.2739 21.9817 44.2704 21.9856 44.2704 21.9908C44.2704 21.9959 44.2739 21.9999 44.2792 21.9999ZM44.6294 21.0717C44.6294 21.0768 44.6253 21.0808 44.6201 21.0808C44.6154 21.0808 44.6113 21.0768 44.6113 21.0717C44.6113 21.0665 44.6154 21.0626 44.6201 21.0626C44.6253 21.0626 44.6294 21.0665 44.6294 21.0717ZM44.3328 21.6774C44.338 21.6774 44.3421 21.6735 44.3421 21.6684C44.3421 21.6632 44.338 21.6593 44.3328 21.6593C44.3281 21.6593 44.3241 21.6632 44.3241 21.6684C44.3241 21.6735 44.3281 21.6774 44.3328 21.6774ZM44.8666 21.1277C44.8666 21.134 44.8613 21.1392 44.8549 21.1392C44.8485 21.1392 44.8439 21.134 44.8439 21.1277C44.8439 21.1214 44.8485 21.1163 44.8549 21.1163C44.8613 21.1163 44.8666 21.1214 44.8666 21.1277ZM44.2792 22.1427C44.2844 22.1427 44.2885 22.1388 44.2885 22.1337C44.2885 22.1285 44.2844 22.1246 44.2792 22.1246C44.2739 22.1246 44.2704 22.1285 44.2704 22.1337C44.2704 22.1388 44.2739 22.1427 44.2792 22.1427ZM44.3538 22.6384C44.359 22.6384 44.3631 22.6344 44.3631 22.6293C44.3631 22.6241 44.359 22.6202 44.3538 22.6202C44.3485 22.6202 44.345 22.6241 44.345 22.6293C44.345 22.6344 44.3485 22.6384 44.3538 22.6384ZM44.4062 22.7966C44.4062 22.8018 44.4027 22.8057 44.3975 22.8057C44.3922 22.8057 44.3882 22.8018 44.3882 22.7966C44.3882 22.7915 44.3922 22.7875 44.3975 22.7875C44.4027 22.7875 44.4062 22.7915 44.4062 22.7966ZM44.4721 23.0361C44.4773 23.0361 44.4814 23.0322 44.4814 23.027C44.4814 23.0219 44.4773 23.018 44.4721 23.018C44.4674 23.018 44.4633 23.0219 44.4633 23.027C44.4633 23.0322 44.4674 23.0361 44.4721 23.0361ZM44.4744 22.9682C44.4744 22.9734 44.4709 22.9773 44.4657 22.9773C44.4604 22.9773 44.4563 22.9734 44.4563 22.9682C44.4563 22.9631 44.4604 22.9592 44.4657 22.9592C44.4709 22.9592 44.4744 22.9631 44.4744 22.9682ZM44.5641 23.2516C44.5694 23.2516 44.5735 23.2477 44.5735 23.2425C44.5735 23.2374 44.5694 23.2334 44.5641 23.2334C44.5589 23.2334 44.5554 23.2374 44.5554 23.2425C44.5554 23.2477 44.5589 23.2516 44.5641 23.2516ZM44.6644 23.4497C44.6644 23.4548 44.6603 23.4588 44.655 23.4588C44.6498 23.4588 44.6457 23.4548 44.6457 23.4497C44.6457 23.4446 44.6498 23.4406 44.655 23.4406C44.6603 23.4406 44.6644 23.4446 44.6644 23.4497ZM44.6871 23.52C44.6923 23.52 44.6958 23.516 44.6958 23.5109C44.6958 23.5058 44.6923 23.5018 44.6871 23.5018C44.6819 23.5018 44.6778 23.5058 44.6778 23.5109C44.6778 23.516 44.6819 23.52 44.6871 23.52ZM44.1836 21.4178C44.1836 21.4099 44.1772 21.4036 44.169 21.4036C44.1615 21.4036 44.1551 21.4099 44.1551 21.4178C44.1551 21.4257 44.1615 21.432 44.169 21.432C44.1772 21.432 44.1836 21.4257 44.1836 21.4178ZM44.1189 21.4809C44.1189 21.4727 44.1119 21.4663 44.1044 21.4663C44.0962 21.4663 44.0898 21.473 44.0898 21.4809C44.0898 21.4888 44.0962 21.4955 44.1044 21.4955C44.1119 21.4955 44.1189 21.4888 44.1189 21.4809ZM44.0496 21.5472C44.0496 21.5417 44.0449 21.5369 44.0397 21.5369C44.0339 21.5369 44.0292 21.5417 44.0292 21.5472C44.0292 21.5527 44.0339 21.5575 44.0397 21.5575C44.0449 21.5575 44.0496 21.5527 44.0496 21.5472ZM43.9896 21.7426C43.9896 21.7347 43.9832 21.728 43.975 21.728C43.9668 21.728 43.9604 21.7342 43.9604 21.7426C43.9604 21.7509 43.9668 21.7571 43.975 21.7571C43.9832 21.7571 43.9896 21.7509 43.9896 21.7426ZM43.9208 21.8073C43.9208 21.801 43.9156 21.7958 43.9091 21.7958C43.9027 21.7958 43.8975 21.801 43.8975 21.8073C43.8975 21.8136 43.9027 21.8187 43.9091 21.8187C43.9156 21.8187 43.9208 21.8136 43.9208 21.8073ZM43.929 21.9375C43.929 21.9272 43.9208 21.919 43.9103 21.919C43.8998 21.919 43.8917 21.9272 43.8917 21.9375C43.8917 21.9478 43.8998 21.956 43.9103 21.956C43.9208 21.956 43.929 21.9478 43.929 21.9375ZM43.8526 22.0014C43.8526 21.9967 43.8485 21.9923 43.8439 21.9923C43.8386 21.9923 43.8346 21.9963 43.8346 22.0014C43.8346 22.0066 43.8386 22.0105 43.8439 22.0105C43.8485 22.0105 43.8526 22.0066 43.8526 22.0014ZM43.8585 22.1309C43.8585 22.1237 43.8526 22.1183 43.8456 22.1183C43.8386 22.1183 43.8328 22.1237 43.8328 22.1309C43.8328 22.138 43.8386 22.1435 43.8456 22.1435C43.8526 22.1435 43.8585 22.138 43.8585 22.1309ZM43.8637 22.2607C43.8637 22.2512 43.8561 22.2437 43.8468 22.2437C43.8375 22.2437 43.8299 22.2512 43.8299 22.2607C43.8299 22.2702 43.8375 22.2776 43.8468 22.2776C43.8561 22.2776 43.8637 22.2702 43.8637 22.2607ZM43.834 22.7789C43.834 22.7832 43.8375 22.7867 43.8421 22.7867C43.8462 22.7867 43.8497 22.7832 43.8497 22.7789C43.8497 22.7745 43.8462 22.7709 43.8421 22.7709C43.8375 22.7709 43.834 22.7745 43.834 22.7789ZM43.8328 22.6494C43.8328 22.6561 43.8375 22.6613 43.8445 22.6613C43.8515 22.6613 43.8561 22.6561 43.8561 22.6494C43.8561 22.6427 43.8515 22.6375 43.8445 22.6375C43.8375 22.6375 43.8328 22.6427 43.8328 22.6494ZM43.8316 22.5199C43.8316 22.5286 43.8386 22.5354 43.8474 22.5354C43.8561 22.5354 43.8625 22.5286 43.8625 22.5199C43.8625 22.5113 43.8561 22.5046 43.8474 22.5046C43.8386 22.5046 43.8316 22.5113 43.8316 22.5199ZM43.8316 22.3901C43.8316 22.3992 43.8392 22.4067 43.8485 22.4067C43.8573 22.4067 43.8649 22.3992 43.8649 22.3901C43.8649 22.3811 43.8573 22.3736 43.8485 22.3736C43.8392 22.3736 43.8316 22.3811 43.8316 22.3901ZM43.8981 22.9734C43.8981 22.9777 43.9016 22.9813 43.9062 22.9813C43.9103 22.9813 43.9138 22.9777 43.9138 22.9734C43.9138 22.9691 43.9103 22.9655 43.9062 22.9655C43.9016 22.9655 43.8981 22.9691 43.8981 22.9734ZM43.8952 22.8435C43.8952 22.8526 43.9022 22.8597 43.9109 22.8597C43.9202 22.8597 43.9272 22.8526 43.9272 22.8435C43.9272 22.8345 43.9202 22.8274 43.9109 22.8274C43.9022 22.8274 43.8952 22.8345 43.8952 22.8435ZM43.9633 23.1707C43.9633 23.1735 43.9657 23.1758 43.9686 23.1758C43.9709 23.1758 43.9733 23.1735 43.9733 23.1707C43.9733 23.1679 43.9709 23.1656 43.9686 23.1656C43.9657 23.1656 43.9633 23.1679 43.9633 23.1707ZM43.9598 23.0373C43.9598 23.0464 43.9668 23.0535 43.9762 23.0535C43.9849 23.0535 43.9919 23.0464 43.9919 23.0373C43.9919 23.0283 43.9849 23.0212 43.9762 23.0212C43.9668 23.0212 43.9598 23.0283 43.9598 23.0373ZM44.0304 23.2339C44.0304 23.2366 44.0327 23.239 44.0356 23.239C44.0385 23.239 44.0409 23.2366 44.0409 23.2339C44.0409 23.2311 44.0385 23.2287 44.0356 23.2287C44.0327 23.2287 44.0304 23.2311 44.0304 23.2339ZM44.0234 23.1029C44.0234 23.1111 44.0304 23.1174 44.0385 23.1174C44.0461 23.1174 44.0531 23.1107 44.0531 23.1029C44.0531 23.0949 44.0461 23.0882 44.0385 23.0882C44.0304 23.0882 44.0234 23.0949 44.0234 23.1029ZM44.0933 23.2978C44.0933 23.3025 44.0974 23.3065 44.102 23.3065C44.1067 23.3065 44.1108 23.3025 44.1108 23.2978C44.1108 23.2931 44.1067 23.2891 44.102 23.2891C44.0974 23.2891 44.0933 23.2931 44.0933 23.2978ZM44.1574 23.3597C44.1574 23.3657 44.1621 23.3704 44.1679 23.3704C44.1737 23.3704 44.179 23.3657 44.179 23.3597C44.179 23.3538 44.1737 23.3491 44.1679 23.3491C44.1621 23.3491 44.1574 23.3538 44.1574 23.3597ZM44.2215 23.426C44.2215 23.4331 44.2267 23.4387 44.2337 23.4387C44.2413 23.4387 44.2466 23.4331 44.2466 23.426C44.2466 23.4189 44.2413 23.4134 44.2337 23.4134C44.2267 23.4134 44.2215 23.4189 44.2215 23.426ZM44.2885 23.4907C44.2885 23.4975 44.2938 23.5026 44.3002 23.5026C44.3066 23.5026 44.3118 23.4971 44.3118 23.4907C44.3118 23.4844 44.3066 23.4789 44.3002 23.4789C44.2938 23.4789 44.2885 23.4844 44.2885 23.4907ZM44.3526 23.5551C44.3526 23.5614 44.3573 23.5665 44.3637 23.5665C44.3701 23.5665 44.3753 23.5614 44.3753 23.5551C44.3753 23.5488 44.3701 23.5436 44.3637 23.5436C44.3573 23.5436 44.3526 23.5488 44.3526 23.5551ZM44.4185 23.6218C44.4185 23.6273 44.4231 23.632 44.4289 23.632C44.4348 23.632 44.4394 23.6277 44.4394 23.6218C44.4394 23.6158 44.4348 23.6115 44.4289 23.6115C44.4231 23.6115 44.4185 23.6158 44.4185 23.6218ZM44.4843 23.6877C44.4843 23.692 44.4878 23.6956 44.4919 23.6956C44.4965 23.6956 44.5 23.692 44.5 23.6877C44.5 23.6833 44.4965 23.6798 44.4919 23.6798C44.4878 23.6798 44.4843 23.6833 44.4843 23.6877ZM44.5502 23.7552C44.5502 23.7579 44.5525 23.7603 44.5554 23.7603C44.5577 23.7603 44.5601 23.7579 44.5601 23.7552C44.5601 23.7524 44.5577 23.75 44.5554 23.75C44.5525 23.75 44.5502 23.7524 44.5502 23.7552ZM44.6702 23.7488C44.6702 23.7587 44.6778 23.7666 44.6877 23.7666C44.6976 23.7666 44.7057 23.7587 44.7057 23.7488C44.7057 23.739 44.6976 23.7311 44.6877 23.7311C44.6778 23.7311 44.6702 23.739 44.6702 23.7488ZM44.7407 23.8167C44.7407 23.8226 44.7454 23.827 44.7512 23.827C44.7564 23.827 44.7611 23.8222 44.7611 23.8167C44.7611 23.8112 44.7564 23.8064 44.7512 23.8064C44.7454 23.8064 44.7407 23.8112 44.7407 23.8167Z" fill="white"/>
</g>
<path d="M39.1923 25.4381C39.1575 25.3556 39.1236 25.2972 39.0901 25.2624C39.0566 25.2277 39.0163 25.2076 38.9697 25.2017V25.1567L39.064 25.1523C39.1631 25.1523 39.2499 25.1713 39.3253 25.2088C39.4003 25.2463 39.4618 25.3229 39.51 25.4385L39.8655 26.2802L40.3403 25.1748H40.4551L39.8067 26.6831H39.7167L39.1923 25.4381Z" fill="white"/>
<path d="M40.7157 26.6343C40.6872 26.617 40.6667 26.5878 40.6549 26.5463C40.6431 26.5049 40.6367 26.4453 40.6367 26.3672V25.1738H40.9291V26.3672C40.9291 26.4437 40.9398 26.5002 40.9607 26.5373C40.9816 26.5744 41.0238 26.5925 41.087 26.5925H41.1095V26.66H40.8396C40.7855 26.66 40.7441 26.6517 40.7157 26.6343Z" fill="white"/>
<path d="M41.4767 25.5456V26.66H41.3643V25.4445C41.3643 25.3814 41.3489 25.332 41.3181 25.2957C41.2873 25.2598 41.2352 25.2417 41.1618 25.2417H41.1504V25.1742H41.3078C41.3919 25.1742 41.4606 25.1848 41.5138 25.2066C41.5671 25.2283 41.6117 25.2622 41.648 25.3088L42.4223 26.2093V25.1738H42.5347V26.6667H42.4314L41.4767 25.5456Z" fill="white"/>
<path d="M43.1275 26.6044C43.0154 26.5377 42.9306 26.4466 42.8718 26.3309C42.8134 26.2153 42.7842 26.0851 42.7842 25.9391C42.7842 25.793 42.8165 25.6522 42.8809 25.5283C42.9456 25.4044 43.0344 25.3069 43.1476 25.2358C43.2609 25.1644 43.387 25.1289 43.5268 25.1289C43.6585 25.1289 43.7692 25.1459 43.8578 25.1794C43.9458 25.2129 44.014 25.2572 44.06 25.3112C44.0874 25.346 44.1037 25.3886 44.1095 25.4394C44.1154 25.4904 44.1183 25.5618 44.1183 25.6534H44.0507C44.0227 25.5153 43.9697 25.4102 43.8934 25.338C43.817 25.2658 43.7174 25.23 43.5938 25.23C43.4406 25.23 43.3201 25.284 43.2317 25.3917C43.1429 25.4999 43.0987 25.6822 43.0987 25.9387C43.0987 26.1293 43.1389 26.2875 43.2202 26.4138C43.3011 26.5397 43.426 26.6028 43.5938 26.6028C43.6987 26.6028 43.7955 26.5752 43.8834 26.5195C43.9714 26.4639 44.042 26.3842 44.0961 26.2808L44.1748 26.3416C44.1026 26.4679 44.0157 26.5598 43.9138 26.6174C43.8112 26.6754 43.6824 26.7043 43.5262 26.7043C43.3706 26.7043 43.2392 26.6711 43.1275 26.6044Z" fill="white"/>
<path d="M44.4428 25.4666C44.4428 25.3901 44.4323 25.3336 44.4113 25.2966C44.3903 25.2598 44.3484 25.2413 44.2848 25.2413H44.2627V25.1738H44.5325C44.5867 25.1738 44.6281 25.1829 44.6566 25.201C44.6846 25.2192 44.7056 25.2488 44.7172 25.2899C44.7289 25.3313 44.7353 25.3901 44.7353 25.4666V26.5585H45.5121V26.6596H44.4428V25.4666Z" fill="white"/>
<path d="M45.5935 26.0113V25.4667C45.5935 25.3901 45.5824 25.3337 45.5614 25.2966C45.541 25.2599 45.4985 25.2413 45.4355 25.2413V25.1738H45.6838C45.7374 25.1738 45.7794 25.1829 45.8073 25.2007C45.8359 25.2185 45.8563 25.2484 45.8685 25.2899C45.8802 25.3313 45.8866 25.3897 45.8866 25.4667L45.8889 26.0791C45.8907 26.2381 45.921 26.3617 45.9821 26.4493C46.0428 26.5373 46.1307 26.5811 46.2461 26.5811C46.3994 26.5811 46.5107 26.5357 46.5806 26.4449C46.6505 26.3542 46.6849 26.2098 46.6849 26.0116V25.1742H46.7974V26.0116C46.7974 26.2322 46.7508 26.3991 46.6581 26.5124C46.5649 26.6257 46.4122 26.6825 46.2007 26.6825C45.7963 26.6825 45.5935 26.4584 45.5935 26.0113Z" fill="white"/>
<path d="M47.1615 25.4666C47.1615 25.3901 47.151 25.3336 47.13 25.2966C47.1091 25.2598 47.0671 25.2413 47.0036 25.2413H46.9814V25.1738H47.5892C47.778 25.1738 47.936 25.1999 48.063 25.2527C48.1894 25.3052 48.253 25.4102 48.253 25.568C48.253 25.6371 48.2262 25.7022 48.1708 25.763C48.116 25.8238 48.0391 25.8668 47.9406 25.8924C48.1941 25.918 48.3211 26.0364 48.3211 26.248C48.3211 26.4043 48.2588 26.5116 48.1341 26.5712C48.0094 26.6308 47.8503 26.66 47.6568 26.66H47.1615V25.4666ZM47.623 25.8474C47.7204 25.8474 47.7973 25.8246 47.8538 25.7788C47.9103 25.733 47.9383 25.6588 47.9383 25.5574C47.9383 25.456 47.9045 25.379 47.8386 25.3336C47.7716 25.2879 47.6889 25.265 47.5898 25.265C47.5496 25.265 47.5176 25.2677 47.4954 25.2741L47.4552 25.2808V25.8482H47.6236L47.623 25.8474ZM47.623 26.5696C47.7472 26.5696 47.8421 26.5427 47.9074 26.4883C47.9727 26.4338 48.0053 26.3577 48.0053 26.2586C48.0053 26.0514 47.8777 25.948 47.6225 25.948H47.4535V26.5467C47.4704 26.5526 47.4855 26.5565 47.4989 26.5582C47.5315 26.5656 47.5694 26.5696 47.6114 26.5696H47.623Z" fill="white"/>
<g filter="url(#filter1_i_413_4681)">
<path d="M23.6855 48.2568V53.789H28.258V50.896L23.6855 48.2568Z" fill="#F0C474"/>
</g>
<path d="M23.6855 48.2568V53.789H28.258V50.896L23.6855 48.2568Z" stroke="url(#paint9_linear_413_4681)" stroke-width="0.21974" stroke-miterlimit="10" stroke-linejoin="round"/>
<g filter="url(#filter2_i_413_4681)">
<path d="M23.6848 48.2568V53.789H19.1123V50.896L23.6848 48.2568Z" fill="#F8E3A1"/>
</g>
<path d="M23.6848 48.2568V53.789H19.1123V50.896L23.6848 48.2568Z" stroke="url(#paint10_linear_413_4681)" stroke-width="0.21974" stroke-miterlimit="10" stroke-linejoin="bevel"/>
<g filter="url(#filter3_i_413_4681)">
<path d="M19.1123 53.79H28.2573V56.1767L23.6848 58.8173L19.1123 56.1767V53.79Z" fill="url(#paint11_linear_413_4681)"/>
</g>
<path d="M19.1123 53.79H28.2573V56.1767L23.6848 58.8173L19.1123 56.1767V53.79Z" stroke="url(#paint12_linear_413_4681)" stroke-width="0.21974" stroke-miterlimit="10"/>
<g filter="url(#filter4_f_413_4681)">
<path d="M19.1123 50.896V56.1757L23.6848 58.8163L28.2573 56.1757V50.896L23.6848 48.2568L19.1123 50.896Z" stroke="black" stroke-width="0.21974" stroke-miterlimit="10"/>
</g>
<path d="M23.6846 48.2568V53.789H28.2571V50.896L23.6846 48.2568Z" stroke="url(#paint13_linear_413_4681)" stroke-width="0.21974" stroke-miterlimit="10" stroke-linejoin="round"/>
<path d="M19.1123 53.79H28.2573V56.1767L23.6848 58.8173L19.1123 56.1767V53.79Z" stroke="url(#paint14_linear_413_4681)" stroke-width="0.21974" stroke-miterlimit="10"/>
<path d="M23.6848 48.2568V53.789H19.1123V50.896L23.6848 48.2568Z" stroke="url(#paint15_linear_413_4681)" stroke-width="0.21974" stroke-miterlimit="10" stroke-linejoin="bevel"/>
<g filter="url(#filter5_di_413_4681)">
<path d="M21.2295 55.0725L23.6859 51.1904L26.0727 55.0725H21.2295Z" fill="url(#paint16_linear_413_4681)"/>
<path d="M21.2295 55.0725L23.6859 51.1904L26.0727 55.0725H21.2295Z" stroke="url(#paint17_linear_413_4681)" stroke-width="0.21974" stroke-miterlimit="10" stroke-linejoin="round"/>
</g>
<g filter="url(#filter6_d_413_4681)">
<path d="M22.8864 54.3893C22.8864 54.3893 23.2454 54.4134 23.235 54.3028C23.2249 54.1922 23.0446 53.9115 22.3848 53.7005C22.3848 53.7005 22.9392 53.6241 23.3423 54.0237C23.3423 54.0237 23.0127 53.3471 23.426 52.9716C23.8393 52.5963 24.3515 52.6225 24.3515 52.6225C24.3515 52.6225 23.8308 52.7156 23.7374 53.0385C23.6443 53.3617 23.8277 53.7896 23.9675 54.0836C24.107 54.3775 24.0752 54.6715 23.6851 54.651C23.2952 54.6307 22.993 54.4421 22.8864 54.3893Z" fill="url(#paint18_linear_413_4681)"/>
</g>
<path d="M31.7271 65.8887H15.6436V81.785H31.7271V65.8887Z" fill="url(#paint19_linear_413_4681)"/>
<path d="M23.6689 68.3748C28.0333 68.3748 31.5713 67.2022 31.5713 65.7557C31.5713 64.3093 28.0333 63.1367 23.6689 63.1367C19.3046 63.1367 15.7666 64.3093 15.7666 65.7557C15.7666 67.2022 19.3046 68.3748 23.6689 68.3748Z" fill="white" stroke="url(#paint20_radial_413_4681)" stroke-width="0.976738"/>
<path d="M23.5179 66.6278C25.5417 66.6278 27.1823 66.1714 27.1823 65.6083C27.1823 65.0453 25.5417 64.5889 23.5179 64.5889C21.4941 64.5889 19.8535 65.0453 19.8535 65.6083C19.8535 66.1714 21.4941 66.6278 23.5179 66.6278Z" fill="white" stroke="url(#paint21_radial_413_4681)" stroke-width="0.976738"/>
<path fill-rule="evenodd" clip-rule="evenodd" d="M21.0933 63.5081C22.5316 63.8935 24.8507 63.8493 26.2733 63.4094C27.6959 62.9695 27.6831 62.3005 26.2448 61.9151C24.8066 61.5297 22.4873 61.5739 21.0648 62.0138C19.6422 62.4537 19.655 63.1228 21.0933 63.5081ZM19.8645 63.8881C21.9889 64.4575 25.4145 64.3922 27.5156 63.7423C29.6169 63.0925 29.598 62.1043 27.4736 61.5351C25.3492 60.9659 21.9236 61.0311 19.8224 61.6809C17.7212 62.3307 17.7401 63.3189 19.8645 63.8881Z" fill="url(#paint22_linear_413_4681)"/>
<g filter="url(#filter7_i_413_4681)">
<path d="M79.1895 48.2568V53.789H83.7622V50.896L79.1895 48.2568Z" fill="#F0C474"/>
</g>
<path d="M79.1895 48.2568V53.789H83.7622V50.896L79.1895 48.2568Z" stroke="url(#paint23_linear_413_4681)" stroke-width="0.21974" stroke-miterlimit="10" stroke-linejoin="round"/>
<g filter="url(#filter8_i_413_4681)">
<path d="M79.1893 48.2568V53.789H74.6172V50.896L79.1893 48.2568Z" fill="#F8E3A1"/>
</g>
<path d="M79.1893 48.2568V53.789H74.6172V50.896L79.1893 48.2568Z" stroke="url(#paint24_linear_413_4681)" stroke-width="0.21974" stroke-miterlimit="10" stroke-linejoin="bevel"/>
<g filter="url(#filter9_i_413_4681)">
<path d="M74.6172 53.79H83.762V56.1767L79.1893 58.8173L74.6172 56.1767V53.79Z" fill="url(#paint25_linear_413_4681)"/>
</g>
<path d="M74.6172 53.79H83.762V56.1767L79.1893 58.8173L74.6172 56.1767V53.79Z" stroke="url(#paint26_linear_413_4681)" stroke-width="0.21974" stroke-miterlimit="10"/>
<g filter="url(#filter10_f_413_4681)">
<path d="M74.6172 50.896V56.1757L79.1893 58.8163L83.762 56.1757V50.896L79.1893 48.2568L74.6172 50.896Z" stroke="black" stroke-width="0.21974" stroke-miterlimit="10"/>
</g>
<path d="M79.1885 48.2568V53.789H83.7612V50.896L79.1885 48.2568Z" stroke="url(#paint27_linear_413_4681)" stroke-width="0.21974" stroke-miterlimit="10" stroke-linejoin="round"/>
<path d="M74.6172 53.79H83.762V56.1767L79.1893 58.8173L74.6172 56.1767V53.79Z" stroke="url(#paint28_linear_413_4681)" stroke-width="0.21974" stroke-miterlimit="10"/>
<path d="M79.1893 48.2568V53.789H74.6172V50.896L79.1893 48.2568Z" stroke="url(#paint29_linear_413_4681)" stroke-width="0.21974" stroke-miterlimit="10" stroke-linejoin="bevel"/>
<g filter="url(#filter11_di_413_4681)">
<path d="M76.7334 55.0725L79.1902 51.1904L81.5765 55.0725H76.7334Z" fill="url(#paint30_linear_413_4681)"/>
<path d="M76.7334 55.0725L79.1902 51.1904L81.5765 55.0725H76.7334Z" stroke="url(#paint31_linear_413_4681)" stroke-width="0.21974" stroke-miterlimit="10" stroke-linejoin="round"/>
</g>
<g filter="url(#filter12_d_413_4681)">
<path d="M78.3904 54.3893C78.3904 54.3893 78.7494 54.4134 78.7389 54.3028C78.729 54.1922 78.5483 53.9115 77.8887 53.7005C77.8887 53.7005 78.4429 53.6241 78.8461 54.0237C78.8461 54.0237 78.5163 53.3471 78.93 52.9716C79.3432 52.5963 79.8554 52.6225 79.8554 52.6225C79.8554 52.6225 79.3344 52.7156 79.2412 53.0385C79.148 53.3617 79.3315 53.7896 79.4714 54.0836C79.6107 54.3775 79.5792 54.6715 79.1888 54.651C78.7989 54.6307 78.4971 54.4421 78.3904 54.3893Z" fill="url(#paint32_linear_413_4681)"/>
</g>
<path d="M87.231 65.8887H71.1475V81.785H87.231V65.8887Z" fill="url(#paint33_linear_413_4681)"/>
<path d="M79.1728 68.3748C83.5372 68.3748 87.0752 67.2022 87.0752 65.7557C87.0752 64.3093 83.5372 63.1367 79.1728 63.1367C74.8085 63.1367 71.2705 64.3093 71.2705 65.7557C71.2705 67.2022 74.8085 68.3748 79.1728 68.3748Z" fill="white" stroke="url(#paint34_radial_413_4681)" stroke-width="0.976738"/>
<path d="M79.0218 66.6278C81.0456 66.6278 82.6862 66.1714 82.6862 65.6083C82.6862 65.0453 81.0456 64.5889 79.0218 64.5889C76.998 64.5889 75.3574 65.0453 75.3574 65.6083C75.3574 66.1714 76.998 66.6278 79.0218 66.6278Z" fill="white" stroke="url(#paint35_radial_413_4681)" stroke-width="0.976738"/>
<path fill-rule="evenodd" clip-rule="evenodd" d="M76.5973 63.5081C78.0355 63.8935 80.3547 63.8493 81.7772 63.4094C83.1996 62.9695 83.1868 62.3005 81.7486 61.9151C80.3104 61.5297 77.9912 61.5739 76.5687 62.0138C75.1463 62.4537 75.1591 63.1228 76.5973 63.5081ZM75.3683 63.8881C77.4929 64.4575 80.9182 64.3922 83.0196 63.7423C85.1209 63.0925 85.1017 62.1043 82.9776 61.5351C80.853 60.9659 77.4277 61.0311 75.3263 61.6809C73.225 62.3307 73.2442 63.3189 75.3683 63.8881Z" fill="url(#paint36_linear_413_4681)"/>
<defs>
<filter id="filter0_dii_413_4681" x="38.6211" y="30.081" width="26.1104" height="27.4165" filterUnits="userSpaceOnUse" color-interpolation-filters="sRGB">
<feFlood flood-opacity="0" result="BackgroundImageFix"/>
<feColorMatrix in="SourceAlpha" type="matrix" values="0 0 0 0 0 0 0 0 0 0 0 0 0 0 0 0 0 0 127 0" result="hardAlpha"/>
<feOffset dy="0.54176"/>
<feGaussianBlur stdDeviation="0.27088"/>
<feComposite in2="hardAlpha" operator="out"/>
<feColorMatrix type="matrix" values="0 0 0 0 0 0 0 0 0 0 0 0 0 0 0 0 0 0 0.25 0"/>
<feBlend mode="normal" in2="BackgroundImageFix" result="effect1_dropShadow_413_4681"/>
<feBlend mode="normal" in="SourceGraphic" in2="effect1_dropShadow_413_4681" result="shape"/>
<feColorMatrix in="SourceAlpha" type="matrix" values="0 0 0 0 0 0 0 0 0 0 0 0 0 0 0 0 0 0 127 0" result="hardAlpha"/>
<feOffset dx="0.57911" dy="-0.57911"/>
<feGaussianBlur stdDeviation="1.73733"/>
<feComposite in2="hardAlpha" operator="arithmetic" k2="-1" k3="1"/>
<feColorMatrix type="matrix" values="0 0 0 0 0.960784 0 0 0 0 0.894118 0 0 0 0 0.788235 0 0 0 1 0"/>
<feBlend mode="color-burn" in2="shape" result="effect2_innerShadow_413_4681"/>
<feColorMatrix in="SourceAlpha" type="matrix" values="0 0 0 0 0 0 0 0 0 0 0 0 0 0 0 0 0 0 127 0" result="hardAlpha"/>
<feOffset dx="-0.57911" dy="0.57911"/>
<feGaussianBlur stdDeviation="1.44777"/>
<feComposite in2="hardAlpha" operator="arithmetic" k2="-1" k3="1"/>
<feColorMatrix type="matrix" values="0 0 0 0 1 0 0 0 0 1 0 0 0 0 1 0 0 0 0.3 0"/>
<feBlend mode="normal" in2="effect2_innerShadow_413_4681" result="effect3_innerShadow_413_4681"/>
</filter>
<filter id="filter1_i_413_4681" x="23.6855" y="48.2568" width="4.57227" height="5.75197" filterUnits="userSpaceOnUse" color-interpolation-filters="sRGB">
<feFlood flood-opacity="0" result="BackgroundImageFix"/>
<feBlend mode="normal" in="SourceGraphic" in2="BackgroundImageFix" result="shape"/>
<feColorMatrix in="SourceAlpha" type="matrix" values="0 0 0 0 0 0 0 0 0 0 0 0 0 0 0 0 0 0 127 0" result="hardAlpha"/>
<feOffset dy="0.43948"/>
<feGaussianBlur stdDeviation="0.10987"/>
<feComposite in2="hardAlpha" operator="arithmetic" k2="-1" k3="1"/>
<feColorMatrix type="matrix" values="0 0 0 0 0 0 0 0 0 0 0 0 0 0 0 0 0 0 0.75 0"/>
<feBlend mode="normal" in2="shape" result="effect1_innerShadow_413_4681"/>
</filter>
<filter id="filter2_i_413_4681" x="19.1123" y="48.2568" width="4.57227" height="5.75197" filterUnits="userSpaceOnUse" color-interpolation-filters="sRGB">
<feFlood flood-opacity="0" result="BackgroundImageFix"/>
<feBlend mode="normal" in="SourceGraphic" in2="BackgroundImageFix" result="shape"/>
<feColorMatrix in="SourceAlpha" type="matrix" values="0 0 0 0 0 0 0 0 0 0 0 0 0 0 0 0 0 0 127 0" result="hardAlpha"/>
<feOffset dy="0.43948"/>
<feGaussianBlur stdDeviation="0.10987"/>
<feComposite in2="hardAlpha" operator="arithmetic" k2="-1" k3="1"/>
<feColorMatrix type="matrix" values="0 0 0 0 0 0 0 0 0 0 0 0 0 0 0 0 0 0 0.75 0"/>
<feBlend mode="normal" in2="shape" result="effect1_innerShadow_413_4681"/>
</filter>
<filter id="filter3_i_413_4681" x="19.1123" y="53.5703" width="9.14453" height="5.24708" filterUnits="userSpaceOnUse" color-interpolation-filters="sRGB">
<feFlood flood-opacity="0" result="BackgroundImageFix"/>
<feBlend mode="normal" in="SourceGraphic" in2="BackgroundImageFix" result="shape"/>
<feColorMatrix in="SourceAlpha" type="matrix" values="0 0 0 0 0 0 0 0 0 0 0 0 0 0 0 0 0 0 127 0" result="hardAlpha"/>
<feOffset dy="-0.43948"/>
<feGaussianBlur stdDeviation="0.10987"/>
<feComposite in2="hardAlpha" operator="arithmetic" k2="-1" k3="1"/>
<feColorMatrix type="matrix" values="0 0 0 0 0 0 0 0 0 0 0 0 0 0 0 0 0 0 0.75 0"/>
<feBlend mode="normal" in2="shape" result="effect1_innerShadow_413_4681"/>
</filter>
<filter id="filter4_f_413_4681" x="18.7822" y="47.9101" width="9.80471" height="11.253" filterUnits="userSpaceOnUse" color-interpolation-filters="sRGB">
<feFlood flood-opacity="0" result="BackgroundImageFix"/>
<feBlend mode="normal" in="SourceGraphic" in2="BackgroundImageFix" result="shape"/>
<feGaussianBlur stdDeviation="0.10987" result="effect1_foregroundBlur_413_4681"/>
</filter>
<filter id="filter5_di_413_4681" x="20.8994" y="51.0801" width="5.50296" height="4.54202" filterUnits="userSpaceOnUse" color-interpolation-filters="sRGB">
<feFlood flood-opacity="0" result="BackgroundImageFix"/>
<feColorMatrix in="SourceAlpha" type="matrix" values="0 0 0 0 0 0 0 0 0 0 0 0 0 0 0 0 0 0 127 0" result="hardAlpha"/>
<feOffset dy="0.21974"/>
<feGaussianBlur stdDeviation="0.10987"/>
<feComposite in2="hardAlpha" operator="out"/>
<feColorMatrix type="matrix" values="0 0 0 0 0 0 0 0 0 0 0 0 0 0 0 0 0 0 0.75 0"/>
<feBlend mode="normal" in2="BackgroundImageFix" result="effect1_dropShadow_413_4681"/>
<feBlend mode="normal" in="SourceGraphic" in2="effect1_dropShadow_413_4681" result="shape"/>
<feColorMatrix in="SourceAlpha" type="matrix" values="0 0 0 0 0 0 0 0 0 0 0 0 0 0 0 0 0 0 127 0" result="hardAlpha"/>
<feOffset dy="0.43948"/>
<feGaussianBlur stdDeviation="0.10987"/>
<feComposite in2="hardAlpha" operator="arithmetic" k2="-1" k3="1"/>
<feColorMatrix type="matrix" values="0 0 0 0 0 0 0 0 0 0 0 0 0 0 0 0 0 0 0.5 0"/>
<feBlend mode="normal" in2="shape" result="effect2_innerShadow_413_4681"/>
</filter>
<filter id="filter6_d_413_4681" x="22.165" y="52.6221" width="2.40628" height="2.46975" filterUnits="userSpaceOnUse" color-interpolation-filters="sRGB">
<feFlood flood-opacity="0" result="BackgroundImageFix"/>
<feColorMatrix in="SourceAlpha" type="matrix" values="0 0 0 0 0 0 0 0 0 0 0 0 0 0 0 0 0 0 127 0" result="hardAlpha"/>
<feOffset dy="0.21974"/>
<feGaussianBlur stdDeviation="0.10987"/>
<feComposite in2="hardAlpha" operator="out"/>
<feColorMatrix type="matrix" values="0 0 0 0 0 0 0 0 0 0 0 0 0 0 0 0 0 0 0.5 0"/>
<feBlend mode="normal" in2="BackgroundImageFix" result="effect1_dropShadow_413_4681"/>
<feBlend mode="normal" in="SourceGraphic" in2="effect1_dropShadow_413_4681" result="shape"/>
</filter>
<filter id="filter7_i_413_4681" x="79.1895" y="48.2568" width="4.57227" height="5.75197" filterUnits="userSpaceOnUse" color-interpolation-filters="sRGB">
<feFlood flood-opacity="0" result="BackgroundImageFix"/>
<feBlend mode="normal" in="SourceGraphic" in2="BackgroundImageFix" result="shape"/>
<feColorMatrix in="SourceAlpha" type="matrix" values="0 0 0 0 0 0 0 0 0 0 0 0 0 0 0 0 0 0 127 0" result="hardAlpha"/>
<feOffset dy="0.43948"/>
<feGaussianBlur stdDeviation="0.10987"/>
<feComposite in2="hardAlpha" operator="arithmetic" k2="-1" k3="1"/>
<feColorMatrix type="matrix" values="0 0 0 0 0 0 0 0 0 0 0 0 0 0 0 0 0 0 0.75 0"/>
<feBlend mode="normal" in2="shape" result="effect1_innerShadow_413_4681"/>
</filter>
<filter id="filter8_i_413_4681" x="74.6172" y="48.2568" width="4.57227" height="5.75197" filterUnits="userSpaceOnUse" color-interpolation-filters="sRGB">
<feFlood flood-opacity="0" result="BackgroundImageFix"/>
<feBlend mode="normal" in="SourceGraphic" in2="BackgroundImageFix" result="shape"/>
<feColorMatrix in="SourceAlpha" type="matrix" values="0 0 0 0 0 0 0 0 0 0 0 0 0 0 0 0 0 0 127 0" result="hardAlpha"/>
<feOffset dy="0.43948"/>
<feGaussianBlur stdDeviation="0.10987"/>
<feComposite in2="hardAlpha" operator="arithmetic" k2="-1" k3="1"/>
<feColorMatrix type="matrix" values="0 0 0 0 0 0 0 0 0 0 0 0 0 0 0 0 0 0 0.75 0"/>
<feBlend mode="normal" in2="shape" result="effect1_innerShadow_413_4681"/>
</filter>
<filter id="filter9_i_413_4681" x="74.6172" y="53.5703" width="9.14453" height="5.24708" filterUnits="userSpaceOnUse" color-interpolation-filters="sRGB">
<feFlood flood-opacity="0" result="BackgroundImageFix"/>
<feBlend mode="normal" in="SourceGraphic" in2="BackgroundImageFix" result="shape"/>
<feColorMatrix in="SourceAlpha" type="matrix" values="0 0 0 0 0 0 0 0 0 0 0 0 0 0 0 0 0 0 127 0" result="hardAlpha"/>
<feOffset dy="-0.43948"/>
<feGaussianBlur stdDeviation="0.10987"/>
<feComposite in2="hardAlpha" operator="arithmetic" k2="-1" k3="1"/>
<feColorMatrix type="matrix" values="0 0 0 0 0 0 0 0 0 0 0 0 0 0 0 0 0 0 0.75 0"/>
<feBlend mode="normal" in2="shape" result="effect1_innerShadow_413_4681"/>
</filter>
<filter id="filter10_f_413_4681" x="74.2871" y="47.9101" width="9.80471" height="11.253" filterUnits="userSpaceOnUse" color-interpolation-filters="sRGB">
<feFlood flood-opacity="0" result="BackgroundImageFix"/>
<feBlend mode="normal" in="SourceGraphic" in2="BackgroundImageFix" result="shape"/>
<feGaussianBlur stdDeviation="0.10987" result="effect1_foregroundBlur_413_4681"/>
</filter>
<filter id="filter11_di_413_4681" x="76.4033" y="51.0801" width="5.50296" height="4.54202" filterUnits="userSpaceOnUse" color-interpolation-filters="sRGB">
<feFlood flood-opacity="0" result="BackgroundImageFix"/>
<feColorMatrix in="SourceAlpha" type="matrix" values="0 0 0 0 0 0 0 0 0 0 0 0 0 0 0 0 0 0 127 0" result="hardAlpha"/>
<feOffset dy="0.21974"/>
<feGaussianBlur stdDeviation="0.10987"/>
<feComposite in2="hardAlpha" operator="out"/>
<feColorMatrix type="matrix" values="0 0 0 0 0 0 0 0 0 0 0 0 0 0 0 0 0 0 0.75 0"/>
<feBlend mode="normal" in2="BackgroundImageFix" result="effect1_dropShadow_413_4681"/>
<feBlend mode="normal" in="SourceGraphic" in2="effect1_dropShadow_413_4681" result="shape"/>
<feColorMatrix in="SourceAlpha" type="matrix" values="0 0 0 0 0 0 0 0 0 0 0 0 0 0 0 0 0 0 127 0" result="hardAlpha"/>
<feOffset dy="0.43948"/>
<feGaussianBlur stdDeviation="0.10987"/>
<feComposite in2="hardAlpha" operator="arithmetic" k2="-1" k3="1"/>
<feColorMatrix type="matrix" values="0 0 0 0 0 0 0 0 0 0 0 0 0 0 0 0 0 0 0.5 0"/>
<feBlend mode="normal" in2="shape" result="effect2_innerShadow_413_4681"/>
</filter>
<filter id="filter12_d_413_4681" x="77.6689" y="52.6221" width="2.40628" height="2.46975" filterUnits="userSpaceOnUse" color-interpolation-filters="sRGB">
<feFlood flood-opacity="0" result="BackgroundImageFix"/>
<feColorMatrix in="SourceAlpha" type="matrix" values="0 0 0 0 0 0 0 0 0 0 0 0 0 0 0 0 0 0 127 0" result="hardAlpha"/>
<feOffset dy="0.21974"/>
<feGaussianBlur stdDeviation="0.10987"/>
<feComposite in2="hardAlpha" operator="out"/>
<feColorMatrix type="matrix" values="0 0 0 0 0 0 0 0 0 0 0 0 0 0 0 0 0 0 0.5 0"/>
<feBlend mode="normal" in2="BackgroundImageFix" result="effect1_dropShadow_413_4681"/>
<feBlend mode="normal" in="SourceGraphic" in2="effect1_dropShadow_413_4681" result="shape"/>
</filter>
<linearGradient id="paint0_linear_413_4681" x1="75.2667" y1="22.7403" x2="78.5545" y2="26.0283" gradientUnits="userSpaceOnUse">
<stop stop-color="#EDE8BC"/>
<stop offset="1" stop-color="#EAB569"/>
</linearGradient>
<linearGradient id="paint1_linear_413_4681" x1="19.8783" y1="30.5346" x2="23.9844" y2="34.6407" gradientUnits="userSpaceOnUse">
<stop stop-color="#EDE8BC"/>
<stop offset="1" stop-color="#EAB569"/>
</linearGradient>
<linearGradient id="paint2_linear_413_4681" x1="15.6641" y1="24.5371" x2="17.7503" y2="26.6233" gradientUnits="userSpaceOnUse">
<stop stop-color="#EDE8BC"/>
<stop offset="1" stop-color="#EAB569"/>
</linearGradient>
<linearGradient id="paint3_linear_413_4681" x1="21.4658" y1="18.6982" x2="23.552" y2="20.7845" gradientUnits="userSpaceOnUse">
<stop stop-color="#EDE8BC"/>
<stop offset="1" stop-color="#EAB569"/>
</linearGradient>
<linearGradient id="paint4_linear_413_4681" x1="51.8808" y1="74.3265" x2="52.1302" y2="92.2962" gradientUnits="userSpaceOnUse">
<stop stop-color="#E8A546"/>
<stop offset="0.545517" stop-color="#F4EC9D"/>
<stop offset="0.995" stop-color="#F4EC9D" stop-opacity="0"/>
</linearGradient>
<radialGradient id="paint5_radial_413_4681" cx="0" cy="0" r="1" gradientUnits="userSpaceOnUse" gradientTransform="translate(50.718 67.9241) rotate(87.7198) scale(9.20655 22.6601)">
<stop stop-color="#C9B18D" stop-opacity="0"/>
<stop offset="1" stop-color="#C9B18D"/>
</radialGradient>
<radialGradient id="paint6_radial_413_4681" cx="0" cy="0" r="1" gradientUnits="userSpaceOnUse" gradientTransform="translate(50.6668 70.279) rotate(87.2843) scale(3.58488 10.5042)">
<stop stop-color="#C9B18D" stop-opacity="0"/>
<stop offset="1" stop-color="#C9B18D"/>
</radialGradient>
<linearGradient id="paint7_linear_413_4681" x1="47.4899" y1="64.4238" x2="49.0877" y2="70.8135" gradientUnits="userSpaceOnUse">
<stop stop-color="#F4EC9D"/>
<stop offset="1" stop-color="#E8A546"/>
</linearGradient>
<linearGradient id="paint8_linear_413_4681" x1="46.1654" y1="15.3689" x2="74.8767" y2="36.791" gradientUnits="userSpaceOnUse">
<stop stop-color="#F4EC9D"/>
<stop offset="1" stop-color="#E8A546"/>
</linearGradient>
<linearGradient id="paint9_linear_413_4681" x1="25.9718" y1="48.2568" x2="25.9718" y2="53.789" gradientUnits="userSpaceOnUse">
<stop stop-color="#EDE8BC"/>
<stop offset="1" stop-color="#EAB569"/>
</linearGradient>
<linearGradient id="paint10_linear_413_4681" x1="21.3985" y1="48.2568" x2="21.3985" y2="53.789" gradientUnits="userSpaceOnUse">
<stop stop-color="#EDE8BC"/>
<stop offset="1" stop-color="#EAB569"/>
</linearGradient>
<linearGradient id="paint11_linear_413_4681" x1="21.8182" y1="53.5051" x2="24.3994" y2="59.0176" gradientUnits="userSpaceOnUse">
<stop stop-color="#F4EC9D"/>
<stop offset="1" stop-color="#E8A546"/>
</linearGradient>
<linearGradient id="paint12_linear_413_4681" x1="23.6848" y1="53.79" x2="23.6848" y2="58.8173" gradientUnits="userSpaceOnUse">
<stop stop-color="#EDE8BC"/>
<stop offset="1" stop-color="#EAB569"/>
</linearGradient>
<linearGradient id="paint13_linear_413_4681" x1="25.9708" y1="48.2568" x2="25.9708" y2="53.789" gradientUnits="userSpaceOnUse">
<stop stop-color="#EDE8BC"/>
<stop offset="1" stop-color="#EAB569"/>
</linearGradient>
<linearGradient id="paint14_linear_413_4681" x1="23.6848" y1="53.79" x2="23.6848" y2="58.8173" gradientUnits="userSpaceOnUse">
<stop stop-color="#EDE8BC"/>
<stop offset="1" stop-color="#EAB569"/>
</linearGradient>
<linearGradient id="paint15_linear_413_4681" x1="21.3985" y1="48.2568" x2="21.3985" y2="53.789" gradientUnits="userSpaceOnUse">
<stop stop-color="#EDE8BC"/>
<stop offset="1" stop-color="#EAB569"/>
</linearGradient>
<linearGradient id="paint16_linear_413_4681" x1="22.6626" y1="50.9704" x2="25.0794" y2="54.5103" gradientUnits="userSpaceOnUse">
<stop stop-color="#F4EC9D"/>
<stop offset="1" stop-color="#E8A546"/>
</linearGradient>
<linearGradient id="paint17_linear_413_4681" x1="23.651" y1="51.1904" x2="23.651" y2="55.0725" gradientUnits="userSpaceOnUse">
<stop stop-color="#EDE8BC"/>
<stop offset="1" stop-color="#EAB569"/>
</linearGradient>
<linearGradient id="paint18_linear_413_4681" x1="22.3103" y1="52.9441" x2="24.7515" y2="53.6801" gradientUnits="userSpaceOnUse">
<stop stop-color="#FDF7D9"/>
<stop offset="1" stop-color="#F0D895"/>
</linearGradient>
<linearGradient id="paint19_linear_413_4681" x1="24.161" y1="67.4364" x2="24.4187" y2="81.7804" gradientUnits="userSpaceOnUse">
<stop stop-color="#E8A546"/>
<stop offset="0.545517" stop-color="#F4EC9D"/>
<stop offset="0.995" stop-color="#F4EC9D" stop-opacity="0"/>
</linearGradient>
<radialGradient id="paint20_radial_413_4681" cx="0" cy="0" r="1" gradientUnits="userSpaceOnUse" gradientTransform="translate(23.4431 63.1369) rotate(87.7198) scale(5.67635 13.9712)">
<stop stop-color="#C9B18D" stop-opacity="0"/>
<stop offset="1" stop-color="#C9B18D"/>
</radialGradient>
<radialGradient id="paint21_radial_413_4681" cx="0" cy="0" r="1" gradientUnits="userSpaceOnUse" gradientTransform="translate(23.4132 64.5891) rotate(87.2843) scale(2.21027 6.47644)">
<stop stop-color="#C9B18D" stop-opacity="0"/>
<stop offset="1" stop-color="#C9B18D"/>
</radialGradient>
<linearGradient id="paint22_linear_413_4681" x1="21.4605" y1="60.9702" x2="22.4315" y2="64.9132" gradientUnits="userSpaceOnUse">
<stop stop-color="#F4EC9D"/>
<stop offset="1" stop-color="#E8A546"/>
</linearGradient>
<linearGradient id="paint23_linear_413_4681" x1="81.4761" y1="48.2568" x2="81.4761" y2="53.789" gradientUnits="userSpaceOnUse">
<stop stop-color="#EDE8BC"/>
<stop offset="1" stop-color="#EAB569"/>
</linearGradient>
<linearGradient id="paint24_linear_413_4681" x1="76.9033" y1="48.2568" x2="76.9033" y2="53.789" gradientUnits="userSpaceOnUse">
<stop stop-color="#EDE8BC"/>
<stop offset="1" stop-color="#EAB569"/>
</linearGradient>
<linearGradient id="paint25_linear_413_4681" x1="77.3228" y1="53.5051" x2="79.9037" y2="59.0176" gradientUnits="userSpaceOnUse">
<stop stop-color="#F4EC9D"/>
<stop offset="1" stop-color="#E8A546"/>
</linearGradient>
<linearGradient id="paint26_linear_413_4681" x1="79.1893" y1="53.79" x2="79.1893" y2="58.8173" gradientUnits="userSpaceOnUse">
<stop stop-color="#EDE8BC"/>
<stop offset="1" stop-color="#EAB569"/>
</linearGradient>
<linearGradient id="paint27_linear_413_4681" x1="81.4751" y1="48.2568" x2="81.4751" y2="53.789" gradientUnits="userSpaceOnUse">
<stop stop-color="#EDE8BC"/>
<stop offset="1" stop-color="#EAB569"/>
</linearGradient>
<linearGradient id="paint28_linear_413_4681" x1="79.1893" y1="53.79" x2="79.1893" y2="58.8173" gradientUnits="userSpaceOnUse">
<stop stop-color="#EDE8BC"/>
<stop offset="1" stop-color="#EAB569"/>
</linearGradient>
<linearGradient id="paint29_linear_413_4681" x1="76.9033" y1="48.2568" x2="76.9033" y2="53.789" gradientUnits="userSpaceOnUse">
<stop stop-color="#EDE8BC"/>
<stop offset="1" stop-color="#EAB569"/>
</linearGradient>
<linearGradient id="paint30_linear_413_4681" x1="78.1669" y1="50.9704" x2="80.5835" y2="54.5103" gradientUnits="userSpaceOnUse">
<stop stop-color="#F4EC9D"/>
<stop offset="1" stop-color="#E8A546"/>
</linearGradient>
<linearGradient id="paint31_linear_413_4681" x1="79.1552" y1="51.1904" x2="79.1552" y2="55.0725" gradientUnits="userSpaceOnUse">
<stop stop-color="#EDE8BC"/>
<stop offset="1" stop-color="#EAB569"/>
</linearGradient>
<linearGradient id="paint32_linear_413_4681" x1="77.8141" y1="52.9441" x2="80.2552" y2="53.6801" gradientUnits="userSpaceOnUse">
<stop stop-color="#FDF7D9"/>
<stop offset="1" stop-color="#F0D895"/>
</linearGradient>
<linearGradient id="paint33_linear_413_4681" x1="79.6653" y1="67.4364" x2="79.9228" y2="81.7804" gradientUnits="userSpaceOnUse">
<stop stop-color="#E8A546"/>
<stop offset="0.545517" stop-color="#F4EC9D"/>
<stop offset="0.995" stop-color="#F4EC9D" stop-opacity="0"/>
</linearGradient>
<radialGradient id="paint34_radial_413_4681" cx="0" cy="0" r="1" gradientUnits="userSpaceOnUse" gradientTransform="translate(78.9473 63.1369) rotate(87.7198) scale(5.67635 13.9712)">
<stop stop-color="#C9B18D" stop-opacity="0"/>
<stop offset="1" stop-color="#C9B18D"/>
</radialGradient>
<radialGradient id="paint35_radial_413_4681" cx="0" cy="0" r="1" gradientUnits="userSpaceOnUse" gradientTransform="translate(78.9175 64.5891) rotate(87.2843) scale(2.21027 6.47644)">
<stop stop-color="#C9B18D" stop-opacity="0"/>
<stop offset="1" stop-color="#C9B18D"/>
</radialGradient>
<linearGradient id="paint36_linear_413_4681" x1="76.9644" y1="60.9702" x2="77.9352" y2="64.9132" gradientUnits="userSpaceOnUse">
<stop stop-color="#F4EC9D"/>
<stop offset="1" stop-color="#E8A546"/>
</linearGradient>
</defs>
</svg>
