<svg width="100" height="100" viewBox="0 0 100 100" fill="none" xmlns="http://www.w3.org/2000/svg">
<rect width="100" height="100" rx="50" fill="#FCFAE8"/>
<path d="M63.23 17.6191H36.7894C35.2208 17.6191 33.9492 18.8907 33.9492 20.4593V75.1929C33.9492 76.7615 35.2208 78.0331 36.7894 78.0331H63.23C64.7986 78.0331 66.0702 76.7615 66.0702 75.1929V20.4593C66.0702 18.8907 64.7986 17.6191 63.23 17.6191Z" fill="url(#paint0_linear_413_4212)" stroke="#BBA179" stroke-width="2.42"/>
<path d="M38.6067 25.3499L39.4643 23.772C39.5452 23.6236 39.759 23.6241 39.8419 23.7738L40.7144 25.3598C40.7343 25.3956 40.7644 25.4256 40.8002 25.4455L42.3861 26.3181C42.5353 26.4004 42.5369 26.6142 42.3879 26.6957L40.8101 27.5533C40.7745 27.5729 40.7447 27.6026 40.7252 27.6383L39.8675 29.216C39.7866 29.3644 39.5728 29.364 39.4899 29.2143L38.6174 27.6283C38.5975 27.5925 38.5675 27.5625 38.5317 27.5426L36.9457 26.67C36.7965 26.5877 36.795 26.3739 36.9439 26.2924L38.5218 25.4348C38.5574 25.4152 38.5871 25.3855 38.6067 25.3499Z" fill="url(#paint1_linear_413_4212)"/>
<path d="M42.2811 28.8355L42.7168 28.0339C42.7579 27.9585 42.8666 27.9587 42.9087 28.0348L43.352 28.8406C43.3621 28.8588 43.3773 28.874 43.3956 28.8842L44.2013 29.3275C44.2771 29.3693 44.2779 29.478 44.2022 29.5193L43.4006 29.9551C43.3825 29.965 43.3673 29.9801 43.3574 29.9982L42.9217 30.7999C42.8806 30.8753 42.7719 30.8751 42.7298 30.799L42.2865 29.9932C42.2764 29.975 42.2611 29.9597 42.2429 29.9496L41.4372 29.5063C41.3613 29.4645 41.3606 29.3558 41.4362 29.3145L42.2379 28.8787C42.256 28.8688 42.2711 28.8537 42.2811 28.8355Z" fill="url(#paint2_linear_413_4212)"/>
<path d="M60.0171 30.8668L60.4529 30.0652C60.4943 29.9897 60.6029 29.99 60.6448 30.066L61.0884 30.8718C61.0984 30.89 61.1136 30.9053 61.132 30.9154L61.9374 31.3587C62.0135 31.4005 62.014 31.5092 61.9385 31.5506L61.1367 31.9863C61.1189 31.9963 61.1036 32.0114 61.0937 32.0295L60.6579 32.8311C60.617 32.9065 60.5079 32.9063 60.466 32.8302L60.0229 32.0244C60.0129 32.0062 59.9972 31.991 59.9794 31.9809L59.1734 31.5375C59.0979 31.4957 59.0968 31.387 59.1723 31.3457L59.9741 30.9099C59.9925 30.9 60.0072 30.8849 60.0171 30.8668Z" fill="url(#paint3_linear_413_4212)"/>
<path d="M54.2415 20.4111H45.7766C45.208 20.4111 44.7471 20.8721 44.7471 21.4406C44.7471 22.0092 45.208 22.4701 45.7766 22.4701H54.2415C54.8101 22.4701 55.271 22.0092 55.271 21.4406C55.271 20.8721 54.8101 20.4111 54.2415 20.4111Z" fill="#BBA179"/>
<path d="M55.3622 31.5195H44.1565C42.9207 31.5195 41.9189 32.5213 41.9189 33.7571V44.9627C41.9189 46.1985 42.9207 47.2003 44.1565 47.2003H55.3622C56.5979 47.2003 57.5997 46.1985 57.5997 44.9627V33.7571C57.5997 32.5213 56.5979 31.5195 55.3622 31.5195Z" fill="url(#paint4_linear_413_4212)"/>
<g filter="url(#filter0_dii_413_4212)">
<path d="M46.7568 42.8034C46.7568 42.8034 48.7509 42.9369 48.6933 42.3229C48.6372 41.7088 47.6356 40.1495 43.9707 38.9777C43.9707 38.9777 47.0501 38.5535 49.289 40.7727C49.289 40.7727 47.4588 37.0152 49.7536 34.9295C52.0488 32.8451 54.8937 32.9905 54.8937 32.9905C54.8937 32.9905 52.0016 33.5077 51.483 35.3013C50.966 37.0963 51.9849 39.4726 52.761 41.1053C53.536 42.7379 53.3593 44.3706 51.1925 44.2567C49.0273 44.1441 47.3487 43.0967 46.7568 42.8034Z" fill="white"/>
</g>
<path d="M51.2266 63.1738H62.9074V77.1892H51.2266V63.1738Z" fill="url(#paint5_linear_413_4212)"/>
<path d="M64.0115 77.1299H51.1702C50.5289 77.1299 50.0098 77.6496 50.0098 78.2914C50.0098 78.9333 50.5289 79.4529 51.1702 79.4529H61.6906L64.0115 77.1299Z" fill="#BBA179"/>
<path d="M84.8975 42.0178V45.6924H66.332V42.0178C66.332 41.5118 66.8423 41.1143 67.4925 41.1143H83.7376C84.3873 41.1143 84.8975 41.5118 84.8975 42.0178Z" fill="#C9B18D"/>
<path fill-rule="evenodd" clip-rule="evenodd" d="M88.5619 44.5359C89.1602 44.588 89.6159 45.0781 89.6159 45.6928V78.2919C89.6159 78.8965 89.1749 79.3805 88.5907 79.4461C88.5514 79.4503 88.511 79.4529 88.4707 79.4534C88.4654 79.4534 88.4607 79.4534 88.4555 79.4534H84.8969L82.576 77.1304H68.6519L66.3314 79.4534H61.6901V63.5513H53.0303V60.792H61.6901V58.4689V56.1462V51.5002V47.2604H58.819V44.5312H75.6142H88.4555C88.4911 44.5312 88.5268 44.5328 88.5619 44.5359Z" fill="url(#paint6_linear_413_4212)"/>
<path fill-rule="evenodd" clip-rule="evenodd" d="M83.9075 65.4496C84.4738 65.5298 84.8975 66.0065 84.8975 66.599V79.4529H82.5771H82.5761L80.2556 77.1304H77.9357L75.6148 79.4529H73.2944L70.9734 77.1304L68.6525 79.4529H66.332V66.599C66.332 65.9488 66.8423 65.438 67.4925 65.438H75.6143L83.7365 65.4375C83.7948 65.4375 83.8519 65.4417 83.9075 65.4496Z" fill="#BBA179"/>
<path d="M68.6514 67.7607H73.2927V79.4531H68.6514V67.7607Z" fill="white"/>
<path d="M75.6162 67.7607H82.5785V79.4531H75.6162V67.7607Z" fill="url(#paint7_linear_413_4212)"/>
<path d="M79.097 75.9683C78.4552 75.9683 77.9365 75.4492 77.9365 74.8068V72.4066C77.9365 71.7648 78.4552 71.2451 79.097 71.2451C79.7383 71.2451 80.257 71.7648 80.257 72.4066V74.8068C80.257 75.4492 79.7383 75.9683 79.097 75.9683Z" fill="#0D1D37"/>
<path d="M64.5391 47.4375H85.7181C86.1114 47.4375 86.4297 47.7561 86.4297 48.1492V60.063C86.4297 60.4557 86.1114 60.7746 85.7181 60.7746H64.5391V47.4375Z" fill="url(#paint8_linear_413_4212)"/>
<path d="M17.4404 81.1769V80.1963" stroke="#0D1D37" stroke-width="2.29857" stroke-miterlimit="10" stroke-linecap="round" stroke-linejoin="round"/>
<path d="M28.3477 81.1772V80.1211" stroke="#0D1D37" stroke-width="2.29857" stroke-miterlimit="10" stroke-linecap="round" stroke-linejoin="round"/>
<path d="M19.0947 80.1203V72.041" stroke="black" stroke-width="2.29857" stroke-miterlimit="10" stroke-linecap="round" stroke-linejoin="round"/>
<path d="M23.4918 69.4834H21.0995C20.633 69.4834 20.2549 69.862 20.2549 70.3287V72.0414" stroke="#0D1D37" stroke-width="2.29857" stroke-miterlimit="10" stroke-linecap="square" stroke-linejoin="round"/>
<path d="M23.4915 71.4932H17.0876C16.6989 71.4932 16.3838 71.8571 16.3838 72.306V80.004C16.3838 80.4529 16.6989 80.8168 17.0876 80.8168H24.1953" fill="url(#paint9_linear_413_4212)"/>
<path d="M26.9629 68.4161V65.6609C26.9629 65.2907 27.2756 64.9902 27.6614 64.9902H29.175C29.5609 64.9902 29.8736 65.2907 29.8736 65.6609V68.4161" stroke="#0D1D37" stroke-width="2.29857" stroke-miterlimit="10" stroke-linecap="square" stroke-linejoin="round"/>
<path d="M24.5479 81.1768V80.1201" stroke="#0D1D37" stroke-width="2.29857" stroke-miterlimit="10" stroke-linecap="round" stroke-linejoin="round"/>
<path d="M32.29 81.1768V80.1201" stroke="#0D1D37" stroke-width="2.29857" stroke-miterlimit="10" stroke-linecap="round" stroke-linejoin="round"/>
<path d="M33.0442 67.8916H23.7934C23.3676 67.8916 23.0225 68.2366 23.0225 68.663V79.8283C23.0225 80.2546 23.3676 80.6002 23.7934 80.6002H33.0442C33.4699 80.6002 33.8151 80.2546 33.8151 79.8283V68.663C33.8151 68.2366 33.4699 67.8916 33.0442 67.8916Z" fill="url(#paint10_linear_413_4212)"/>
<path d="M25.6025 80.0758V68.416" stroke="#BBA179" stroke-width="1.2" stroke-miterlimit="10" stroke-linecap="square" stroke-linejoin="round"/>
<path d="M18.665 80.2805V72.0234" stroke="#BBA179" stroke-width="1.2" stroke-miterlimit="10" stroke-linecap="square" stroke-linejoin="round"/>
<path d="M31.2324 68.416V80.0758" stroke="#BBA179" stroke-width="1.2" stroke-miterlimit="10" stroke-linecap="square" stroke-linejoin="round"/>
<path fill-rule="evenodd" clip-rule="evenodd" d="M42.1488 67.3875L36.9218 67.8846C33.7004 68.1956 31.2334 70.9051 31.2334 74.1474V77.7274H75.1347L75.7823 73.108H74.4069L73.2532 67.4231L70.4577 61.498H51.3783C49.8874 61.498 48.4496 62.0308 47.3226 62.9905L42.1488 67.3875Z" fill="url(#paint11_linear_413_4212)"/>
<path d="M35.6535 71.4776H36.5143C37.029 71.4776 37.4461 71.0601 37.4461 70.5452C37.4461 70.0297 37.029 69.6123 36.5143 69.6123H35.6535C35.1388 69.6123 34.7217 70.0297 34.7217 70.5452C34.7217 71.0601 35.1388 71.4776 35.6535 71.4776Z" fill="url(#paint12_linear_413_4212)"/>
<path d="M35.6535 71.4776C36.1682 71.4776 36.5853 71.0601 36.5853 70.5452C36.5853 70.0297 36.1682 69.6123 35.6535 69.6123C35.1388 69.6123 34.7217 70.0297 34.7217 70.5452C34.7217 71.0601 35.1388 71.4776 35.6535 71.4776Z" fill="white"/>
<path d="M31.2334 75.7601H32.4758C33.0171 75.7601 33.452 75.3248 33.452 74.7831C33.452 74.2414 33.0171 73.8057 32.4758 73.8057H31.2334V75.7601Z" fill="white"/>
<path fill-rule="evenodd" clip-rule="evenodd" d="M72.6952 68.5823V68.5645H72.3135V71.5849H72.3224V71.6028H74.0974L73.485 68.5823H72.6952Z" fill="#B42025"/>
<path d="M43.5501 75.76V67.4102H45.0037V75.76H58.7134L59.6453 67.4102H61.4948L60.563 75.76H73.2092V74.0993C73.2092 73.5392 73.6617 73.0951 74.2118 73.0951H75.7823L75.1347 77.7144H31.2334V75.76H43.5501Z" fill="#BBA179"/>
<path d="M42.1498 67.4007L47.3236 62.9858C48.4506 62.0178 49.8879 61.4756 51.3704 61.4756H70.4587L73.2542 67.4274H41.9102L42.1498 67.4007Z" fill="url(#paint13_linear_413_4212)"/>
<path d="M44.9895 67.4094L47.8029 64.7622C48.848 63.7717 50.2078 63.1775 51.6425 63.0742H48.439L43.5253 67.4094H42.1498L43.8394 65.9578L42.1498 67.4004L41.9102 67.4272H53.6599L53.6751 67.4094H44.9895Z" fill="#C9B18D"/>
<path d="M61.9403 63.0742H60.0767L59.7573 66.2012L59.7563 66.2027L59.633 67.4094H58.7515L58.7363 67.4272H61.4967L61.5025 67.3648L61.9403 63.0742Z" fill="#C9B18D"/>
<path d="M71.7715 67.4094L69.7652 63.0742H67.8848L69.7484 67.4272H73.2535L73.2456 67.4094H71.7715Z" fill="#C9B18D"/>
<path fill-rule="evenodd" clip-rule="evenodd" d="M48.4377 63.0742L43.524 67.4094H42.1484L43.8381 65.9578L47.2157 63.0742H48.4377ZM71.2125 63.0742L73.2455 67.4094H71.772L69.7651 63.0742H71.2125ZM66.8459 63.0742H63.7131H61.9381L61.5007 67.3648L61.4944 67.4272H63.2339H69.7473L67.8841 63.0742H66.8459ZM59.754 66.2027L59.6308 67.4094H58.7498L58.7346 67.4272H53.6585L53.6737 67.4094H44.9882L47.8016 64.7622C48.8467 63.7717 50.2064 63.1775 51.6412 63.0742H60.0744L59.754 66.2012V66.2027Z" fill="white"/>
<path d="M72.1576 77.8993C72.2274 77.624 72.2719 77.3398 72.2861 77.0471C72.3307 76.088 72.0643 75.1819 71.5672 74.4446C71.5378 74.4011 71.5058 74.3617 71.4722 74.3266C70.8592 73.474 69.9431 72.8547 68.8828 72.6244C68.8624 72.6166 68.8403 72.6103 68.8162 72.6061C68.479 72.5348 68.124 72.508 67.769 72.5259C67.1764 72.5516 66.6138 72.701 66.1051 72.9459C66.0962 72.9506 66.0873 72.9543 66.0794 72.9585C66.0348 72.98 65.9913 73.003 65.9483 73.0261C65.9242 73.0382 65.9011 73.0508 65.877 73.0644C65.8513 73.0786 65.8267 73.0927 65.8015 73.1079C65.7627 73.13 65.7234 73.153 65.6856 73.1772C65.6798 73.1808 65.6756 73.1834 65.6704 73.1866C64.4528 73.9517 63.6426 75.3072 63.6426 76.8526C63.6426 79.2422 65.5771 81.1788 67.9641 81.1788C69.9311 81.1788 71.5897 79.8642 72.1131 78.0655C72.1172 78.0493 72.122 78.0325 72.1272 78.0162C72.1377 77.9785 72.1487 77.9391 72.1581 77.9009L72.1576 77.8993Z" fill="#0D1D37"/>
<path d="M69.8905 75.9465C69.8789 75.9223 69.8648 75.9014 69.8506 75.8809C69.5318 75.2626 68.9198 74.8211 68.1972 74.743C68.1804 74.7367 68.1626 74.7314 68.1421 74.7293C68.0268 74.7204 67.9114 74.7204 67.7961 74.7293C67.397 74.7608 67.0278 74.9071 66.7195 75.1347C66.6817 75.162 66.6445 75.1908 66.6088 75.2207C66.6041 75.2244 66.601 75.228 66.5962 75.2312C66.1369 75.6203 65.8438 76.2024 65.8438 76.8526C65.8438 77.6911 66.3304 78.4158 67.0357 78.7614C67.0462 78.7677 67.0572 78.775 67.0692 78.7803C67.3802 78.9313 67.7436 79.0021 68.1254 78.9753C69.1637 78.9045 70.0158 78.0519 70.0866 77.0125C70.1133 76.6303 70.0425 76.2663 69.8915 75.9465H69.8905Z" fill="#C9B18D"/>
<path d="M43.388 77.8972C43.4022 77.8405 43.4155 77.7829 43.4279 77.7252C43.4279 77.7252 43.4279 77.7241 43.4279 77.7231C43.474 77.5028 43.5042 77.2774 43.5158 77.0471C43.5601 76.088 43.2939 75.1819 42.7969 74.4446C42.7676 74.4011 42.7357 74.3628 42.702 74.3271C42.095 73.4834 41.1916 72.8678 40.1444 72.6323C40.1196 72.6208 40.0938 72.6119 40.0637 72.6061C39.7264 72.5348 39.3715 72.508 39.0165 72.5259C38.7902 72.5358 38.5683 72.5641 38.3527 72.6087C38.319 72.6145 38.2861 72.6229 38.2533 72.6297C38.2311 72.6349 38.2089 72.6397 38.1867 72.6449C36.2859 73.0995 34.873 74.8096 34.873 76.851C34.873 79.2407 36.8077 81.1772 39.1949 81.1772C41.1623 81.1772 42.8209 79.8605 43.3445 78.0608C43.348 78.0477 43.3525 78.0341 43.3561 78.0199C43.3676 77.979 43.3791 77.9376 43.3889 77.8967L43.388 77.8972Z" fill="#0D1D37"/>
<path d="M41.1892 75.8695C41.1777 75.8453 41.1635 75.8238 41.1493 75.8034C40.797 75.1196 40.0853 74.6523 39.2635 74.6523C38.0921 74.6523 37.1426 75.6031 37.1426 76.7756C37.1426 77.6141 37.6289 78.3388 38.3335 78.6833C38.345 78.6896 38.3548 78.697 38.3672 78.7027C38.6778 78.8538 39.0417 78.9251 39.4233 78.8983C40.4615 78.8275 41.3135 77.9744 41.3845 76.935C41.4111 76.5533 41.3401 76.1893 41.1892 75.8695Z" fill="#C9B18D"/>
<path d="M38.0909 47.9566L38.0913 47.956L38.6645 46.9014L39.2491 47.9639L39.2495 47.9646C39.2817 48.0226 39.3299 48.0708 39.3878 48.103L39.3885 48.1034L40.4511 48.688L39.3965 49.2612L39.3958 49.2615C39.3373 49.2937 39.2888 49.3421 39.2567 49.4007L39.2563 49.4014L38.6831 50.456L38.0985 49.3934L38.0981 49.3927C38.0659 49.3347 38.0177 49.2866 37.9598 49.2544L37.9591 49.254L36.8965 48.6694L37.9511 48.0962L37.9518 48.0958C38.0103 48.0636 38.0588 48.0152 38.0909 47.9566Z" stroke="#BBA179" stroke-width="0.756461"/>
<defs>
<filter id="filter0_dii_413_4212" x="42.9205" y="31.9381" width="13.0233" height="14.2896" filterUnits="userSpaceOnUse" color-interpolation-filters="sRGB">
<feFlood flood-opacity="0" result="BackgroundImageFix"/>
<feColorMatrix in="SourceAlpha" type="matrix" values="0 0 0 0 0 0 0 0 0 0 0 0 0 0 0 0 0 0 127 0" result="hardAlpha"/>
<feOffset dy="0.982491"/>
<feGaussianBlur stdDeviation="0.491245"/>
<feComposite in2="hardAlpha" operator="out"/>
<feColorMatrix type="matrix" values="0 0 0 0 0 0 0 0 0 0 0 0 0 0 0 0 0 0 0.25 0"/>
<feBlend mode="normal" in2="BackgroundImageFix" result="effect1_dropShadow_413_4212"/>
<feBlend mode="normal" in="SourceGraphic" in2="effect1_dropShadow_413_4212" result="shape"/>
<feColorMatrix in="SourceAlpha" type="matrix" values="0 0 0 0 0 0 0 0 0 0 0 0 0 0 0 0 0 0 127 0" result="hardAlpha"/>
<feOffset dx="1.05023" dy="-1.05023"/>
<feGaussianBlur stdDeviation="3.15068"/>
<feComposite in2="hardAlpha" operator="arithmetic" k2="-1" k3="1"/>
<feColorMatrix type="matrix" values="0 0 0 0 0.960784 0 0 0 0 0.894118 0 0 0 0 0.788235 0 0 0 1 0"/>
<feBlend mode="color-burn" in2="shape" result="effect2_innerShadow_413_4212"/>
<feColorMatrix in="SourceAlpha" type="matrix" values="0 0 0 0 0 0 0 0 0 0 0 0 0 0 0 0 0 0 127 0" result="hardAlpha"/>
<feOffset dx="-1.05023" dy="1.05023"/>
<feGaussianBlur stdDeviation="2.62557"/>
<feComposite in2="hardAlpha" operator="arithmetic" k2="-1" k3="1"/>
<feColorMatrix type="matrix" values="0 0 0 0 1 0 0 0 0 1 0 0 0 0 1 0 0 0 0.3 0"/>
<feBlend mode="normal" in2="effect2_innerShadow_413_4212" result="effect3_innerShadow_413_4212"/>
</filter>
<linearGradient id="paint0_linear_413_4212" x1="50.0097" y1="16.199" x2="50.0097" y2="79.4536" gradientUnits="userSpaceOnUse">
<stop stop-color="white"/>
<stop offset="1" stop-color="#F2F2F2"/>
</linearGradient>
<linearGradient id="paint1_linear_413_4212" x1="38.1978" y1="25.0259" x2="41.1341" y2="27.9622" gradientUnits="userSpaceOnUse">
<stop stop-color="#EDE8BC"/>
<stop offset="1" stop-color="#EAB569"/>
</linearGradient>
<linearGradient id="paint2_linear_413_4212" x1="42.0733" y1="28.671" x2="43.5652" y2="30.1628" gradientUnits="userSpaceOnUse">
<stop stop-color="#EDE8BC"/>
<stop offset="1" stop-color="#EAB569"/>
</linearGradient>
<linearGradient id="paint3_linear_413_4212" x1="59.8095" y1="30.7022" x2="61.3013" y2="32.1941" gradientUnits="userSpaceOnUse">
<stop stop-color="#EDE8BC"/>
<stop offset="1" stop-color="#EAB569"/>
</linearGradient>
<linearGradient id="paint4_linear_413_4212" x1="46.5588" y1="30.6309" x2="56.907" y2="42.7802" gradientUnits="userSpaceOnUse">
<stop stop-color="#F4EC9D"/>
<stop offset="1" stop-color="#E8A546"/>
</linearGradient>
<linearGradient id="paint5_linear_413_4212" x1="51.2266" y1="70.1818" x2="68.1114" y2="70.1818" gradientUnits="userSpaceOnUse">
<stop stop-color="white"/>
<stop offset="1" stop-color="#E0E0E0"/>
</linearGradient>
<linearGradient id="paint6_linear_413_4212" x1="63.2968" y1="49.172" x2="92.9998" y2="66.4617" gradientUnits="userSpaceOnUse">
<stop stop-color="#F4EC9D"/>
<stop offset="1" stop-color="#E8A546"/>
</linearGradient>
<linearGradient id="paint7_linear_413_4212" x1="82.5785" y1="73.6072" x2="75.6162" y2="73.6072" gradientUnits="userSpaceOnUse">
<stop stop-color="#F2F2F2"/>
<stop offset="1" stop-color="white"/>
</linearGradient>
<linearGradient id="paint8_linear_413_4212" x1="86.4297" y1="54.1061" x2="64.5391" y2="54.1061" gradientUnits="userSpaceOnUse">
<stop stop-color="#F2F2F2"/>
<stop offset="1" stop-color="white"/>
</linearGradient>
<linearGradient id="paint9_linear_413_4212" x1="26.081" y1="80.8168" x2="21.4094" y2="72.3736" gradientUnits="userSpaceOnUse">
<stop stop-color="#E8A546"/>
<stop offset="1" stop-color="#F4EC9D"/>
</linearGradient>
<linearGradient id="paint10_linear_413_4212" x1="24.6707" y1="69.0154" x2="25.1085" y2="81.0999" gradientUnits="userSpaceOnUse">
<stop offset="0.032204" stop-color="#F4EC9D"/>
<stop offset="1" stop-color="#E8A546"/>
</linearGradient>
<linearGradient id="paint11_linear_413_4212" x1="42.338" y1="69.6125" x2="65.1336" y2="83.3059" gradientUnits="userSpaceOnUse">
<stop stop-color="#F4EC9D"/>
<stop offset="0.923489" stop-color="#E8A546"/>
</linearGradient>
<linearGradient id="paint12_linear_413_4212" x1="35.5278" y1="69.5069" x2="36.6132" y2="71.3674" gradientUnits="userSpaceOnUse">
<stop stop-color="#F4EC9D"/>
<stop offset="1" stop-color="#E8A546"/>
</linearGradient>
<linearGradient id="paint13_linear_413_4212" x1="49.299" y1="61.5747" x2="52.8885" y2="72.7877" gradientUnits="userSpaceOnUse">
<stop stop-color="#F4EC9D"/>
<stop offset="1" stop-color="#E8A546"/>
</linearGradient>
</defs>
</svg>
