<svg width="80" height="80" viewBox="0 0 80 80" fill="none" xmlns="http://www.w3.org/2000/svg">
<g clip-path="url(#clip0_536_1379)">
<path d="M40.1469 0.488281H39.7559C17.7993 0.488281 0 18.2876 0 40.2441V40.2444C0 62.2009 17.7993 80.0002 39.7559 80.0002H40.1469C62.1034 80.0002 79.9027 62.2009 79.9027 40.2444V40.2441C79.9027 18.2876 62.1034 0.488281 40.1469 0.488281Z" fill="#FCFAE8"/>
<path d="M23.5858 45.8594C24.0859 44.0491 24.9933 42.3868 26.2475 40.988L25.3971 35.889C25.3424 35.5651 25.4343 35.2324 25.6477 34.9807C25.86 34.7289 26.1731 34.5845 26.5025 34.5845C28.722 34.5845 30.8485 35.5596 32.3358 37.2275C33.3537 36.9605 34.4044 36.8259 35.4681 36.8259H41.9987C42.0391 36.8259 42.0785 36.828 42.1168 36.8325C48.6014 37.036 53.9029 41.821 54.4676 47.9968C54.4688 48.009 54.4671 48.0208 54.4682 48.0329H54.5202C55.7558 48.0329 56.8363 47.0272 56.8363 45.7916C56.8363 45.1929 56.6032 44.6303 56.1796 44.2068C55.7419 43.7691 55.7419 43.0598 56.1796 42.622C56.6174 42.1843 57.3267 42.1843 57.7647 42.622C58.6113 43.4691 59.0775 44.5943 59.0775 45.7916C59.0775 48.2639 56.9925 50.2744 54.5202 50.2744H54.4443C54.0581 54.4583 51.5915 58.2014 47.7959 60.1375V62.6768C47.7959 63.2961 47.2947 63.7974 46.6752 63.7974H42.1924C41.5729 63.7974 41.0717 63.2961 41.0717 62.6768V61.4814H35.4681C35.0938 61.4814 34.7206 61.4641 34.3474 61.4313V62.6768C34.3474 63.2961 33.8461 63.7974 33.2267 63.7974H28.7439C28.1244 63.7974 27.6232 63.2961 27.6232 62.6768V58.6641C26.3186 57.5861 25.2471 56.2511 24.481 54.7496C24.4592 54.7484 24.4361 54.7484 24.4142 54.7474C24.3638 54.754 24.3124 54.7573 24.261 54.7573C24.2172 54.7573 24.1734 54.7573 24.1297 54.7573V54.7551C22.3359 54.685 20.8242 53.2053 20.8242 51.3951V49.1537C20.8242 47.5305 22.0547 46.1735 23.5858 45.8594ZM35.4681 43.5501H42.1924C42.8118 43.5501 43.3131 43.0489 43.3131 42.4294C43.3131 41.81 42.8118 41.3087 42.1924 41.3087H35.4681C34.8487 41.3087 34.3474 41.81 34.3474 42.4294C34.3474 43.0489 34.8487 43.5501 35.4681 43.5501Z" fill="url(#paint0_linear_536_1379)"/>
<path d="M26.3809 47.6001C27.4601 48.3608 28.216 48.3491 29.3136 47.6001" stroke="white" stroke-width="2.8" stroke-linecap="round" stroke-linejoin="round"/>
<path d="M40.3771 33.3921C39.4633 34.0897 38.453 34.6542 37.3789 35.0653L38.1398 35.7769C38.4915 36.1058 38.9914 36.2198 39.4509 36.0759L45.513 34.1777C45.9725 34.0338 46.3219 33.6539 46.4297 33.1811L47.2565 29.5562C45.463 31.564 43.0355 32.9281 40.3768 33.3915L40.3771 33.3921Z" fill="url(#paint1_linear_536_1379)"/>
<path d="M47.4562 25.648L46.9895 25.2114C46.1254 28.4913 43.9882 31.1158 41.2421 32.6627C40.9641 32.9193 40.6748 33.1627 40.375 33.3914C43.0335 32.9275 45.4612 31.5638 47.2548 29.556L47.8506 26.9436C47.9584 26.4708 47.8079 25.977 47.4562 25.648Z" fill="url(#paint2_linear_536_1379)"/>
<path d="M41.2441 32.6637C43.9899 31.1167 46.1276 28.4918 46.9916 25.2123L45.1289 23.4702C45.1516 24.4544 45.0547 25.4581 44.8256 26.4625C44.2604 28.9406 42.9749 31.0655 41.2444 32.6642L41.2441 32.6637Z" fill="url(#paint3_linear_536_1379)"/>
<path d="M45.1288 23.4696L42.8191 21.3094C42.4675 20.9805 41.9676 20.8665 41.508 21.0104L35.446 22.9086C34.9864 23.0525 34.637 23.4324 34.5292 23.9052L33.1066 30.1425C32.9988 30.6153 33.1489 31.1092 33.5006 31.4381L35.3664 33.183L36.4069 34.1562L37.3789 35.065C38.453 34.6538 39.4633 34.0894 40.3771 33.3917C40.6769 33.1631 40.9661 32.9197 41.2441 32.6631C42.9745 31.0644 44.2599 28.9399 44.8252 26.4614C45.0544 25.457 45.1516 24.4534 45.1285 23.4692L45.1288 23.4696Z" fill="url(#paint4_linear_536_1379)"/>
<g filter="url(#filter0_dii_536_1379)">
<path d="M36.5879 29.778C36.5879 29.778 37.8785 30.1647 37.9327 29.7524C37.9877 29.3404 37.5632 28.1653 35.3301 26.8457C35.3301 26.8457 37.4177 27.0285 38.5567 28.8228C38.5567 28.8228 37.9169 26.0786 39.7381 25.0518C41.5592 24.0258 43.4074 24.5478 43.4074 24.5478C43.4074 24.5478 41.4289 24.4542 40.8192 25.5555C40.2102 26.6578 40.5235 28.3724 40.789 29.5619C41.0538 30.7513 40.6928 31.7979 39.2856 31.3982C37.8791 30.9996 36.9329 30.0595 36.5879 29.778Z" fill="white"/>
</g>
<path d="M52.1026 32.4183L52.7802 31.1716C52.8441 31.0543 53.0131 31.0547 53.0785 31.173L53.7679 32.4261C53.7837 32.4544 53.8073 32.4781 53.8356 32.4939L55.0888 33.1833C55.2066 33.2483 55.2078 33.4173 55.0901 33.4816L53.8435 34.1592C53.8153 34.1747 53.7918 34.1982 53.7764 34.2263L53.0988 35.473C53.0349 35.5902 52.8659 35.5899 52.8004 35.4715L52.111 34.2185C52.0953 34.1902 52.0716 34.1665 52.0433 34.1507L50.7902 33.4614C50.6724 33.3963 50.6711 33.2273 50.7888 33.163L52.0355 32.4854C52.0636 32.4699 52.0871 32.4465 52.1026 32.4183Z" fill="url(#paint5_linear_536_1379)"/>
<path d="M55.3355 28.9754L55.7867 28.1453C55.8292 28.0672 55.9418 28.0674 55.9853 28.1462L56.4444 28.9806C56.4548 28.9994 56.4707 29.0152 56.4895 29.0257L57.3239 29.4847C57.4024 29.528 57.4032 29.6405 57.3248 29.6834L56.4947 30.1346C56.476 30.1449 56.4603 30.1605 56.45 30.1793L55.9989 31.0094C55.9563 31.0874 55.8437 31.0872 55.8002 31.0084L55.3411 30.1741C55.3306 30.1552 55.3149 30.1394 55.296 30.1289L54.4616 29.6699C54.3831 29.6266 54.3823 29.5141 54.4607 29.4713L55.2908 29.0201C55.3095 29.0097 55.3252 28.9941 55.3355 28.9754Z" fill="url(#paint6_linear_536_1379)"/>
</g>
<defs>
<filter id="filter0_dii_536_1379" x="33.6762" y="22.7612" width="11.3858" height="10.7708" filterUnits="userSpaceOnUse" color-interpolation-filters="sRGB">
<feFlood flood-opacity="0" result="BackgroundImageFix"/>
<feColorMatrix in="SourceAlpha" type="matrix" values="0 0 0 0 0 0 0 0 0 0 0 0 0 0 0 0 0 0 127 0" result="hardAlpha"/>
<feOffset dy="0.5"/>
<feGaussianBlur stdDeviation="0.773584"/>
<feComposite in2="hardAlpha" operator="out"/>
<feColorMatrix type="matrix" values="0 0 0 0 0 0 0 0 0 0 0 0 0 0 0 0 0 0 0.25 0"/>
<feBlend mode="normal" in2="BackgroundImageFix" result="effect1_dropShadow_536_1379"/>
<feBlend mode="normal" in="SourceGraphic" in2="effect1_dropShadow_536_1379" result="shape"/>
<feColorMatrix in="SourceAlpha" type="matrix" values="0 0 0 0 0 0 0 0 0 0 0 0 0 0 0 0 0 0 127 0" result="hardAlpha"/>
<feOffset dx="1.65383" dy="-1.65383"/>
<feGaussianBlur stdDeviation="4.9615"/>
<feComposite in2="hardAlpha" operator="arithmetic" k2="-1" k3="1"/>
<feColorMatrix type="matrix" values="0 0 0 0 0.960784 0 0 0 0 0.894118 0 0 0 0 0.788235 0 0 0 1 0"/>
<feBlend mode="color-burn" in2="shape" result="effect2_innerShadow_536_1379"/>
<feColorMatrix in="SourceAlpha" type="matrix" values="0 0 0 0 0 0 0 0 0 0 0 0 0 0 0 0 0 0 127 0" result="hardAlpha"/>
<feOffset dx="-1.65383" dy="1.65383"/>
<feGaussianBlur stdDeviation="4.13458"/>
<feComposite in2="hardAlpha" operator="arithmetic" k2="-1" k3="1"/>
<feColorMatrix type="matrix" values="0 0 0 0 1 0 0 0 0 1 0 0 0 0 1 0 0 0 0.3 0"/>
<feBlend mode="normal" in2="effect2_innerShadow_536_1379" result="effect3_innerShadow_536_1379"/>
</filter>
<linearGradient id="paint0_linear_536_1379" x1="38.007" y1="34.5845" x2="46.5393" y2="65.4348" gradientUnits="userSpaceOnUse">
<stop stop-color="#F4EC9D"/>
<stop offset="1" stop-color="#E8A546"/>
</linearGradient>
<linearGradient id="paint1_linear_536_1379" x1="43.1591" y1="28.6216" x2="41.3192" y2="36.6886" gradientUnits="userSpaceOnUse">
<stop stop-color="#EAAE51"/>
<stop offset="1" stop-color="#F3E392"/>
</linearGradient>
<linearGradient id="paint2_linear_536_1379" x1="44.2835" y1="24.0452" x2="51.3539" y2="25.9148" gradientUnits="userSpaceOnUse">
<stop stop-color="#F4EC9D"/>
<stop offset="1" stop-color="#E8A546"/>
</linearGradient>
<linearGradient id="paint3_linear_536_1379" x1="46.5861" y1="24.7762" x2="49.3232" y2="30.8658" gradientUnits="userSpaceOnUse">
<stop stop-color="#E8A546"/>
<stop offset="1" stop-color="#F4EC9D"/>
</linearGradient>
<linearGradient id="paint4_linear_536_1379" x1="38.7887" y1="19.3432" x2="46.4699" y2="29.5067" gradientUnits="userSpaceOnUse">
<stop stop-color="#F4EC9D"/>
<stop offset="1" stop-color="#E8A546"/>
</linearGradient>
<linearGradient id="paint5_linear_536_1379" x1="51.7795" y1="32.1623" x2="54.0995" y2="34.4823" gradientUnits="userSpaceOnUse">
<stop stop-color="#EDE8BC"/>
<stop offset="1" stop-color="#EAB569"/>
</linearGradient>
<linearGradient id="paint6_linear_536_1379" x1="55.1203" y1="28.8049" x2="56.6652" y2="30.3497" gradientUnits="userSpaceOnUse">
<stop stop-color="#EDE8BC"/>
<stop offset="1" stop-color="#EAB569"/>
</linearGradient>
<clipPath id="clip0_536_1379">
<rect width="80" height="80" fill="white"/>
</clipPath>
</defs>
</svg>
