<svg width="80" height="80" viewBox="0 0 80 80" fill="none" xmlns="http://www.w3.org/2000/svg">
<g clip-path="url(#clip0_511_1339)">
<path d="M40.3347 0H39.9465C18.1468 0 0.474609 17.7993 0.474609 39.7559V39.7561C0.474609 61.7126 18.1468 79.5119 39.9465 79.5119H40.3347C62.1344 79.5119 79.8066 61.7126 79.8066 39.7561V39.7559C79.8066 17.7993 62.1344 0 40.3347 0Z" fill="#FCFAE8"/>
<path d="M54.336 38.9155H53.2066V30.311C53.2066 28.461 51.7855 26.9562 50.0384 26.9562H30.3982C28.6512 26.9562 27.2301 28.461 27.2301 30.311V38.9155H26.1006V30.311C26.1006 27.8017 28.0285 25.7603 30.3982 25.7603H50.0383C52.408 25.7603 54.3359 27.8018 54.3359 30.311L54.336 38.9155Z" fill="#C9B18D"/>
<path d="M22.8258 41.4123L24.4778 57.3662C24.7312 59.8139 26.7614 61.6717 29.1823 61.6717H51.2532C53.6741 61.6717 55.7042 59.8133 55.9577 57.3661L57.6096 41.4123C57.7461 40.0956 56.7305 38.9487 55.428 38.9487H25.0074C23.705 38.9487 22.6893 40.0956 22.8258 41.4123Z" fill="url(#paint0_linear_511_1339)"/>
<path d="M44.8589 28.1523H35.5778C35.0219 28.1523 34.5713 27.6942 34.5713 27.1291V25.5876C34.5713 25.0226 35.0219 24.5645 35.5778 24.5645H44.8589C45.4148 24.5645 45.8654 25.0226 45.8654 25.5876V27.1291C45.8654 27.6942 45.4148 28.1523 44.8589 28.1523Z" fill="url(#paint1_linear_511_1339)"/>
<path d="M40.221 56.3877C39.2466 56.3877 38.4562 55.5848 38.4562 54.5938L38.4551 47.3212C38.4551 46.3309 39.245 45.5273 40.2198 45.5273C41.1941 45.5273 41.9846 46.3302 41.9846 47.3212L41.9857 54.5938C41.9857 55.5841 41.1958 56.3877 40.221 56.3877Z" fill="#FCFAE8"/>
<path d="M33.9086 56.3879C33.1411 56.3879 32.4346 55.8741 32.2128 55.0863L30.1689 47.8137C29.9012 46.8613 30.4441 45.868 31.381 45.5958C32.3145 45.3237 33.2945 45.875 33.5628 46.828L35.6067 54.1007C35.8744 55.0531 35.3316 56.0463 34.3946 56.3185C34.2326 56.3651 34.0695 56.3879 33.9086 56.3879Z" fill="#FCFAE8"/>
<path d="M46.535 56.3878C46.3742 56.3878 46.211 56.365 46.049 56.3184C45.1121 56.0462 44.5692 55.0535 44.8369 54.1005L46.8802 46.8279C47.1485 45.8748 48.1285 45.3254 49.0619 45.5957C49.9989 45.8679 50.5417 46.8605 50.2741 47.8135L48.2308 55.0862C48.009 55.8739 47.3024 56.3878 46.535 56.3878Z" fill="#FCFAE8"/>
<path d="M41.9842 47.3212C41.9842 46.3302 41.1937 45.5273 40.2194 45.5273C39.6233 45.5273 39.0988 45.8298 38.7793 46.2897C39.0576 46.1031 39.39 45.993 39.7486 45.993C40.7229 45.993 41.5133 46.7958 41.5133 47.7869L41.5144 55.0594C41.5144 55.4442 41.3928 55.7986 41.1899 56.0908C41.6686 55.7699 41.9854 55.2199 41.9854 54.5938L41.9842 47.3212Z" fill="url(#paint2_linear_511_1339)"/>
<path d="M35.6044 54.1011L33.5605 46.8285C33.2922 45.8755 32.3122 45.3243 31.3787 45.5963C30.9737 45.714 30.6489 45.971 30.4248 46.2967C30.5715 46.1982 30.7298 46.1136 30.9078 46.0619C31.8413 45.7898 32.8213 46.3411 33.0895 47.2941L35.1335 54.5667C35.2854 55.1074 35.1695 55.6567 34.8754 56.0842C35.5007 55.664 35.8213 54.8725 35.6044 54.1011Z" fill="url(#paint3_linear_511_1339)"/>
<path d="M49.0601 45.5961C48.3192 45.3815 47.5551 45.6885 47.1348 46.2987C47.5506 46.0194 48.0749 45.9128 48.5893 46.0617C49.5263 46.3339 50.0691 47.3266 49.8014 48.2795L47.7581 55.5522C47.7046 55.7424 47.6203 55.9149 47.516 56.0699C47.8476 55.842 48.1104 55.5083 48.2291 55.0865L50.2724 47.8139C50.5399 46.861 49.997 45.8682 49.0601 45.5961Z" fill="url(#paint4_linear_511_1339)"/>
<path d="M57.8529 41.3408H22.5806C21.2751 41.3408 20.2168 40.2749 20.2168 38.96V38.938C20.2168 37.6231 21.2751 36.5571 22.5806 36.5571H57.8529C59.1586 36.5571 60.2169 37.6231 60.2169 38.938V38.96C60.2169 40.2749 59.1586 41.3408 57.8529 41.3408Z" fill="url(#paint5_linear_511_1339)"/>
<g filter="url(#filter0_d_511_1339)">
<path d="M57.5208 61.3283C56.5519 62.0172 55.4885 62.564 54.3652 62.949L55.1221 63.7174C55.4719 64.0725 55.9828 64.2106 56.4621 64.0788L62.7848 62.3447C63.2642 62.2129 63.6391 61.8325 63.7688 61.3456L64.7613 57.6138C62.8345 59.6287 60.2796 60.9507 57.5208 61.3283Z" fill="url(#paint6_linear_511_1339)"/>
<path d="M65.1205 53.5643L64.6565 53.0928C63.6388 56.4646 61.3336 59.1064 58.4428 60.6051C58.1462 60.8607 57.8388 61.1024 57.5205 61.328C60.2794 60.9499 62.8348 59.629 64.7616 57.614L65.4771 54.9249C65.6068 54.4383 65.4708 53.9197 65.1211 53.5644L65.1205 53.5643Z" fill="url(#paint7_linear_511_1339)"/>
<path d="M58.4434 60.606C61.3342 59.1067 63.6394 56.4649 64.6571 53.0935L62.8045 51.2119C62.7896 52.2347 62.6508 53.273 62.3759 54.3071C61.6971 56.858 60.2896 59.014 58.4439 60.6066L58.4434 60.606Z" fill="url(#paint8_linear_511_1339)"/>
<path d="M62.8039 51.2114L60.5067 48.8783C60.1565 48.5231 59.6456 48.3852 59.1662 48.5167L52.8435 50.2512C52.3642 50.3826 51.9893 50.7635 51.8599 51.2501L50.1517 57.671C50.0222 58.1579 50.1578 58.6764 50.5077 59.0315L52.3636 60.9159L53.3985 61.9674L54.3653 62.9487C55.4886 62.5636 56.5519 62.0169 57.521 61.3285C57.8387 61.1023 58.1462 60.8612 58.4427 60.6057C60.289 59.0131 61.6965 56.8574 62.3747 54.306C62.6502 53.272 62.789 52.2339 62.8033 51.2109L62.8039 51.2114Z" fill="url(#paint9_linear_511_1339)"/>
<g filter="url(#filter1_dii_511_1339)">
<path d="M53.7534 57.4282C53.7534 57.4282 55.0689 57.8799 55.1407 57.4542C55.2135 57.0285 54.8213 55.7918 52.5703 54.3345C52.5703 54.3345 54.7154 54.6058 55.82 56.5133C55.82 56.5133 55.2668 53.6389 57.184 52.6438C59.1012 51.6496 60.9863 52.2638 60.9863 52.2638C60.9863 52.2638 58.9503 52.0893 58.2789 53.209C57.6086 54.3298 57.8652 56.1223 58.0926 57.3678C58.3195 58.6131 57.9069 59.6859 56.4717 59.2157C55.0372 58.7472 54.0981 57.7337 53.7534 57.4282Z" fill="white"/>
</g>
</g>
<path d="M18.8565 25.2856L19.8369 23.469C19.9294 23.2981 20.1739 23.2987 20.2686 23.4711L21.266 25.297C21.2887 25.3383 21.3231 25.3728 21.364 25.3958L23.1769 26.4004C23.3475 26.4951 23.3492 26.7413 23.1789 26.8351L21.3753 27.8225C21.3346 27.845 21.3006 27.8793 21.2783 27.9203L20.2979 29.7369C20.2054 29.9077 19.9609 29.9072 19.8663 29.7348L18.8688 27.9088C18.8461 27.8676 18.8118 27.833 18.7708 27.8101L16.9579 26.8055C16.7874 26.7108 16.7856 26.4645 16.9559 26.3708L18.7595 25.3834C18.8002 25.3609 18.8342 25.3266 18.8565 25.2856Z" fill="url(#paint10_linear_511_1339)"/>
<path d="M15.1815 20.1646L15.6796 19.2417C15.7266 19.1548 15.8508 19.1551 15.8989 19.2427L16.4057 20.1704C16.4172 20.1914 16.4346 20.209 16.4554 20.2206L17.3766 20.731C17.4632 20.7792 17.4641 20.9042 17.3776 20.9519L16.4612 21.4536C16.4405 21.465 16.4233 21.4824 16.4119 21.5032L15.9138 22.4262C15.8668 22.513 15.7426 22.5127 15.6945 22.4252L15.1877 21.4974C15.1762 21.4765 15.1588 21.4589 15.138 21.4473L14.2168 20.9369C14.1302 20.8887 14.1293 20.7636 14.2158 20.716L15.1322 20.2143C15.1529 20.2029 15.1701 20.1855 15.1815 20.1646Z" fill="url(#paint11_linear_511_1339)"/>
<path d="M19.9237 15.357L20.4218 14.434C20.4688 14.3472 20.593 14.3475 20.6411 14.4351L21.1479 15.3628C21.1594 15.3838 21.1768 15.4013 21.1976 15.413L22.1188 15.9233C22.2054 15.9715 22.2063 16.0966 22.1198 16.1442L21.2034 16.6459C21.1827 16.6574 21.1655 16.6748 21.1541 16.6956L20.656 17.6186C20.609 17.7054 20.4848 17.7052 20.4367 17.6176L19.9299 16.6898C19.9184 16.6688 19.9009 16.6513 19.8801 16.6397L18.959 16.1293C18.8724 16.0811 18.8715 15.956 18.958 15.9084L19.8744 15.4067C19.8951 15.3952 19.9123 15.3778 19.9237 15.357Z" fill="url(#paint12_linear_511_1339)"/>
<path d="M59.3993 25.4774L60.1838 24.0227C60.2581 23.8858 60.4541 23.8863 60.5295 24.0243L61.3284 25.4865C61.3467 25.5195 61.3741 25.5472 61.4067 25.5655L62.8587 26.37C62.9953 26.4459 62.9964 26.6431 62.8604 26.7182L61.4158 27.5088C61.3833 27.5269 61.3564 27.5543 61.3381 27.5871L60.553 29.0418C60.4793 29.1787 60.2833 29.1782 60.2078 29.0402L59.409 27.578C59.3907 27.5449 59.3633 27.5173 59.3301 27.4989L57.8787 26.6945C57.7421 26.6186 57.7404 26.4214 57.877 26.3464L59.3215 25.5556C59.3541 25.5376 59.381 25.5102 59.3993 25.4774Z" fill="url(#paint13_linear_511_1339)"/>
<path d="M63.5028 20.9019V20.9011L63.9211 20.1265L64.3479 20.9079L64.3485 20.9087C64.3794 20.9652 64.4262 21.012 64.4822 21.0434L64.4828 21.0439L65.2588 21.4738L64.4897 21.8949L64.4891 21.8953C64.4319 21.9266 64.3851 21.9739 64.3542 22.031L64.3537 22.0318L63.9354 22.8065L63.5085 22.0251V22.0242C63.4771 21.9678 63.4308 21.9209 63.3742 21.8895L63.3737 21.8891L62.5977 21.4592L63.3668 21.0381L63.3679 21.0377C63.4245 21.0063 63.4714 20.959 63.5028 20.9019Z" stroke="#BBA179" stroke-width="0.756461"/>
</g>
<defs>
<filter id="filter0_d_511_1339" x="48.3535" y="48.2178" width="18.9219" height="19.1602" filterUnits="userSpaceOnUse" color-interpolation-filters="sRGB">
<feFlood flood-opacity="0" result="BackgroundImageFix"/>
<feColorMatrix in="SourceAlpha" type="matrix" values="0 0 0 0 0 0 0 0 0 0 0 0 0 0 0 0 0 0 127 0" result="hardAlpha"/>
<feOffset dy="1.5"/>
<feGaussianBlur stdDeviation="0.875"/>
<feComposite in2="hardAlpha" operator="out"/>
<feColorMatrix type="matrix" values="0 0 0 0 0 0 0 0 0 0 0 0 0 0 0 0 0 0 0.25 0"/>
<feBlend mode="normal" in2="BackgroundImageFix" result="effect1_dropShadow_511_1339"/>
<feBlend mode="normal" in="SourceGraphic" in2="effect1_dropShadow_511_1339" result="shape"/>
</filter>
<filter id="filter1_dii_511_1339" x="50.9165" y="50.4223" width="11.7237" height="10.9534" filterUnits="userSpaceOnUse" color-interpolation-filters="sRGB">
<feFlood flood-opacity="0" result="BackgroundImageFix"/>
<feColorMatrix in="SourceAlpha" type="matrix" values="0 0 0 0 0 0 0 0 0 0 0 0 0 0 0 0 0 0 127 0" result="hardAlpha"/>
<feOffset dy="0.5"/>
<feGaussianBlur stdDeviation="0.773584"/>
<feComposite in2="hardAlpha" operator="out"/>
<feColorMatrix type="matrix" values="0 0 0 0 0 0 0 0 0 0 0 0 0 0 0 0 0 0 0.25 0"/>
<feBlend mode="normal" in2="BackgroundImageFix" result="effect1_dropShadow_511_1339"/>
<feBlend mode="normal" in="SourceGraphic" in2="effect1_dropShadow_511_1339" result="shape"/>
<feColorMatrix in="SourceAlpha" type="matrix" values="0 0 0 0 0 0 0 0 0 0 0 0 0 0 0 0 0 0 127 0" result="hardAlpha"/>
<feOffset dx="1.65383" dy="-1.65383"/>
<feGaussianBlur stdDeviation="4.9615"/>
<feComposite in2="hardAlpha" operator="arithmetic" k2="-1" k3="1"/>
<feColorMatrix type="matrix" values="0 0 0 0 0.960784 0 0 0 0 0.894118 0 0 0 0 0.788235 0 0 0 1 0"/>
<feBlend mode="color-burn" in2="shape" result="effect2_innerShadow_511_1339"/>
<feColorMatrix in="SourceAlpha" type="matrix" values="0 0 0 0 0 0 0 0 0 0 0 0 0 0 0 0 0 0 127 0" result="hardAlpha"/>
<feOffset dx="-1.65383" dy="1.65383"/>
<feGaussianBlur stdDeviation="4.13458"/>
<feComposite in2="hardAlpha" operator="arithmetic" k2="-1" k3="1"/>
<feColorMatrix type="matrix" values="0 0 0 0 1 0 0 0 0 1 0 0 0 0 1 0 0 0 0.3 0"/>
<feBlend mode="normal" in2="effect2_innerShadow_511_1339" result="effect3_innerShadow_511_1339"/>
</filter>
<linearGradient id="paint0_linear_511_1339" x1="33.113" y1="37.661" x2="46.0153" y2="60.8654" gradientUnits="userSpaceOnUse">
<stop stop-color="#F4EC9D"/>
<stop offset="1" stop-color="#E8A546"/>
</linearGradient>
<linearGradient id="paint1_linear_511_1339" x1="37.9131" y1="24.3611" x2="39.1225" y2="28.8306" gradientUnits="userSpaceOnUse">
<stop stop-color="#F4EC9D"/>
<stop offset="1" stop-color="#E8A546"/>
</linearGradient>
<linearGradient id="paint2_linear_511_1339" x1="39.7279" y1="44.9287" x2="44.1932" y2="46.5198" gradientUnits="userSpaceOnUse">
<stop stop-color="#F4EC9D"/>
<stop offset="1" stop-color="#E8A546"/>
</linearGradient>
<linearGradient id="paint3_linear_511_1339" x1="31.9774" y1="44.9285" x2="38.1214" y2="48.5136" gradientUnits="userSpaceOnUse">
<stop stop-color="#F4EC9D"/>
<stop offset="1" stop-color="#E8A546"/>
</linearGradient>
<linearGradient id="paint4_linear_511_1339" x1="48.0833" y1="44.9304" x2="52.5462" y2="46.5237" gradientUnits="userSpaceOnUse">
<stop stop-color="#F4EC9D"/>
<stop offset="1" stop-color="#E8A546"/>
</linearGradient>
<linearGradient id="paint5_linear_511_1339" x1="32.0525" y1="36.286" x2="32.6973" y2="42.6157" gradientUnits="userSpaceOnUse">
<stop stop-color="#F4EC9D"/>
<stop offset="1" stop-color="#E8A546"/>
</linearGradient>
<linearGradient id="paint6_linear_511_1339" x1="60.5733" y1="56.4838" x2="58.3345" y2="64.7798" gradientUnits="userSpaceOnUse">
<stop stop-color="#EAAE51"/>
<stop offset="1" stop-color="#F3E392"/>
</linearGradient>
<linearGradient id="paint7_linear_511_1339" x1="61.9119" y1="51.7763" x2="69.1373" y2="53.9646" gradientUnits="userSpaceOnUse">
<stop stop-color="#F4EC9D"/>
<stop offset="1" stop-color="#E8A546"/>
</linearGradient>
<linearGradient id="paint8_linear_511_1339" x1="64.2559" y1="52.6248" x2="66.8737" y2="59.0413" gradientUnits="userSpaceOnUse">
<stop stop-color="#E8A546"/>
<stop offset="1" stop-color="#F4EC9D"/>
</linearGradient>
<linearGradient id="paint9_linear_511_1339" x1="56.4277" y1="46.6796" x2="64.0252" y2="57.481" gradientUnits="userSpaceOnUse">
<stop stop-color="#F4EC9D"/>
<stop offset="1" stop-color="#E8A546"/>
</linearGradient>
<linearGradient id="paint10_linear_511_1339" x1="18.3892" y1="24.9126" x2="21.7697" y2="28.269" gradientUnits="userSpaceOnUse">
<stop stop-color="#EDE8BC"/>
<stop offset="1" stop-color="#EAB569"/>
</linearGradient>
<linearGradient id="paint11_linear_511_1339" x1="14.944" y1="19.9751" x2="16.6616" y2="21.6805" gradientUnits="userSpaceOnUse">
<stop stop-color="#EDE8BC"/>
<stop offset="1" stop-color="#EAB569"/>
</linearGradient>
<linearGradient id="paint12_linear_511_1339" x1="19.6862" y1="15.1675" x2="21.4038" y2="16.8728" gradientUnits="userSpaceOnUse">
<stop stop-color="#EDE8BC"/>
<stop offset="1" stop-color="#EAB569"/>
</linearGradient>
<linearGradient id="paint13_linear_511_1339" x1="59.025" y1="25.1787" x2="61.7317" y2="27.8664" gradientUnits="userSpaceOnUse">
<stop stop-color="#EDE8BC"/>
<stop offset="1" stop-color="#EAB569"/>
</linearGradient>
<clipPath id="clip0_511_1339">
<rect width="80" height="80" fill="white"/>
</clipPath>
</defs>
</svg>
