<svg width="147" height="109" viewBox="0 0 147 109" fill="none" xmlns="http://www.w3.org/2000/svg">
<path fill-rule="evenodd" clip-rule="evenodd" d="M99.6204 10.0373C99.702 10.0373 99.7603 9.97908 99.7603 9.89756C99.7603 9.82186 99.702 9.75781 99.6204 9.75781C99.5446 9.75781 99.4804 9.81604 99.4804 9.89756C99.4804 9.97908 99.5446 10.0373 99.6204 10.0373ZM98.8566 10.1421C98.8566 10.311 98.7167 10.4566 98.5418 10.4566C98.3669 10.4566 98.227 10.3168 98.227 10.1421C98.227 9.96744 98.3669 9.82769 98.5418 9.82769C98.7167 9.82769 98.8566 9.96744 98.8566 10.1421ZM97.0493 10.4158C97.0493 10.6836 96.8394 10.8933 96.5712 10.8933C96.303 10.8933 96.0931 10.6836 96.0931 10.4158C96.0931 10.1479 96.303 9.93832 96.5712 9.93832C96.8336 9.9325 97.0493 10.1479 97.0493 10.4158ZM91.5573 11.9239C91.8663 11.9239 92.1111 11.6794 92.1111 11.3707C92.1111 11.0621 91.8663 10.8118 91.5573 10.8118C91.2483 10.8118 90.9976 11.0621 90.9976 11.3707C90.9976 11.6794 91.2483 11.9239 91.5573 11.9239ZM89.1553 12.3665C89.1553 12.6984 88.8812 12.972 88.5489 12.972C88.2166 12.972 87.9426 12.6984 87.9426 12.3665C87.9426 12.0346 88.2166 11.7609 88.5489 11.7609C88.8812 11.7609 89.1553 12.0346 89.1553 12.3665ZM86.0536 13.3796C86.0536 13.7523 85.7505 14.0551 85.3773 14.0551C85.2899 14.0551 85.2083 14.0376 85.1325 14.0143C85.2957 14.3055 85.2491 14.6665 84.9867 14.8878C84.8001 15.045 84.5378 15.0857 84.3104 15.0042C84.0306 14.8994 83.8615 14.649 83.8673 14.3462C83.8673 14.2764 83.809 14.2181 83.7391 14.2239C83.7041 14.2239 83.6749 14.2239 83.6458 14.2298C83.5175 14.2414 83.4242 14.3404 83.4126 14.4627C83.4009 14.5791 83.4825 14.684 83.5991 14.6956C83.774 14.7072 83.9315 14.7829 84.0597 14.9285C84.1763 15.0683 84.2288 15.2255 84.2171 15.406C84.1938 15.7787 83.8848 16.0523 83.4942 16.0349C83.156 16.0174 82.9287 15.7787 82.882 15.406C82.8704 15.2895 82.7712 15.2138 82.6605 15.2255C82.5322 15.2371 82.4273 15.3419 82.4098 15.47C82.3981 15.5865 82.4739 15.6855 82.5905 15.6913C82.7654 15.703 82.9287 15.767 83.0628 15.9184C83.1794 16.0523 83.2318 16.2037 83.226 16.3784C83.2143 16.7336 82.9287 17.0189 82.5789 17.0306C82.3515 17.0364 82.1649 16.949 82.025 16.7744C81.9201 16.6463 81.8792 16.5007 81.8792 16.3435C81.8792 16.2619 81.8093 16.2037 81.7277 16.2095C81.5702 16.227 81.4478 16.3493 81.4303 16.5065C81.4187 16.5939 81.4828 16.6637 81.5644 16.6695C81.8443 16.6812 82.06 16.8093 82.1882 17.0946C82.3107 17.3683 82.2582 17.6245 82.0541 17.8341C81.7801 18.1136 81.4653 18.1078 81.1155 17.9156C81.3021 18.2359 81.3254 18.5387 81.1038 18.8124C80.8765 19.0977 80.5675 19.1384 80.2235 19.0045C80.4858 19.744 79.9145 20.2273 79.3081 20.0817C79.3664 20.3263 79.3606 20.5592 79.2207 20.8038C79.244 20.798 79.2673 20.7921 79.2848 20.7863C79.3198 20.7747 79.349 20.7688 79.3839 20.763C79.6696 20.6873 79.9728 20.8096 80.1127 21.0775C80.2176 21.2696 80.2118 21.5142 80.0952 21.6947C79.9378 21.9567 79.6288 22.0615 79.3431 21.9683C79.0866 21.881 78.9059 21.6364 78.9175 21.3686C78.9175 21.3045 78.935 21.2347 78.9467 21.1706C78.9525 21.1415 78.9583 21.1124 78.9642 21.0833L78.422 21.1939L78.387 21.7005C78.7543 21.6597 79.0516 21.7704 79.1915 22.1489C79.2907 22.4109 79.2265 22.6554 79.0283 22.8592C78.7951 23.0922 78.5094 23.1096 78.1888 22.9699C78.3287 23.2727 78.3462 23.5522 78.1596 23.8084C77.9672 24.0762 77.699 24.1519 77.3609 24.1053C77.3959 24.3208 77.4075 24.5304 77.3201 24.7342C77.6932 24.6643 77.9964 24.7517 78.1596 25.101C78.2762 25.3573 78.2354 25.6018 78.0488 25.8173C77.8156 26.0735 77.5358 26.1026 77.2093 25.9628C77.2093 25.9745 77.2151 25.9919 77.2151 26.0036C77.2151 26.0269 77.221 26.0443 77.2326 26.056C77.4775 26.5859 77.0461 27.1856 76.4514 27.1158C76.4455 27.1158 76.4397 27.1158 76.4281 27.1158C76.4281 27.1158 76.4164 27.1158 76.4047 27.1158V27.6689C76.6671 27.6456 76.9178 27.7039 77.0985 27.9368C77.2268 28.0998 77.2676 28.2803 77.2384 28.4841C77.186 28.8917 76.8012 29.1246 76.3115 29.0489C76.3814 29.2702 76.3989 29.4973 76.2881 29.7244C76.6496 29.6487 76.9411 29.7186 77.1218 30.0214C77.2618 30.2485 77.2501 30.5396 77.0985 30.7609C76.9003 31.0404 76.6204 31.0928 76.2765 31.0112C76.3639 31.2616 76.3814 31.4887 76.2648 31.7449C76.5505 31.6751 76.7953 31.6925 77.0111 31.8905C77.151 32.0244 77.221 32.1933 77.2151 32.3796C77.2151 32.6125 77.1044 32.8105 76.9061 32.9444C76.7137 33.0725 76.498 33.0725 76.2706 33.0085C76.3698 33.2414 76.3756 33.4685 76.2823 33.7072C76.3056 33.7072 76.3231 33.7072 76.3406 33.7072C76.3756 33.7072 76.4047 33.7072 76.4397 33.6956C76.7254 33.6607 76.9528 33.7538 77.1102 33.9984C77.2559 34.2196 77.2618 34.5108 77.1218 34.7379C76.9703 34.9824 76.7429 35.0814 76.4572 35.0581C76.4339 35.0581 76.4106 35.0581 76.3814 35.0465C76.3639 35.0465 76.3523 35.0465 76.3289 35.0407C76.3872 35.2503 76.4164 35.4541 76.3289 35.6695C76.6321 35.623 76.8886 35.6695 77.081 35.9025C77.1976 36.0364 77.2559 36.2052 77.2559 36.3857C77.2559 36.8108 76.9411 37.0728 76.4222 37.1078V37.5678L76.9761 37.6959C76.8886 37.5096 76.8653 37.3116 76.9644 37.1078C77.0227 36.9797 77.1218 36.8749 77.2501 36.8166C77.5941 36.642 78.043 36.805 78.1596 37.2359C78.2062 37.4106 78.1713 37.5853 78.0722 37.7367C77.8973 38.0045 77.6232 38.0744 77.1918 37.9463C77.3317 38.2025 77.3609 38.447 77.2384 38.7265C77.5474 38.6508 77.8156 38.6858 78.0255 38.907C78.1538 39.041 78.2179 39.2098 78.2121 39.3903C78.2121 39.8154 77.9031 40.0658 77.3725 40.0833L77.4017 40.5549L77.9381 40.6772C77.8331 40.2521 77.9206 39.9843 78.2121 39.8271C78.3928 39.7281 78.6027 39.7164 78.7893 39.8096C79.1391 39.9843 79.244 40.3977 79.0633 40.7063C78.8942 40.9916 78.626 41.0673 78.1946 40.9567C78.3112 41.2013 78.3462 41.4342 78.2471 41.702C78.591 41.6263 78.8884 41.6787 79.0924 41.964C79.2907 42.2435 79.2732 42.5347 79.0924 42.8433C79.4306 42.6628 79.7337 42.6628 80.0019 42.9132C80.2002 43.1053 80.2585 43.4081 80.1419 43.6585C79.9844 43.9904 79.7046 44.101 79.3548 44.0545L79.4014 44.5494L79.9203 44.6426C79.8562 44.398 79.8678 44.1593 80.0544 43.9555C80.1768 43.8215 80.3343 43.7575 80.515 43.7575C80.8881 43.7575 81.1855 44.0661 81.1621 44.4329C81.1446 44.6484 81.0397 44.8231 80.8531 44.9395C80.7016 45.0385 80.6024 45.0443 80.2351 44.9978C80.3576 45.1957 80.3459 45.4054 80.3226 45.6325C80.5966 45.5917 80.8356 45.6325 81.0455 45.8071L81.1621 45.9469C81.3137 46.1914 81.3312 46.3195 81.2729 46.6689C81.5761 46.6107 81.8501 46.6398 82.0716 46.8669C82.2932 47.094 82.3282 47.3735 82.2349 47.6937C82.5497 47.618 82.8354 47.6413 83.0569 47.8684C83.2901 48.1013 83.3251 48.3808 83.2143 48.7011C83.5292 48.6079 83.8148 48.6312 84.0481 48.8583C84.2696 49.0796 84.3221 49.3533 84.2171 49.6793C84.5261 49.5803 84.806 49.6153 85.0333 49.8249C85.2666 50.0404 85.3249 50.314 85.2491 50.6343C85.5114 50.5761 85.7505 50.5877 85.9895 50.7391C85.8962 50.5295 85.8612 50.3199 85.972 50.1161C86.0303 49.9938 86.1236 49.9006 86.2518 49.8366C86.5842 49.6677 87.0214 49.8366 87.138 50.2442C87.1847 50.413 87.1439 50.5877 87.0447 50.7333C86.8698 50.9953 86.6017 51.0594 86.1702 50.9254C86.2985 51.1292 86.3335 51.3447 86.2985 51.5834C86.5142 51.5427 86.7183 51.5543 86.9281 51.6533C86.8524 51.3796 86.8757 51.1525 87.0447 50.9545C87.1672 50.8148 87.3246 50.7449 87.517 50.7391C87.8959 50.7333 88.1933 51.0361 88.1758 51.4146C88.1583 51.8396 87.8318 52.0551 87.2896 52.0027L87.3771 52.486C87.482 52.4918 87.587 52.5034 87.7036 52.5151L87.8435 52.5267C87.8202 52.2589 87.8785 52.0201 88.1058 51.8396C88.2632 51.7173 88.4381 51.6708 88.6364 51.6999C89.1028 51.7814 89.2835 52.154 89.1436 52.7305C89.8665 52.4219 90.3738 53.0042 90.2513 53.5748L90.5545 53.5457C90.5836 53.6214 90.6128 53.7029 90.6478 53.7786C90.7119 53.9475 90.776 54.1105 90.8343 54.2736C91.1317 55.0946 91.3882 55.9389 91.5864 56.789C91.7322 57.4179 91.8488 58.0468 91.9187 58.6815C91.9771 59.223 92.0237 59.7703 92.0179 60.3177C92.012 61.3775 91.8721 62.4139 91.5106 63.4155C91.19 64.3064 90.7236 65.1041 90.0706 65.7854C89.3477 66.5423 88.4906 67.0839 87.5287 67.4798C86.6425 67.835 85.7155 68.0505 84.771 68.1611C83.9664 68.2659 83.156 68.295 82.3398 68.2776C81.8559 68.2659 81.3778 68.2368 80.8939 68.2019C80.3751 68.1669 79.8503 68.1262 79.3373 68.0621C78.7426 67.9981 78.1479 67.9107 77.5591 67.8175C76.5971 67.672 75.6468 67.4856 74.7023 67.2644C73.7112 67.0373 72.7201 66.7753 71.7406 66.4841C70.1723 66.0183 68.6273 65.4651 67.1173 64.8421C66.2778 64.4985 65.4382 64.1317 64.6162 63.7474C63.7825 63.3631 62.9488 62.9555 62.1325 62.542C61.6137 62.2742 61.0948 62.0063 60.5817 61.7327C60.3135 61.5871 60.0453 61.4473 59.7772 61.3018C59.5498 61.1795 59.3166 61.0688 59.0892 60.9466C58.9726 60.8883 58.856 60.8243 58.7452 60.7719C58.7277 60.7602 58.7044 60.7486 58.6811 60.7369C58.6694 60.7311 58.6519 60.7195 58.6403 60.7137C58.7044 60.7137 58.7744 60.7137 58.8385 60.7137C58.9784 60.7137 59.1067 60.7137 59.2408 60.7137C59.3516 60.7137 59.4623 60.7195 59.5731 60.7253C59.7247 60.7311 59.8704 60.7369 60.022 60.7428C60.0803 60.7428 60.1503 60.7428 60.2086 60.7428C60.6983 60.7428 61.1939 60.7486 61.6836 60.7428C62.2433 60.7311 62.803 60.702 63.3627 60.6554C63.8991 60.6147 64.4471 60.5564 64.9835 60.4866C65.6948 60.3876 66.3944 60.242 67.0648 59.9916C67.4555 59.846 67.8286 59.6655 68.1492 59.386C68.5107 59.0774 68.7206 58.6931 68.674 58.2098C68.6448 57.843 68.5515 57.4761 68.4291 57.1268C68.1959 56.4164 67.8519 55.7526 67.4613 55.1237C66.9541 54.3085 66.3652 53.5515 65.7181 52.8353C65.2633 52.3287 64.7853 51.8396 64.2839 51.3738C63.1003 50.2791 61.8294 49.295 60.5001 48.3867C59.235 47.5191 57.9232 46.7271 56.5706 46.0051C55.7485 45.5626 54.9032 45.1375 54.0636 44.7299C52.746 44.0894 51.3934 43.5071 50.0233 42.9598C48.7232 42.4415 47.4056 41.9466 46.0763 41.4982C45.6857 41.3643 45.3009 41.2362 44.9103 41.1081C44.7062 41.044 44.4964 40.9683 44.2923 40.9043C44.2457 40.8868 44.199 40.8694 44.1582 40.8286C44.2107 40.8228 44.269 40.8169 44.3215 40.8111C44.4439 40.7937 44.5663 40.782 44.6829 40.7762C44.7762 40.7762 44.8637 40.7645 44.9569 40.7587C45.4059 40.7296 45.8548 40.7063 46.2979 40.6947C46.9625 40.6772 47.6271 40.6656 48.2976 40.683C49.6677 40.718 51.0319 40.8286 52.3904 41.0033C54.1278 41.2362 55.836 41.5797 57.5267 42.0397C59.2058 42.4998 60.8382 43.082 62.424 43.7866C63.8699 44.4271 65.2633 45.1783 66.6043 46.0284C67.8169 46.8028 68.9771 47.6472 70.0674 48.5846C70.3822 48.8583 70.6854 49.1378 70.9885 49.4173C71.1284 49.5454 71.2684 49.6793 71.4083 49.8074C71.4608 49.854 71.5132 49.9064 71.5715 49.9588C71.6065 49.9879 71.6415 50.0171 71.6823 50.0578C71.6765 50.0345 71.6648 50.0112 71.659 49.9938C71.6473 49.9588 71.6415 49.9355 71.6298 49.9064C71.0002 48.5264 70.4871 47.1056 70.0207 45.6674C69.5951 44.3572 69.2395 43.018 68.9538 41.6729C68.7964 40.9159 68.6565 40.1473 68.5399 39.3845C68.4349 38.7324 68.3708 38.0686 68.3067 37.4048C68.26 36.9215 68.2367 36.4382 68.2017 35.949C68.1842 35.5589 68.1726 35.1629 68.1667 34.7728C68.1551 33.9052 68.1901 33.0434 68.2717 32.1875C68.3883 30.9588 68.5923 29.7477 68.9072 28.5598C69.1812 27.5175 69.5427 26.5044 69.9916 25.5261C70.6737 24.0355 71.5482 22.6787 72.6151 21.4326C73.0349 20.9494 73.4722 20.4893 73.9386 20.0468C74.7723 19.2607 75.6526 18.5154 76.5738 17.8341C77.221 17.3508 77.8798 16.8792 78.5561 16.425C79.6346 15.6913 80.7599 15.0217 81.9259 14.4277C82.4681 14.1482 83.0219 13.892 83.57 13.6242C83.8032 13.5077 84.0422 13.4029 84.2696 13.2865C84.2929 13.2748 84.3162 13.269 84.3396 13.2574C84.3512 13.2574 84.3629 13.2515 84.3804 13.2457C84.4153 13.3389 84.427 13.4786 84.4328 13.5776C84.4387 13.6533 84.4445 13.7174 84.4562 13.7174C84.5728 13.7057 84.6719 13.7174 84.771 13.7581C84.7127 13.6533 84.666 13.5368 84.666 13.4029C84.666 13.0303 84.9692 12.7275 85.3423 12.7275C85.7155 12.7275 86.0186 13.0303 86.0186 13.4029L86.0536 13.3796ZM78.1596 27.372C78.1596 27.7097 77.8798 27.9892 77.5416 27.9892C77.2035 27.9892 76.9236 27.7097 76.9236 27.372C76.9236 27.0342 77.2035 26.7547 77.5416 26.7547C77.8798 26.7547 78.1596 27.0284 78.1596 27.372ZM81.5294 45.9876C81.8676 45.9876 82.1416 45.714 82.1416 45.3762C82.1416 45.0385 81.8676 44.7648 81.5294 44.7648C81.1913 44.7648 80.9173 45.0385 80.9173 45.3762C80.9173 45.714 81.1913 45.9876 81.5294 45.9876ZM78.5386 24.9729C78.8709 24.9729 79.1391 24.7051 79.1391 24.3732C79.1391 24.0413 78.8709 23.7734 78.5386 23.7734C78.2062 23.7734 77.9381 24.0413 77.9381 24.3732C77.9381 24.7051 78.2062 24.9729 78.5386 24.9729ZM86.1352 49.3765C86.1352 49.7085 85.8671 49.9763 85.5347 49.9763C85.2024 49.9763 84.9342 49.7085 84.9342 49.3765C84.9342 49.0446 85.2024 48.7768 85.5347 48.7768C85.8729 48.7768 86.1352 49.0446 86.1352 49.3765ZM82.5322 46.9717C82.8587 46.9717 83.1269 46.7039 83.1269 46.3778C83.1269 46.0517 82.8587 45.7838 82.5322 45.7838C82.2057 45.7838 81.9375 46.0517 81.9375 46.3778C81.9375 46.7039 82.2057 46.9717 82.5322 46.9717ZM78.1363 35.3784C78.1363 35.7045 77.8681 35.9723 77.5416 35.9723C77.2151 35.9723 76.9469 35.7045 76.9469 35.3784C76.9469 35.0523 77.2151 34.7845 77.5416 34.7845C77.8681 34.7845 78.1363 35.0523 78.1363 35.3784ZM80.55 20.9726C80.8765 20.9726 81.1446 20.7048 81.1446 20.3787C81.1446 20.0526 80.8765 19.7848 80.55 19.7848C80.2235 19.7848 79.9553 20.0526 79.9553 20.3787C79.9553 20.7048 80.2235 20.9726 80.55 20.9726ZM84.118 47.3793C84.118 47.7054 83.8498 47.9674 83.5292 47.9674C83.2085 47.9674 82.9403 47.6996 82.9403 47.3793C82.9403 47.0591 83.2085 46.7912 83.5292 46.7912C83.8498 46.7912 84.118 47.0532 84.118 47.3793ZM84.532 48.9631C84.8584 48.9631 85.1208 48.7011 85.1208 48.375C85.1208 48.0489 84.8584 47.7869 84.532 47.7869C84.2055 47.7869 83.9431 48.0548 83.9431 48.375C83.9431 48.7011 84.2055 48.9631 84.532 48.9631ZM78.1246 29.3809C78.1246 29.7011 77.8623 29.9631 77.5416 29.9631C77.221 29.9631 76.9586 29.7011 76.9586 29.3809C76.9586 29.0606 77.221 28.7986 77.5416 28.7986C77.8623 28.7986 78.1246 29.0548 78.1246 29.3809ZM79.5239 41.9582C79.8445 41.9582 80.101 41.6962 80.101 41.3818C80.101 41.0673 79.8387 40.8053 79.5239 40.8053C79.209 40.8053 78.9467 41.0673 78.9467 41.3818C78.9467 41.6962 79.209 41.9582 79.5239 41.9582ZM78.113 33.3812C78.113 33.6956 77.8564 33.9518 77.5416 33.9518C77.2268 33.9518 76.9703 33.6956 76.9703 33.3812C76.9703 33.0667 77.2268 32.8105 77.5416 32.8105C77.8564 32.8105 78.113 33.0667 78.113 33.3812ZM87.552 13.9503C87.8668 13.9503 88.1233 13.6941 88.1233 13.3796C88.1233 13.0652 87.8668 12.809 87.552 12.809C87.2371 12.809 86.9806 13.0652 86.9806 13.3796C86.9806 13.6941 87.2371 13.9503 87.552 13.9503ZM78.1071 31.3781C78.1071 31.6925 77.8506 31.9487 77.5358 31.9487C77.221 31.9487 76.9644 31.6925 76.9644 31.3781C76.9644 31.0637 77.221 30.8074 77.5358 30.8074C77.8506 30.8133 78.1071 31.0637 78.1071 31.3781ZM78.5444 38.942C78.8534 38.942 79.1099 38.6858 79.1099 38.3772C79.1099 38.0686 78.8534 37.8123 78.5444 37.8123C78.2354 37.8123 77.9789 38.0686 77.9789 38.3772C77.9789 38.6858 78.2354 38.942 78.5444 38.942ZM82.1124 19.3772C82.1124 19.6858 81.8617 19.942 81.5469 19.942C81.2321 19.942 80.9814 19.6916 80.9814 19.3772C80.9814 19.0627 81.2321 18.8124 81.5469 18.8124C81.8617 18.8124 82.1124 19.0627 82.1124 19.3772ZM87.103 14.3753C87.103 14.6781 86.8524 14.9169 86.5608 14.9169C86.2635 14.9169 86.0128 14.6723 86.0128 14.3753C86.0128 14.0784 86.2635 13.8338 86.5608 13.8338C86.8582 13.828 87.103 14.0784 87.103 14.3753ZM79.5472 23.9132C79.8445 23.9132 80.0836 23.6686 80.0836 23.3775C80.0836 23.0805 79.8387 22.8418 79.5472 22.8418C79.2498 22.8418 79.0108 23.0863 79.0108 23.3775C79.0108 23.6686 79.2498 23.9132 79.5472 23.9132ZM83.0919 18.3698C83.0919 18.6668 82.847 18.9055 82.5555 18.9055C82.2582 18.9055 82.0192 18.661 82.0192 18.3698C82.0192 18.0729 82.264 17.8341 82.5555 17.8341C82.847 17.8341 83.0919 18.0729 83.0919 18.3698ZM78.5502 26.912C78.8476 26.912 79.0866 26.6674 79.0866 26.3763C79.0866 26.0793 78.8417 25.8406 78.5502 25.8406C78.2529 25.8406 78.0139 26.0851 78.0139 26.3763C78.0139 26.6674 78.2529 26.912 78.5502 26.912ZM81.0747 42.3717C81.0747 42.6686 80.8298 42.9015 80.5441 42.9015C80.2526 42.9015 80.0136 42.657 80.0136 42.3717C80.0136 42.0805 80.2585 41.8418 80.5441 41.8418C80.8356 41.8418 81.0747 42.0863 81.0747 42.3717ZM85.5581 15.9126C85.8554 15.9126 86.0886 15.6797 86.0886 15.3827C86.0886 15.0857 85.8554 14.8528 85.5581 14.8528C85.2607 14.8528 85.0275 15.0857 85.0275 15.3827C85.0217 15.6738 85.2607 15.9126 85.5581 15.9126ZM84.083 17.3799C84.083 17.6711 83.8498 17.904 83.5583 17.904C83.2668 17.904 83.0336 17.6711 83.0336 17.3799C83.0336 17.0888 83.2668 16.8559 83.5583 16.8559C83.8498 16.8559 84.083 17.0888 84.083 17.3799ZM84.5553 16.9083C84.8468 16.9083 85.08 16.6754 85.08 16.3842C85.08 16.0931 84.841 15.8602 84.5553 15.8602C84.2638 15.8602 84.0306 16.0931 84.0306 16.3842C84.0306 16.6754 84.2638 16.9083 84.5553 16.9083ZM79.0633 36.3799C79.0633 36.6652 78.8301 36.8923 78.5502 36.8923C78.2704 36.8923 78.043 36.6594 78.043 36.3799C78.043 36.0946 78.2762 35.8675 78.5502 35.8675C78.8301 35.8675 79.0633 36.0946 79.0633 36.3799ZM90.5487 12.873C90.8343 12.873 91.0617 12.646 91.0617 12.3606C91.0617 12.0753 90.8285 11.8482 90.5487 11.8482C90.263 11.8482 90.0356 12.0753 90.0356 12.3606C90.0356 12.646 90.2688 12.873 90.5487 12.873ZM88.5256 50.8672C88.8054 50.8672 89.0328 50.6459 89.0328 50.3606C89.0328 50.0753 88.8113 49.854 88.5256 49.854C88.2399 49.854 88.0184 50.0753 88.0184 50.3606C88.0184 50.6401 88.2458 50.8672 88.5256 50.8672ZM94.0584 11.3707C94.0584 11.6502 93.8369 11.8715 93.557 11.8715C93.2772 11.8715 93.0556 11.6502 93.0556 11.3707C93.0556 11.0912 93.2772 10.87 93.557 10.87C93.831 10.8642 94.0584 11.0912 94.0584 11.3707ZM86.5667 13.0594C86.829 13.0594 87.0447 12.8498 87.0447 12.5819C87.0447 12.314 86.8349 12.1044 86.5667 12.1044C86.2985 12.1044 86.0886 12.314 86.0886 12.5819C86.0886 12.8498 86.2985 13.0594 86.5667 13.0594ZM80.0252 39.3612C80.0252 39.6407 79.8037 39.862 79.5239 39.862C79.244 39.862 79.0225 39.6407 79.0225 39.3612C79.0225 39.0817 79.244 38.8605 79.5239 38.8605C79.8037 38.8605 80.0252 39.0817 80.0252 39.3612ZM78.5386 28.8626C78.8184 28.8626 79.04 28.6413 79.04 28.3619C79.04 28.0824 78.8184 27.8611 78.5386 27.8611C78.2587 27.8611 78.0372 28.0824 78.0372 28.3619C78.0372 28.6413 78.2587 28.8626 78.5386 28.8626ZM82.0308 43.3674C82.0308 43.6469 81.8093 43.8681 81.5294 43.8681C81.2496 43.8681 81.028 43.6469 81.028 43.3674C81.028 43.0879 81.2496 42.8666 81.5294 42.8666C81.8093 42.8666 82.0308 43.0879 82.0308 43.3674ZM80.5441 22.8592C80.8181 22.8592 81.0397 22.638 81.0397 22.3643C81.0397 22.0906 80.8181 21.8694 80.5441 21.8694C80.2701 21.8694 80.0486 22.0906 80.0486 22.3643C80.0427 22.6322 80.2701 22.8592 80.5441 22.8592ZM79.0283 34.3652C79.0283 34.6331 78.8126 34.8485 78.5444 34.8485C78.2762 34.8485 78.0605 34.6331 78.0605 34.3652C78.0605 34.0974 78.2762 33.8819 78.5444 33.8819C78.8126 33.8819 79.0283 34.1032 79.0283 34.3652ZM87.5345 49.8424C87.7968 49.8424 88.0126 49.6328 88.0126 49.3649C88.0126 49.0971 87.8027 48.8874 87.5345 48.8874C87.2663 48.8874 87.0564 49.0971 87.0564 49.3649C87.0564 49.6328 87.2663 49.8424 87.5345 49.8424ZM79.0166 30.3707C79.0166 30.6328 78.8068 30.8424 78.5444 30.8424C78.282 30.8424 78.0722 30.6328 78.0722 30.3707C78.0722 30.1087 78.282 29.8991 78.5444 29.8991C78.8068 29.8991 79.0166 30.1087 79.0166 30.3707ZM89.5517 13.8396C89.8141 13.8396 90.024 13.63 90.024 13.368C90.024 13.106 89.8141 12.8963 89.5517 12.8963C89.2894 12.8963 89.0795 13.106 89.0795 13.368C89.0795 13.63 89.2894 13.8396 89.5517 13.8396ZM82.9986 44.3689C82.9986 44.6309 82.7887 44.8405 82.5264 44.8405C82.264 44.8405 82.0541 44.6309 82.0541 44.3689C82.0541 44.1069 82.264 43.8972 82.5264 43.8972C82.7887 43.8972 82.9986 44.1127 82.9986 44.3689ZM79.5355 25.8406C79.7979 25.8406 80.0078 25.6309 80.0078 25.3689C80.0078 25.1069 79.7979 24.8972 79.5355 24.8972C79.2732 24.8972 79.0633 25.1069 79.0633 25.3689C79.0633 25.6309 79.279 25.8406 79.5355 25.8406ZM79.005 32.3738C79.005 32.6358 78.7951 32.8455 78.5327 32.8455C78.2704 32.8455 78.0605 32.6358 78.0605 32.3738C78.0605 32.1118 78.2704 31.9021 78.5327 31.9021C78.7951 31.9021 79.005 32.1118 79.005 32.3738ZM86.5317 48.835C86.7882 48.835 86.9923 48.6312 86.9923 48.375C86.9923 48.1188 86.7882 47.915 86.5317 47.915C86.2752 47.915 86.0711 48.1188 86.0711 48.375C86.0711 48.6254 86.2752 48.835 86.5317 48.835ZM83.9839 45.3762C83.9839 45.6325 83.7799 45.8304 83.5292 45.8304C83.2843 45.8304 83.0744 45.6266 83.0744 45.3762C83.0744 45.1317 83.2785 44.9221 83.5292 44.9221C83.774 44.9221 83.9839 45.1259 83.9839 45.3762ZM81.5411 21.8286C81.7976 21.8286 81.9958 21.6248 81.9958 21.3744C81.9958 21.124 81.7918 20.9202 81.5411 20.9202C81.2904 20.9202 81.0863 21.124 81.0863 21.3744C81.0863 21.6248 81.2904 21.8286 81.5411 21.8286ZM89.9656 11.5978C89.9656 11.8191 89.7849 11.9996 89.5634 11.9996C89.3476 11.9996 89.1611 11.8191 89.1611 11.5978C89.1611 11.3824 89.3418 11.1961 89.5634 11.1961C89.7791 11.1961 89.9656 11.3824 89.9656 11.5978ZM84.5261 46.8203C84.7768 46.8203 84.975 46.6223 84.975 46.372C84.975 46.1216 84.7768 45.9236 84.5261 45.9236C84.2754 45.9236 84.0772 46.1216 84.0772 46.372C84.0772 46.6223 84.2754 46.8203 84.5261 46.8203ZM85.972 47.3677C85.972 47.6122 85.7738 47.816 85.5231 47.816C85.2724 47.816 85.0742 47.618 85.0742 47.3677C85.0742 47.1173 85.2724 46.9193 85.5231 46.9193C85.7738 46.9193 85.972 47.1231 85.972 47.3677ZM80.515 40.8169C80.7657 40.8169 80.9639 40.619 80.9639 40.3686C80.9639 40.1182 80.7657 39.9202 80.515 39.9202C80.2643 39.9202 80.0661 40.1182 80.0661 40.3686C80.0661 40.619 80.2701 40.8169 80.515 40.8169ZM94.9388 10.5323C94.9388 10.7419 94.7697 10.9107 94.5598 10.9107C94.3499 10.9107 94.1808 10.7419 94.1808 10.5323C94.1808 10.3226 94.3499 10.1538 94.5598 10.1538C94.7697 10.1538 94.9388 10.3226 94.9388 10.5323ZM79.5414 37.8065C79.7862 37.8065 79.9844 37.6086 79.9844 37.364C79.9844 37.1194 79.7862 36.9215 79.5414 36.9215C79.2965 36.9215 79.0983 37.1194 79.0983 37.364C79.0983 37.6086 79.3023 37.8065 79.5414 37.8065ZM88.992 14.3695C88.992 14.6141 88.7938 14.8121 88.5489 14.8121C88.3041 14.8121 88.1058 14.6141 88.1058 14.3695C88.1058 14.125 88.3041 13.927 88.5489 13.927C88.7938 13.927 88.992 14.125 88.992 14.3695ZM82.5439 20.798C82.7771 20.798 82.9695 20.6058 82.9695 20.3729C82.9695 20.1458 82.7771 19.9478 82.5439 19.9478C82.3107 19.9478 82.1183 20.14 82.1183 20.3729C82.1241 20.6058 82.3165 20.798 82.5439 20.798ZM79.967 27.372C79.967 27.6049 79.7804 27.797 79.5414 27.797C79.3081 27.797 79.1157 27.6107 79.1157 27.372C79.1157 27.1332 79.3023 26.9469 79.5414 26.9469C79.7804 26.9469 79.967 27.1332 79.967 27.372ZM89.4001 51.8105C89.6275 51.8105 89.8199 51.6242 89.8199 51.3913C89.8199 51.1583 89.6333 50.972 89.4001 50.972C89.1669 50.972 88.9804 51.1583 88.9804 51.3913C88.9804 51.6183 89.1727 51.8105 89.4001 51.8105ZM80.9639 24.3732C80.9639 24.6061 80.7773 24.7924 80.5441 24.7924C80.3109 24.7924 80.1244 24.6061 80.1244 24.3732C80.1244 24.1461 80.3109 23.9539 80.5441 23.9539C80.7773 23.9539 80.9639 24.1403 80.9639 24.3732ZM83.5525 19.7731C83.774 19.7731 83.9606 19.5926 83.9606 19.3655C83.9606 19.1384 83.7799 18.9579 83.5525 18.9579C83.3309 18.9579 83.1444 19.1384 83.1444 19.3655C83.1444 19.5926 83.3251 19.7731 83.5525 19.7731ZM81.9375 41.3701C81.9375 41.5914 81.7568 41.7777 81.5294 41.7777C81.3079 41.7777 81.1213 41.5972 81.1213 41.3701C81.1213 41.1488 81.3021 40.9625 81.5294 40.9625C81.7568 40.9625 81.9375 41.1488 81.9375 41.3701ZM79.5472 35.7685C79.7687 35.7685 79.9495 35.588 79.9495 35.3668C79.9495 35.1455 79.7687 34.965 79.5472 34.965C79.3315 34.965 79.1449 35.1455 79.1449 35.3668C79.1449 35.588 79.3315 35.7685 79.5472 35.7685ZM79.9436 29.3692C79.9436 29.5846 79.7687 29.7593 79.553 29.7593C79.3373 29.7593 79.1624 29.5846 79.1624 29.3692C79.1624 29.1538 79.3373 28.9791 79.553 28.9791C79.7687 28.9791 79.9436 29.1538 79.9436 29.3692ZM80.5558 38.7498C80.7657 38.7498 80.9348 38.581 80.9348 38.3713C80.9348 38.1617 80.7657 37.9929 80.5558 37.9929C80.3459 37.9929 80.1768 38.1617 80.1768 38.3713C80.171 38.581 80.3401 38.7498 80.5558 38.7498ZM79.9378 33.3695C79.9378 33.5791 79.7687 33.748 79.5588 33.748C79.349 33.748 79.1799 33.5791 79.1799 33.3695C79.1799 33.1599 79.349 32.991 79.5588 32.991C79.7687 32.991 79.9378 33.1599 79.9378 33.3695ZM84.5553 18.7716C84.7768 18.7716 84.9517 18.5911 84.9517 18.3698C84.9517 18.1544 84.771 17.968 84.5553 17.968C84.3396 17.968 84.153 18.1486 84.153 18.3698C84.1588 18.5911 84.3396 18.7716 84.5553 18.7716ZM79.9378 31.3664C79.9378 31.5702 79.7687 31.7391 79.5647 31.7391C79.3606 31.7391 79.1915 31.5702 79.1915 31.3664C79.1915 31.1626 79.3606 30.9938 79.5647 30.9938C79.7687 30.9938 79.9378 31.1626 79.9378 31.3664ZM82.5439 42.7385C82.7479 42.7385 82.9112 42.5755 82.9112 42.3717C82.9112 42.1679 82.7479 42.0048 82.5439 42.0048C82.3398 42.0048 82.1766 42.1679 82.1766 42.3717C82.1766 42.5755 82.3398 42.7385 82.5439 42.7385ZM92.9215 12.2791C92.9215 12.4829 92.7525 12.6518 92.5484 12.6518C92.3443 12.6518 92.1753 12.4829 92.1753 12.2791C92.1753 12.0753 92.3443 11.9064 92.5484 11.9064C92.7466 11.9064 92.9215 12.0753 92.9215 12.2791ZM81.5353 23.7327C81.7393 23.7327 81.9026 23.5696 81.9026 23.3658C81.9026 23.162 81.7393 22.999 81.5353 22.999C81.3312 22.999 81.168 23.162 81.168 23.3658C81.168 23.5638 81.3312 23.7327 81.5353 23.7327ZM87.9309 15.3303C87.9309 15.5457 87.756 15.7262 87.5345 15.7262C87.3129 15.7262 87.1322 15.5516 87.1322 15.3303C87.1322 15.109 87.3071 14.9285 87.5345 14.9285C87.756 14.9285 87.9309 15.1032 87.9309 15.3303ZM80.5383 26.7256C80.7365 26.7256 80.8939 26.5626 80.8939 26.3704C80.8939 26.1783 80.7307 26.0152 80.5383 26.0152C80.3459 26.0152 80.1827 26.1783 80.1827 26.3704C80.1768 26.5626 80.3401 26.7256 80.5383 26.7256ZM83.5233 43.7051C83.7099 43.7051 83.8673 43.5537 83.8673 43.3615C83.8673 43.1694 83.7157 43.018 83.5233 43.018C83.3309 43.018 83.1794 43.1694 83.1794 43.3615C83.1794 43.5537 83.3251 43.7051 83.5233 43.7051ZM82.8704 22.3643C82.8704 22.5506 82.7188 22.702 82.5322 22.702C82.3456 22.702 82.1941 22.5506 82.1941 22.3643C82.1941 22.178 82.3456 22.0266 82.5322 22.0266C82.7246 22.0266 82.8704 22.178 82.8704 22.3643ZM80.5383 36.6944C80.719 36.6944 80.8706 36.543 80.8706 36.3625C80.8706 36.1819 80.719 36.0306 80.5383 36.0306C80.3576 36.0306 80.206 36.1819 80.206 36.3625C80.2002 36.543 80.3517 36.6944 80.5383 36.6944ZM81.8617 39.3612C81.8617 39.5417 81.7102 39.6931 81.5294 39.6931C81.3487 39.6931 81.1971 39.5417 81.1971 39.3612C81.1971 39.1807 81.3487 39.0293 81.5294 39.0293C81.7102 39.0293 81.8617 39.1807 81.8617 39.3612ZM84.532 44.6891C84.7127 44.6891 84.8643 44.5436 84.8643 44.3572C84.8643 44.1709 84.7185 44.0253 84.532 44.0253C84.3454 44.0253 84.1996 44.1709 84.1996 44.3572C84.1996 44.5436 84.3454 44.6891 84.532 44.6891ZM85.8787 17.3392C85.8787 17.543 85.7155 17.706 85.5114 17.706C85.3074 17.706 85.1441 17.543 85.1441 17.3392C85.1441 17.1354 85.3074 16.9723 85.5114 16.9723C85.7155 16.9665 85.8787 17.1296 85.8787 17.3392ZM86.5317 46.6864C86.7124 46.6864 86.8582 46.5408 86.8582 46.3603C86.8582 46.1798 86.7124 46.0342 86.5317 46.0342C86.351 46.0342 86.2052 46.1798 86.2052 46.3603C86.2052 46.5408 86.351 46.6864 86.5317 46.6864ZM86.8757 16.3144C86.8757 16.5182 86.7124 16.6812 86.5084 16.6812C86.3043 16.6812 86.1411 16.5182 86.1411 16.3144C86.1411 16.1106 86.3043 15.9475 86.5084 15.9475C86.7124 15.9475 86.8757 16.1106 86.8757 16.3144ZM85.5231 45.679C85.698 45.679 85.8437 45.5335 85.8437 45.3588C85.8437 45.1841 85.698 45.0385 85.5231 45.0385C85.3482 45.0385 85.2024 45.1841 85.2024 45.3588C85.2024 45.5335 85.3482 45.679 85.5231 45.679ZM80.859 28.356C80.859 28.5307 80.7132 28.6763 80.5383 28.6763C80.3634 28.6763 80.2176 28.5307 80.2176 28.356C80.2176 28.1813 80.3634 28.0358 80.5383 28.0358C80.7132 28.0358 80.859 28.1813 80.859 28.356ZM87.5053 47.6763C87.6802 47.6763 87.826 47.5307 87.826 47.356C87.826 47.1813 87.6802 47.0358 87.5053 47.0358C87.3304 47.0358 87.1847 47.1813 87.1847 47.356C87.1847 47.5307 87.3304 47.6763 87.5053 47.6763ZM80.8356 34.3536C80.8356 34.5224 80.6957 34.6564 80.5325 34.6564C80.3692 34.6564 80.2293 34.5224 80.2293 34.3536C80.2293 34.1847 80.3634 34.0508 80.5325 34.0508C80.7074 34.0508 80.8356 34.1905 80.8356 34.3536ZM81.5353 25.66C81.7043 25.66 81.8384 25.5203 81.8384 25.3573C81.8384 25.1942 81.6985 25.0545 81.5353 25.0545C81.372 25.0545 81.2321 25.1942 81.2321 25.3573C81.2321 25.5203 81.3662 25.66 81.5353 25.66ZM80.8356 30.3591C80.8356 30.5221 80.7015 30.6561 80.5383 30.6561C80.3751 30.6561 80.241 30.5221 80.241 30.3591C80.241 30.196 80.3751 30.0621 80.5383 30.0621C80.7015 30.0621 80.8356 30.196 80.8356 30.3591ZM92.6009 10.9515C92.7291 10.9515 92.8341 10.8467 92.8341 10.7128C92.8341 10.5788 92.7291 10.4798 92.6009 10.4798C92.4668 10.4798 92.3677 10.5847 92.3677 10.7128C92.3677 10.8467 92.4726 10.9515 92.6009 10.9515ZM95.8016 11.1553C95.8016 11.3067 95.6792 11.429 95.5276 11.429C95.376 11.429 95.2536 11.3067 95.2536 11.1553C95.2536 11.0039 95.376 10.8816 95.5276 10.8816C95.6792 10.8874 95.8016 11.0039 95.8016 11.1553ZM80.5441 32.6591C80.7074 32.6591 80.8415 32.5252 80.8415 32.3622C80.8415 32.1991 80.7074 32.0652 80.5441 32.0652C80.3809 32.0652 80.2468 32.1991 80.2468 32.3622C80.2468 32.5252 80.3809 32.6591 80.5441 32.6591ZM82.8179 40.3686C82.8179 40.5258 82.6896 40.6597 82.5264 40.6597C82.3631 40.6597 82.2349 40.5316 82.2349 40.3686C82.2349 40.2055 82.3631 40.0774 82.5264 40.0774C82.6896 40.0774 82.8179 40.2055 82.8179 40.3686ZM81.5469 37.6377C81.6985 37.6377 81.8209 37.5154 81.8209 37.364C81.8209 37.2126 81.6985 37.0903 81.5469 37.0903C81.3953 37.0903 81.2729 37.2126 81.2729 37.364C81.2729 37.5154 81.3953 37.6377 81.5469 37.6377ZM81.8034 27.3661C81.8034 27.5117 81.6868 27.6282 81.5411 27.6282C81.3953 27.6282 81.2787 27.5117 81.2787 27.3661C81.2787 27.2206 81.3953 27.1041 81.5411 27.1041C81.6868 27.1041 81.8034 27.2206 81.8034 27.3661ZM83.5292 41.6205C83.6749 41.6205 83.7915 41.504 83.7915 41.3585C83.7915 41.2129 83.6749 41.0964 83.5292 41.0964C83.3834 41.0964 83.2668 41.2129 83.2668 41.3585C83.2668 41.504 83.3834 41.6205 83.5292 41.6205ZM81.7801 35.3609C81.7801 35.4949 81.6694 35.6055 81.5411 35.6055C81.407 35.6055 81.2962 35.4949 81.2962 35.3609C81.2962 35.227 81.407 35.1164 81.5411 35.1164C81.6752 35.1164 81.7801 35.227 81.7801 35.3609ZM82.4739 24.5653C82.5905 24.5653 82.678 24.4722 82.678 24.3615C82.678 24.2451 82.5847 24.1577 82.4739 24.1577C82.3631 24.1577 82.2699 24.2509 82.2699 24.3615C82.2699 24.4722 82.3573 24.5653 82.4739 24.5653ZM84.771 42.3542C84.771 42.4881 84.666 42.5871 84.5378 42.5871C84.4037 42.5871 84.2987 42.4823 84.2987 42.3542C84.2987 42.2203 84.4037 42.1154 84.5378 42.1154C84.666 42.1213 84.771 42.2261 84.771 42.3542ZM82.5264 38.5868C82.6546 38.5868 82.7538 38.482 82.7538 38.3539C82.7538 38.2258 82.6488 38.1268 82.5264 38.1268C82.3981 38.1268 82.2932 38.2316 82.2932 38.3539C82.299 38.4878 82.3981 38.5868 82.5264 38.5868ZM81.7685 29.3517C81.7685 29.4798 81.6635 29.5788 81.5411 29.5788C81.4128 29.5788 81.3079 29.474 81.3079 29.3517C81.3079 29.2295 81.4128 29.1188 81.5411 29.1188C81.6694 29.1246 81.7685 29.2295 81.7685 29.3517ZM81.5411 33.5733C81.6635 33.5733 81.7626 33.4743 81.7626 33.352C81.7626 33.2239 81.6635 33.1308 81.5411 33.1308C81.4128 33.1308 81.3195 33.2298 81.3195 33.352C81.3195 33.4801 81.4128 33.5733 81.5411 33.5733ZM85.7505 43.3557C85.7505 43.478 85.6513 43.577 85.5289 43.577C85.4006 43.577 85.3074 43.478 85.3074 43.3557C85.3074 43.2276 85.4065 43.1344 85.5289 43.1344C85.6513 43.1286 85.7505 43.2276 85.7505 43.3557ZM81.5411 31.5644C81.6635 31.5644 81.7568 31.4654 81.7568 31.349C81.7568 31.2267 81.6577 31.1335 81.5411 31.1335C81.4187 31.1335 81.3254 31.2325 81.3254 31.349C81.3254 31.4713 81.4187 31.5644 81.5411 31.5644ZM83.7157 39.3496C83.7157 39.4544 83.6283 39.5417 83.5233 39.5417C83.4126 39.5417 83.3309 39.4544 83.3309 39.3496C83.3309 39.2389 83.4184 39.1574 83.5233 39.1574C83.6283 39.1574 83.7157 39.2389 83.7157 39.3496ZM97.7139 10.014C97.7139 10.0955 97.6556 10.1538 97.574 10.1538C97.4982 10.1538 97.4341 10.0955 97.4341 10.014C97.4341 9.93832 97.4924 9.87427 97.574 9.87427C97.6556 9.87427 97.7139 9.9325 97.7139 10.014ZM95.5218 10.3634C95.5976 10.3634 95.6617 10.3052 95.6617 10.2236C95.6617 10.1421 95.6034 10.0839 95.5218 10.0839C95.4402 10.0839 95.3819 10.1421 95.3819 10.2236C95.3819 10.3052 95.446 10.3634 95.5218 10.3634ZM94.7872 11.429C94.7872 11.528 94.7056 11.6037 94.6123 11.6037C94.5132 11.6037 94.4374 11.528 94.4374 11.429C94.4374 11.33 94.5132 11.2543 94.6123 11.2543C94.7114 11.2543 94.7872 11.33 94.7872 11.429ZM90.1114 52.7247C90.2163 52.7247 90.2921 52.6374 90.2921 52.5442C90.2921 52.4452 90.2047 52.3637 90.1114 52.3637C90.0123 52.3637 89.9307 52.451 89.9307 52.5442C89.9248 52.6432 90.0123 52.7247 90.1114 52.7247ZM82.7304 36.3625C82.7304 36.4673 82.643 36.5488 82.5439 36.5488C82.4389 36.5488 82.3573 36.4614 82.3573 36.3625C82.3573 36.2576 82.4448 36.1761 82.5439 36.1761C82.643 36.1761 82.7304 36.2576 82.7304 36.3625ZM84.5261 40.5258C84.6194 40.5258 84.6894 40.4559 84.6894 40.3628C84.6894 40.2754 84.6194 40.1997 84.5261 40.1997C84.4328 40.1997 84.3629 40.2696 84.3629 40.3628C84.3629 40.4501 84.4328 40.5258 84.5261 40.5258ZM82.2932 34.5224C82.2932 34.6156 82.2232 34.6855 82.1299 34.6855C82.0366 34.6855 81.9667 34.6156 81.9667 34.5224C81.9667 34.4293 82.0366 34.3594 82.1299 34.3594C82.2232 34.3594 82.2932 34.4351 82.2932 34.5224ZM82.5206 32.3622C82.608 32.3622 82.678 32.2981 82.678 32.2049C82.678 32.1118 82.6138 32.0477 82.5206 32.0477C82.4273 32.0477 82.3631 32.1118 82.3631 32.2049C82.3631 32.2923 82.4331 32.3622 82.5206 32.3622ZM82.8587 33.4394C82.8587 33.5151 82.8004 33.5791 82.7188 33.5791C82.6372 33.5791 82.5789 33.5209 82.5789 33.4394C82.5789 33.3637 82.6372 33.2996 82.7188 33.2996C82.8004 33.3055 82.8587 33.3637 82.8587 33.4394ZM83.2027 34.7146C83.2901 34.7146 83.3601 34.6505 83.3601 34.5574C83.3601 34.47 83.296 34.4002 83.2027 34.4002C83.1094 34.4002 83.0453 34.4642 83.0453 34.5574C83.0453 34.6447 83.1094 34.7146 83.2027 34.7146ZM82.6313 30.3707C82.6313 30.4406 82.573 30.5047 82.5031 30.5047C82.4389 30.5047 82.3748 30.4464 82.3748 30.3707C82.3748 30.3009 82.4331 30.2426 82.5031 30.2426C82.573 30.2426 82.6313 30.3009 82.6313 30.3707ZM83.5408 37.5037C83.6166 37.5037 83.6866 37.4397 83.6866 37.3582C83.6866 37.2766 83.6225 37.2126 83.5408 37.2126C83.4592 37.2126 83.3951 37.2766 83.3951 37.3582C83.3951 37.4397 83.4592 37.5037 83.5408 37.5037ZM86.5725 44.3747C86.5725 44.4504 86.5142 44.5145 86.4326 44.5145C86.3568 44.5145 86.2927 44.4562 86.2927 44.3747C86.2927 44.2932 86.351 44.235 86.4326 44.235C86.5142 44.235 86.5725 44.299 86.5725 44.3747ZM82.3398 26.3821C82.4214 26.3821 82.4797 26.3238 82.4797 26.2423C82.4797 26.1666 82.4214 26.1026 82.3398 26.1026C82.264 26.1026 82.1999 26.1608 82.1999 26.2423C82.1999 26.3238 82.264 26.3821 82.3398 26.3821ZM87.7094 12.1627C87.7094 12.2384 87.6511 12.3024 87.5695 12.3024C87.4878 12.3024 87.4295 12.2442 87.4295 12.1627C87.4295 12.0811 87.4878 12.0229 87.5695 12.0229C87.6511 12.0229 87.7094 12.0811 87.7094 12.1627ZM83.1619 21.4443C83.2377 21.4443 83.3018 21.3861 83.3018 21.3045C83.3018 21.223 83.2435 21.1648 83.1619 21.1648C83.0802 21.1648 83.0219 21.223 83.0219 21.3045C83.0219 21.3802 83.0861 21.4443 83.1619 21.4443ZM91.3474 13.0186C91.3474 13.1176 91.2716 13.1933 91.1725 13.1933C91.0734 13.1933 90.9976 13.1118 90.9976 13.0186C90.9976 12.9196 91.0734 12.8439 91.1725 12.8439C91.2716 12.8439 91.3474 12.9254 91.3474 13.0186ZM82.3398 28.5715C82.4214 28.5715 82.4797 28.5132 82.4797 28.4317C82.4797 28.3502 82.4214 28.292 82.3398 28.292C82.264 28.292 82.1999 28.3502 82.1999 28.4317C82.1999 28.5132 82.264 28.5715 82.3398 28.5715ZM83.4825 36.1703C83.5642 36.1703 83.6225 36.1121 83.6225 36.0306C83.6225 35.9549 83.5642 35.8908 83.4825 35.8908C83.4067 35.8908 83.3426 35.949 83.3426 36.0306C83.3484 36.1063 83.4067 36.1703 83.4825 36.1703ZM84.2929 38.5926C84.2929 38.6683 84.2346 38.7324 84.153 38.7324C84.0772 38.7324 84.0131 38.6741 84.0131 38.5926C84.0131 38.5111 84.0714 38.4529 84.153 38.4529C84.2288 38.4529 84.2929 38.5169 84.2929 38.5926ZM85.3015 42.2668C85.3773 42.2668 85.4415 42.2086 85.4415 42.1271C85.4415 42.0514 85.3832 41.9873 85.3015 41.9873C85.2199 41.9873 85.1616 42.0456 85.1616 42.1271C85.1616 42.2028 85.2199 42.2668 85.3015 42.2668ZM85.3365 41.2245C85.3365 41.3061 85.2782 41.3643 85.1966 41.3643C85.1208 41.3643 85.0567 41.3061 85.0567 41.2245C85.0567 41.1488 85.115 41.0848 85.1966 41.0848C85.2782 41.0848 85.3365 41.1488 85.3365 41.2245ZM86.7124 45.5684C86.7882 45.5684 86.8524 45.5102 86.8524 45.4286C86.8524 45.353 86.794 45.2889 86.7124 45.2889C86.6308 45.2889 86.5725 45.3471 86.5725 45.4286C86.5725 45.5043 86.6308 45.5684 86.7124 45.5684ZM88.2458 48.6021C88.2458 48.6778 88.1875 48.7419 88.1058 48.7419C88.03 48.7419 87.9659 48.6836 87.9659 48.6021C87.9659 48.5206 88.0242 48.4624 88.1058 48.4624C88.1816 48.4624 88.2458 48.5264 88.2458 48.6021ZM88.5956 49.6793C88.6772 49.6793 88.7355 49.6211 88.7355 49.5396C88.7355 49.4639 88.6772 49.3998 88.5956 49.3998C88.5198 49.3998 88.4556 49.4581 88.4556 49.5396C88.4556 49.6211 88.5139 49.6793 88.5956 49.6793ZM80.8706 17.4615C80.8706 17.3392 80.7715 17.246 80.6549 17.246C80.5325 17.246 80.4392 17.345 80.4392 17.4615C80.4392 17.5837 80.5383 17.6769 80.6549 17.6769C80.7715 17.6827 80.8706 17.5837 80.8706 17.4615ZM79.8737 18.4339C79.8737 18.3058 79.7687 18.2126 79.6521 18.2126C79.5297 18.2126 79.4306 18.3174 79.4306 18.4339C79.4306 18.5562 79.5355 18.6551 79.6521 18.6551C79.7746 18.6551 79.8737 18.5503 79.8737 18.4339ZM78.8184 19.4471C78.8184 19.3597 78.7485 19.2898 78.661 19.2898C78.5735 19.2898 78.5036 19.3597 78.5036 19.4471C78.5036 19.5344 78.5735 19.6043 78.661 19.6043C78.7426 19.6043 78.8184 19.5344 78.8184 19.4471ZM77.8973 22.44C77.8973 22.3177 77.7981 22.2187 77.6757 22.2187C77.5474 22.2187 77.4542 22.3177 77.4542 22.44C77.4542 22.5681 77.5533 22.6613 77.6757 22.6613C77.7981 22.6671 77.8973 22.5681 77.8973 22.44ZM76.8362 23.4357C76.8362 23.3367 76.7604 23.261 76.6613 23.261C76.5621 23.261 76.4864 23.3367 76.4864 23.4357C76.4864 23.5347 76.568 23.6104 76.6613 23.6104C76.7604 23.6104 76.8362 23.5289 76.8362 23.4357ZM76.9644 25.4271C76.9644 25.2699 76.8362 25.1418 76.6788 25.1418C76.5213 25.1418 76.3931 25.2699 76.3931 25.4271C76.3931 25.5843 76.5213 25.7124 76.6788 25.7124C76.8362 25.7124 76.9644 25.5843 76.9644 25.4271ZM75.7926 26.4112C75.7926 26.3413 75.7343 26.2714 75.6526 26.2714C75.571 26.2714 75.5127 26.3297 75.5127 26.4112C75.5127 26.4869 75.571 26.5509 75.6526 26.5509C75.7343 26.5451 75.7926 26.4869 75.7926 26.4112ZM75.88 28.391C75.88 28.2803 75.7926 28.1988 75.6876 28.1988C75.5769 28.1988 75.4952 28.2862 75.4952 28.391C75.4952 28.5016 75.5827 28.5831 75.6876 28.5831C75.7926 28.5831 75.88 28.5016 75.88 28.391ZM75.9616 30.3824C75.9616 30.2368 75.845 30.1204 75.6993 30.1204C75.5535 30.1204 75.4369 30.2368 75.4369 30.3824C75.4369 30.528 75.5535 30.6444 75.6993 30.6444C75.8509 30.6444 75.9616 30.528 75.9616 30.3824ZM75.5127 38.3248C75.5127 38.3888 75.5652 38.447 75.6352 38.447C75.7051 38.447 75.7576 38.3946 75.7576 38.3248C75.7576 38.2607 75.7051 38.2025 75.6352 38.2025C75.5652 38.2025 75.5127 38.2549 75.5127 38.3248ZM75.4836 36.3392C75.4836 36.444 75.5652 36.5197 75.6643 36.5197C75.7692 36.5197 75.845 36.444 75.845 36.3392C75.845 36.2344 75.7692 36.1587 75.6643 36.1587C75.5652 36.1587 75.4836 36.2344 75.4836 36.3392ZM75.4719 34.3536C75.4719 34.4875 75.5769 34.5923 75.7051 34.5923C75.8334 34.5923 75.9441 34.4875 75.9441 34.3536C75.9441 34.2196 75.8392 34.1207 75.7051 34.1207C75.571 34.1207 75.4719 34.2196 75.4719 34.3536ZM75.4719 32.368C75.4719 32.5077 75.5885 32.6242 75.7284 32.6242C75.8684 32.6242 75.985 32.5077 75.985 32.368C75.985 32.2282 75.8684 32.1118 75.7284 32.1118C75.5885 32.1118 75.4719 32.2282 75.4719 32.368ZM76.4922 41.3061C76.4922 41.3701 76.5447 41.4283 76.6146 41.4283C76.6788 41.4283 76.737 41.3759 76.737 41.3061C76.737 41.2362 76.6846 41.1838 76.6146 41.1838C76.5447 41.1838 76.4922 41.2362 76.4922 41.3061ZM76.4397 39.3146C76.4397 39.4544 76.5505 39.565 76.6904 39.565C76.8303 39.565 76.9353 39.4544 76.9353 39.3146C76.9353 39.1749 76.8245 39.0643 76.6904 39.0643C76.5505 39.0643 76.4397 39.1749 76.4397 39.3146ZM77.4891 44.3281C77.4891 44.3689 77.5241 44.4038 77.5708 44.4038C77.6116 44.4038 77.6466 44.3689 77.6466 44.3281C77.6466 44.2874 77.6116 44.2524 77.5708 44.2524C77.5241 44.2466 77.4891 44.2874 77.4891 44.3281ZM77.4367 42.2843C77.4367 42.4241 77.5474 42.5347 77.6874 42.5347C77.8273 42.5347 77.9322 42.4241 77.9322 42.2843C77.9322 42.1446 77.8215 42.0339 77.6874 42.0339C77.5474 42.0339 77.4367 42.1446 77.4367 42.2843ZM78.5211 45.2947C78.5211 45.3355 78.5561 45.3704 78.5969 45.3704C78.6377 45.3704 78.6785 45.3355 78.6785 45.2947C78.6785 45.254 78.6435 45.219 78.5969 45.219C78.5502 45.219 78.5211 45.254 78.5211 45.2947ZM78.4161 43.2858C78.4161 43.4139 78.5211 43.5071 78.6377 43.5071C78.7601 43.5071 78.8592 43.4023 78.8592 43.2858C78.8592 43.1636 78.7543 43.0646 78.6377 43.0646C78.5211 43.0646 78.4161 43.1694 78.4161 43.2858ZM79.4889 46.273C79.4889 46.3428 79.5472 46.4069 79.623 46.4069C79.6929 46.4069 79.7571 46.3487 79.7571 46.273C79.7571 46.2031 79.6988 46.139 79.623 46.139C79.5472 46.1449 79.4889 46.2031 79.4889 46.273ZM80.4683 47.2221C80.4683 47.3153 80.5383 47.3851 80.6316 47.3851C80.7249 47.3851 80.7948 47.3153 80.7948 47.2221C80.7948 47.1289 80.7249 47.059 80.6316 47.059C80.5441 47.059 80.4683 47.1348 80.4683 47.2221ZM81.4478 48.2411C81.4478 48.3517 81.5353 48.4332 81.6402 48.4332C81.751 48.4332 81.8326 48.3459 81.8326 48.2411C81.8326 48.1305 81.7451 48.0489 81.6402 48.0489C81.5353 48.0489 81.4478 48.1305 81.4478 48.2411ZM82.4797 49.231C82.4797 49.3358 82.5672 49.4115 82.6605 49.4115C82.7596 49.4115 82.8412 49.3241 82.8412 49.231C82.8412 49.132 82.7538 49.0505 82.6605 49.0505C82.5614 49.0505 82.4797 49.1378 82.4797 49.231ZM83.4592 50.215C83.4592 50.314 83.5408 50.3897 83.6341 50.3897C83.7332 50.3897 83.809 50.314 83.809 50.215C83.809 50.1161 83.7332 50.0404 83.6341 50.0404C83.5408 50.0404 83.4592 50.1219 83.4592 50.215ZM84.4795 51.2399C84.4795 51.3272 84.5436 51.3971 84.6369 51.3971C84.7302 51.3971 84.7943 51.333 84.7943 51.2399C84.7943 51.1467 84.7302 51.0826 84.6369 51.0826C84.5436 51.0826 84.4795 51.1467 84.4795 51.2399ZM85.4823 52.2472C85.4823 52.3113 85.5347 52.3695 85.6047 52.3695C85.6688 52.3695 85.7271 52.3171 85.7271 52.2472C85.7271 52.1832 85.6747 52.1249 85.6047 52.1249C85.5347 52.1308 85.4823 52.1832 85.4823 52.2472ZM86.4967 53.2837C86.4967 53.3245 86.5317 53.3594 86.5725 53.3594C86.6133 53.3594 86.6483 53.3245 86.6483 53.2837C86.6483 53.2429 86.6133 53.2022 86.5725 53.2022C86.5317 53.2022 86.4967 53.2429 86.4967 53.2837ZM88.3332 53.1847C88.3332 53.3361 88.4556 53.4584 88.6072 53.4584C88.7588 53.4584 88.8812 53.3361 88.8812 53.1847C88.8812 53.0333 88.7588 52.911 88.6072 52.911C88.4556 52.9169 88.3332 53.0333 88.3332 53.1847ZM89.4176 54.227C89.4176 54.3202 89.4876 54.3842 89.575 54.3842C89.6625 54.3842 89.7324 54.3143 89.7324 54.227C89.7324 54.1396 89.6625 54.0698 89.575 54.0698C89.4934 54.0698 89.4176 54.1455 89.4176 54.227Z" fill="url(#paint0_linear_751_13759)"/>
<path d="M4.29146 79.079C3.76092 77.8155 3.23621 76.9187 2.72316 76.3889C2.2101 75.859 1.59211 75.5504 0.875 75.4572V74.7701L2.32088 74.7061C3.84254 74.7061 5.17182 74.9972 6.33201 75.5737C7.48055 76.1501 8.42504 77.3205 9.16546 79.0907L14.6225 91.9883L21.9043 75.0496H23.665L13.7188 98.1605H12.3371L4.29146 79.079Z" fill="url(#paint1_linear_751_13759)"/>
<path d="M27.6717 97.4094C27.2344 97.1416 26.9196 96.6932 26.7388 96.0585C26.5581 95.4238 26.459 94.5097 26.459 93.316V75.0264H30.9482V93.316C30.9482 94.4864 31.1114 95.354 31.4321 95.9246C31.7528 96.4952 32.3999 96.7689 33.3677 96.7689H33.7117V97.8054H29.5723C28.7444 97.8054 28.1089 97.6715 27.6717 97.4036V97.4094Z" fill="url(#paint2_linear_751_13759)"/>
<path d="M39.3479 80.7328V97.8112H37.6222V79.1839C37.6222 78.2173 37.389 77.4604 36.9109 76.9014C36.4387 76.3482 35.64 76.0745 34.5147 76.0745H34.3398V75.0381H36.7535C38.042 75.0381 39.0972 75.2011 39.9135 75.533C40.7297 75.8649 41.4118 76.3831 41.9715 77.0993L53.8533 90.8995V75.0322H55.5791V97.9102H53.9933L39.3538 80.727H39.3479V80.7328Z" fill="url(#paint3_linear_751_13759)"/>
<path d="M64.6747 96.9666C62.9549 95.9476 61.6547 94.5501 60.7511 92.7741C59.8532 91.004 59.4043 89.0067 59.4043 86.7707C59.4043 84.5348 59.8999 82.3745 60.8852 80.4762C61.8763 78.578 63.2405 77.0815 64.9779 75.9926C66.7153 74.8979 68.6509 74.3506 70.7964 74.3506C72.8195 74.3506 74.516 74.6126 75.8686 75.125C77.2271 75.6374 78.2648 76.3187 78.9761 77.1456C79.3959 77.6754 79.6466 78.3334 79.734 79.1137C79.8331 79.894 79.8739 80.9886 79.8739 82.392H78.8362C78.3989 80.2724 77.5885 78.6653 76.4225 77.559C75.2448 76.4526 73.7231 75.9053 71.8283 75.9053C69.4788 75.9053 67.6248 76.7321 66.2722 78.3858C64.908 80.0453 64.2317 82.8345 64.2317 86.7649C64.2317 89.688 64.8496 92.1103 66.0973 94.0435C67.3391 95.9709 69.2514 96.9375 71.8342 96.9375C73.4433 96.9375 74.93 96.5124 76.2709 95.6623C77.6235 94.8121 78.7079 93.5893 79.5358 92.0055L80.7485 92.9372C79.6407 94.8703 78.3056 96.2795 76.7373 97.1646C75.169 98.0555 73.1868 98.498 70.7964 98.498C68.406 98.498 66.383 97.9856 64.6689 96.9608L64.6747 96.9666Z" fill="url(#paint4_linear_751_13759)"/>
<path d="M84.865 79.5217C84.865 78.3454 84.7018 77.4836 84.3811 76.913C84.0605 76.3482 83.4133 76.0687 82.4455 76.0687H82.1016V75.0322H86.241C87.0688 75.0322 87.7043 75.172 88.1416 75.4515C88.5789 75.731 88.8937 76.1852 89.0744 76.814C89.2551 77.4487 89.3543 78.3513 89.3543 79.5217V96.2565H101.271V97.8054H84.865V79.5158V79.5217Z" fill="url(#paint5_linear_751_13759)"/>
<path d="M102.505 87.877V79.5329C102.505 78.3567 102.342 77.4949 102.022 76.9242C101.701 76.3594 101.054 76.0799 100.092 76.0799V75.0435H103.893C104.721 75.0435 105.356 75.1832 105.794 75.4569C106.231 75.7305 106.546 76.1906 106.726 76.8253C106.907 77.4599 107.006 78.3567 107.006 79.5329L107.041 88.9193C107.065 91.3591 107.537 93.2515 108.47 94.5908C109.403 95.9417 110.755 96.6113 112.527 96.6113C114.877 96.6113 116.585 95.9184 117.658 94.5267C118.731 93.1351 119.261 90.9224 119.261 87.8887V75.0551H120.987V87.8887C120.987 91.2718 120.27 93.828 118.842 95.5632C117.413 97.2984 115.075 98.1719 111.828 98.1719C105.613 98.1719 102.505 94.7422 102.505 87.8887H102.5L102.505 87.877Z" fill="url(#paint6_linear_751_13759)"/>
<path d="M126.584 79.5217C126.584 78.3454 126.421 77.4836 126.1 76.913C125.779 76.3482 125.132 76.0687 124.164 76.0687H123.82V75.0322H133.143C136.04 75.0322 138.466 75.434 140.413 76.2434C142.354 77.0469 143.334 78.654 143.334 81.0764C143.334 82.1361 142.914 83.1318 142.074 84.0635C141.235 84.9951 140.051 85.6531 138.541 86.0491C142.43 86.4392 144.377 88.2559 144.377 91.4993C144.377 93.8925 143.421 95.5403 141.509 96.4545C139.597 97.3687 137.154 97.8171 134.186 97.8171H126.584V79.5217ZM133.662 85.362C135.16 85.362 136.338 85.0126 137.206 84.308C138.069 83.6035 138.501 82.468 138.501 80.9133C138.501 79.3586 137.988 78.1824 136.967 77.4837C135.947 76.7849 134.67 76.4297 133.154 76.4297C132.536 76.4297 132.047 76.4705 131.708 76.5695L131.091 76.6743V85.3678H133.679L133.662 85.362ZM133.662 96.4254C135.568 96.4254 137.031 96.012 138.028 95.1793C139.025 94.3467 139.533 93.1763 139.533 91.6623C139.533 88.4889 137.579 86.905 133.662 86.905H131.067V96.076C131.324 96.1692 131.551 96.2274 131.755 96.2507C132.262 96.3672 132.84 96.4254 133.481 96.4254H133.662Z" fill="url(#paint7_linear_751_13759)"/>
<defs>
<linearGradient id="paint0_linear_751_13759" x1="13.2009" y1="-6.30129" x2="160.034" y2="86.4196" gradientUnits="userSpaceOnUse">
<stop offset="0.0121" stop-color="#B38863"/>
<stop offset="0.5221" stop-color="#F6ECBB"/>
<stop offset="1" stop-color="#B38863"/>
</linearGradient>
<linearGradient id="paint1_linear_751_13759" x1="-27.4044" y1="58.0012" x2="119.429" y2="150.722" gradientUnits="userSpaceOnUse">
<stop offset="0.0121" stop-color="#B38863"/>
<stop offset="0.5221" stop-color="#F6ECBB"/>
<stop offset="1" stop-color="#B38863"/>
</linearGradient>
<linearGradient id="paint2_linear_751_13759" x1="-24.0127" y1="52.6322" x2="122.82" y2="145.353" gradientUnits="userSpaceOnUse">
<stop offset="0.0121" stop-color="#B38863"/>
<stop offset="0.5221" stop-color="#F6ECBB"/>
<stop offset="1" stop-color="#B38863"/>
</linearGradient>
<linearGradient id="paint3_linear_751_13759" x1="-19.1854" y1="44.9854" x2="127.648" y2="137.706" gradientUnits="userSpaceOnUse">
<stop offset="0.0121" stop-color="#B38863"/>
<stop offset="0.5221" stop-color="#F6ECBB"/>
<stop offset="1" stop-color="#B38863"/>
</linearGradient>
<linearGradient id="paint4_linear_751_13759" x1="-12.2235" y1="33.9611" x2="134.61" y2="126.682" gradientUnits="userSpaceOnUse">
<stop offset="0.0121" stop-color="#B38863"/>
<stop offset="0.5221" stop-color="#F6ECBB"/>
<stop offset="1" stop-color="#B38863"/>
</linearGradient>
<linearGradient id="paint5_linear_751_13759" x1="-7.92307" y1="27.1521" x2="138.91" y2="119.873" gradientUnits="userSpaceOnUse">
<stop offset="0.0121" stop-color="#B38863"/>
<stop offset="0.5221" stop-color="#F6ECBB"/>
<stop offset="1" stop-color="#B38863"/>
</linearGradient>
<linearGradient id="paint6_linear_751_13759" x1="0.115865" y1="14.4187" x2="146.949" y2="107.14" gradientUnits="userSpaceOnUse">
<stop offset="0.0121" stop-color="#B38863"/>
<stop offset="0.5221" stop-color="#F6ECBB"/>
<stop offset="1" stop-color="#B38863"/>
</linearGradient>
<linearGradient id="paint7_linear_751_13759" x1="5.29002" y1="6.225" x2="152.123" y2="98.9459" gradientUnits="userSpaceOnUse">
<stop offset="0.0121" stop-color="#B38863"/>
<stop offset="0.5221" stop-color="#F6ECBB"/>
<stop offset="1" stop-color="#B38863"/>
</linearGradient>
</defs>
</svg>
